<svg width="545" height="323" viewBox="0 0 545 323" fill="none" xmlns="http://www.w3.org/2000/svg">
<path fill-rule="evenodd" clip-rule="evenodd" d="M274.189 133.24C294.969 141.86 310.509 144.05 326.389 159.24C329.769 170.8 331.759 182.84 335.289 198.53C319.439 180.13 302.539 169.25 265.189 165.2C268.339 157.79 272.689 142.52 274.189 133.24Z" fill="url(#paint0_linear)"/>
<path fill-rule="evenodd" clip-rule="evenodd" d="M189.789 166.751C198.839 156.751 212.009 131.751 214.439 118.981L246.989 116.131C244.219 125.341 235.309 144.431 226.409 162.131C212.409 167.711 198.659 170.621 189.789 166.741V166.751Z" fill="url(#paint1_linear)"/>
<path fill-rule="evenodd" clip-rule="evenodd" d="M214.44 118.979C204.89 114.679 174.44 102.039 165.18 76.4395C176.11 81.9495 191.48 86.3595 207.55 88.7695C219.55 100.969 238.76 112.119 246.99 116.129L214.44 118.979Z" fill="url(#paint2_linear)"/>
<path fill-rule="evenodd" clip-rule="evenodd" d="M244.569 65.76C246.619 59.58 251.369 22.27 251.399 0C257.799 20.82 263.719 37.64 269.909 52.88C267.564 64.7404 264.243 76.3867 259.979 87.7C257.159 82.05 248.759 70.65 244.569 65.76Z" fill="url(#paint3_linear)"/>
<path fill-rule="evenodd" clip-rule="evenodd" d="M302.839 57.4297C318.139 64.1797 339.289 61.4297 358.229 59.5197C353.599 71.2697 349.609 79.9297 343.989 86.7697C327.829 88.8797 307.869 88.7697 285.109 86.4597L302.839 57.4597V57.4297ZM378.309 68.6497C379.989 69.1497 381.669 69.6497 383.359 70.2597C381.499 69.6797 379.849 69.1597 378.309 68.6497V68.6497Z" fill="url(#paint4_linear)"/>
<path fill-rule="evenodd" clip-rule="evenodd" d="M201.45 315.829H213.45C213.681 315.853 213.915 315.825 214.134 315.747C214.353 315.668 214.551 315.542 214.715 315.377C214.879 315.212 215.004 315.013 215.081 314.794C215.158 314.574 215.185 314.34 215.16 314.109V292.109C215.163 292.064 215.156 292.018 215.14 291.976C215.124 291.933 215.099 291.895 215.067 291.862C215.035 291.83 214.996 291.805 214.953 291.789C214.911 291.773 214.865 291.766 214.82 291.769H213.45C213.404 291.767 213.358 291.773 213.315 291.789C213.272 291.805 213.233 291.83 213.2 291.862C213.167 291.894 213.141 291.933 213.124 291.975C213.106 292.018 213.098 292.063 213.1 292.109V313.959H206.65V292.059C206.651 292.013 206.643 291.968 206.626 291.925C206.609 291.883 206.583 291.844 206.55 291.812C206.517 291.78 206.478 291.755 206.435 291.739C206.392 291.723 206.346 291.717 206.3 291.719H204.93C204.884 291.717 204.838 291.723 204.795 291.739C204.752 291.755 204.713 291.78 204.68 291.812C204.647 291.844 204.621 291.883 204.604 291.925C204.586 291.968 204.578 292.013 204.58 292.059V313.909H201.45C200.969 313.891 200.497 313.775 200.061 313.57C199.626 313.364 199.237 313.073 198.916 312.714C198.596 312.354 198.352 311.934 198.198 311.478C198.044 311.022 197.983 310.539 198.02 310.059V292.059C198.021 292.014 198.013 291.969 197.997 291.928C197.98 291.886 197.955 291.848 197.923 291.816C197.891 291.784 197.853 291.759 197.811 291.742C197.77 291.726 197.725 291.718 197.68 291.719H196.3C196.255 291.718 196.21 291.726 196.168 291.742C196.126 291.759 196.088 291.784 196.056 291.816C196.024 291.848 195.999 291.886 195.983 291.928C195.966 291.969 195.958 292.014 195.96 292.059V310.059C195.926 310.803 196.043 311.545 196.303 312.242C196.564 312.938 196.962 313.575 197.475 314.114C197.988 314.653 198.604 315.083 199.287 315.378C199.97 315.672 200.706 315.826 201.45 315.829V315.829ZM225.91 306.139L229.91 298.999C230.04 298.759 229.91 298.589 229.63 298.589H228.19C228.106 298.587 228.023 298.608 227.951 298.651C227.878 298.693 227.819 298.755 227.78 298.829L223.93 305.899H221.55V298.899C221.548 298.819 221.516 298.741 221.461 298.682C221.405 298.623 221.33 298.587 221.25 298.579H219.98C219.934 298.576 219.889 298.583 219.846 298.599C219.804 298.615 219.765 298.64 219.733 298.672C219.701 298.705 219.676 298.743 219.66 298.786C219.644 298.828 219.637 298.874 219.64 298.919V315.409C219.637 315.455 219.644 315.5 219.66 315.543C219.676 315.585 219.701 315.624 219.733 315.656C219.765 315.688 219.804 315.713 219.846 315.729C219.889 315.746 219.934 315.752 219.98 315.749H221.25C221.296 315.752 221.342 315.745 221.385 315.729C221.428 315.713 221.467 315.689 221.5 315.657C221.533 315.625 221.559 315.586 221.576 315.544C221.593 315.501 221.601 315.455 221.6 315.409V307.779H224.25C224.697 307.741 225.147 307.798 225.57 307.946C225.994 308.094 226.381 308.331 226.706 308.64C227.031 308.949 227.287 309.324 227.456 309.739C227.626 310.154 227.706 310.601 227.69 311.049V315.409C227.688 315.454 227.696 315.499 227.713 315.541C227.729 315.583 227.754 315.621 227.786 315.653C227.818 315.685 227.856 315.71 227.898 315.726C227.94 315.743 227.985 315.751 228.03 315.749H229.25C229.296 315.752 229.342 315.745 229.385 315.729C229.428 315.713 229.467 315.689 229.5 315.657C229.533 315.625 229.559 315.586 229.576 315.544C229.593 315.501 229.601 315.455 229.6 315.409V311.049C229.62 309.933 229.265 308.842 228.593 307.95C227.92 307.058 226.969 306.417 225.89 306.129L225.91 306.139ZM237.76 316.139C238.469 316.164 239.176 316.041 239.835 315.777C240.494 315.513 241.091 315.115 241.588 314.608C242.085 314.101 242.47 313.496 242.72 312.832C242.97 312.167 243.079 311.458 243.04 310.749V303.679C243.071 302.966 242.957 302.254 242.705 301.585C242.454 300.917 242.07 300.307 241.576 299.791C241.082 299.275 240.489 298.865 239.832 298.584C239.175 298.304 238.469 298.159 237.755 298.159C237.041 298.159 236.334 298.304 235.677 298.584C235.021 298.865 234.428 299.275 233.934 299.791C233.44 300.307 233.056 300.917 232.804 301.585C232.552 302.254 232.439 302.966 232.47 303.679V310.749C232.43 311.459 232.539 312.169 232.79 312.834C233.04 313.499 233.427 314.105 233.925 314.612C234.423 315.119 235.021 315.517 235.681 315.78C236.342 316.043 237.049 316.165 237.76 316.139V316.139ZM237.76 314.289C237.301 314.305 236.845 314.222 236.422 314.046C235.998 313.87 235.617 313.605 235.305 313.27C234.992 312.935 234.755 312.536 234.609 312.101C234.463 311.666 234.412 311.205 234.46 310.749V303.679C234.412 303.223 234.463 302.762 234.609 302.327C234.755 301.893 234.992 301.494 235.305 301.159C235.617 300.823 235.998 300.559 236.422 300.383C236.845 300.207 237.301 300.124 237.76 300.139C239.82 300.139 241.05 301.579 241.05 303.679V310.749C241.05 312.849 239.82 314.289 237.76 314.289ZM244.42 315.799C246.86 315.629 248.27 313.639 248.27 310.549V303.709C248.254 303.262 248.333 302.817 248.502 302.403C248.671 301.989 248.927 301.615 249.251 301.307C249.575 300.999 249.961 300.763 250.383 300.615C250.805 300.467 251.254 300.411 251.7 300.449H254.03V315.449C254.028 315.495 254.036 315.541 254.054 315.584C254.071 315.626 254.097 315.665 254.13 315.697C254.163 315.729 254.202 315.753 254.245 315.769C254.288 315.785 254.334 315.792 254.38 315.789H255.65C255.695 315.792 255.741 315.786 255.783 315.769C255.826 315.753 255.865 315.728 255.897 315.696C255.929 315.664 255.954 315.625 255.97 315.583C255.986 315.54 255.993 315.495 255.99 315.449V300.059C256.014 299.851 255.99 299.641 255.921 299.443C255.853 299.245 255.74 299.065 255.592 298.917C255.444 298.769 255.264 298.657 255.066 298.588C254.869 298.519 254.658 298.495 254.45 298.519H251.7C251.002 298.48 250.303 298.584 249.647 298.825C248.991 299.067 248.392 299.441 247.886 299.924C247.381 300.407 246.98 300.988 246.709 301.633C246.438 302.277 246.302 302.97 246.31 303.669V310.509C246.31 312.569 245.59 313.669 244.42 313.839C244.372 313.839 244.326 313.849 244.282 313.868C244.239 313.887 244.2 313.914 244.168 313.949C244.136 313.984 244.112 314.025 244.097 314.07C244.081 314.115 244.076 314.162 244.08 314.209V315.419C244.077 315.465 244.084 315.51 244.1 315.553C244.116 315.595 244.141 315.634 244.173 315.666C244.205 315.698 244.244 315.723 244.286 315.739C244.329 315.756 244.374 315.762 244.42 315.759V315.799ZM264.82 316.109C265.522 316.142 266.224 316.026 266.879 315.768C267.534 315.511 268.127 315.119 268.619 314.616C269.112 314.114 269.493 313.514 269.738 312.854C269.983 312.195 270.086 311.491 270.04 310.789V303.579C270.087 302.879 269.986 302.177 269.743 301.519C269.501 300.86 269.123 300.26 268.633 299.757C268.144 299.254 267.554 298.86 266.902 298.601C266.25 298.341 265.551 298.221 264.85 298.249C261.85 298.249 259.98 300.379 259.8 303.249C259.797 303.296 259.804 303.343 259.82 303.387C259.837 303.43 259.863 303.47 259.896 303.503C259.929 303.536 259.969 303.562 260.012 303.579C260.056 303.595 260.103 303.602 260.15 303.599H261.42C261.63 303.599 261.73 303.489 261.76 303.249C261.745 302.836 261.814 302.424 261.963 302.039C262.112 301.653 262.338 301.302 262.627 301.007C262.916 300.711 263.262 300.477 263.644 300.32C264.026 300.162 264.436 300.084 264.85 300.089C265.296 300.074 265.741 300.155 266.153 300.326C266.566 300.496 266.938 300.753 267.243 301.078C267.549 301.404 267.782 301.791 267.926 302.214C268.07 302.636 268.123 303.085 268.08 303.529V305.759H264.75C264.079 305.73 263.409 305.836 262.78 306.07C262.151 306.305 261.576 306.664 261.089 307.126C260.602 307.588 260.213 308.144 259.945 308.759C259.677 309.375 259.536 310.038 259.53 310.709C259.496 311.414 259.609 312.119 259.863 312.778C260.116 313.437 260.504 314.035 261.002 314.536C261.499 315.036 262.096 315.428 262.753 315.685C263.411 315.942 264.115 316.059 264.82 316.029V316.109ZM264.82 314.219C264.367 314.245 263.914 314.174 263.491 314.009C263.069 313.845 262.686 313.591 262.37 313.266C262.055 312.94 261.812 312.551 261.66 312.123C261.508 311.696 261.45 311.241 261.49 310.789C261.48 310.367 261.559 309.948 261.722 309.559C261.885 309.17 262.128 308.819 262.436 308.531C262.743 308.242 263.109 308.021 263.507 307.883C263.906 307.745 264.329 307.693 264.75 307.729H268.08V310.789C268.123 311.236 268.07 311.687 267.924 312.111C267.778 312.536 267.542 312.924 267.233 313.249C266.924 313.574 266.549 313.829 266.132 313.997C265.716 314.164 265.268 314.24 264.82 314.219ZM286.7 315.869H289.79C289.999 315.894 290.211 315.87 290.409 315.801C290.608 315.731 290.788 315.618 290.936 315.468C291.084 315.319 291.197 315.138 291.265 314.939C291.333 314.74 291.355 314.528 291.33 314.319V298.929C291.333 298.884 291.326 298.838 291.31 298.796C291.294 298.753 291.269 298.715 291.237 298.682C291.205 298.65 291.166 298.625 291.123 298.609C291.081 298.593 291.035 298.586 290.99 298.589H289.72C289.674 298.586 289.629 298.593 289.586 298.609C289.544 298.625 289.505 298.65 289.473 298.682C289.441 298.715 289.416 298.753 289.4 298.796C289.384 298.838 289.377 298.884 289.38 298.929V313.929H286.7C286.254 313.969 285.804 313.914 285.381 313.767C284.958 313.621 284.571 313.386 284.245 313.079C283.919 312.772 283.662 312.4 283.49 311.986C283.319 311.572 283.237 311.127 283.25 310.679V298.929C283.251 298.884 283.243 298.839 283.227 298.798C283.21 298.756 283.185 298.718 283.153 298.686C283.121 298.654 283.083 298.629 283.042 298.612C283 298.596 282.955 298.588 282.91 298.589H281.65C281.604 298.587 281.558 298.593 281.515 298.609C281.472 298.625 281.433 298.65 281.4 298.682C281.367 298.714 281.341 298.753 281.324 298.795C281.306 298.838 281.298 298.883 281.3 298.929V310.679C281.293 311.379 281.43 312.072 281.703 312.717C281.975 313.361 282.377 313.943 282.883 314.426C283.389 314.908 283.989 315.282 284.646 315.524C285.302 315.765 286.001 315.869 286.7 315.829V315.869ZM303.8 298.969V305.969H297.8V298.969C297.801 298.923 297.793 298.878 297.776 298.835C297.759 298.793 297.733 298.754 297.7 298.722C297.667 298.69 297.628 298.665 297.585 298.649C297.542 298.633 297.496 298.627 297.45 298.629H296.18C296.135 298.628 296.09 298.636 296.048 298.652C296.006 298.669 295.968 298.694 295.936 298.726C295.904 298.758 295.879 298.796 295.863 298.838C295.846 298.88 295.838 298.924 295.84 298.969V315.459C295.838 315.504 295.846 315.549 295.863 315.591C295.879 315.633 295.904 315.671 295.936 315.703C295.968 315.735 296.006 315.76 296.048 315.776C296.09 315.793 296.135 315.801 296.18 315.799H297.45C297.496 315.802 297.542 315.795 297.585 315.779C297.628 315.763 297.667 315.739 297.7 315.707C297.733 315.675 297.759 315.636 297.776 315.594C297.793 315.551 297.801 315.505 297.8 315.459V307.799H303.8V315.459C303.798 315.504 303.806 315.549 303.823 315.591C303.839 315.633 303.864 315.671 303.896 315.703C303.928 315.735 303.966 315.76 304.008 315.776C304.05 315.793 304.095 315.801 304.14 315.799H305.41C305.456 315.802 305.502 315.795 305.545 315.779C305.588 315.763 305.627 315.739 305.66 315.707C305.693 315.675 305.719 315.636 305.736 315.594C305.753 315.551 305.761 315.505 305.76 315.459V298.929C305.761 298.883 305.753 298.838 305.736 298.795C305.719 298.753 305.693 298.714 305.66 298.682C305.627 298.65 305.588 298.625 305.545 298.609C305.502 298.593 305.456 298.587 305.41 298.589H304.14C304.095 298.588 304.05 298.596 304.008 298.612C303.966 298.629 303.928 298.654 303.896 298.686C303.864 298.718 303.839 298.756 303.823 298.798C303.806 298.839 303.798 298.884 303.8 298.929V298.969ZM314.72 316.139C315.43 316.165 316.138 316.043 316.798 315.78C317.459 315.517 318.057 315.119 318.555 314.612C319.052 314.105 319.439 313.499 319.69 312.834C319.94 312.169 320.049 311.459 320.01 310.749V303.679C320.01 302.276 319.452 300.931 318.46 299.939C317.468 298.947 316.123 298.389 314.72 298.389C313.317 298.389 311.971 298.947 310.979 299.939C309.987 300.931 309.43 302.276 309.43 303.679V310.749C309.39 311.459 309.499 312.169 309.75 312.834C310.001 313.499 310.387 314.105 310.885 314.612C311.383 315.119 311.981 315.517 312.641 315.78C313.302 316.043 314.009 316.165 314.72 316.139ZM314.72 314.289C314.261 314.305 313.805 314.222 313.382 314.046C312.958 313.87 312.577 313.605 312.265 313.27C311.952 312.935 311.715 312.536 311.569 312.101C311.423 311.666 311.372 311.205 311.42 310.749V303.679C311.384 303.224 311.443 302.767 311.593 302.336C311.743 301.905 311.98 301.509 312.29 301.174C312.6 300.839 312.976 300.572 313.394 300.389C313.812 300.207 314.263 300.112 314.72 300.112C315.176 300.112 315.628 300.207 316.046 300.389C316.464 300.572 316.84 300.839 317.149 301.174C317.459 301.509 317.697 301.905 317.846 302.336C317.996 302.767 318.055 303.224 318.02 303.679V310.749C318.067 311.205 318.016 311.666 317.871 312.101C317.725 312.536 317.488 312.935 317.175 313.27C316.862 313.605 316.481 313.87 316.058 314.046C315.634 314.222 315.178 314.305 314.72 314.289V314.289ZM328.32 316.139C331.32 316.139 333.37 313.879 333.54 310.749C333.541 310.704 333.533 310.66 333.517 310.618C333.5 310.576 333.475 310.538 333.443 310.506C333.411 310.474 333.373 310.449 333.331 310.432C333.29 310.416 333.245 310.408 333.2 310.409H331.93C331.883 310.403 331.836 310.407 331.791 310.422C331.746 310.437 331.706 310.461 331.672 310.494C331.638 310.527 331.612 310.567 331.596 310.611C331.58 310.655 331.575 310.703 331.58 310.749C331.45 312.849 330.24 314.249 328.32 314.249C327.868 314.261 327.418 314.177 327.001 314.002C326.584 313.827 326.209 313.566 325.9 313.235C325.592 312.904 325.358 312.511 325.213 312.082C325.068 311.654 325.016 311.2 325.06 310.749V303.679C325.06 301.619 326.26 300.169 328.25 300.169C328.67 300.156 329.089 300.228 329.481 300.381C329.873 300.535 330.229 300.766 330.529 301.062C330.828 301.358 331.064 301.711 331.222 302.101C331.381 302.491 331.458 302.909 331.45 303.329C331.443 303.376 331.448 303.423 331.462 303.468C331.477 303.513 331.502 303.553 331.535 303.587C331.567 303.621 331.607 303.647 331.652 303.663C331.696 303.679 331.743 303.684 331.79 303.679H333.06C333.106 303.682 333.153 303.675 333.196 303.659C333.239 303.642 333.278 303.616 333.311 303.583C333.343 303.55 333.368 303.51 333.383 303.466C333.399 303.422 333.404 303.376 333.4 303.329C333.377 302.653 333.221 301.988 332.941 301.372C332.661 300.756 332.262 300.201 331.768 299.739C331.273 299.277 330.693 298.917 330.059 298.679C329.425 298.442 328.751 298.331 328.075 298.354C327.398 298.377 326.733 298.533 326.117 298.813C325.501 299.093 324.946 299.492 324.484 299.986C324.022 300.481 323.662 301.062 323.425 301.695C323.187 302.329 323.077 303.003 323.1 303.679V310.749C323.059 311.453 323.166 312.158 323.411 312.819C323.657 313.48 324.037 314.082 324.528 314.589C325.018 315.095 325.609 315.495 326.261 315.762C326.914 316.028 327.615 316.157 328.32 316.139V316.139ZM339.14 315.799H340.41C340.455 315.802 340.501 315.796 340.543 315.779C340.586 315.763 340.625 315.738 340.657 315.706C340.689 315.674 340.714 315.635 340.73 315.593C340.746 315.55 340.753 315.505 340.75 315.459V300.479H344.53C344.576 300.482 344.623 300.475 344.667 300.459C344.711 300.442 344.751 300.416 344.784 300.383C344.817 300.35 344.843 300.31 344.859 300.267C344.876 300.223 344.883 300.176 344.88 300.129V298.929C344.881 298.883 344.873 298.838 344.856 298.795C344.839 298.753 344.813 298.714 344.78 298.682C344.747 298.65 344.708 298.625 344.665 298.609C344.622 298.593 344.576 298.587 344.53 298.589H335.05C335.005 298.588 334.96 298.596 334.918 298.612C334.876 298.629 334.838 298.654 334.806 298.686C334.774 298.718 334.749 298.756 334.733 298.798C334.716 298.839 334.708 298.884 334.71 298.929V300.129C334.707 300.175 334.714 300.221 334.73 300.264C334.746 300.307 334.77 300.347 334.802 300.379C334.834 300.412 334.873 300.438 334.916 300.456C334.958 300.473 335.004 300.481 335.05 300.479H338.8V315.419C338.797 315.465 338.804 315.51 338.82 315.553C338.836 315.595 338.861 315.634 338.893 315.666C338.925 315.698 338.964 315.723 339.006 315.739C339.049 315.756 339.094 315.762 339.14 315.759V315.799ZM352.25 298.239C351.541 298.217 350.836 298.343 350.178 298.609C349.521 298.874 348.926 299.273 348.431 299.781C347.936 300.289 347.553 300.895 347.304 301.559C347.056 302.223 346.949 302.931 346.99 303.639V322.289C346.988 322.334 346.996 322.379 347.013 322.421C347.029 322.463 347.054 322.501 347.086 322.533C347.118 322.565 347.156 322.59 347.198 322.606C347.24 322.623 347.285 322.631 347.33 322.629H348.6C348.646 322.632 348.692 322.625 348.735 322.609C348.778 322.593 348.817 322.569 348.85 322.537C348.883 322.505 348.909 322.466 348.926 322.424C348.943 322.381 348.951 322.335 348.95 322.289V314.389C349.371 314.94 349.917 315.382 350.543 315.68C351.169 315.977 351.857 316.121 352.55 316.099C355.41 316.099 357.55 313.799 357.55 310.709V303.639C357.59 302.932 357.483 302.225 357.236 301.561C356.988 300.898 356.606 300.293 356.112 299.785C355.618 299.277 355.025 298.878 354.368 298.612C353.712 298.346 353.008 298.219 352.3 298.239H352.25ZM355.54 310.709C355.564 311.157 355.498 311.606 355.343 312.027C355.189 312.448 354.95 312.833 354.642 313.159C354.333 313.485 353.962 313.745 353.549 313.922C353.137 314.099 352.693 314.191 352.245 314.191C351.796 314.191 351.352 314.099 350.94 313.922C350.528 313.745 350.156 313.485 349.848 313.159C349.54 312.833 349.301 312.448 349.146 312.027C348.992 311.606 348.925 311.157 348.95 310.709V303.639C348.925 303.191 348.992 302.743 349.146 302.322C349.301 301.901 349.54 301.515 349.848 301.189C350.156 300.864 350.528 300.604 350.94 300.427C351.352 300.249 351.796 300.158 352.245 300.158C352.693 300.158 353.137 300.249 353.549 300.427C353.962 300.604 354.333 300.864 354.642 301.189C354.95 301.515 355.189 301.901 355.343 302.322C355.498 302.743 355.564 303.191 355.54 303.639V310.709ZM365.43 316.069C366.132 316.102 366.834 315.986 367.489 315.728C368.144 315.471 368.737 315.079 369.229 314.577C369.722 314.074 370.103 313.474 370.348 312.814C370.593 312.155 370.696 311.451 370.65 310.749V303.579C370.697 302.88 370.596 302.179 370.354 301.521C370.112 300.863 369.735 300.264 369.247 299.761C368.758 299.258 368.169 298.864 367.519 298.604C366.868 298.343 366.17 298.223 365.47 298.249C362.47 298.249 360.59 300.379 360.42 303.249C360.417 303.295 360.424 303.341 360.44 303.384C360.456 303.427 360.48 303.467 360.512 303.499C360.544 303.532 360.583 303.558 360.626 303.576C360.668 303.593 360.714 303.601 360.76 303.599H362.03C362.24 303.599 362.34 303.489 362.38 303.249C362.357 302.834 362.421 302.419 362.568 302.031C362.714 301.642 362.94 301.288 363.23 300.99C363.521 300.693 363.87 300.46 364.255 300.305C364.641 300.15 365.054 300.076 365.47 300.089C365.916 300.076 366.359 300.158 366.771 300.329C367.183 300.5 367.554 300.757 367.86 301.082C368.165 301.407 368.398 301.793 368.543 302.215C368.687 302.637 368.741 303.085 368.7 303.529V305.759H365.36C364.689 305.73 364.019 305.836 363.39 306.07C362.761 306.305 362.186 306.664 361.699 307.126C361.212 307.588 360.823 308.144 360.555 308.759C360.287 309.375 360.146 310.038 360.14 310.709C360.106 311.414 360.219 312.119 360.473 312.778C360.726 313.437 361.114 314.035 361.612 314.536C362.109 315.036 362.706 315.428 363.363 315.685C364.021 315.942 364.724 316.059 365.43 316.029V316.069ZM365.43 314.179C364.977 314.204 364.525 314.131 364.103 313.966C363.681 313.801 363.3 313.547 362.984 313.222C362.669 312.897 362.426 312.508 362.274 312.082C362.121 311.655 362.062 311.201 362.1 310.749C362.09 310.328 362.169 309.908 362.332 309.519C362.495 309.13 362.738 308.779 363.046 308.491C363.353 308.202 363.719 307.981 364.117 307.843C364.516 307.705 364.939 307.653 365.36 307.689H368.7V310.749C368.742 311.197 368.687 311.648 368.54 312.072C368.393 312.496 368.156 312.884 367.846 313.209C367.536 313.534 367.16 313.789 366.743 313.957C366.326 314.124 365.878 314.2 365.43 314.179V314.179ZM382.43 298.929V305.929H376.43V298.929C376.431 298.884 376.423 298.839 376.407 298.798C376.39 298.756 376.365 298.718 376.333 298.686C376.301 298.654 376.263 298.629 376.221 298.612C376.18 298.596 376.135 298.588 376.09 298.589H374.82C374.774 298.587 374.728 298.593 374.685 298.609C374.642 298.625 374.603 298.65 374.57 298.682C374.537 298.714 374.511 298.753 374.494 298.795C374.476 298.838 374.468 298.883 374.47 298.929V315.419C374.468 315.465 374.476 315.511 374.494 315.554C374.511 315.596 374.537 315.635 374.57 315.667C374.603 315.699 374.642 315.723 374.685 315.739C374.728 315.755 374.774 315.762 374.82 315.759H376.09C376.135 315.761 376.18 315.753 376.221 315.736C376.263 315.72 376.301 315.695 376.333 315.663C376.365 315.631 376.39 315.593 376.407 315.551C376.423 315.509 376.431 315.464 376.43 315.419V307.759H382.43V315.419C382.428 315.465 382.436 315.511 382.454 315.554C382.471 315.596 382.497 315.635 382.53 315.667C382.563 315.699 382.602 315.723 382.645 315.739C382.688 315.755 382.734 315.762 382.78 315.759H384.05C384.095 315.761 384.14 315.753 384.181 315.736C384.223 315.72 384.261 315.695 384.293 315.663C384.325 315.631 384.35 315.593 384.367 315.551C384.383 315.509 384.391 315.464 384.39 315.419V298.929C384.391 298.884 384.383 298.839 384.367 298.798C384.35 298.756 384.325 298.718 384.293 298.686C384.261 298.654 384.223 298.629 384.181 298.612C384.14 298.596 384.095 298.588 384.05 298.589H382.78C382.734 298.587 382.688 298.593 382.645 298.609C382.602 298.625 382.563 298.65 382.53 298.682C382.497 298.714 382.471 298.753 382.454 298.795C382.436 298.838 382.428 298.883 382.43 298.929ZM396.86 298.929V305.929H390.86V298.929C390.863 298.884 390.856 298.838 390.84 298.796C390.824 298.753 390.799 298.715 390.767 298.682C390.735 298.65 390.696 298.625 390.653 298.609C390.611 298.593 390.565 298.586 390.52 298.589H389.25C389.204 298.586 389.159 298.593 389.116 298.609C389.074 298.625 389.035 298.65 389.003 298.682C388.971 298.715 388.946 298.753 388.93 298.796C388.914 298.838 388.907 298.884 388.91 298.929V315.419C388.907 315.465 388.914 315.51 388.93 315.553C388.946 315.595 388.971 315.634 389.003 315.666C389.035 315.698 389.074 315.723 389.116 315.739C389.159 315.756 389.204 315.762 389.25 315.759H390.52C390.565 315.762 390.611 315.756 390.653 315.739C390.696 315.723 390.735 315.698 390.767 315.666C390.799 315.634 390.824 315.595 390.84 315.553C390.856 315.51 390.863 315.465 390.86 315.419V307.759H396.86V315.419C396.858 315.464 396.866 315.509 396.883 315.551C396.899 315.593 396.924 315.631 396.956 315.663C396.988 315.695 397.026 315.72 397.068 315.736C397.11 315.753 397.155 315.761 397.2 315.759H398.47C398.516 315.762 398.562 315.755 398.605 315.739C398.648 315.723 398.687 315.699 398.72 315.667C398.753 315.635 398.779 315.596 398.796 315.554C398.813 315.511 398.821 315.465 398.82 315.419V298.929C398.821 298.883 398.813 298.838 398.796 298.795C398.779 298.753 398.753 298.714 398.72 298.682C398.687 298.65 398.648 298.625 398.605 298.609C398.562 298.593 398.516 298.587 398.47 298.589H397.2C397.155 298.588 397.11 298.596 397.068 298.612C397.026 298.629 396.988 298.654 396.956 298.686C396.924 298.718 396.899 298.756 396.883 298.798C396.866 298.839 396.858 298.884 396.86 298.929V298.929ZM404.86 315.829H408.25C408.95 315.86 409.649 315.749 410.305 315.502C410.961 315.255 411.56 314.878 412.066 314.394C412.572 313.909 412.975 313.327 413.25 312.683C413.526 312.039 413.668 311.345 413.668 310.644C413.668 309.944 413.526 309.25 413.25 308.606C412.975 307.961 412.572 307.379 412.066 306.895C411.56 306.41 410.961 306.033 410.305 305.787C409.649 305.54 408.95 305.429 408.25 305.459H405.25V298.929C405.251 298.884 405.243 298.839 405.227 298.798C405.21 298.756 405.185 298.718 405.153 298.686C405.121 298.654 405.083 298.629 405.042 298.612C405 298.596 404.955 298.588 404.91 298.589H403.63C403.585 298.588 403.54 298.596 403.498 298.612C403.456 298.629 403.418 298.654 403.386 298.686C403.354 298.718 403.329 298.756 403.313 298.798C403.296 298.839 403.288 298.884 403.29 298.929V314.279C403.266 314.489 403.289 314.701 403.359 314.9C403.428 315.099 403.542 315.279 403.691 315.428C403.84 315.577 404.02 315.691 404.219 315.76C404.418 315.83 404.63 315.853 404.84 315.829H404.86ZM415.74 315.759H417.01C417.056 315.762 417.102 315.755 417.145 315.739C417.188 315.723 417.227 315.699 417.26 315.667C417.293 315.635 417.319 315.596 417.336 315.554C417.353 315.511 417.361 315.465 417.36 315.419V298.929C417.361 298.883 417.353 298.838 417.336 298.795C417.319 298.753 417.293 298.714 417.26 298.682C417.227 298.65 417.188 298.625 417.145 298.609C417.102 298.593 417.056 298.587 417.01 298.589H415.74C415.695 298.588 415.65 298.596 415.608 298.612C415.566 298.629 415.528 298.654 415.496 298.686C415.464 298.718 415.439 298.756 415.423 298.798C415.406 298.839 415.398 298.884 415.4 298.929V315.419C415.398 315.464 415.406 315.509 415.423 315.551C415.439 315.593 415.464 315.631 415.496 315.663C415.528 315.695 415.566 315.72 415.608 315.736C415.65 315.753 415.695 315.761 415.74 315.759ZM405.25 313.939V307.349H408.25C408.696 307.311 409.145 307.368 409.568 307.515C409.99 307.663 410.377 307.899 410.702 308.207C411.027 308.515 411.283 308.888 411.453 309.302C411.624 309.716 411.704 310.162 411.69 310.609C411.709 311.061 411.633 311.512 411.466 311.933C411.298 312.353 411.044 312.733 410.718 313.048C410.393 313.362 410.005 313.605 409.58 313.758C409.154 313.912 408.701 313.974 408.25 313.939H405.25ZM421.46 315.759H422.73C422.775 315.762 422.821 315.756 422.863 315.739C422.906 315.723 422.945 315.698 422.977 315.666C423.009 315.634 423.034 315.595 423.05 315.553C423.066 315.51 423.073 315.465 423.07 315.419V311.579C423.07 309.519 424.28 308.079 426.23 308.079C428.18 308.079 429.39 309.519 429.39 311.579V315.399C429.388 315.445 429.396 315.491 429.414 315.534C429.431 315.576 429.457 315.615 429.49 315.647C429.523 315.679 429.562 315.703 429.605 315.719C429.648 315.735 429.694 315.742 429.74 315.739H431.01C431.055 315.741 431.1 315.733 431.141 315.716C431.183 315.7 431.221 315.675 431.253 315.643C431.285 315.611 431.31 315.573 431.327 315.531C431.343 315.489 431.351 315.444 431.35 315.399V311.579C431.369 310.676 431.143 309.784 430.696 308.999C430.248 308.213 429.597 307.564 428.81 307.119C429.598 306.684 430.252 306.041 430.699 305.26C431.147 304.479 431.372 303.589 431.35 302.689V298.909C431.351 298.864 431.343 298.82 431.327 298.778C431.31 298.736 431.285 298.698 431.253 298.666C431.221 298.634 431.183 298.609 431.141 298.592C431.1 298.576 431.055 298.568 431.01 298.569H429.74C429.694 298.567 429.648 298.573 429.605 298.589C429.562 298.605 429.523 298.63 429.49 298.662C429.457 298.694 429.431 298.733 429.414 298.775C429.396 298.818 429.388 298.863 429.39 298.909V302.689C429.39 304.749 428.19 306.189 426.23 306.189C424.27 306.189 423.07 304.749 423.07 302.689V298.909C423.073 298.864 423.066 298.818 423.05 298.776C423.034 298.733 423.009 298.695 422.977 298.662C422.945 298.63 422.906 298.605 422.863 298.589C422.821 298.573 422.775 298.566 422.73 298.569H421.46C421.414 298.566 421.369 298.573 421.326 298.589C421.284 298.605 421.245 298.63 421.213 298.662C421.181 298.695 421.156 298.733 421.14 298.776C421.124 298.818 421.117 298.864 421.12 298.909V302.689C421.097 303.589 421.322 304.479 421.77 305.26C422.218 306.041 422.872 306.684 423.66 307.119C422.873 307.564 422.221 308.213 421.774 308.999C421.327 309.784 421.101 310.676 421.12 311.579V315.399C421.117 315.445 421.124 315.49 421.14 315.533C421.156 315.575 421.181 315.614 421.213 315.646C421.245 315.678 421.284 315.703 421.326 315.719C421.369 315.736 421.414 315.742 421.46 315.739V315.759ZM447.84 298.239C447.106 298.201 446.372 298.316 445.686 298.579C444.999 298.841 444.376 299.244 443.855 299.763C443.334 300.281 442.927 300.902 442.661 301.587C442.395 302.272 442.275 303.005 442.31 303.739C442.25 304.789 442.515 305.831 443.068 306.726C443.62 307.62 444.434 308.323 445.4 308.739L441.83 315.299C441.69 315.539 441.83 315.709 442.1 315.709H443.58C443.664 315.715 443.749 315.696 443.822 315.653C443.895 315.61 443.954 315.546 443.99 315.469L447.32 309.179H450.86V315.369C450.858 315.414 450.866 315.459 450.883 315.501C450.899 315.543 450.924 315.581 450.956 315.613C450.988 315.645 451.026 315.67 451.068 315.686C451.11 315.703 451.155 315.711 451.2 315.709H452.47C452.516 315.712 452.562 315.705 452.605 315.689C452.648 315.673 452.687 315.649 452.72 315.617C452.753 315.585 452.779 315.546 452.796 315.504C452.813 315.461 452.821 315.415 452.82 315.369V303.359C452.859 302.687 452.758 302.014 452.522 301.383C452.286 300.752 451.921 300.177 451.451 299.695C450.98 299.213 450.414 298.835 449.789 298.584C449.164 298.333 448.493 298.216 447.82 298.239H447.84ZM450.84 307.349H447.68C447.206 307.378 446.731 307.304 446.289 307.13C445.847 306.956 445.448 306.688 445.12 306.344C444.793 306.001 444.544 305.589 444.392 305.139C444.24 304.689 444.188 304.211 444.24 303.739C444.198 303.257 444.261 302.772 444.426 302.317C444.59 301.862 444.852 301.448 445.193 301.104C445.533 300.761 445.945 300.495 446.399 300.327C446.852 300.159 447.337 300.091 447.82 300.129C448.238 300.114 448.654 300.189 449.041 300.349C449.428 300.509 449.775 300.75 450.06 301.057C450.345 301.364 450.56 301.728 450.691 302.125C450.822 302.523 450.866 302.944 450.82 303.359V307.359L450.84 307.349ZM460.84 316.099C461.549 316.137 462.258 316.025 462.92 315.771C463.583 315.517 464.185 315.126 464.688 314.625C465.19 314.123 465.582 313.522 465.837 312.859C466.092 312.197 466.206 311.488 466.17 310.779C466.215 309.867 465.974 308.963 465.481 308.195C464.988 307.426 464.267 306.829 463.42 306.489C464.079 306.166 464.633 305.661 465.016 305.034C465.398 304.407 465.594 303.684 465.58 302.949C465.607 302.312 465.499 301.677 465.263 301.085C465.028 300.492 464.67 299.957 464.213 299.512C463.756 299.067 463.211 298.724 462.612 298.505C462.014 298.286 461.376 298.195 460.74 298.239C457.92 298.239 456.03 300.029 455.9 303.239C455.895 303.286 455.901 303.332 455.916 303.376C455.932 303.42 455.956 303.46 455.989 303.493C456.021 303.526 456.06 303.552 456.104 303.569C456.147 303.585 456.193 303.592 456.24 303.589H457.51C457.556 303.592 457.603 303.585 457.646 303.569C457.689 303.552 457.728 303.526 457.761 303.493C457.793 303.46 457.818 303.42 457.833 303.376C457.849 303.332 457.854 303.286 457.85 303.239C457.96 301.049 458.99 300.079 460.74 300.079C461.123 300.036 461.512 300.079 461.876 300.205C462.241 300.33 462.574 300.535 462.85 300.805C463.125 301.075 463.337 301.403 463.471 301.766C463.604 302.128 463.655 302.515 463.62 302.899C463.62 304.509 462.56 305.579 460.62 305.579H459.17C459.125 305.578 459.08 305.586 459.038 305.602C458.996 305.619 458.958 305.644 458.926 305.676C458.894 305.708 458.869 305.746 458.853 305.788C458.836 305.829 458.828 305.874 458.83 305.919V307.119C458.827 307.165 458.834 307.211 458.85 307.254C458.866 307.297 458.89 307.337 458.922 307.369C458.954 307.402 458.993 307.428 459.036 307.446C459.078 307.463 459.124 307.471 459.17 307.469H460.75C462.99 307.469 464.15 308.739 464.15 310.729C464.198 311.183 464.146 311.642 463.997 312.073C463.848 312.504 463.606 312.897 463.289 313.225C462.971 313.552 462.585 313.806 462.158 313.967C461.732 314.129 461.275 314.194 460.82 314.159C460.391 314.184 459.962 314.121 459.559 313.973C459.156 313.826 458.787 313.598 458.475 313.303C458.163 313.008 457.915 312.652 457.746 312.258C457.576 311.863 457.489 311.439 457.49 311.009C457.496 310.963 457.492 310.915 457.477 310.871C457.462 310.826 457.438 310.785 457.405 310.752C457.372 310.718 457.332 310.692 457.288 310.676C457.244 310.66 457.196 310.654 457.15 310.659H455.88C455.833 310.656 455.786 310.663 455.742 310.68C455.699 310.697 455.659 310.722 455.626 310.755C455.593 310.788 455.567 310.828 455.55 310.872C455.534 310.916 455.527 310.963 455.53 311.009C455.545 311.686 455.695 312.353 455.97 312.972C456.245 313.59 456.64 314.148 457.131 314.613C457.623 315.078 458.203 315.441 458.836 315.681C459.469 315.92 460.143 316.032 460.82 316.009L460.84 316.099ZM470.84 315.829H474.25C474.95 315.86 475.649 315.749 476.305 315.502C476.961 315.255 477.56 314.878 478.066 314.394C478.572 313.909 478.975 313.327 479.25 312.683C479.526 312.039 479.668 311.345 479.668 310.644C479.668 309.944 479.526 309.25 479.25 308.606C478.975 307.961 478.572 307.379 478.066 306.895C477.56 306.41 476.961 306.033 476.305 305.787C475.649 305.54 474.95 305.429 474.25 305.459H471.25V298.929C471.253 298.884 471.246 298.838 471.23 298.796C471.214 298.753 471.189 298.715 471.157 298.682C471.125 298.65 471.086 298.625 471.043 298.609C471.001 298.593 470.955 298.586 470.91 298.589H469.65C469.604 298.586 469.559 298.593 469.516 298.609C469.474 298.625 469.435 298.65 469.403 298.682C469.371 298.715 469.346 298.753 469.33 298.796C469.314 298.838 469.307 298.884 469.31 298.929V314.279C469.284 314.488 469.306 314.7 469.374 314.899C469.443 315.098 469.555 315.279 469.703 315.428C469.852 315.578 470.032 315.691 470.23 315.761C470.429 315.83 470.641 315.854 470.85 315.829H470.84ZM481.73 315.759H483C483.045 315.761 483.09 315.753 483.132 315.736C483.173 315.72 483.211 315.695 483.243 315.663C483.275 315.631 483.3 315.593 483.317 315.551C483.333 315.509 483.341 315.464 483.34 315.419V298.929C483.341 298.884 483.333 298.839 483.317 298.798C483.3 298.756 483.275 298.718 483.243 298.686C483.211 298.654 483.173 298.629 483.132 298.612C483.09 298.596 483.045 298.588 483 298.589H481.73C481.684 298.587 481.638 298.593 481.595 298.609C481.552 298.625 481.513 298.65 481.48 298.682C481.447 298.714 481.421 298.753 481.404 298.795C481.386 298.838 481.378 298.883 481.38 298.929V315.419C481.378 315.465 481.386 315.511 481.404 315.554C481.421 315.596 481.447 315.635 481.48 315.667C481.513 315.699 481.552 315.723 481.595 315.739C481.638 315.755 481.684 315.762 481.73 315.759V315.759ZM471.25 313.939V307.349H474.25C474.695 307.311 475.144 307.367 475.566 307.515C475.989 307.663 476.374 307.899 476.699 308.207C477.023 308.515 477.278 308.889 477.447 309.303C477.616 309.717 477.696 310.162 477.68 310.609C477.699 311.06 477.623 311.511 477.456 311.93C477.289 312.35 477.036 312.729 476.712 313.044C476.388 313.358 476.001 313.601 475.577 313.755C475.152 313.909 474.7 313.972 474.25 313.939H471.25ZM494.13 306.139L498.08 298.999C498.21 298.759 498.08 298.589 497.8 298.589H496.36C496.276 298.587 496.193 298.608 496.121 298.651C496.048 298.693 495.989 298.755 495.95 298.829L492.1 305.899H489.76V298.899C489.763 298.854 489.756 298.808 489.74 298.766C489.724 298.723 489.699 298.685 489.667 298.652C489.635 298.62 489.596 298.595 489.553 298.579C489.511 298.563 489.465 298.556 489.42 298.559H488.15C488.104 298.556 488.059 298.563 488.016 298.579C487.974 298.595 487.935 298.62 487.903 298.652C487.871 298.685 487.846 298.723 487.83 298.766C487.814 298.808 487.807 298.854 487.81 298.899V315.389C487.807 315.435 487.814 315.48 487.83 315.523C487.846 315.565 487.871 315.604 487.903 315.636C487.935 315.668 487.974 315.693 488.016 315.709C488.059 315.726 488.104 315.732 488.15 315.729H489.42C489.465 315.732 489.511 315.726 489.553 315.709C489.596 315.693 489.635 315.668 489.667 315.636C489.699 315.604 489.724 315.565 489.74 315.523C489.756 315.48 489.763 315.435 489.76 315.389V307.759H492.44C492.887 307.721 493.337 307.778 493.76 307.926C494.184 308.074 494.571 308.311 494.896 308.62C495.221 308.929 495.477 309.304 495.646 309.719C495.816 310.134 495.896 310.581 495.88 311.029V315.389C495.878 315.434 495.886 315.479 495.903 315.521C495.919 315.563 495.944 315.601 495.976 315.633C496.008 315.665 496.046 315.69 496.088 315.706C496.13 315.723 496.175 315.731 496.22 315.729H497.49C497.536 315.732 497.582 315.725 497.625 315.709C497.668 315.693 497.707 315.669 497.74 315.637C497.773 315.605 497.799 315.566 497.816 315.524C497.833 315.481 497.841 315.435 497.84 315.389V311.029C497.86 309.913 497.505 308.822 496.833 307.93C496.16 307.038 495.209 306.397 494.13 306.109V306.139ZM505.98 316.139C506.689 316.164 507.396 316.041 508.055 315.777C508.714 315.513 509.311 315.115 509.808 314.608C510.305 314.101 510.69 313.496 510.94 312.832C511.19 312.167 511.299 311.458 511.26 310.749V303.679C511.291 302.966 511.177 302.254 510.925 301.585C510.674 300.917 510.29 300.307 509.796 299.791C509.302 299.275 508.709 298.865 508.052 298.584C507.395 298.304 506.689 298.159 505.975 298.159C505.261 298.159 504.554 298.304 503.897 298.584C503.241 298.865 502.648 299.275 502.154 299.791C501.66 300.307 501.276 300.917 501.024 301.585C500.772 302.254 500.659 302.966 500.69 303.679V310.749C500.65 311.459 500.759 312.169 501.01 312.834C501.261 313.499 501.647 314.105 502.145 314.612C502.643 315.119 503.241 315.517 503.901 315.78C504.562 316.043 505.269 316.165 505.98 316.139V316.139ZM505.98 314.289C503.91 314.289 502.68 312.849 502.68 310.749V303.679C502.68 301.579 503.91 300.139 505.98 300.139C508.05 300.139 509.25 301.579 509.25 303.639V310.709C509.25 312.809 508.02 314.249 505.96 314.249L505.98 314.289ZM522.49 306.489C523.119 306.154 523.641 305.648 523.995 305.028C524.349 304.409 524.521 303.702 524.49 302.989C524.433 301.735 523.894 300.55 522.986 299.682C522.078 298.814 520.871 298.33 519.615 298.33C518.359 298.33 517.151 298.814 516.243 299.682C515.335 300.55 514.797 301.735 514.74 302.989V314.249C514.714 314.458 514.736 314.67 514.804 314.869C514.873 315.068 514.985 315.249 515.133 315.398C515.282 315.548 515.462 315.661 515.66 315.731C515.859 315.8 516.071 315.824 516.28 315.799H519.92C520.611 315.846 521.305 315.75 521.958 315.517C522.611 315.284 523.21 314.92 523.716 314.447C524.222 313.973 524.626 313.4 524.902 312.765C525.178 312.129 525.32 311.443 525.32 310.749C525.354 309.838 525.103 308.938 524.604 308.175C524.104 307.412 523.379 306.823 522.53 306.489H522.49ZM516.66 302.989C516.703 302.246 517.029 301.547 517.571 301.036C518.113 300.525 518.83 300.24 519.575 300.24C520.32 300.24 521.036 300.525 521.578 301.036C522.12 301.547 522.446 302.246 522.49 302.989C522.49 304.599 521.43 305.669 519.49 305.669H516.68V302.989H516.66ZM519.88 313.909H516.66V307.559H519.88C520.323 307.516 520.77 307.566 521.192 307.706C521.614 307.846 522.003 308.073 522.332 308.372C522.662 308.671 522.925 309.036 523.105 309.442C523.286 309.849 523.379 310.289 523.379 310.734C523.379 311.179 523.286 311.619 523.105 312.026C522.925 312.433 522.662 312.798 522.332 313.097C522.003 313.396 521.614 313.623 521.192 313.762C520.77 313.902 520.323 313.952 519.88 313.909V313.909Z" fill="#1A1A18"/>
<path fill-rule="evenodd" clip-rule="evenodd" d="M4.25 212.389H10.25V268.759H42V279.029H0V212.389H4.25ZM56.07 228.969V279.029H45.83V224.719H56.09V228.969H56.07ZM56.07 213.119V222.649H45.83V208.859H56.09V213.119H56.07ZM72.96 224.649H78.96V227.929C80.6375 226.718 82.4537 225.711 84.37 224.929C87.6769 223.58 91.2186 222.9 94.79 222.929C98.3663 222.869 101.917 223.542 105.223 224.908C108.529 226.273 111.519 228.302 114.01 230.869C116.56 233.371 118.578 236.362 119.942 239.663C121.307 242.965 121.99 246.508 121.95 250.079V279.079H111.71V250.079C111.743 247.858 111.321 245.654 110.47 243.602C109.618 241.55 108.356 239.695 106.76 238.149C105.226 236.533 103.372 235.253 101.316 234.392C99.2607 233.531 97.0483 233.108 94.82 233.149C92.5951 233.122 90.3882 233.551 88.336 234.411C86.2839 235.271 84.4303 236.544 82.89 238.149C81.9723 239.057 81.1573 240.063 80.46 241.149C79.8598 242.092 79.3668 243.098 78.99 244.149V279.089H68.73V224.649H72.96ZM185.52 274.769C185.578 278.345 184.904 281.895 183.539 285.201C182.173 288.506 180.145 291.497 177.58 293.989C175.078 296.539 172.087 298.557 168.786 299.921C165.485 301.286 161.942 301.969 158.37 301.929H154.11V291.659H158.37C160.602 291.697 162.818 291.277 164.882 290.425C166.946 289.574 168.813 288.31 170.37 286.709C171.938 285.15 173.185 283.299 174.04 281.259C174.793 279.385 175.199 277.389 175.24 275.369C173.452 276.685 171.511 277.78 169.46 278.629C165.493 280.319 161.2 281.102 156.893 280.923C152.585 280.744 148.372 279.607 144.559 277.594C140.746 275.582 137.43 272.744 134.853 269.289C132.275 265.833 130.5 261.846 129.657 257.618C128.814 253.39 128.924 249.027 129.98 244.847C131.036 240.667 133.01 236.775 135.76 233.454C138.509 230.133 141.964 227.467 145.874 225.65C149.783 223.833 154.049 222.91 158.36 222.949C164.425 222.858 170.355 224.746 175.25 228.329V224.719H185.52V274.769V274.769ZM175.25 259.989V243.749C174.864 242.957 174.42 242.195 173.92 241.469C173.222 240.468 172.436 239.531 171.57 238.669C169.863 236.914 167.823 235.517 165.57 234.559C163.285 233.644 160.841 233.189 158.38 233.219C155.923 233.178 153.483 233.64 151.211 234.577C148.939 235.515 146.883 236.907 145.17 238.669C142.506 241.259 140.681 244.589 139.931 248.227C139.181 251.866 139.541 255.646 140.964 259.078C142.388 262.51 144.809 265.435 147.914 267.475C151.019 269.515 154.665 270.576 158.38 270.519C160.836 270.56 163.274 270.097 165.544 269.159C167.814 268.222 169.868 266.83 171.58 265.069C172.448 264.21 173.235 263.273 173.93 262.269C174.43 261.544 174.874 260.782 175.26 259.989H175.25ZM247.15 279.099H241.15V275.819C239.472 277.03 237.656 278.037 235.74 278.819C232.433 280.169 228.891 280.848 225.32 280.819C221.745 280.879 218.197 280.205 214.893 278.839C211.589 277.474 208.6 275.445 206.11 272.879C203.556 270.379 201.536 267.386 200.171 264.083C198.806 260.779 198.126 257.233 198.17 253.659V224.659H208.43V253.659C208.401 255.886 208.831 258.095 209.691 260.148C210.551 262.202 211.823 264.058 213.43 265.599C214.98 267.195 216.835 268.464 218.884 269.331C220.933 270.197 223.135 270.644 225.36 270.644C227.585 270.644 229.787 270.197 231.836 269.331C233.885 268.464 235.74 267.195 237.29 265.599C238.21 264.693 239.025 263.687 239.72 262.599C240.322 261.658 240.815 260.652 241.19 259.599V224.719H251.46V279.099H247.15ZM313.39 279.029H307.39V275.379C305.599 276.691 303.659 277.786 301.61 278.639C297.644 280.328 293.351 281.112 289.044 280.933C284.737 280.754 280.524 279.618 276.711 277.606C272.899 275.593 269.583 272.757 267.005 269.302C264.427 265.847 262.651 261.86 261.808 257.633C260.964 253.405 261.074 249.043 262.128 244.863C263.183 240.683 265.156 236.791 267.905 233.47C270.653 230.149 274.107 227.482 278.016 225.664C281.924 223.846 286.189 222.922 290.5 222.959C296.564 222.865 302.494 224.751 307.39 228.329V224.719H317.66V279.029H313.39ZM307.39 260.029V243.749C307.005 242.957 306.56 242.195 306.06 241.469C305.361 240.465 304.571 239.528 303.7 238.669C301.994 236.914 299.954 235.516 297.7 234.559C295.411 233.645 292.965 233.19 290.5 233.219C288.044 233.179 285.606 233.642 283.336 234.579C281.066 235.517 279.012 236.908 277.3 238.669C275.545 240.377 274.148 242.416 273.19 244.669C271.405 249.3 271.405 254.429 273.19 259.059C275.182 263.572 278.788 267.177 283.3 269.169C285.589 270.084 288.035 270.539 290.5 270.509C292.956 270.553 295.395 270.092 297.666 269.154C299.936 268.217 301.99 266.823 303.7 265.059C304.574 264.203 305.364 263.266 306.06 262.259C306.56 261.534 307.005 260.772 307.39 259.979V260.029ZM403.75 276.879C402.369 277.841 400.895 278.662 399.35 279.329C396.494 280.551 393.45 281.275 390.35 281.469C389.54 281.529 388.78 281.559 388.08 281.559C381.049 281.684 374.193 279.365 368.68 274.999L368.45 274.799C367.013 273.505 365.676 272.105 364.45 270.609C363.311 269.231 362.307 267.748 361.45 266.179L359.4 262.289L368.74 257.819L370.61 261.499C371.116 262.462 371.719 263.37 372.41 264.209C373.277 265.251 374.223 266.224 375.24 267.119C376.954 268.471 378.885 269.523 380.95 270.229C383.193 270.962 385.541 271.323 387.9 271.299C388.51 271.299 389.07 271.299 389.57 271.239C391.505 271.135 393.406 270.695 395.19 269.939C396.898 269.197 398.46 268.153 399.8 266.859L399.88 266.789C400.386 266.323 400.823 265.788 401.18 265.199C401.547 264.573 401.829 263.9 402.02 263.199V263.119C402.123 262.755 402.203 262.384 402.26 262.009C402.31 261.645 402.334 261.277 402.33 260.909C402.332 260.257 402.244 259.608 402.07 258.979C401.863 258.279 401.571 257.608 401.2 256.979V256.979C400.684 256.094 400.005 255.314 399.2 254.679C398.346 254.046 397.373 253.59 396.34 253.339H396.29L379.29 248.759C376.828 248.122 374.496 247.06 372.4 245.619C370.353 244.19 368.604 242.376 367.25 240.279V240.279C366.325 238.879 365.605 237.353 365.11 235.749C364.619 234.128 364.37 232.443 364.37 230.749C364.389 228.993 364.628 227.246 365.08 225.549V225.549C365.745 222.996 366.904 220.598 368.49 218.489C370.088 216.396 372.087 214.642 374.37 213.329V213.329C375.835 212.502 377.384 211.832 378.99 211.329C380.566 210.836 382.193 210.527 383.84 210.409L385.27 210.299C385.92 210.299 386.44 210.249 386.82 210.249C391.83 210.253 396.761 211.489 401.18 213.849L401.38 213.949C402.886 214.853 404.314 215.88 405.65 217.019C407.04 218.208 408.343 219.495 409.55 220.869L412.71 224.509L404.09 230.259L401.64 227.409C400.825 226.46 399.935 225.578 398.98 224.769C398.126 224.047 397.205 223.407 396.23 222.859C394.766 222.099 393.219 221.512 391.62 221.109C390.051 220.712 388.438 220.513 386.82 220.519C386.34 220.519 385.98 220.519 385.75 220.519C385.382 220.531 385.015 220.561 384.65 220.609H384.55C383.691 220.677 382.842 220.841 382.02 221.099C381.143 221.384 380.299 221.759 379.5 222.219C378.371 222.865 377.38 223.724 376.58 224.749C375.8 225.778 375.239 226.956 374.93 228.209V228.309C374.797 228.766 374.693 229.23 374.62 229.699C374.561 230.09 374.531 230.484 374.53 230.879C374.505 232.237 374.926 233.565 375.73 234.659L375.79 234.739C376.441 235.732 377.28 236.588 378.26 237.259C379.365 238.001 380.585 238.555 381.87 238.899V238.899L398.92 243.409C401.248 244.01 403.432 245.07 405.345 246.526C407.258 247.982 408.861 249.806 410.06 251.889V251.939C410.86 253.307 411.478 254.772 411.9 256.299C412.327 257.813 412.545 259.377 412.55 260.949C412.546 261.78 412.479 262.609 412.35 263.429C412.226 264.27 412.049 265.101 411.82 265.919C411.416 267.508 410.801 269.035 409.99 270.459C409.165 271.91 408.13 273.23 406.92 274.379L403.92 277.219L403.64 276.939L403.75 276.879ZM426.25 212.389H432.25V224.719H442.67V234.979H432.25V279.029H421.98V212.389H426.25ZM494.89 279.029H488.89V275.379C487.101 276.693 485.16 277.788 483.11 278.639C479.144 280.328 474.851 281.112 470.544 280.933C466.237 280.754 462.024 279.618 458.211 277.606C454.399 275.593 451.083 272.757 448.505 269.302C445.927 265.847 444.151 261.86 443.308 257.633C442.464 253.405 442.574 249.043 443.628 244.863C444.683 240.683 446.656 236.791 449.405 233.47C452.153 230.149 455.607 227.482 459.516 225.664C463.424 223.846 467.689 222.922 472 222.959C478.064 222.865 483.994 224.751 488.89 228.329V224.719H499.16V279.029H494.89ZM488.89 260.029V243.749C488.505 242.957 488.06 242.195 487.56 241.469C486.862 240.468 486.075 239.531 485.21 238.669C483.503 236.914 481.463 235.517 479.21 234.559C476.922 233.643 474.475 233.188 472.01 233.219C469.554 233.179 467.116 233.642 464.846 234.579C462.576 235.517 460.522 236.908 458.81 238.669C456.146 241.258 454.321 244.587 453.571 248.225C452.821 251.863 453.18 255.642 454.602 259.073C456.025 262.505 458.444 265.43 461.548 267.471C464.651 269.512 468.296 270.574 472.01 270.519C474.467 270.561 476.907 270.099 479.179 269.161C481.451 268.224 483.507 266.831 485.22 265.069C486.088 264.21 486.875 263.273 487.57 262.269C488.07 261.544 488.514 260.782 488.9 259.989L488.89 260.029ZM523.82 251.839V279.069H513.52V224.719H523.78V230.579C525.741 228.992 527.92 227.696 530.25 226.729C533.558 225.384 537.099 224.705 540.67 224.729H544.92V234.979H540.67C538.432 234.93 536.208 235.35 534.141 236.211C532.075 237.072 530.211 238.356 528.67 239.979C527.102 241.533 525.853 243.378 524.99 245.409C524.173 247.44 523.762 249.611 523.78 251.799L523.82 251.839Z" fill="#1A1A18"/>
<path fill-rule="evenodd" clip-rule="evenodd" d="M251.399 0C267.299 4.91 274.319 5.31 280.619 6C284.829 20.59 291.789 41.21 302.839 57.41L285.109 86.41C272.559 61.25 262.749 36.91 251.399 0Z" fill="url(#paint5_linear)"/>
<path fill-rule="evenodd" clip-rule="evenodd" d="M358.249 59.5195C346.629 89.0095 339.019 99.0695 299.689 109.52C311.889 115.42 318.689 118.28 330.919 124.18C366.209 111.93 376.099 93.5795 383.379 70.2295C374.249 67.3995 370.249 66.0495 358.249 59.5195Z" fill="url(#paint6_linear)"/>
<path fill-rule="evenodd" clip-rule="evenodd" d="M330.9 124.21C342.36 137.58 342.25 155.45 343.19 169.69C341.41 182.12 336.96 193.38 335.29 198.52C327.18 162.44 327.22 145.65 299.67 109.52C311.87 115.45 318.7 118.31 330.9 124.21Z" fill="url(#paint7_linear)"/>
<path fill-rule="evenodd" clip-rule="evenodd" d="M274.189 133.24C272.689 142.52 268.339 157.79 265.189 165.19C253.909 179.52 225.189 190.78 209.289 190C201.689 183.243 195.12 175.41 189.789 166.75C211.639 176.3 263.249 144.69 274.189 133.24Z" fill="url(#paint8_linear)"/>
<path fill-rule="evenodd" clip-rule="evenodd" d="M244.57 65.7592C248.76 70.6492 257.16 82.0492 259.98 87.6992C232.7 95.0692 188.66 88.2792 165.18 76.4392L194.62 62.9492C213.87 68.1092 227.69 70.6592 244.57 65.7592Z" fill="url(#paint9_linear)"/>
<defs>
<linearGradient id="paint0_linear" x1="276.809" y1="143.98" x2="333.469" y2="198.39" gradientUnits="userSpaceOnUse">
<stop stop-color="#92187E"/>
<stop offset="1" stop-color="#E0001D"/>
</linearGradient>
<linearGradient id="paint1_linear" x1="198.239" y1="163.721" x2="254.729" y2="128.641" gradientUnits="userSpaceOnUse">
<stop stop-color="#931778"/>
<stop offset="1" stop-color="#0084BF"/>
</linearGradient>
<linearGradient id="paint2_linear" x1="205.28" y1="82.1695" x2="207.29" y2="117.319" gradientUnits="userSpaceOnUse">
<stop stop-color="#002643"/>
<stop offset="1" stop-color="#009FDB"/>
</linearGradient>
<linearGradient id="paint3_linear" x1="242.109" y1="49.61" x2="257.409" y2="43.12" gradientUnits="userSpaceOnUse">
<stop stop-color="#89BB20"/>
<stop offset="0.21" stop-color="#85B61F"/>
<stop offset="0.48" stop-color="#7BA61D"/>
<stop offset="0.77" stop-color="#6A8D18"/>
<stop offset="1" stop-color="#587314"/>
</linearGradient>
<linearGradient id="paint4_linear" x1="314.799" y1="56.0697" x2="346.939" y2="92.9397" gradientUnits="userSpaceOnUse">
<stop stop-color="#F49418"/>
<stop offset="0.39" stop-color="#D57710"/>
<stop offset="1" stop-color="#9E4502"/>
</linearGradient>
<linearGradient id="paint5_linear" x1="267.059" y1="2.14" x2="293.539" y2="75.65" gradientUnits="userSpaceOnUse">
<stop stop-color="#A5C711"/>
<stop offset="1" stop-color="#ECAA00"/>
</linearGradient>
<linearGradient id="paint6_linear" x1="325.329" y1="113.97" x2="368.379" y2="70.5795" gradientUnits="userSpaceOnUse">
<stop stop-color="#9E0E05"/>
<stop offset="1" stop-color="#F29F00"/>
</linearGradient>
<linearGradient id="paint7_linear" x1="297.23" y1="116.2" x2="339.94" y2="169.96" gradientUnits="userSpaceOnUse">
<stop stop-color="#AF0D08"/>
<stop offset="1" stop-color="#E83565"/>
</linearGradient>
<linearGradient id="paint8_linear" x1="274.189" y1="161.64" x2="189.789" y2="161.64" gradientUnits="userSpaceOnUse">
<stop stop-color="#9E2183"/>
<stop offset="1" stop-color="#580A4B"/>
</linearGradient>
<linearGradient id="paint9_linear" x1="165.18" y1="76.8592" x2="259.98" y2="76.8592" gradientUnits="userSpaceOnUse">
<stop stop-color="#003D7F"/>
<stop offset="1" stop-color="#84B420"/>
</linearGradient>
</defs>
</svg>
