<svg width="383" height="156" viewBox="0 0 383 156" fill="none" xmlns="http://www.w3.org/2000/svg">
<path d="M95 126.719H0V131.719H95V126.719Z" fill="#1B3769"/>
<path d="M382 126.719H95V131.719H382V126.719Z" fill="#F3732B"/>
<path d="M40.5 122.719C53.4787 122.719 64 112.197 64 99.2188C64 86.2401 53.4787 75.7188 40.5 75.7188C27.5213 75.7188 17 86.2401 17 99.2188C17 112.197 27.5213 122.719 40.5 122.719Z" fill="#1B3769"/>
<path d="M95 36.7188V122.719H59.93C64.7697 118.719 68.2571 113.323 69.9161 107.268C71.575 101.212 71.3247 94.7921 69.1994 88.8841C67.074 82.9761 63.1771 77.8681 58.0407 74.2572C52.9043 70.6463 46.7786 68.7086 40.5 68.7086C34.2214 68.7086 28.0957 70.6463 22.9593 74.2572C17.8229 77.8681 13.926 82.9761 11.8006 88.8841C9.67526 94.7921 9.42495 101.212 11.0839 107.268C12.7429 113.323 16.2303 118.719 21.07 122.719H0V36.7188H95Z" fill="#1B3769"/>
<path d="M40.5 122.719C53.4787 122.719 64 112.197 64 99.2188C64 86.2401 53.4787 75.7188 40.5 75.7188C27.5213 75.7188 17 86.2401 17 99.2188C17 112.197 27.5213 122.719 40.5 122.719Z" fill="#F3732B"/>
<path d="M11.9356 20L10.5147 16.2401H3.25714L1.83624 20H0.2186L6.09894 4.698H7.67286L13.5532 20H11.9356ZM3.80364 14.7973H9.96816L6.8859 6.59982L3.80364 14.7973ZM24.4806 18.601H26.0108V22.9292H24.5681V20H15.6492V22.9292H14.2064V18.601H15.5399C16.2831 17.6245 16.6548 16.2474 16.6548 14.4694V9.07H24.4806V18.601ZM17.2887 18.601H23.0379V10.469H18.0975V14.4694C18.0975 16.1454 17.8279 17.5225 17.2887 18.601ZM35.1449 14.382C36.3399 14.8192 36.9374 15.6717 36.9374 16.9396C36.9374 17.8286 36.6387 18.5645 36.0412 19.1475C35.4582 19.7158 34.613 20 33.5054 20H28.1934V9.07H33.0682C34.1321 9.07 34.9555 9.34689 35.5384 9.90068C36.1213 10.4399 36.4128 11.1394 36.4128 11.9992C36.4128 13.0922 35.9902 13.8865 35.1449 14.382ZM33.0682 10.469H29.6362V13.7918H33.0682C34.3361 13.7918 34.97 13.2234 34.97 12.0867C34.97 11.5766 34.8024 11.1831 34.4672 10.9062C34.1466 10.6148 33.6803 10.469 33.0682 10.469ZM33.5054 18.601C34.1466 18.601 34.6348 18.4479 34.97 18.1419C35.3198 17.8359 35.4947 17.4059 35.4947 16.8522C35.4947 16.3421 35.3198 15.9413 34.97 15.6499C34.6348 15.3438 34.1466 15.1908 33.5054 15.1908H29.6362V18.601H33.5054ZM48.2828 18.6228C47.1752 19.7158 45.8199 20.2623 44.2168 20.2623C42.6137 20.2623 41.2511 19.7158 40.129 18.6228C39.0214 17.5152 38.4676 16.1526 38.4676 14.535C38.4676 12.9174 39.0214 11.562 40.129 10.469C41.2511 9.36147 42.6137 8.80768 44.2168 8.80768C45.8199 8.80768 47.1752 9.36147 48.2828 10.469C49.4049 11.562 49.966 12.9174 49.966 14.535C49.966 16.1526 49.4049 17.5152 48.2828 18.6228ZM41.1564 17.6173C41.9871 18.4479 43.0072 18.8633 44.2168 18.8633C45.4264 18.8633 46.4465 18.4479 47.2772 17.6173C48.1079 16.772 48.5232 15.7446 48.5232 14.535C48.5232 13.3254 48.1079 12.3053 47.2772 11.4746C46.4465 10.6293 45.4264 10.2067 44.2168 10.2067C43.0072 10.2067 41.9871 10.6293 41.1564 11.4746C40.3257 12.3053 39.9104 13.3254 39.9104 14.535C39.9104 15.7446 40.3257 16.772 41.1564 17.6173ZM61.2118 20H59.2881L53.8231 14.7317V20H52.3803V9.07H53.8231V13.9011L59.0258 9.07H60.9932L55.3533 14.3164L61.2118 20ZM71.4933 9.07H72.9361V20H71.4933V17.8577C70.4877 19.4608 69.0158 20.2623 67.0776 20.2623C65.5182 20.2623 64.1848 19.7085 63.0772 18.601C61.9842 17.4934 61.4377 16.1381 61.4377 14.535C61.4377 12.9319 61.9842 11.5766 63.0772 10.469C64.1848 9.36147 65.5182 8.80768 67.0776 8.80768C69.0158 8.80768 70.4877 9.60921 71.4933 11.2123V9.07ZM64.1265 17.6173C64.9572 18.4479 65.9773 18.8633 67.1869 18.8633C68.3965 18.8633 69.4166 18.4479 70.2473 17.6173C71.078 16.772 71.4933 15.7446 71.4933 14.535C71.4933 13.3254 71.078 12.3053 70.2473 11.4746C69.4166 10.6293 68.3965 10.2067 67.1869 10.2067C65.9773 10.2067 64.9572 10.6293 64.1265 11.4746C63.2958 12.3053 62.8805 13.3254 62.8805 14.535C62.8805 15.7446 63.2958 16.772 64.1265 17.6173ZM83.8604 9.07V10.469H79.9912V20H78.5484V10.469H74.6792V9.07H83.8604ZM90.285 20.2623C88.6383 20.2623 87.2684 19.7158 86.1754 18.6228C85.0824 17.5152 84.5359 16.1526 84.5359 14.535C84.5359 12.9174 85.0824 11.562 86.1754 10.469C87.2684 9.36147 88.6383 8.80768 90.285 8.80768C91.3635 8.80768 92.3326 9.07 93.1924 9.59464C94.0523 10.1047 94.6789 10.7969 95.0724 11.6713L93.8919 12.349C93.6005 11.6932 93.1268 11.1758 92.471 10.7969C91.8298 10.4035 91.1012 10.2067 90.285 10.2067C89.0755 10.2067 88.0553 10.6293 87.2246 11.4746C86.394 12.3053 85.9786 13.3254 85.9786 14.535C85.9786 15.7446 86.394 16.772 87.2246 17.6173C88.0553 18.4479 89.0755 18.8633 90.285 18.8633C91.1012 18.8633 91.8298 18.6738 92.471 18.2949C93.1123 17.9014 93.6151 17.3768 93.9794 16.721L95.1817 17.4205C94.7299 18.2949 94.0668 18.9872 93.1924 19.4972C92.318 20.0073 91.3489 20.2623 90.285 20.2623ZM106.085 20H104.161L98.6959 14.7317V20H97.2531V9.07H98.6959V13.9011L103.899 9.07H105.866L100.226 14.3164L106.085 20ZM116.126 18.6228C115.018 19.7158 113.663 20.2623 112.06 20.2623C110.457 20.2623 109.094 19.7158 107.972 18.6228C106.864 17.5152 106.31 16.1526 106.31 14.535C106.31 12.9174 106.864 11.562 107.972 10.469C109.094 9.36147 110.457 8.80768 112.06 8.80768C113.663 8.80768 115.018 9.36147 116.126 10.469C117.248 11.562 117.809 12.9174 117.809 14.535C117.809 16.1526 117.248 17.5152 116.126 18.6228ZM108.999 17.6173C109.83 18.4479 110.85 18.8633 112.06 18.8633C113.269 18.8633 114.289 18.4479 115.12 17.6173C115.951 16.772 116.366 15.7446 116.366 14.535C116.366 13.3254 115.951 12.3053 115.12 11.4746C114.289 10.6293 113.269 10.2067 112.06 10.2067C110.85 10.2067 109.83 10.6293 108.999 11.4746C108.169 12.3053 107.753 13.3254 107.753 14.535C107.753 15.7446 108.169 16.772 108.999 17.6173ZM125.273 8.80768C126.89 8.80768 128.195 9.38333 129.186 10.5346C130.191 11.6713 130.694 13.0194 130.694 14.5787C130.694 14.739 130.68 14.9649 130.65 15.2564H121.054C121.2 16.364 121.666 17.2456 122.453 17.9014C123.254 18.5427 124.238 18.8633 125.404 18.8633C126.235 18.8633 126.949 18.6957 127.546 18.3605C128.158 18.0107 128.617 17.559 128.923 17.0052L130.191 17.7484C129.71 18.5208 129.055 19.1329 128.224 19.5847C127.393 20.0364 126.446 20.2623 125.382 20.2623C123.662 20.2623 122.263 19.7231 121.185 18.6447C120.107 17.5663 119.567 16.1964 119.567 14.535C119.567 12.9028 120.099 11.5402 121.163 10.4472C122.227 9.35418 123.597 8.80768 125.273 8.80768ZM125.273 10.2067C124.136 10.2067 123.182 10.5492 122.409 11.2341C121.651 11.9045 121.2 12.7789 121.054 13.8573H129.208C129.062 12.706 128.617 11.8098 127.874 11.1686C127.131 10.5273 126.264 10.2067 125.273 10.2067ZM143.307 20.2623C141.733 20.2623 140.421 19.745 139.372 18.7103C138.323 17.661 137.798 16.3057 137.798 14.6443C137.798 12.7789 138.075 11.3507 138.629 10.3597C139.183 9.35418 140.305 8.44335 141.995 7.62724C142.316 7.46693 142.739 7.27748 143.263 7.05888C143.802 6.84028 144.203 6.6654 144.466 6.53424C144.742 6.40308 145.041 6.23549 145.362 6.03146C145.682 5.81286 145.923 5.5724 146.083 5.31008C146.244 5.04776 146.346 4.73443 146.389 4.3701L147.526 5.0259C147.468 5.37566 147.351 5.70356 147.176 6.0096C147.001 6.31564 146.819 6.56339 146.63 6.75284C146.455 6.94229 146.171 7.15361 145.777 7.38678C145.398 7.60538 145.1 7.76569 144.881 7.8677C144.677 7.95514 144.313 8.10816 143.788 8.32676C143.278 8.54536 142.935 8.69109 142.76 8.76396C141.74 9.20116 140.99 9.66022 140.509 10.1411C140.028 10.6075 139.686 11.2196 139.481 11.9774C139.977 11.3216 140.604 10.8407 141.361 10.5346C142.134 10.214 142.884 10.0537 143.613 10.0537C145.07 10.0537 146.273 10.5346 147.22 11.4965C148.182 12.4437 148.663 13.6606 148.663 15.1471C148.663 16.619 148.153 17.8431 147.132 18.8196C146.127 19.7814 144.852 20.2623 143.307 20.2623ZM143.307 18.8196C144.444 18.8196 145.376 18.4771 146.105 17.7921C146.848 17.0926 147.22 16.2109 147.22 15.1471C147.22 14.0687 146.87 13.187 146.171 12.502C145.486 11.8025 144.568 11.4527 143.416 11.4527C142.382 11.4527 141.442 11.7806 140.596 12.4364C139.751 13.0777 139.328 13.9375 139.328 15.0159C139.328 16.1235 139.707 17.0343 140.465 17.7484C141.238 18.4625 142.185 18.8196 143.307 18.8196ZM160.191 8.80768C161.794 8.80768 163.15 9.36147 164.257 10.469C165.379 11.562 165.94 12.9174 165.94 14.535C165.94 16.1526 165.379 17.5152 164.257 18.6228C163.15 19.7158 161.794 20.2623 160.191 20.2623C158.719 20.2623 157.451 19.7887 156.388 18.8414C155.338 17.8796 154.734 16.6773 154.573 15.2345H152.3V20H150.857V9.07H152.3V13.8355H154.573C154.734 12.3927 155.338 11.1977 156.388 10.2504C157.451 9.2886 158.719 8.80768 160.191 8.80768ZM157.131 17.6173C157.962 18.4479 158.982 18.8633 160.191 18.8633C161.401 18.8633 162.421 18.4479 163.252 17.6173C164.082 16.772 164.498 15.7446 164.498 14.535C164.498 13.3254 164.082 12.3053 163.252 11.4746C162.421 10.6293 161.401 10.2067 160.191 10.2067C158.982 10.2067 157.962 10.6293 157.131 11.4746C156.3 12.3053 155.885 13.3254 155.885 14.535C155.885 15.7446 156.3 16.772 157.131 17.6173ZM174.199 8.80768C175.759 8.80768 177.085 9.36147 178.178 10.469C179.285 11.5766 179.839 12.9319 179.839 14.535C179.839 16.1381 179.285 17.4934 178.178 18.601C177.085 19.7085 175.759 20.2623 174.199 20.2623C172.261 20.2623 170.789 19.4608 169.784 17.8577V24.372H168.341V9.07H169.784V11.2123C170.789 9.60921 172.261 8.80768 174.199 8.80768ZM171.03 17.6173C171.86 18.4479 172.88 18.8633 174.09 18.8633C175.3 18.8633 176.32 18.4479 177.15 17.6173C177.981 16.772 178.396 15.7446 178.396 14.535C178.396 13.3254 177.981 12.3053 177.15 11.4746C176.32 10.6293 175.3 10.2067 174.09 10.2067C172.88 10.2067 171.86 10.6293 171.03 11.4746C170.199 12.3053 169.784 13.3254 169.784 14.535C169.784 15.7446 170.199 16.772 171.03 17.6173ZM191.397 18.6228C190.29 19.7158 188.935 20.2623 187.331 20.2623C185.728 20.2623 184.366 19.7158 183.244 18.6228C182.136 17.5152 181.582 16.1526 181.582 14.535C181.582 12.9174 182.136 11.562 183.244 10.469C184.366 9.36147 185.728 8.80768 187.331 8.80768C188.935 8.80768 190.29 9.36147 191.397 10.469C192.52 11.562 193.081 12.9174 193.081 14.535C193.081 16.1526 192.52 17.5152 191.397 18.6228ZM184.271 17.6173C185.102 18.4479 186.122 18.8633 187.331 18.8633C188.541 18.8633 189.561 18.4479 190.392 17.6173C191.223 16.772 191.638 15.7446 191.638 14.535C191.638 13.3254 191.223 12.3053 190.392 11.4746C189.561 10.6293 188.541 10.2067 187.331 10.2067C186.122 10.2067 185.102 10.6293 184.271 11.4746C183.44 12.3053 183.025 13.3254 183.025 14.535C183.025 15.7446 183.44 16.772 184.271 17.6173ZM205.157 9.31046L202.753 13.2453L205.157 17.1801H203.365L200.96 13.2453L203.365 9.31046H205.157ZM208.655 9.31046L206.25 13.2453L208.655 17.1801H206.862L204.458 13.2453L206.862 9.31046H208.655ZM220.463 4.698V6.14076H213.468V20H211.938V4.698H220.463ZM226.117 8.80768C227.676 8.80768 229.002 9.36147 230.095 10.469C231.203 11.5766 231.757 12.9319 231.757 14.535C231.757 16.1381 231.203 17.4934 230.095 18.601C229.002 19.7085 227.676 20.2623 226.117 20.2623C224.179 20.2623 222.707 19.4608 221.701 17.8577V24.372H220.258V9.07H221.701V11.2123C222.707 9.60921 224.179 8.80768 226.117 8.80768ZM222.947 17.6173C223.778 18.4479 224.798 18.8633 226.007 18.8633C227.217 18.8633 228.237 18.4479 229.068 17.6173C229.899 16.772 230.314 15.7446 230.314 14.535C230.314 13.3254 229.899 12.3053 229.068 11.4746C228.237 10.6293 227.217 10.2067 226.007 10.2067C224.798 10.2067 223.778 10.6293 222.947 11.4746C222.116 12.3053 221.701 13.3254 221.701 14.535C221.701 15.7446 222.116 16.772 222.947 17.6173ZM243.315 18.6228C242.207 19.7158 240.852 20.2623 239.249 20.2623C237.646 20.2623 236.283 19.7158 235.161 18.6228C234.054 17.5152 233.5 16.1526 233.5 14.535C233.5 12.9174 234.054 11.562 235.161 10.469C236.283 9.36147 237.646 8.80768 239.249 8.80768C240.852 8.80768 242.207 9.36147 243.315 10.469C244.437 11.562 244.998 12.9174 244.998 14.535C244.998 16.1526 244.437 17.5152 243.315 18.6228ZM236.189 17.6173C237.019 18.4479 238.039 18.8633 239.249 18.8633C240.459 18.8633 241.479 18.4479 242.309 17.6173C243.14 16.772 243.555 15.7446 243.555 14.535C243.555 13.3254 243.14 12.3053 242.309 11.4746C241.479 10.6293 240.459 10.2067 239.249 10.2067C238.039 10.2067 237.019 10.6293 236.189 11.4746C235.358 12.3053 234.943 13.3254 234.943 14.535C234.943 15.7446 235.358 16.772 236.189 17.6173ZM252.506 20.2623C250.859 20.2623 249.489 19.7158 248.396 18.6228C247.303 17.5152 246.757 16.1526 246.757 14.535C246.757 12.9174 247.303 11.562 248.396 10.469C249.489 9.36147 250.859 8.80768 252.506 8.80768C253.584 8.80768 254.553 9.07 255.413 9.59464C256.273 10.1047 256.9 10.7969 257.293 11.6713L256.113 12.349C255.821 11.6932 255.348 11.1758 254.692 10.7969C254.051 10.4035 253.322 10.2067 252.506 10.2067C251.296 10.2067 250.276 10.6293 249.445 11.4746C248.615 12.3053 248.199 13.3254 248.199 14.535C248.199 15.7446 248.615 16.772 249.445 17.6173C250.276 18.4479 251.296 18.8633 252.506 18.8633C253.322 18.8633 254.051 18.6738 254.692 18.2949C255.333 17.9014 255.836 17.3768 256.2 16.721L257.403 17.4205C256.951 18.2949 256.288 18.9872 255.413 19.4972C254.539 20.0073 253.57 20.2623 252.506 20.2623ZM264.461 20.2623C262.814 20.2623 261.444 19.7158 260.351 18.6228C259.258 17.5152 258.711 16.1526 258.711 14.535C258.711 12.9174 259.258 11.562 260.351 10.469C261.444 9.36147 262.814 8.80768 264.461 8.80768C265.539 8.80768 266.508 9.07 267.368 9.59464C268.228 10.1047 268.854 10.7969 269.248 11.6713L268.067 12.349C267.776 11.6932 267.302 11.1758 266.647 10.7969C266.005 10.4035 265.277 10.2067 264.461 10.2067C263.251 10.2067 262.231 10.6293 261.4 11.4746C260.57 12.3053 260.154 13.3254 260.154 14.535C260.154 15.7446 260.57 16.772 261.4 17.6173C262.231 18.4479 263.251 18.8633 264.461 18.8633C265.277 18.8633 266.005 18.6738 266.647 18.2949C267.288 17.9014 267.791 17.3768 268.155 16.721L269.357 17.4205C268.905 18.2949 268.242 18.9872 267.368 19.4972C266.494 20.0073 265.524 20.2623 264.461 20.2623ZM273.221 9.31046L275.626 13.2453L273.221 17.1801H271.429L273.833 13.2453L271.429 9.31046H273.221ZM276.719 9.31046L279.123 13.2453L276.719 17.1801H274.926L277.331 13.2453L274.926 9.31046H276.719ZM294.648 9.07V10.469H289.096V20H287.653V9.07H294.648ZM296.278 19.8688C296.044 20.102 295.76 20.2186 295.425 20.2186C295.09 20.2186 294.806 20.102 294.573 19.8688C294.339 19.6357 294.223 19.3515 294.223 19.0163C294.223 18.6811 294.339 18.3969 294.573 18.1638C294.806 17.9306 295.09 17.814 295.425 17.814C295.76 17.814 296.044 17.9306 296.278 18.1638C296.511 18.3969 296.627 18.6811 296.627 19.0163C296.627 19.3515 296.511 19.6357 296.278 19.8688ZM319.153 4.698V20H317.623V7.01516L312.268 15.9778H312.049L306.693 7.01516V20H305.163V4.698H307.065L312.158 13.2234L317.252 4.698H319.153ZM331.588 18.6228C330.48 19.7158 329.125 20.2623 327.522 20.2623C325.918 20.2623 324.556 19.7158 323.434 18.6228C322.326 17.5152 321.772 16.1526 321.772 14.535C321.772 12.9174 322.326 11.562 323.434 10.469C324.556 9.36147 325.918 8.80768 327.522 8.80768C329.125 8.80768 330.48 9.36147 331.588 10.469C332.71 11.562 333.271 12.9174 333.271 14.535C333.271 16.1526 332.71 17.5152 331.588 18.6228ZM324.461 17.6173C325.292 18.4479 326.312 18.8633 327.522 18.8633C328.731 18.8633 329.751 18.4479 330.582 17.6173C331.413 16.772 331.828 15.7446 331.828 14.535C331.828 13.3254 331.413 12.3053 330.582 11.4746C329.751 10.6293 328.731 10.2067 327.522 10.2067C326.312 10.2067 325.292 10.6293 324.461 11.4746C323.63 12.3053 323.215 13.3254 323.215 14.535C323.215 15.7446 323.63 16.772 324.461 17.6173ZM340.778 20.2623C339.132 20.2623 337.762 19.7158 336.669 18.6228C335.576 17.5152 335.029 16.1526 335.029 14.535C335.029 12.9174 335.576 11.562 336.669 10.469C337.762 9.36147 339.132 8.80768 340.778 8.80768C341.857 8.80768 342.826 9.07 343.686 9.59464C344.546 10.1047 345.172 10.7969 345.566 11.6713L344.385 12.349C344.094 11.6932 343.62 11.1758 342.964 10.7969C342.323 10.4035 341.595 10.2067 340.778 10.2067C339.569 10.2067 338.549 10.6293 337.718 11.4746C336.887 12.3053 336.472 13.3254 336.472 14.535C336.472 15.7446 336.887 16.772 337.718 17.6173C338.549 18.4479 339.569 18.8633 340.778 18.8633C341.595 18.8633 342.323 18.6738 342.964 18.2949C343.606 17.9014 344.108 17.3768 344.473 16.721L345.675 17.4205C345.223 18.2949 344.56 18.9872 343.686 19.4972C342.811 20.0073 341.842 20.2623 340.778 20.2623ZM356.578 20H354.654L349.189 14.7317V20H347.747V9.07H349.189V13.9011L354.392 9.07H356.359L350.719 14.3164L356.578 20ZM365.5 14.382C366.695 14.8192 367.292 15.6717 367.292 16.9396C367.292 17.8286 366.994 18.5645 366.396 19.1475C365.813 19.7158 364.968 20 363.86 20H358.548V9.07H363.423C364.487 9.07 365.31 9.34689 365.893 9.90068C366.476 10.4399 366.768 11.1394 366.768 11.9992C366.768 13.0922 366.345 13.8865 365.5 14.382ZM363.423 10.469H359.991V13.7918H363.423C364.691 13.7918 365.325 13.2234 365.325 12.0867C365.325 11.5766 365.157 11.1831 364.822 10.9062C364.502 10.6148 364.035 10.469 363.423 10.469ZM363.86 18.601C364.502 18.601 364.99 18.4479 365.325 18.1419C365.675 17.8359 365.85 17.4059 365.85 16.8522C365.85 16.3421 365.675 15.9413 365.325 15.6499C364.99 15.3438 364.502 15.1908 363.86 15.1908H359.991V18.601H363.86ZM373.916 13.2234C374.936 13.2234 375.796 13.544 376.495 14.1852C377.21 14.8119 377.567 15.6207 377.567 16.6117C377.567 17.6027 377.21 18.4188 376.495 19.06C375.796 19.6867 374.936 20 373.916 20H369.478V9.07H370.921V13.2234H373.916ZM379.097 9.07H380.54V20H379.097V9.07ZM373.916 18.601C374.528 18.601 375.045 18.4188 375.468 18.0545C375.905 17.6901 376.124 17.2092 376.124 16.6117C376.124 16.0142 375.905 15.5333 375.468 15.1689C375.045 14.8046 374.528 14.6224 373.916 14.6224H370.921V18.601H373.916Z" fill="#1B3769"/>
<path d="M1.62961 153.959H8.62961V155.409H0.0996094V140.029H1.62961V153.959Z" fill="#1B3769"/>
<path d="M50.9296 144.159H52.3796V155.159H50.9296V152.999C50.4778 153.766 49.8262 154.397 49.0443 154.823C48.2623 155.249 47.3794 155.455 46.4896 155.419C45.744 155.43 45.0042 155.287 44.3161 154.999C43.628 154.712 43.0062 154.287 42.4896 153.749C41.426 152.655 40.8311 151.19 40.8311 149.664C40.8311 148.138 41.426 146.673 42.4896 145.579C43.0048 145.039 43.6262 144.612 44.3147 144.325C45.0031 144.037 45.7436 143.896 46.4896 143.909C47.3786 143.871 48.2613 144.075 49.0433 144.499C49.8253 144.923 50.4773 145.552 50.9296 146.319V144.159ZM43.5296 152.739C44.245 153.476 45.1945 153.942 46.2157 154.057C47.2369 154.172 48.2661 153.928 49.1271 153.367C49.9882 152.806 50.6276 151.963 50.9357 150.983C51.2438 150.003 51.2016 148.946 50.8163 147.993C50.4309 147.041 49.7264 146.252 48.8234 145.761C47.9204 145.271 46.8749 145.11 45.8662 145.306C44.8574 145.501 43.948 146.042 43.2937 146.834C42.6394 147.626 42.2809 148.621 42.2796 149.649C42.2664 150.219 42.3706 150.786 42.5856 151.314C42.8006 151.842 43.1219 152.32 43.5296 152.719V152.739Z" fill="#1B3769"/>
<path d="M142.18 153.718C141.083 154.783 139.614 155.379 138.085 155.379C136.556 155.379 135.088 154.783 133.99 153.718C133.178 152.913 132.624 151.883 132.399 150.762C132.174 149.64 132.288 148.476 132.727 147.419C133.165 146.363 133.909 145.461 134.862 144.828C135.816 144.196 136.936 143.862 138.08 143.868C138.841 143.852 139.596 143.991 140.301 144.276C141.006 144.562 141.646 144.988 142.18 145.528C143.257 146.619 143.861 148.091 143.861 149.623C143.861 151.156 143.257 152.627 142.18 153.718ZM135 152.718C135.82 153.526 136.925 153.979 138.075 153.979C139.226 153.979 140.331 153.526 141.15 152.718C141.953 151.892 142.401 150.785 142.401 149.633C142.401 148.482 141.953 147.375 141.15 146.548C140.333 145.736 139.228 145.279 138.075 145.279C136.923 145.279 135.817 145.736 135 146.548C134.194 147.373 133.742 148.48 133.742 149.633C133.742 150.787 134.194 151.894 135 152.718V152.718Z" fill="#1B3769"/>
<path d="M182.5 141.169C182.087 141.097 181.663 141.108 181.254 141.203C180.846 141.297 180.46 141.473 180.12 141.719C179.835 142.019 179.618 142.377 179.483 142.769C179.349 143.16 179.3 143.576 179.34 143.989V144.419H182.5V145.829H179.34V155.409H177.89V145.829H176V144.419H177.87V143.989C177.827 143.39 177.912 142.788 178.119 142.225C178.326 141.661 178.65 141.148 179.07 140.719C179.535 140.32 180.08 140.025 180.668 139.853C181.256 139.68 181.873 139.635 182.48 139.719L182.5 141.169Z" fill="#1B3769"/>
<path d="M221.15 141.169C220.735 141.097 220.31 141.108 219.9 141.202C219.489 141.297 219.102 141.472 218.76 141.719C218.475 142.019 218.258 142.377 218.124 142.769C217.989 143.161 217.94 143.577 217.98 143.989V144.419H221.15V145.829H218V155.409H216.55V145.829H214.69V144.419H216.55V143.989C216.507 143.39 216.592 142.789 216.799 142.225C217.006 141.661 217.33 141.148 217.75 140.719C218.218 140.32 218.764 140.025 219.353 139.853C219.943 139.68 220.562 139.635 221.17 139.719L221.15 141.169Z" fill="#1B3769"/>
<path d="M255.11 141.789C255.014 141.891 254.897 141.97 254.768 142.024C254.639 142.077 254.5 142.103 254.36 142.099C254.213 142.114 254.064 142.097 253.924 142.051C253.784 142.004 253.655 141.929 253.545 141.829C253.436 141.73 253.348 141.609 253.288 141.474C253.228 141.338 253.197 141.192 253.197 141.044C253.197 140.897 253.228 140.75 253.288 140.615C253.348 140.48 253.436 140.359 253.545 140.259C253.655 140.16 253.784 140.085 253.924 140.038C254.064 139.992 254.213 139.975 254.36 139.989C254.499 139.984 254.638 140.009 254.767 140.06C254.896 140.112 255.013 140.19 255.11 140.289C255.209 140.388 255.287 140.505 255.34 140.633C255.394 140.762 255.421 140.9 255.421 141.039C255.421 141.179 255.394 141.317 255.34 141.445C255.287 141.574 255.209 141.691 255.11 141.789V141.789ZM253.64 155.409V144.409H255.09V155.409H253.64Z" fill="#1B3769"/>
<path d="M293.36 155.408C292.469 155.417 291.589 155.22 290.787 154.831C289.986 154.442 289.286 153.872 288.741 153.167C288.197 152.462 287.824 151.64 287.651 150.766C287.479 149.892 287.511 148.99 287.746 148.131C287.98 147.272 288.411 146.478 289.004 145.814C289.597 145.149 290.336 144.631 291.163 144.3C291.991 143.97 292.883 143.835 293.771 143.908C294.659 143.98 295.518 144.258 296.28 144.718C297.112 145.206 297.772 145.94 298.17 146.818L296.98 147.498C296.691 146.834 296.192 146.283 295.56 145.928C294.982 145.586 294.333 145.381 293.663 145.331C292.993 145.28 292.32 145.386 291.697 145.638C291.075 145.891 290.519 146.284 290.073 146.787C289.628 147.289 289.304 147.889 289.128 148.537C288.952 149.186 288.929 149.866 289.059 150.525C289.19 151.184 289.471 151.804 289.88 152.337C290.29 152.869 290.817 153.3 291.421 153.595C292.025 153.89 292.688 154.042 293.36 154.038C294.13 154.054 294.889 153.853 295.55 153.458C296.187 153.079 296.712 152.538 297.07 151.888L298.28 152.588C297.83 153.464 297.135 154.19 296.28 154.678C295.389 155.177 294.381 155.429 293.36 155.408V155.408Z" fill="#1B3769"/>
<path d="M336.17 143.899C336.923 143.866 337.674 144.003 338.367 144.301C339.06 144.599 339.676 145.05 340.17 145.619C341.162 146.744 341.697 148.2 341.67 149.699C341.681 149.926 341.681 150.153 341.67 150.379H332.02C332.131 151.414 332.64 152.364 333.44 153.029C334.274 153.702 335.319 154.056 336.39 154.029C337.145 154.049 337.893 153.874 338.56 153.519C339.134 153.207 339.609 152.739 339.93 152.169L341.21 152.909C340.714 153.689 340.025 154.326 339.21 154.759C338.328 155.22 337.345 155.453 336.35 155.439C335.573 155.47 334.797 155.341 334.071 155.061C333.346 154.781 332.685 154.355 332.13 153.809C331.593 153.268 331.172 152.622 330.894 151.912C330.615 151.202 330.484 150.442 330.51 149.679C330.488 148.922 330.618 148.168 330.893 147.462C331.168 146.756 331.582 146.113 332.11 145.569C332.637 145.029 333.269 144.602 333.967 144.315C334.666 144.028 335.415 143.887 336.17 143.899ZM336.17 145.299C335.124 145.255 334.101 145.613 333.31 146.299C332.54 146.979 332.048 147.919 331.93 148.939H340.13C340.042 147.902 339.563 146.937 338.79 146.239C338.061 145.616 337.129 145.282 336.17 145.299V145.299Z" fill="#1B3769"/>
<path d="M375.58 147.039C375.577 147.278 375.636 147.513 375.752 147.722C375.868 147.931 376.036 148.106 376.24 148.229C376.735 148.544 377.28 148.774 377.85 148.909C378.484 149.069 379.114 149.249 379.74 149.449C380.353 149.635 380.905 149.98 381.34 150.449C381.793 150.945 382.03 151.599 382 152.269C382.01 152.71 381.915 153.147 381.721 153.544C381.528 153.94 381.243 154.285 380.89 154.549C380.064 155.165 379.05 155.476 378.02 155.429C377.075 155.459 376.141 155.216 375.33 154.729C374.63 154.302 374.086 153.66 373.78 152.899L375.01 152.179C375.215 152.743 375.607 153.22 376.12 153.529C376.687 153.84 377.321 154.008 377.967 154.021C378.613 154.033 379.252 153.888 379.83 153.599C380.062 153.466 380.252 153.271 380.379 153.037C380.506 152.802 380.565 152.536 380.55 152.269C380.554 152.031 380.496 151.795 380.38 151.586C380.264 151.377 380.095 151.202 379.89 151.079C379.399 150.765 378.858 150.535 378.29 150.399C377.664 150.239 377.034 150.059 376.4 149.859C375.787 149.669 375.233 149.324 374.79 148.859C374.566 148.616 374.392 148.331 374.279 148.021C374.166 147.71 374.115 147.38 374.13 147.049C374.127 146.619 374.221 146.194 374.407 145.806C374.592 145.418 374.863 145.077 375.2 144.809C375.957 144.191 376.914 143.871 377.89 143.909C378.714 143.891 379.526 144.099 380.24 144.509C380.896 144.89 381.42 145.462 381.74 146.149L380.53 146.849C380.312 146.345 379.938 145.923 379.463 145.646C378.988 145.369 378.437 145.251 377.89 145.309C377.317 145.293 376.753 145.45 376.27 145.759C376.053 145.893 375.874 146.082 375.753 146.307C375.632 146.531 375.572 146.784 375.58 147.039V147.039Z" fill="#1B3769"/>
<path d="M98.65 144.42H100.14L96.76 155.42H95.18L92.34 146.57L89.51 155.42H87.93L84.54 144.42H86L88.7 153.54L91.58 144.42H93.03L95.91 153.54L98.65 144.42Z" fill="#1B3769"/>
<path d="M110 98.9301V61.53C109.949 58.252 110.394 54.9851 111.32 51.84C112.046 49.3381 113.241 46.9968 114.84 44.94C116.325 43.1431 118.154 41.6607 120.22 40.58C122.288 39.4694 124.508 38.6708 126.81 38.21C129.252 37.7423 131.734 37.5145 134.22 37.53C142.22 37.53 148.257 39.2867 152.33 42.8C156.403 46.3134 158.44 52.0134 158.44 59.9V68.57H139.29V57.1401C139.29 52.8467 137.6 50.7034 134.22 50.71C130.84 50.7167 129.15 52.8601 129.15 57.1401V103.32C129.15 107.6 130.84 109.74 134.22 109.74C137.6 109.74 139.29 107.6 139.29 103.32V92.32H132V79.8901H158.42V121.29H147.29L146.22 117.12C142.8 120.987 137.26 122.92 129.6 122.92C126.761 122.983 123.93 122.602 121.21 121.79C118.896 121.055 116.805 119.748 115.13 117.99C113.231 115.895 111.902 113.347 111.27 110.59C110.346 106.774 109.919 102.855 110 98.9301V98.9301Z" fill="#1B3769"/>
<path d="M165.58 121.29V39.1699H184.85C187.697 39.1699 190.157 39.2166 192.23 39.3099C194.349 39.4074 196.462 39.6143 198.56 39.9299C200.406 40.1722 202.22 40.6148 203.97 41.2499C205.452 41.8406 206.861 42.5989 208.17 43.5099C209.48 44.3989 210.574 45.5711 211.37 46.9399C212.226 48.4631 212.853 50.104 213.23 51.8099C213.707 53.9464 213.935 56.1309 213.91 58.3199C213.91 69.1332 209.03 75.3666 199.27 77.0199V77.2399C204.03 77.2399 207.67 78.4199 210.16 80.7599C212.65 83.0999 213.91 87.0799 213.91 92.6799V109.85C213.91 114.737 214.867 118.55 216.78 121.29H197.52C195.68 118.623 194.76 114.81 194.76 109.85V92.4499C194.892 90.147 194.157 87.878 192.7 86.0899C192.109 85.3691 191.366 84.7881 190.524 84.3887C189.682 83.9893 188.762 83.7814 187.83 83.7799H184.74V121.29H165.58ZM184.74 72.0599C188.9 72.0599 191.61 71.3099 192.87 69.8099C194.13 68.3099 194.76 65.5133 194.76 61.4199C194.795 59.7863 194.681 58.1529 194.42 56.5399C194.216 55.3956 193.743 54.316 193.04 53.3899C192.285 52.4296 191.228 51.7529 190.04 51.4699C188.306 51.0733 186.529 50.8953 184.75 50.9399L184.74 72.0599Z" fill="#1B3769"/>
<path d="M221.39 98.9293V61.5293C221.337 58.2504 221.786 54.9827 222.72 51.8393C223.438 49.3341 224.633 46.9912 226.24 44.9393C227.721 43.1378 229.551 41.6547 231.62 40.5793C233.687 39.467 235.908 38.6683 238.21 38.2093C243.105 37.3026 248.125 37.3026 253.02 38.2093C255.321 38.67 257.542 39.4686 259.61 40.5793C261.676 41.66 263.505 43.1423 264.99 44.9393C266.589 46.996 267.783 49.3374 268.51 51.8393C269.436 54.9843 269.881 58.2512 269.83 61.5293V98.9293C269.881 102.207 269.436 105.474 268.51 108.619C267.784 111.118 266.589 113.456 264.99 115.509C263.505 117.309 261.676 118.795 259.61 119.879C257.54 120.986 255.32 121.784 253.02 122.249C248.124 123.143 243.106 123.143 238.21 122.249C235.909 121.786 233.689 120.987 231.62 119.879C229.55 118.8 227.72 117.314 226.24 115.509C224.633 113.461 223.438 111.122 222.72 108.619C221.786 105.476 221.337 102.208 221.39 98.9293V98.9293ZM240.54 103.319C240.54 107.599 242.23 109.739 245.61 109.739C248.99 109.739 250.68 107.599 250.68 103.319V57.1393C250.68 52.846 248.99 50.7026 245.61 50.7093C242.23 50.7159 240.54 52.8593 240.54 57.1393V103.319Z" fill="#1B3769"/>
<path d="M277 104.559V89.3493H296.15V103.549C296.15 105.909 296.53 107.549 297.3 108.419C298.07 109.289 299.38 109.739 301.22 109.739C301.91 109.787 302.603 109.689 303.252 109.451C303.902 109.213 304.494 108.841 304.99 108.359C305.85 107.439 306.29 105.839 306.29 103.549C306.319 101.121 305.767 98.7209 304.68 96.5493C303.627 94.4518 302.205 92.5615 300.48 90.9693C298.76 89.3793 296.85 87.7892 294.77 86.2092C292.69 84.6292 290.6 82.9592 288.51 81.2092C286.452 79.4563 284.542 77.5365 282.8 75.4693C280.963 73.2329 279.541 70.6862 278.6 67.9493C277.499 64.7804 276.957 61.4439 277 58.0893C277 44.3893 285.184 37.5359 301.55 37.5293C304.645 37.4998 307.734 37.8117 310.76 38.4592C313.412 39.0489 315.951 40.0619 318.28 41.4592C320.536 42.8103 322.364 44.7727 323.55 47.1193C324.866 49.7876 325.514 52.7352 325.44 55.7092V68.6093H306.27V57.0192C306.391 55.3503 305.985 53.6856 305.11 52.2593C304.629 51.7085 304.023 51.2811 303.343 51.0132C302.663 50.7452 301.928 50.6444 301.2 50.7193C299.2 50.7193 297.86 51.2293 297.2 52.2493C296.41 53.7117 296.062 55.3726 296.2 57.0293C296.217 58.9373 296.772 60.802 297.8 62.4093C298.939 64.2352 300.356 65.8716 302 67.2593C303.72 68.7393 305.627 70.2693 307.72 71.8493C309.814 73.4293 311.897 75.1459 313.97 76.9993C316.035 78.8395 317.945 80.8462 319.68 82.9993C321.5 85.2992 322.919 87.8886 323.88 90.6593C324.973 93.7511 325.518 97.01 325.49 100.289C325.49 115.376 317.377 122.923 301.15 122.929C298.127 122.956 295.109 122.654 292.15 122.029C289.482 121.449 286.918 120.46 284.55 119.099C282.206 117.753 280.292 115.77 279.03 113.379C277.619 110.658 276.92 107.624 277 104.559V104.559Z" fill="#1B3769"/>
<path d="M332.56 104.559V89.3493H351.71V103.549C351.71 105.909 352.1 107.549 352.87 108.419C353.64 109.289 354.94 109.739 356.78 109.739C357.47 109.787 358.162 109.689 358.812 109.451C359.461 109.213 360.054 108.841 360.55 108.359C361.423 107.439 361.856 105.836 361.85 103.549C361.879 101.121 361.327 98.7209 360.24 96.5493C359.187 94.4543 357.768 92.5645 356.05 90.9693C354.32 89.3793 352.42 87.7892 350.33 86.2092C348.24 84.6292 346.16 82.9592 344.08 81.2092C342.021 79.4538 340.108 77.5342 338.36 75.4693C336.526 73.2323 335.107 70.6856 334.17 67.9493C333.065 64.781 332.52 61.4445 332.56 58.0893C332.56 44.3893 340.746 37.5359 357.12 37.5293C360.215 37.4998 363.303 37.8117 366.33 38.4592C368.981 39.0507 371.52 40.0636 373.85 41.4592C376.099 42.8151 377.922 44.7765 379.11 47.1193C380.427 49.7906 381.075 52.7418 381 55.7193V68.6192H361.85V57.0192C361.969 55.3517 361.567 53.6883 360.7 52.2593C360.217 51.7072 359.61 51.2784 358.928 51.0088C358.246 50.7392 357.509 50.6365 356.78 50.7092C354.78 50.7092 353.45 51.2192 352.78 52.2392C351.994 53.7033 351.646 55.3629 351.78 57.0192C351.801 58.9281 352.359 60.7926 353.39 62.3992C354.524 64.2249 355.938 65.8614 357.58 67.2493C359.313 68.7293 361.22 70.2593 363.3 71.8393C365.38 73.4093 367.47 75.1292 369.55 76.9892C371.617 78.8293 373.531 80.836 375.27 82.9892C377.082 85.2921 378.498 87.8809 379.46 90.6493C380.553 93.7411 381.098 97 381.07 100.279C381.07 115.366 372.96 122.913 356.74 122.919C353.716 122.945 350.698 122.643 347.74 122.019C345.071 121.437 342.508 120.449 340.14 119.089C337.795 117.743 335.881 115.76 334.62 113.369C333.204 110.652 332.495 107.622 332.56 104.559Z" fill="#1B3769"/>
</svg>
