<svg width="161" height="41" viewBox="0 0 161 41" fill="none" xmlns="http://www.w3.org/2000/svg">
<path fill-rule="evenodd" clip-rule="evenodd" d="M143.3 21.6992H142.4V39.8992H146C147.1 38.5992 147.9 36.9992 148.4 35.2992C149.3 31.8992 148.8 28.2992 147 25.3992C146 23.9992 144.8 22.6992 143.3 21.6992ZM148.6 39.8992H161V32.2992C158.4 32.1992 155.8 32.8992 153.6 34.1992C151.4 35.5992 149.7 37.5992 148.6 39.8992ZM147.1 21.6992C148.1 24.3992 150.1 26.6992 152.6 28.0992C155.1 29.5992 158.1 30.1992 161 29.7992V21.6992H147.1Z" fill="#E0013F"/>
<path fill-rule="evenodd" clip-rule="evenodd" d="M152.1 35.2992C154 36.3992 155.6 37.9992 156.7 39.8992H161V32.2992C157.7 32.1992 154.6 33.2992 152.1 35.2992ZM142.4 31.7992V39.8992H146C147.2 38.4992 148 36.7992 148.5 34.9992C148.9 33.1992 149 31.3992 148.6 29.5992C146.7 30.7992 144.6 31.5992 142.4 31.7992ZM156.3 21.6992H147.1C147.7 23.2992 148.7 24.7992 149.9 26.0992C151.1 27.3992 152.6 28.2992 154.3 28.9992C154.2 26.3992 154.9 23.8992 156.3 21.6992Z" fill="#98014C"/>
<path fill-rule="evenodd" clip-rule="evenodd" d="M134 30.7992C136.4 28.2992 138.1 25.0992 138.8 21.6992H120.2V39.8992H138.8C138.1 36.4992 136.4 33.2992 134 30.7992Z" fill="#67B2CA"/>
<path fill-rule="evenodd" clip-rule="evenodd" d="M133.5 21.6992H120.2V24.9992C123.4 24.9992 126.5 25.7992 129.3 27.2992C131 25.6992 132.4 23.7992 133.5 21.6992ZM129.3 34.2992C126.5 35.7992 123.4 36.5992 120.2 36.5992V39.8992H133.5C132.4 37.7992 131 35.8992 129.3 34.2992Z" fill="#B3E2D8"/>
<path fill-rule="evenodd" clip-rule="evenodd" d="M120.2 25V28.9C121.7 29.4 123.2 30 124.6 30.8C126.3 29.8 127.9 28.6 129.3 27.3C126.5 25.8 123.4 25 120.2 25ZM120.2 32.7V36.6C123.4 36.6 126.5 35.8 129.3 34.3C127.9 32.9 126.3 31.7 124.6 30.8C123.2 31.6 121.7 32.2 120.2 32.7Z" fill="#05759F"/>
<path fill-rule="evenodd" clip-rule="evenodd" d="M142.4 18.2H161V10.3H142.4V18.2ZM142.4 0V8.6H161V0H142.4Z" fill="#A6D514"/>
<path fill-rule="evenodd" clip-rule="evenodd" d="M142.4 15.7H161V12H142.4V15.7ZM142.4 0V6.5H161V0H142.4Z" fill="#40A629"/>
<path fill-rule="evenodd" clip-rule="evenodd" d="M129.8 12.7C128.6 12 127.6 11 126.8 9.8C126.6 8.9 126.6 8 126.9 7.2C127.2 6.3 127.6 5.6 128.3 4.9C129 4.3 129.8 3.8 130.7 3.6C131.6 3.4 132.5 3.4 133.4 3.7C134.3 4 135.1 4.4 135.7 5.1C136.3 5.7 136.8 6.5 137 7.4C137.2 8.3 137.2 9.2 136.9 10C136.6 10.9 136.2 11.6 135.5 12.3C134.7 12.8 133.7 13.2 132.7 13.3C133.9 13.4 135.1 13.2 136.2 12.7C137.3 12.2 138.2 11.5 138.9 10.6V0H120.3V18.2H138.9V13.4C135.9 14.6 132.5 14.4 129.8 12.7Z" fill="#FFB300"/>
<path fill-rule="evenodd" clip-rule="evenodd" d="M126 8.3C125.6 6.8 125.6 5.3 126 3.8C126.4 2.3 127.2 1 128.4 0H126.3C124.9 2.6 124.8 5.7 126 8.3ZM136.1 18.3H138.8V16.5C138 17.1 137 17.7 136.1 18.3ZM121.3 0H120.2V1.6L120.4 1.4C120.7 0.9 121 0.4 121.3 0ZM120.2 13.6V18.3H125.3C124.9 18.1 124.6 17.9 124.3 17.7C122.6 16.7 121.2 15.2 120.2 13.6Z" fill="#FF8000"/>
<path fill-rule="evenodd" clip-rule="evenodd" d="M129.9 12.7C127.8 11.4 126.2 9.4 125.6 7C124.9 4.6 125.2 2.1 126.4 0H123.6C122.3 2 121.8 4.5 122.1 6.9C122.5 9.3 123.7 11.5 125.5 13.1C127.4 14.7 129.7 15.6 132.2 15.7C134.7 15.8 137.1 15 139 13.5C135.9 14.6 132.6 14.4 129.9 12.7ZM136.9 0.6C136.5 0.4 136.2 0.2 135.8 0H130.7C129.5 0.5 128.4 1.3 127.6 2.4C126.8 3.5 126.4 4.7 126.3 6C126.6 4.9 127.1 4 127.9 3.2C128.7 2.4 129.7 1.9 130.8 1.6C131.9 1.3 133 1.4 134.1 1.7C135.2 2 136.1 2.6 136.8 3.5C137.5 4.3 138 5.3 138.2 6.4C138.4 7.5 138.3 8.6 137.8 9.6C137.4 10.6 136.7 11.5 135.8 12.1C134.9 12.8 133.8 13.1 132.7 13.2C133.9 13.3 135.1 13.1 136.2 12.6C137.3 12.1 138.2 11.4 138.9 10.5V2.3C138.3 1.6 137.7 1 136.9 0.6Z" fill="#FF6600"/>
<path fill-rule="evenodd" clip-rule="evenodd" d="M42 34.7V35.3H39.9V39.9H39.2V34.7H42ZM43.7 37.3C43.9 37.3 44.1 37.4 44.3 37.4C45.1 37.4 45.6 37 45.6 36.3C45.6 35.6 45.1 35.3 44.3 35.3C44.1 35.3 43.9 35.3 43.7 35.4V37.3ZM43 34.7C43.4 34.6 43.9 34.6 44.3 34.6C44.8 34.6 45.4 34.7 45.8 35C46.1 35.3 46.3 35.7 46.3 36.1C46.3 36.5 46.2 36.9 45.9 37.2C45.5 37.6 44.9 37.8 44.3 37.8C44.1 37.8 43.9 37.8 43.7 37.8V39.9H43V34.7ZM47.7 34.7L48.8 36.9C48.9 37.2 49.1 37.5 49.2 37.8C49.3 37.5 49.4 37.2 49.5 36.9L50.3 34.7H51L49.9 37.4C49.6 38.1 49.3 38.8 48.9 39.4C48.8 39.6 48.6 39.8 48.4 39.9C48.2 40 48 40.1 47.7 40.1C47.6 40.1 47.4 40.1 47.3 40.1L47.4 39.6C47.5 39.6 47.6 39.6 47.7 39.6C48.3 39.6 48.6 39.1 48.7 38.7C48.8 38.6 48.8 38.5 48.7 38.4L46.9 34.9C46.9 34.7 47.7 34.7 47.7 34.7ZM55.9 34.7V39.9H55.2V35.3H52.7V39.9H52V34.7H55.9ZM61.3 34.7V39.9H60.6V35.3H58.1V39.9H57.4V34.7H61.3ZM65.5 37.7L65 36.2C64.9 35.9 64.8 35.6 64.7 35.2C64.6 35.5 64.5 35.8 64.4 36.1L63.9 37.6H65.5V37.7ZM63.8 38.3L63.2 39.9H62.5L64.3 34.7H65.1L66.9 39.9H66.2L65.6 38.3H63.8ZM70.9 34.7V37H71.1L72.9 34.7H73.7L71.7 37.1C72.1 37.1 72.4 37.3 72.7 37.5C73 37.7 73.2 38.1 73.2 38.4C73.4 38.9 73.6 39.4 73.8 39.9H73.1C72.9 39.5 72.7 39.1 72.6 38.7C72.5 38.4 72.4 38.1 72.1 37.8C71.8 37.6 71.5 37.5 71.1 37.5H70.9V39.9H70.2V34.7H70.9ZM75.2 37.3C75.2 38.4 75.8 39.4 76.9 39.4C78 39.4 78.6 38.4 78.6 37.2C78.6 36.2 78 35.1 76.9 35.1C75.7 35.2 75.2 36.2 75.2 37.3ZM79.3 37.2C79.3 39 78.2 39.9 76.8 39.9C75.4 39.9 74.4 38.8 74.4 37.3C74.4 35.8 75.5 34.6 76.9 34.6C78.3 34.6 79.3 35.7 79.3 37.2ZM85 37.6C85 36.9 84.9 36 84.9 35.3C84.7 35.9 84.5 36.6 84.2 37.3L83.2 39.8H82.7L81.8 37.3C81.6 36.6 81.4 36 81.2 35.3C81.2 35.9 81.1 36.8 81.1 37.6L81 39.8H80.4L80.8 34.6H81.7L82.6 37.1C82.8 37.7 83 38.3 83.1 38.9C83.2 38.4 83.4 37.8 83.7 37.1L84.6 34.6H85.5L85.8 39.8H85.1L85 37.6ZM91.2 34.7V39.9H90.5V35.3H88V39.9H87.3V34.7H91.2ZM95.4 37.7L94.9 36.2C94.8 35.9 94.7 35.6 94.6 35.2C94.5 35.5 94.4 35.8 94.3 36.1L93.8 37.6C93.8 37.7 95.4 37.7 95.4 37.7ZM93.6 38.3L93 39.9H92.3L94.1 34.7H95L96.8 39.9H96.1L95.5 38.3H93.6ZM98.7 34.7V36.9H101.3V34.7H102V39.9H101.3V37.5H98.7V39.9H98V34.7H98.7ZM104.2 34.7V36.9C104.2 37.7 104.2 38.4 104.1 39.1C104.4 38.6 104.7 38 105.1 37.4L106.8 34.7H107.5V39.9H106.9V37.7C106.9 36.9 106.9 36.2 107 35.6C106.7 36.2 106.4 36.8 106 37.4L104.3 40H103.6V34.8L104.2 34.7ZM110.6 33.6C110.6 33.8 110.7 34.1 111.1 34.1C111.5 34.1 111.6 33.9 111.6 33.6H112.1C112.1 34.1 111.7 34.4 111.1 34.4C110.9 34.4 110.6 34.4 110.4 34.2C110.2 34 110.1 33.8 110.1 33.6H110.6V33.6ZM109.8 34.7V36.9C109.8 37.7 109.8 38.4 109.7 39.1C110 38.6 110.3 38 110.7 37.4L112.4 34.7H113.1V39.9H112.5V37.7C112.5 36.9 112.5 36.2 112.6 35.6C112.3 36.2 112 36.8 111.6 37.4L109.9 40H109.2V34.8H109.8V34.7ZM108 19.7L113.9 10H109.4L105.8 16.4L102.2 10H97.7L103.6 19.7L97.3 29.9H101.8L105.7 23L109.6 29.9H114.1L108 19.7ZM81.8 29.9H95.2V26.4H85.8V21.6H93.8V18.1H85.8V13.3H95.2V10H81.8V29.9ZM64.4 13.5H69.7V30H73.7V13.5H79V10H64.4V13.5ZM58.7 20.7C58.7 23.5 58.6 24.9 57.7 25.8C57.4 26.2 57 26.4 56.5 26.6C56.1 26.8 55.6 26.9 55.1 26.9C54.6 26.9 54.1 26.8 53.7 26.6C53.3 26.4 52.9 26.1 52.5 25.8C51.7 25 51.5 23.8 51.5 20.9V19C51.5 16.5 51.7 14.9 52.5 14C52.8 13.6 53.2 13.4 53.7 13.2C54.1 13 54.6 12.9 55.1 12.9C55.6 12.9 56.1 13 56.5 13.2C56.9 13.4 57.3 13.7 57.7 14C58.5 14.9 58.7 16.3 58.7 18.9V20.7ZM55.1 9.5C54.1 9.5 53.1 9.6 52.1 10C51.2 10.4 50.3 10.9 49.6 11.7C48.1 13.2 47.7 15.3 47.6 18.2H44.5V10H40.5V29.9H44.5V21.7H47.6C47.7 24.3 47.9 26.6 49.6 28.2C51.1 29.6 53.1 30.4 55.1 30.4C57.2 30.4 59.1 29.6 60.6 28.2C62.6 26.2 62.6 23.9 62.6 20.5V17.8C62.6 15.1 62.1 13.1 60.6 11.6C59.9 10.9 59 10.3 58.1 9.9C57.2 9.7 56.2 9.5 55.1 9.5ZM23.2 19C23.2 25.2 21.8 26.4 19.7 26.4H19.1V29.9H20.7C24.9 29.9 27 27.6 27 19.2V13.4H31.9V29.9H35.9V10H23.2V19ZM6.5 23.2L9.1 15.9L11.6 23.2H6.5ZM7.4 10L0 30H4.2L5.4 26.5H12.6L13.8 30H18L10.6 10H7.4Z" fill="white"/>
</svg>
