<svg width="102" height="112" viewBox="0 0 102 112" fill="none" xmlns="http://www.w3.org/2000/svg">
<path d="M51.1739 5.63095C51.1739 5.31004 51.3013 5.00228 51.5283 4.77536C51.7552 4.54844 52.063 4.42096 52.3839 4.42096C52.3839 4.10005 52.2564 3.79226 52.0295 3.56534C51.8026 3.33842 51.4948 3.21094 51.1739 3.21094C50.8529 3.21094 50.5452 3.33842 50.3183 3.56534C50.0913 3.79226 49.9639 4.10005 49.9639 4.42096C50.2848 4.42096 50.5925 4.54844 50.8195 4.77536C51.0464 5.00228 51.1739 5.31004 51.1739 5.63095Z" fill="white"/>
<path d="M51.1739 5.63086C51.1739 5.9527 51.0467 6.26151 50.8201 6.49002C50.5934 6.71853 50.2857 6.84822 49.9639 6.85086C49.9639 7.17177 50.0913 7.47953 50.3183 7.70645C50.5452 7.93337 50.8529 8.06085 51.1739 8.06085C51.4948 8.06085 51.8026 7.93337 52.0295 7.70645C52.2564 7.47953 52.3839 7.17177 52.3839 6.85086C52.0621 6.84822 51.7543 6.71853 51.5276 6.49002C51.301 6.26151 51.1738 5.9527 51.1739 5.63086V5.63086Z" fill="white"/>
<path d="M51.1732 5.62991C50.8522 5.62991 50.5445 5.50243 50.3176 5.27551C50.0906 5.04859 49.9632 4.74083 49.9632 4.41992C49.6413 4.41991 49.3325 4.54705 49.104 4.77368C48.8755 5.00032 48.7458 5.30809 48.7432 5.62991C48.7432 5.95348 48.8717 6.26379 49.1005 6.49258C49.3293 6.72138 49.6396 6.84991 49.9632 6.84991C49.9632 6.52808 50.0903 6.21926 50.317 5.99075C50.5436 5.76224 50.8513 5.63255 51.1732 5.62991V5.62991Z" fill="white"/>
<path d="M52.3839 4.41992C52.3839 4.74083 52.2564 5.04859 52.0294 5.27551C51.8025 5.50243 51.4947 5.62991 51.1738 5.62991C51.4957 5.63255 51.8034 5.76224 52.0301 5.99075C52.2567 6.21926 52.3839 6.52808 52.3839 6.84991C52.7074 6.84991 53.0177 6.72138 53.2465 6.49258C53.4753 6.26379 53.6039 5.95348 53.6039 5.62991C53.6012 5.30809 53.4715 5.00032 53.243 4.77368C53.0145 4.54705 52.7057 4.41991 52.3839 4.41992Z" fill="white"/>
<path d="M44.0432 19.1298C41.9032 16.7198 38.6032 15.3698 33.9632 15.0098H33.6632V15.2998C33.6632 15.5598 32.7932 21.6998 36.4632 26.4198C38.7032 29.2898 42.1132 30.9898 46.6232 31.4198H46.9432V31.0998C47.3532 25.7198 46.4132 21.7898 44.0432 19.1298ZM44.8732 21.4498L36.4132 25.2898C35.9051 24.5074 35.4827 23.6726 35.1532 22.7998L43.2432 19.2198L43.5632 19.5498C44.0738 20.1288 44.5136 20.7667 44.8732 21.4498V21.4498ZM34.9432 22.1898C34.7191 21.4864 34.5453 20.7679 34.4232 20.0398L40.2332 17.1398C41.145 17.5506 41.9936 18.0894 42.7532 18.7398L34.9432 22.1898ZM34.2232 15.6698C36.0149 15.8009 37.779 16.1847 39.4632 16.8098L34.3232 19.3798C34.1584 18.1502 34.1249 16.9065 34.2232 15.6698V15.6698ZM36.9332 25.9998L36.7932 25.8098L45.1532 22.0198C45.765 23.4193 46.1465 24.9085 46.2832 26.4298L40.7132 29.1298C39.2395 28.3754 37.9492 27.307 36.9332 25.9998V25.9998ZM46.3232 30.7598C44.6482 30.5731 43.0103 30.1383 41.4632 29.4698L46.3332 27.1098C46.4152 28.3285 46.4119 29.5515 46.3232 30.7698V30.7598Z" fill="white"/>
<path d="M62.1334 9.37024C62.1382 9.30032 62.1382 9.23016 62.1334 9.16025C62.097 8.11046 61.9867 7.06454 61.8034 6.03024L61.7534 5.74023H61.4634C61.2034 5.74023 55.0434 6.45025 51.3534 11.1602C49.1134 14.0302 48.3034 17.7502 48.9334 22.2402L48.9834 22.5602L49.3034 22.5002C58.1534 21.0102 62.3034 16.8302 62.1434 9.50024C62.1467 9.45665 62.1433 9.41281 62.1334 9.37024V9.37024ZM54.1334 14.1502C54.1191 14.3949 54.0155 14.6258 53.8422 14.7991C53.6689 14.9723 53.438 15.076 53.1934 15.0902C52.9441 15.0902 52.705 14.9912 52.5287 14.8149C52.3524 14.6386 52.2534 14.3995 52.2534 14.1502C52.256 13.9027 52.3562 13.6661 52.5322 13.492C52.7082 13.3179 52.9458 13.2202 53.1934 13.2202C53.3177 13.2176 53.4412 13.2396 53.557 13.285C53.6727 13.3305 53.7782 13.3984 53.8675 13.4849C53.9567 13.5714 54.028 13.6747 54.0771 13.7889C54.1262 13.9031 54.1521 14.0259 54.1534 14.1502H54.1334ZM53.1334 17.0302C53.0236 17.0205 52.9132 17.0205 52.8034 17.0302C52.4028 17.032 52.0179 17.1858 51.7264 17.4605C51.4349 17.7353 51.2587 18.1105 51.2334 18.5102L49.6134 16.5802C49.7981 15.6105 50.1003 14.6669 50.5134 13.7702L53.1334 17.0302ZM51.8634 18.5703C51.8634 18.3209 51.9624 18.0818 52.1387 17.9056C52.315 17.7293 52.5541 17.6302 52.8034 17.6302C53.0527 17.6302 53.2918 17.7293 53.4681 17.9056C53.6443 18.0818 53.7434 18.3209 53.7434 18.5703C53.7434 18.8196 53.6443 19.0586 53.4681 19.2349C53.2918 19.4112 53.0527 19.5102 52.8034 19.5102C52.5541 19.5102 52.315 19.4112 52.1387 19.2349C51.9624 19.0586 51.8634 18.8196 51.8634 18.5703V18.5703ZM52.8034 20.1502C53.2155 20.1477 53.6104 19.9842 53.9037 19.6946C54.197 19.4051 54.3656 19.0123 54.3734 18.6003L55.4934 20.0002C54.7718 20.3543 54.0267 20.6583 53.2634 20.9102L52.6134 20.1302L52.8034 20.1502ZM52.8834 15.7002C52.9932 15.7101 53.1036 15.7101 53.2134 15.7002C53.5649 15.7007 53.9062 15.5825 54.1821 15.3647C54.458 15.1469 54.6523 14.8423 54.7334 14.5002L57.9234 18.4102C57.3438 18.887 56.7211 19.3088 56.0634 19.6702L52.8834 15.7002ZM56.2834 14.8402C56.2834 14.5909 56.3824 14.3519 56.5587 14.1756C56.735 13.9993 56.9741 13.9002 57.2234 13.9002C57.4727 13.9002 57.7118 13.9993 57.8881 14.1756C58.0643 14.3519 58.1634 14.5909 58.1634 14.8402C58.1491 15.0849 58.0455 15.3158 57.8722 15.489C57.6989 15.6623 57.468 15.766 57.2234 15.7802C56.9787 15.766 56.7479 15.6623 56.5746 15.489C56.4013 15.3158 56.2977 15.0849 56.2834 14.8402ZM57.2834 11.8402C57.6664 11.8298 58.0323 11.6796 58.3123 11.4181C58.5923 11.1565 58.7669 10.8017 58.8034 10.4203L61.1534 13.1602C60.9554 14.0183 60.6426 14.8458 60.2234 15.6202L57.2834 11.8402ZM54.9134 8.79025C55.4571 8.44284 56.0215 8.12892 56.6034 7.85025L57.3234 8.70026H57.2434C56.9007 8.70086 56.5676 8.81357 56.2949 9.02121C56.0223 9.22885 55.8251 9.52003 55.7334 9.85025L54.9134 8.79025ZM56.3034 10.2702C56.3034 10.0209 56.4024 9.78184 56.5787 9.60556C56.755 9.42928 56.9941 9.33023 57.2434 9.33023C57.4927 9.33023 57.7318 9.42928 57.9081 9.60556C58.0843 9.78184 58.1834 10.0209 58.1834 10.2702C58.1808 10.5178 58.0805 10.7543 57.9045 10.9285C57.7285 11.1026 57.491 11.2003 57.2434 11.2003C57.1016 11.1962 56.9622 11.162 56.8346 11.0999C56.707 11.0378 56.5941 10.9493 56.5034 10.8402V10.7802C56.386 10.6482 56.3096 10.4849 56.2834 10.3102L56.3034 10.2702ZM59.6334 9.33023C59.636 9.08266 59.7362 8.84615 59.9122 8.67203C60.0882 8.4979 60.3258 8.40022 60.5734 8.40024C60.7938 8.40171 61.0068 8.48065 61.175 8.62323C61.3432 8.76581 61.4559 8.96297 61.4934 9.18024C61.4981 9.25349 61.4981 9.32698 61.4934 9.40024C61.4758 9.6355 61.3704 9.85556 61.1982 10.0167C61.0259 10.1779 60.7993 10.2684 60.5634 10.2702C60.3191 10.2731 60.0834 10.1807 59.906 10.0127C59.7287 9.8447 59.6238 9.61428 59.6134 9.37024L59.6334 9.33023ZM59.9534 10.7802C60.1493 10.8645 60.3601 10.9087 60.5734 10.9102C60.9041 10.9103 61.2263 10.8052 61.4934 10.6102C61.4705 11.2001 61.4104 11.788 61.3134 12.3702L59.9534 10.7802ZM61.4234 8.01025C61.1699 7.84704 60.8748 7.76025 60.5734 7.76025C60.1561 7.76025 59.7557 7.92533 59.4597 8.21948C59.1636 8.51363 58.996 8.91292 58.9934 9.33023C58.9972 9.46549 59.0173 9.59982 59.0534 9.73026L57.2034 7.58023C58.4853 7.03211 59.8282 6.63934 61.2034 6.41025C61.2834 7.00025 61.3534 7.53023 61.4034 8.05023L61.4234 8.01025ZM54.4234 9.15024L55.9734 11.1502L57.6134 13.2602C57.5006 13.245 57.3862 13.245 57.2734 13.2602C56.8872 13.2626 56.5152 13.4064 56.2278 13.6643C55.9404 13.9223 55.7574 14.2766 55.7134 14.6602L52.5634 10.7903C53.1129 10.2027 53.7155 9.66709 54.3634 9.19025L54.4234 9.15024ZM51.8834 11.5502L52.1434 11.2402L53.2134 12.5402C52.8124 12.5577 52.4329 12.7262 52.151 13.0118C51.8691 13.2974 51.7056 13.6791 51.6934 14.0802L50.9034 13.0802C51.1723 12.5613 51.4798 12.0632 51.8234 11.5902L51.8834 11.5502ZM49.5334 17.3203L52.6734 21.0802C51.6472 21.3791 50.6057 21.6228 49.5534 21.8102C49.3354 20.3365 49.3086 18.8408 49.4734 17.3602L49.5334 17.3203ZM58.4534 17.9702L57.1434 16.3602H57.2834C57.6929 16.3604 58.0863 16.2005 58.3796 15.9146C58.673 15.6288 58.843 15.2397 58.8534 14.8302L59.9234 16.2002C59.4938 16.8642 58.9794 17.4693 58.3934 18.0002L58.4534 17.9702Z" fill="white"/>
<path d="M39.1738 10.6305C39.1738 10.9992 39.3203 11.3527 39.581 11.6134C39.8416 11.8741 40.1952 12.0205 40.5638 12.0205H40.8138C41.0483 11.5361 41.4394 11.145 41.9238 10.9105C41.9337 10.8241 41.9337 10.7369 41.9238 10.6505C41.9336 10.5675 41.9336 10.4836 41.9238 10.4005C41.4434 10.1605 41.0539 9.77096 40.8138 9.29053C40.7308 9.28076 40.6469 9.28076 40.5638 9.29053C40.2037 9.2903 39.8575 9.42985 39.5982 9.67981C39.339 9.92977 39.1868 10.2706 39.1738 10.6305Z" fill="white"/>
<path d="M40.5638 12.4792C40.0731 12.4792 39.6026 12.2843 39.2556 11.9374C38.9087 11.5904 38.7138 11.1199 38.7138 10.6292C38.7164 10.1403 38.9125 9.67232 39.2592 9.32754C39.6058 8.98275 40.0749 8.78923 40.5638 8.78924H40.6438C40.592 8.5968 40.5651 8.39852 40.5638 8.19924C40.2451 8.19792 39.9294 8.25955 39.6346 8.38057C39.3398 8.5016 39.0719 8.67962 38.8461 8.90447C38.6203 9.12932 38.4412 9.39655 38.3189 9.69082C38.1967 9.98508 38.1338 10.3006 38.1338 10.6192C38.1338 11.2637 38.3898 11.8818 38.8455 12.3375C39.3012 12.7932 39.9193 13.0492 40.5638 13.0492C40.5644 12.8499 40.5913 12.6515 40.6438 12.4592L40.5638 12.4792Z" fill="white"/>
<path d="M43.2334 11.6797C43.1504 11.6693 43.0664 11.6693 42.9834 11.6797H42.7434C42.5057 12.1677 42.1114 12.562 41.6234 12.7997C41.6138 12.8794 41.6138 12.96 41.6234 13.0397C41.6234 13.4084 41.7699 13.7619 42.0305 14.0226C42.2912 14.2833 42.6448 14.4297 43.0134 14.4297C43.3821 14.4297 43.7356 14.2833 43.9963 14.0226C44.257 13.7619 44.4034 13.4084 44.4034 13.0397C44.4084 12.9598 44.4084 12.8797 44.4034 12.7997C43.8968 12.5712 43.4839 12.1759 43.2334 11.6797Z" fill="white"/>
<path d="M44.8335 13C44.8335 13.4907 44.6386 13.9612 44.2916 14.3082C43.9447 14.6551 43.4741 14.85 42.9835 14.85C42.4945 14.8474 42.0266 14.6513 41.6818 14.3046C41.337 13.958 41.1435 13.4889 41.1435 13V13C40.9546 13.0524 40.7595 13.0793 40.5635 13.08C40.5635 13.7218 40.8184 14.3374 41.2723 14.7912C41.7261 15.245 42.3416 15.5 42.9835 15.5C43.3021 15.5013 43.6179 15.4397 43.9126 15.3187C44.2074 15.1976 44.4754 15.0196 44.7011 14.7947C44.9269 14.5699 45.1061 14.3027 45.2283 14.0084C45.3505 13.7141 45.4135 13.3986 45.4135 13.08C45.2142 13.0794 45.0158 13.0525 44.8235 13C44.8235 13 44.8335 13 44.8335 13Z" fill="white"/>
<path d="M46.8033 10.6298C46.8007 10.262 46.6534 9.90994 46.3933 9.64983C46.1332 9.38972 45.7811 9.24241 45.4133 9.23979C45.3269 9.22996 45.2397 9.22996 45.1533 9.23979C44.9201 9.7217 44.533 10.1123 44.0533 10.3498C44.0435 10.4329 44.0435 10.5168 44.0533 10.5998C44.0434 10.6862 44.0434 10.7734 44.0533 10.8598C44.5368 11.0921 44.9253 11.4842 45.1533 11.9698H45.4133C45.7734 11.97 46.1196 11.8305 46.3789 11.5805C46.6382 11.3306 46.7903 10.9897 46.8033 10.6298Z" fill="white"/>
<path d="M45.414 8.21094C45.4127 8.41022 45.3858 8.6085 45.334 8.80093H45.414C45.902 8.80093 46.37 8.99481 46.7151 9.33987C47.0601 9.68494 47.254 10.153 47.254 10.641C47.2553 10.8834 47.2087 11.1237 47.1168 11.3481C47.0249 11.5725 46.8896 11.7766 46.7186 11.9485C46.5476 12.1204 46.3443 12.2568 46.1205 12.3499C45.8966 12.443 45.6565 12.491 45.414 12.491H45.334C45.3864 12.6833 45.4134 12.8816 45.414 13.0809C45.7326 13.081 46.0481 13.018 46.3424 12.8958C46.6367 12.7735 46.9039 12.5944 47.1287 12.3686C47.3536 12.1428 47.5316 11.8749 47.6526 11.5801C47.7737 11.2853 47.8353 10.9696 47.834 10.6509C47.8366 10.3315 47.776 10.0146 47.6555 9.71872C47.5351 9.4228 47.3573 9.15366 47.1323 8.92682C46.9073 8.69998 46.6396 8.51993 46.3447 8.39706C46.0498 8.2742 45.7335 8.21093 45.414 8.21094V8.21094Z" fill="white"/>
<path d="M42.764 9.62915H42.984H43.214C43.4455 9.11785 43.8489 8.70384 44.354 8.45914C44.3589 8.39256 44.3589 8.32573 44.354 8.25916C44.354 7.8905 44.2076 7.53695 43.9469 7.27628C43.6862 7.0156 43.3327 6.86914 42.964 6.86914C42.5962 6.87176 42.2441 7.01906 41.984 7.27917C41.7239 7.53928 41.5766 7.89131 41.574 8.25916C41.5691 8.32573 41.5691 8.39256 41.574 8.45914C42.0989 8.69273 42.5215 9.10831 42.764 9.62915Z" fill="white"/>
<path d="M41.1435 8.26001C41.1461 7.77282 41.3408 7.30632 41.6853 6.96182C42.0298 6.61732 42.4963 6.42264 42.9835 6.42001C43.4724 6.42001 43.9415 6.61353 44.2881 6.95831C44.6348 7.3031 44.8308 7.77109 44.8335 8.26001V8.26001C45.0224 8.20762 45.2175 8.1807 45.4135 8.17999C45.4135 7.53552 45.1575 6.91744 44.7018 6.46173C44.2461 6.00602 43.628 5.75 42.9835 5.75C42.6648 5.75 42.3493 5.81291 42.0551 5.93515C41.7608 6.05739 41.4936 6.23656 41.2688 6.46234C41.0439 6.68812 40.8659 6.95606 40.7448 7.25082C40.6238 7.54559 40.5622 7.86135 40.5635 8.17999C40.7595 8.18128 40.9545 8.2082 41.1435 8.26001V8.26001Z" fill="white"/>
<path d="M42.984 11.5405C42.865 11.5405 42.7471 11.5169 42.6373 11.4711C42.5274 11.4252 42.4278 11.358 42.3441 11.2734C42.2604 11.1887 42.1943 11.0883 42.1497 10.978C42.105 10.8676 42.0827 10.7495 42.084 10.6305C42.084 10.3918 42.1789 10.1629 42.3477 9.9941C42.5164 9.82532 42.7453 9.73052 42.984 9.73052C43.1031 9.7292 43.2212 9.7515 43.3315 9.79614C43.4419 9.84077 43.5423 9.90686 43.6269 9.99056C43.7116 10.0743 43.7787 10.1739 43.8246 10.2838C43.8704 10.3936 43.894 10.5115 43.894 10.6305C43.894 10.8719 43.7982 11.1033 43.6275 11.274C43.4568 11.4446 43.2254 11.5405 42.984 11.5405V11.5405ZM42.984 10.0105C42.8196 10.0105 42.6619 10.0758 42.5456 10.1921C42.4294 10.3084 42.364 10.4661 42.364 10.6305C42.364 10.7959 42.429 10.9546 42.545 11.0725C42.661 11.1904 42.8187 11.2579 42.984 11.2605C43.1511 11.2605 43.3114 11.1941 43.4295 11.076C43.5477 10.9578 43.614 10.7976 43.614 10.6305C43.614 10.5478 43.5978 10.4659 43.5661 10.3894C43.5344 10.313 43.488 10.2435 43.4295 10.185C43.371 10.1265 43.3016 10.0801 43.2251 10.0485C43.1487 10.0168 43.0668 10.0005 42.984 10.0005V10.0105Z" fill="white"/>
<path d="M85.3338 15.7806C85.3338 15.7306 85.3338 15.6806 85.3338 15.6306C85.2885 14.5611 85.1749 13.4956 84.9938 12.4406L84.9438 12.1406H84.6538C84.3938 12.1406 78.2338 12.8506 74.5438 17.5606C72.3038 20.4306 71.4938 24.1506 72.1238 28.6406L72.1738 28.9606L72.4938 28.9106C77.8538 28.0006 81.4438 26.1306 83.4938 23.1806C84.8858 21.0076 85.5447 18.4456 85.3738 15.8706C85.3635 15.8394 85.3501 15.8092 85.3338 15.7806ZM76.9938 19.7806L77.2238 20.0506C77.3086 20.1927 77.3536 20.3551 77.3538 20.5206C77.3512 20.7682 77.251 21.0047 77.075 21.1788C76.899 21.353 76.6614 21.4506 76.4138 21.4506C76.1662 21.4506 75.9286 21.353 75.7526 21.1788C75.5766 21.0047 75.4765 20.7682 75.4738 20.5206C75.4738 20.2713 75.5728 20.0322 75.7491 19.8559C75.9254 19.6797 76.1645 19.5806 76.4138 19.5806C76.6279 19.5963 76.8312 19.6805 76.9938 19.8206V19.7806ZM76.3338 23.3906C76.224 23.3807 76.1136 23.3807 76.0038 23.3906C75.6042 23.3898 75.2193 23.5414 74.9276 23.8146C74.6358 24.0877 74.4593 24.4618 74.4338 24.8606L72.8138 22.9306C72.9985 21.9609 73.3008 21.0172 73.7138 20.1206L76.3338 23.3906ZM75.0638 25.0006C75.0638 24.7513 75.1628 24.5122 75.3391 24.336C75.5154 24.1597 75.7545 24.0606 76.0038 24.0606C76.2531 24.0606 76.4922 24.1597 76.6685 24.336C76.8448 24.5122 76.9438 24.7513 76.9438 25.0006C76.9438 25.2499 76.8448 25.489 76.6685 25.6653C76.4922 25.8416 76.2531 25.9406 76.0038 25.9406C75.7545 25.9406 75.5154 25.8416 75.3391 25.6653C75.1628 25.489 75.0638 25.2499 75.0638 25.0006V25.0006ZM76.0038 26.5806C76.4168 26.5807 76.8131 26.418 77.107 26.1279C77.4008 25.8378 77.5685 25.4435 77.5738 25.0306L78.6738 26.4206C77.9598 26.7764 77.2213 27.0805 76.4638 27.3306L75.8138 26.5606L76.0038 26.5806ZM76.0838 22.1306C76.1936 22.141 76.3041 22.141 76.4138 22.1306C76.767 22.1275 77.1091 22.0069 77.3862 21.7878C77.6632 21.5687 77.8594 21.2636 77.9438 20.9206L81.2238 24.7206C80.6074 25.2467 79.937 25.7059 79.2238 26.0906L76.0838 22.1306ZM79.4838 21.2706C79.4838 21.0213 79.5828 20.7822 79.7591 20.6059C79.9354 20.4297 80.1745 20.3306 80.4238 20.3306C80.6731 20.3306 80.9122 20.4297 81.0885 20.6059C81.2648 20.7822 81.3638 21.0213 81.3638 21.2706C81.3638 21.5199 81.2648 21.759 81.0885 21.9353C80.9122 22.1116 80.6731 22.2106 80.4238 22.2106C80.2978 22.2107 80.1731 22.1854 80.057 22.1363C79.941 22.0872 79.836 22.0153 79.7483 21.9248C79.6606 21.8343 79.592 21.7271 79.5466 21.6096C79.5011 21.492 79.4798 21.3666 79.4838 21.2406V21.2706ZM80.4838 18.2706C80.8668 18.2602 81.2327 18.11 81.5127 17.8485C81.7927 17.5869 81.9674 17.232 82.0038 16.8506L84.3438 19.5806C84.1369 20.4328 83.8245 21.2558 83.4138 22.0306L80.4838 18.2706ZM78.1138 15.2706C78.6537 14.8992 79.2183 14.5651 79.8038 14.2706L80.5238 15.1206H80.4438C80.0998 15.1218 79.7657 15.236 79.4929 15.4456C79.2201 15.6552 79.0237 15.9485 78.9338 16.2806L78.1138 15.2706ZM79.5038 16.7406C79.5038 16.4913 79.6028 16.2522 79.7791 16.0759C79.9554 15.8997 80.1945 15.8006 80.4438 15.8006C80.6931 15.8006 80.9322 15.8997 81.1085 16.0759C81.2848 16.2522 81.3838 16.4913 81.3838 16.7406C81.3695 16.9853 81.2659 17.2162 81.0926 17.3894C80.9193 17.5627 80.6885 17.6663 80.4438 17.6806C80.3004 17.6795 80.1592 17.6456 80.0309 17.5814C79.9027 17.5173 79.7908 17.4247 79.7038 17.3106V17.2506C79.5732 17.0996 79.4959 16.9099 79.4838 16.7106L79.5038 16.7406ZM82.8338 15.8106C82.8338 15.5613 82.9329 15.3222 83.1091 15.146C83.2854 14.9697 83.5245 14.8706 83.7738 14.8706C83.9865 14.8683 84.1934 14.9398 84.3593 15.0729C84.5252 15.206 84.6399 15.3925 84.6838 15.6006C84.6888 15.6939 84.6888 15.7874 84.6838 15.8806C84.6639 16.1141 84.5575 16.3317 84.3854 16.4908C84.2134 16.6499 83.9881 16.739 83.7538 16.7406C83.6287 16.7407 83.5048 16.7157 83.3894 16.6672C83.274 16.6187 83.1695 16.5477 83.0819 16.4583C82.9944 16.3689 82.9256 16.2629 82.8796 16.1465C82.8335 16.0301 82.8112 15.9057 82.8138 15.7806L82.8338 15.8106ZM83.1538 17.2506C83.3483 17.3394 83.5601 17.3839 83.7738 17.3806C84.1017 17.3821 84.4211 17.2768 84.6838 17.0806C84.6611 17.6672 84.601 18.2517 84.5038 18.8306L83.1538 17.2506ZM84.6238 14.4806C84.3704 14.3174 84.0753 14.2306 83.7738 14.2306C83.3548 14.2306 82.9529 14.3971 82.6566 14.6934C82.3603 14.9897 82.1938 15.3916 82.1938 15.8106C82.1991 15.9458 82.2192 16.0799 82.2538 16.2106L80.3838 14.0006C81.6657 13.4525 83.0086 13.0597 84.3838 12.8306C84.4838 13.4006 84.5538 13.9306 84.6038 14.4506L84.6238 14.4806ZM77.6238 15.6206L79.1738 17.6206L80.8138 19.7306C80.7007 19.7202 80.5869 19.7202 80.4738 19.7306C80.0948 19.732 79.7291 19.8705 79.4443 20.1205C79.1594 20.3704 78.9745 20.715 78.9238 21.0906L77.7138 19.7106C77.6345 19.5895 77.5404 19.4786 77.4338 19.3806L75.6138 17.2806C76.2045 16.6522 76.8579 16.086 77.5638 15.5906L77.6238 15.6206ZM75.0838 18.0206C75.1438 17.9406 75.2138 17.8706 75.2738 17.8006L76.3338 19.0206C75.9488 19.0569 75.5901 19.2323 75.3251 19.5139C75.06 19.7955 74.9067 20.1641 74.8938 20.5506L74.1038 19.5506C74.3701 19.011 74.6777 18.4928 75.0238 18.0006L75.0838 18.0206ZM72.7138 23.7606L75.8438 27.5106C74.8228 27.8189 73.7843 28.066 72.7338 28.2506C72.5323 26.7612 72.5256 25.2518 72.7138 23.7606V23.7606ZM81.7138 24.2906L80.4338 22.8106C80.8434 22.8108 81.2368 22.6509 81.5301 22.365C81.8234 22.0792 81.9934 21.69 82.0038 21.2806L83.0538 22.6306L82.9138 22.8506C82.5667 23.3724 82.1644 23.8551 81.7138 24.2906V24.2906Z" fill="white"/>
<path d="M27.0235 20.1192C23.3335 15.4092 17.1736 14.7292 16.9136 14.6992H16.6236L16.5735 14.9992C16.3875 16.0535 16.2739 17.1194 16.2335 18.1892C16.2287 18.2391 16.2287 18.2893 16.2335 18.3392C16.2287 18.3791 16.2287 18.4194 16.2335 18.4592C16.0626 21.0342 16.7215 23.5962 18.1135 25.7692C20.1135 28.7192 23.7035 30.5892 29.1135 31.4992L29.4336 31.5492L29.4835 31.2292C30.0735 26.7092 29.2635 22.9992 27.0235 20.1192ZM17.7935 19.2492C17.5616 19.2349 17.3419 19.1402 17.1722 18.9814C17.0025 18.8226 16.8933 18.6097 16.8635 18.3792C16.8586 18.286 16.8586 18.1925 16.8635 18.0992C16.9075 17.8911 17.0221 17.7046 17.188 17.5715C17.354 17.4384 17.5609 17.3669 17.7735 17.3692C18.0229 17.3692 18.2619 17.4683 18.4382 17.6445C18.6145 17.8208 18.7136 18.0599 18.7136 18.3092C18.6998 18.5507 18.599 18.7789 18.4298 18.9518C18.2607 19.1246 18.0346 19.2303 17.7935 19.2492ZM17.7935 19.8792C18.0073 19.8825 18.2191 19.838 18.4136 19.7492L17.0636 21.3292C16.9679 20.7498 16.9045 20.1656 16.8736 19.5792C17.1407 19.7742 17.4628 19.8793 17.7935 19.8792V19.8792ZM19.5636 19.3992C19.6002 19.7796 19.7753 20.1334 20.0554 20.3933C20.3356 20.6532 20.7015 20.8012 21.0835 20.8092L18.1536 24.5692C17.7386 23.7964 17.426 22.9728 17.2236 22.1192L19.5636 19.3992ZM22.6336 18.8192C22.5437 18.4871 22.3473 18.1938 22.0745 17.9842C21.8017 17.7746 21.4676 17.6604 21.1236 17.6592H21.0435L21.7635 16.8092C22.3455 17.0879 22.9099 17.4018 23.4535 17.7492L22.6336 18.8192ZM21.8635 19.8192C21.7766 19.9333 21.6647 20.0259 21.5365 20.09C21.4082 20.1541 21.267 20.1881 21.1236 20.1892C20.8789 20.1749 20.648 20.0713 20.4748 19.898C20.3015 19.7247 20.1978 19.4939 20.1836 19.2492C20.1836 18.9999 20.2826 18.7608 20.4589 18.5845C20.6352 18.4083 20.8743 18.3092 21.1236 18.3092C21.3729 18.3092 21.6119 18.4083 21.7882 18.5845C21.9645 18.7608 22.0636 18.9999 22.0636 19.2492C22.0625 19.4314 22.0067 19.6091 21.9036 19.7592L21.8635 19.8192ZM21.1236 22.8192C21.3729 22.8192 21.6119 22.9183 21.7882 23.0945C21.9645 23.2708 22.0636 23.5099 22.0636 23.7592C22.0636 24.0085 21.9645 24.2476 21.7882 24.4239C21.6119 24.6002 21.3729 24.6992 21.1236 24.6992C20.8743 24.6992 20.6352 24.6002 20.4589 24.4239C20.2826 24.2476 20.1836 24.0085 20.1836 23.7592C20.1862 23.5116 20.2864 23.2751 20.4624 23.101C20.6384 22.9269 20.876 22.8292 21.1236 22.8292V22.8192ZM23.6036 23.4392C23.688 23.7822 23.8842 24.0873 24.1612 24.3064C24.4383 24.5255 24.7804 24.6461 25.1336 24.6492C25.2433 24.6591 25.3538 24.6591 25.4636 24.6492L22.2935 28.6492C21.5828 28.2644 20.9127 27.8087 20.2935 27.2892L23.6036 23.4392ZM24.5535 22.3392C24.7211 22.2134 24.9241 22.1435 25.1336 22.1392C25.3829 22.1392 25.622 22.2383 25.7982 22.4145C25.9745 22.5908 26.0735 22.8299 26.0735 23.0792C26.0592 23.3239 25.9557 23.5547 25.7824 23.728C25.6091 23.9013 25.3782 24.0049 25.1336 24.0192C24.8889 24.0049 24.658 23.9013 24.4847 23.728C24.3114 23.5547 24.2078 23.3239 24.1936 23.0792C24.1974 22.9142 24.2421 22.7528 24.3235 22.6092L24.5535 22.3392ZM25.5535 28.4292C25.3042 28.4292 25.0652 28.3302 24.8889 28.1539C24.7126 27.9776 24.6135 27.7385 24.6135 27.4892C24.6135 27.2399 24.7126 27.0008 24.8889 26.8245C25.0652 26.6483 25.3042 26.5492 25.5535 26.5492C25.8029 26.5492 26.0419 26.6483 26.2182 26.8245C26.3945 27.0008 26.4935 27.2399 26.4935 27.4892C26.4949 27.6144 26.4712 27.7385 26.424 27.8544C26.3767 27.9702 26.3068 28.0755 26.2183 28.164C26.1298 28.2524 26.0245 28.3224 25.9087 28.3696C25.7928 28.4169 25.6687 28.4406 25.5435 28.4392L25.5535 28.4292ZM23.9835 27.5192C23.9888 27.9321 24.1565 28.3263 24.4504 28.6165C24.7443 28.9066 25.1406 29.0693 25.5535 29.0692H25.7435L25.0936 29.8392C24.3335 29.5873 23.5917 29.2832 22.8736 28.9292L23.9835 27.5192ZM27.1236 27.3992C27.1006 26.9986 26.9251 26.622 26.6331 26.3468C26.3411 26.0716 25.9548 25.9186 25.5535 25.9192C25.4438 25.9093 25.3333 25.9093 25.2236 25.9192L27.8436 22.6192C28.2566 23.5158 28.5588 24.4595 28.7435 25.4292L27.1236 27.3992ZM27.5135 22.0392L26.7236 23.0392C26.7131 22.6509 26.5608 22.2799 26.2955 21.9962C26.0302 21.7125 25.6703 21.5357 25.2836 21.4992L26.3436 20.2792C26.4036 20.3492 26.4736 20.4192 26.5336 20.4992C26.8969 20.9897 27.2212 21.508 27.5036 22.0492L27.5135 22.0392ZM25.9235 19.7992L24.1036 21.8992C23.9969 21.9972 23.9029 22.1081 23.8235 22.2292L22.7136 23.5492C22.6629 23.1736 22.478 22.8291 22.1931 22.5791C21.9082 22.3291 21.5426 22.1906 21.1636 22.1892C21.0505 22.1788 20.9366 22.1788 20.8235 22.1892L22.4636 20.0792L24.0235 18.0792C24.7105 18.5904 25.3438 19.17 25.9136 19.8092L25.9235 19.7992ZM21.1735 16.5392L19.3235 18.6992C19.3588 18.5686 19.379 18.4344 19.3836 18.2992C19.3836 17.8802 19.2171 17.4783 18.9208 17.182C18.6245 16.8857 18.2226 16.7192 17.8035 16.7192C17.5021 16.7192 17.207 16.806 16.9535 16.9692C16.9535 16.4492 17.0736 15.9692 17.1636 15.3692C18.5392 15.6015 19.8821 15.9977 21.1636 16.5492L21.1735 16.5392ZM18.6536 25.3692L18.5135 25.1492L19.5135 23.7992C19.5214 24.2095 19.6906 24.6001 19.9845 24.8865C20.2784 25.1729 20.6732 25.3319 21.0835 25.3292V25.3292L19.8035 26.8092C19.3675 26.3748 18.9787 25.8955 18.6435 25.3792L18.6536 25.3692ZM28.8635 30.7692C27.799 30.5763 26.7471 30.3191 25.7136 29.9992L28.8436 26.2492C29.0452 27.7523 29.0486 29.2753 28.8536 30.7792L28.8635 30.7692Z" fill="white"/>
<path d="M14.864 49.6005C12.8272 49.526 10.868 48.8005 9.27399 47.5305L9.08398 47.3705L9.23398 47.1705C10.834 45.0005 12.514 43.8005 14.354 43.4805C16.354 43.1405 18.614 43.8805 21.144 45.7505L21.364 45.9105L21.194 46.1205C20.5516 47.05 19.7229 47.8359 18.7606 48.4281C17.7983 49.0203 16.7233 49.4059 15.604 49.5605C15.3583 49.5885 15.1112 49.6018 14.864 49.6005V49.6005ZM9.86398 47.2805C11.5118 48.5219 13.5435 49.1448 15.604 49.0405C16.6041 48.9007 17.5665 48.5635 18.4352 48.0484C19.3038 47.5334 20.0615 46.8509 20.664 46.0405C18.344 44.3805 16.324 43.7205 14.494 44.0405C12.794 44.2805 11.284 45.3505 9.814 47.2805H9.86398Z" fill="white"/>
<path d="M15.0538 48.1796C14.0603 48.1466 13.1035 47.7962 12.3238 47.1796L12.1338 47.0196L12.2838 46.8196C13.8838 44.6396 15.7938 44.4196 18.0938 46.1196L18.3138 46.2796L18.1438 46.4896C17.8292 46.9427 17.4243 47.3259 16.9544 47.615C16.4846 47.9041 15.9601 48.093 15.4138 48.1696L15.0538 48.1796ZM12.8638 46.9096C13.5923 47.425 14.4723 47.682 15.3638 47.6396C16.2311 47.517 17.0166 47.0615 17.5538 46.3696C15.7138 45.0696 14.2038 45.2396 12.8638 46.9096Z" fill="white"/>
<path d="M21.1936 44.7406L20.8436 44.6906C20.7436 44.6906 18.3436 44.2606 17.4636 42.6106C17.2427 42.1377 17.1374 41.619 17.1565 41.0974C17.1756 40.5757 17.3186 40.0661 17.5736 39.6106L17.6836 39.3906H17.9236C21.1736 39.8206 21.5936 41.4706 21.2336 44.3906L21.1936 44.7406ZM18.0836 40.1206C17.9176 40.46 17.8312 40.8328 17.8312 41.2106C17.8312 41.5884 17.9176 41.9613 18.0836 42.3006C18.6695 43.179 19.579 43.7901 20.6136 44.0006C20.8636 41.6006 20.4936 40.5106 18.0836 40.1206Z" fill="white"/>
<path d="M22.5533 36.7808H22.3033C21.4875 36.7389 20.6948 36.4949 19.9966 36.0707C19.2984 35.6466 18.7165 35.0556 18.3033 34.3508L18.1934 34.1608L18.3333 33.9908C18.7736 33.3888 19.3525 32.9018 20.0209 32.5711C20.6894 32.2403 21.4277 32.0756 22.1733 32.0908C23.0126 32.1267 23.8328 32.3523 24.5724 32.7507C25.3119 33.149 25.9516 33.7098 26.4434 34.3908L26.5733 34.5808L26.4333 34.7708C25.9959 35.3932 25.4148 35.9008 24.7394 36.2507C24.0639 36.6006 23.314 36.7825 22.5533 36.7808V36.7808ZM18.9833 34.2108C19.3505 34.7726 19.8455 35.2395 20.4277 35.5732C21.01 35.9069 21.663 36.098 22.3333 36.1308C22.9889 36.1668 23.6436 36.0448 24.2422 35.775C24.8409 35.5053 25.366 35.0957 25.7733 34.5808C25.339 34.033 24.7917 33.5851 24.1688 33.2676C23.5459 32.9501 22.8619 32.7704 22.1634 32.7408C21.5565 32.7285 20.9548 32.8545 20.4039 33.1092C19.8529 33.3638 19.3671 33.7406 18.9833 34.2108V34.2108Z" fill="white"/>
<path d="M13.8239 41.83H13.5939C13.3626 41.8007 13.1394 41.7253 12.9378 41.6081C12.7362 41.4909 12.5602 41.3343 12.4203 41.1477C12.2803 40.9612 12.1793 40.7484 12.1233 40.522C12.0672 40.2956 12.0572 40.0603 12.0939 39.83C12.1556 39.3701 12.3964 38.9532 12.7639 38.67C13.1322 38.3908 13.5959 38.2686 14.0539 38.33C14.2853 38.3593 14.5084 38.4347 14.7101 38.5519C14.9117 38.6691 15.0877 38.8257 15.2276 39.0122C15.3675 39.1988 15.4685 39.4116 15.5246 39.638C15.5806 39.8644 15.5906 40.0997 15.5539 40.33V40.33C15.4939 40.7461 15.286 41.1268 14.9683 41.4022C14.6506 41.6776 14.2444 41.8295 13.8239 41.83V41.83ZM13.8239 38.83C13.5596 38.8299 13.3027 38.9179 13.0939 39.08C12.8388 39.2751 12.6702 39.5622 12.6239 39.88C12.5845 40.1966 12.6706 40.5161 12.8639 40.77C13.059 41.0251 13.3461 41.1938 13.6639 41.24C13.9762 41.2834 14.2931 41.2031 14.5471 41.0163C14.8011 40.8295 14.9722 40.551 15.0239 40.24C15.0647 39.9281 14.9834 39.6125 14.7971 39.3591C14.6108 39.1057 14.3338 38.9341 14.0239 38.88L13.8239 38.83Z" fill="white"/>
<path d="M6.55317 53.3494H6.32316C5.86329 53.2877 5.44642 53.0468 5.16318 52.6793C4.88397 52.3111 4.76172 51.8474 4.82316 51.3893C4.85373 51.1585 4.93005 50.9362 5.04764 50.7352C5.16524 50.5343 5.32178 50.3588 5.50803 50.2191C5.69429 50.0795 5.90653 49.9783 6.13236 49.9217C6.35819 49.8651 6.59303 49.8541 6.82316 49.8893C7.05453 49.9186 7.27766 49.9941 7.47928 50.1113C7.68091 50.2285 7.85691 50.385 7.99683 50.5716C8.13676 50.7582 8.23777 50.971 8.29383 51.1973C8.34989 51.4237 8.35985 51.659 8.32316 51.8893V51.8893C8.25344 52.3051 8.036 52.6817 7.71082 52.9499C7.38564 53.2181 6.97457 53.36 6.55317 53.3494V53.3494ZM6.55317 50.3993C6.26777 50.3993 5.99138 50.4994 5.77213 50.6821C5.55288 50.8648 5.40465 51.1186 5.35319 51.3993C5.31529 51.719 5.40116 52.041 5.59318 52.2993C5.78933 52.5515 6.07655 52.7167 6.39316 52.7593C6.55003 52.7811 6.70968 52.7711 6.86259 52.7298C7.01549 52.6886 7.15853 52.617 7.28318 52.5194C7.4103 52.4235 7.51725 52.3035 7.59791 52.1662C7.67856 52.0289 7.73133 51.8771 7.75318 51.7193C7.79374 51.4086 7.71216 51.0943 7.52564 50.8425C7.33913 50.5907 7.06223 50.4211 6.75318 50.3693L6.55317 50.3993Z" fill="white"/>
<path d="M92.1234 54.3109C91.7392 54.3112 91.3655 54.1851 91.06 53.952C90.7546 53.7188 90.5344 53.3916 90.4334 53.0209C90.3171 52.5728 90.382 52.0969 90.6141 51.6964C90.8462 51.2958 91.2268 51.0028 91.6734 50.8809C92.1216 50.7619 92.5987 50.8256 93 51.0581C93.4012 51.2906 93.6938 51.6728 93.8134 52.1209V52.1209C93.8722 52.3422 93.8868 52.5729 93.8563 52.7998C93.8257 53.0267 93.7507 53.2454 93.6355 53.4433C93.5203 53.6412 93.3672 53.8144 93.185 53.953C93.0027 54.0915 92.7949 54.1928 92.5734 54.2509C92.4266 54.2905 92.2754 54.3106 92.1234 54.3109ZM92.1234 51.3609C92.0206 51.3463 91.9162 51.3463 91.8134 51.3609C91.6597 51.4016 91.5156 51.4721 91.3892 51.5685C91.2628 51.6649 91.1566 51.7853 91.0767 51.9227C90.9969 52.0602 90.9449 52.212 90.9237 52.3695C90.9026 52.5271 90.9126 52.6873 90.9534 52.8409C91.04 53.148 91.2434 53.4089 91.52 53.5678C91.7967 53.7267 92.1246 53.7709 92.4334 53.6909C92.7415 53.6087 93.0048 53.4081 93.1658 53.1328C93.3269 52.8576 93.3727 52.5298 93.2934 52.2209C93.2162 51.9711 93.0609 51.7527 92.8503 51.5979C92.6396 51.4431 92.3848 51.36 92.1234 51.3609V51.3609Z" fill="white"/>
<path d="M45.4141 3.48001C44.9499 3.48001 44.5048 3.29563 44.1766 2.96744C43.8484 2.63925 43.6641 2.19414 43.6641 1.73001C43.6693 1.26936 43.856 0.829338 44.1836 0.505463C44.5112 0.181587 44.9534 -3.00827e-05 45.4141 3.73745e-09C45.8755 3.73745e-09 46.3181 0.18333 46.6444 0.509644C46.9707 0.835957 47.1541 1.27851 47.1541 1.73999C47.1541 1.96849 47.109 2.19478 47.0216 2.40588C46.9342 2.61699 46.806 2.80879 46.6444 2.97037C46.4828 3.13194 46.291 3.26012 46.0799 3.34756C45.8688 3.43501 45.6426 3.48001 45.4141 3.48001ZM45.4141 0.480011C45.0949 0.48 44.7886 0.606111 44.562 0.830872C44.3353 1.05563 44.2067 1.36082 44.204 1.67999C44.204 2.0009 44.3315 2.30869 44.5584 2.53561C44.7854 2.76253 45.0932 2.89001 45.4141 2.89001C45.735 2.89001 46.0427 2.76253 46.2697 2.53561C46.4966 2.30869 46.6241 2.0009 46.6241 1.67999C46.6086 1.36959 46.4744 1.07705 46.2491 0.862946C46.0238 0.648846 45.7248 0.529616 45.4141 0.529999V0.480011Z" fill="white"/>
<path d="M2.71337 49.0492H2.52336C2.15899 48.9995 1.82917 48.8074 1.60613 48.5151C1.38309 48.2227 1.28501 47.8538 1.33336 47.4892C1.35679 47.3079 1.41576 47.133 1.50689 46.9745C1.59801 46.816 1.71949 46.6771 1.8644 46.5656C2.00931 46.4541 2.1748 46.3723 2.35137 46.3249C2.52793 46.2775 2.7121 46.2654 2.89336 46.2892C3.07519 46.3126 3.25043 46.3725 3.40853 46.4653C3.56663 46.5581 3.70434 46.6819 3.81337 46.8292C3.922 46.9699 4.00175 47.1307 4.04808 47.3023C4.09442 47.4739 4.10641 47.653 4.08336 47.8292C4.03131 48.1926 3.84155 48.522 3.55336 48.7492C3.31217 48.9356 3.01806 49.0407 2.71337 49.0492ZM2.71337 46.6992C2.47514 46.6958 2.2435 46.7775 2.06017 46.9297C1.87683 47.0818 1.75385 47.2944 1.71337 47.5292C1.68966 47.7808 1.76209 48.032 1.91607 48.2324C2.07004 48.4328 2.29415 48.5674 2.54335 48.6092C2.66841 48.6287 2.79616 48.6218 2.91841 48.5891C3.04067 48.5564 3.15475 48.4985 3.25338 48.4192C3.45176 48.2634 3.58391 48.0384 3.62337 47.7892C3.64102 47.6642 3.63328 47.5369 3.60064 47.4149C3.56799 47.2929 3.5111 47.1788 3.43337 47.0792C3.35808 46.9767 3.26234 46.8908 3.15218 46.8271C3.04202 46.7635 2.91982 46.7233 2.79335 46.7092L2.71337 46.6992Z" fill="white"/>
<path d="M96.4537 50.1002C96.2111 50.0977 95.9734 50.0322 95.7637 49.9102C95.4472 49.724 95.2145 49.4232 95.1137 49.0702C95.0642 48.8932 95.0511 48.708 95.0752 48.5258C95.0992 48.3436 95.16 48.1682 95.2537 48.0102C95.4399 47.6937 95.7407 47.461 96.0937 47.3602C96.452 47.2701 96.8311 47.3202 97.1537 47.5002C97.473 47.6879 97.7062 47.9929 97.8037 48.3502V48.3502C97.8942 48.7051 97.8441 49.0813 97.6637 49.4002C97.5738 49.5607 97.4521 49.7012 97.3059 49.813C97.1597 49.9247 96.9922 50.0055 96.8137 50.0502C96.6962 50.0815 96.5753 50.0983 96.4537 50.1002V50.1002ZM96.4537 47.7502C96.374 47.7405 96.2934 47.7405 96.2137 47.7502C95.9666 47.8189 95.7554 47.98 95.6237 48.2002C95.4987 48.4219 95.4629 48.683 95.5237 48.9302C95.5948 49.1735 95.7556 49.3809 95.9737 49.5102C96.1955 49.6352 96.4565 49.671 96.7037 49.6102C96.8256 49.5779 96.9398 49.5214 97.0395 49.4441C97.1391 49.3668 97.2222 49.2702 97.2837 49.1602C97.3493 49.0517 97.3919 48.931 97.4091 48.8055C97.4263 48.68 97.4177 48.5522 97.3837 48.4302C97.3549 48.3068 97.2998 48.1911 97.2221 48.091C97.1444 47.9909 97.0461 47.9088 96.9337 47.8502C96.7863 47.7726 96.6199 47.7379 96.4537 47.7502V47.7502Z" fill="white"/>
<path d="M81.7136 48.1505L81.6536 47.8905C81.3633 46.7967 81.3023 45.6546 81.4744 44.536C81.6465 43.4175 82.0479 42.3466 82.6536 41.3905C84.0283 39.5571 86.0345 38.2992 88.2836 37.8605L88.5236 37.8105L88.5836 38.0506C89.8936 43.5106 87.8036 46.7006 82.0136 48.0506L81.7136 48.1505ZM88.0936 38.4305C86.0943 38.8928 84.3231 40.0476 83.0936 41.6906C82.5551 42.5482 82.1944 43.5054 82.0329 44.5051C81.8715 45.5049 81.9125 46.5269 82.1536 47.5105C87.3236 46.1805 89.1736 43.3605 88.0736 38.4305H88.0936Z" fill="white"/>
<path d="M83.3734 45.5799L83.3134 45.3199C83.1704 44.787 83.1392 44.2303 83.2218 43.6847C83.3044 43.1392 83.499 42.6166 83.7933 42.1499C84.4606 41.2487 85.4421 40.6313 86.5433 40.4199H86.7834L86.8434 40.6599C87.0082 41.1621 87.0718 41.692 87.0306 42.2189C86.9894 42.7459 86.8442 43.2594 86.6034 43.7299C86.259 44.2277 85.8141 44.6477 85.2973 44.9629C84.7806 45.2781 84.2035 45.4815 83.6034 45.5599L83.3734 45.5799ZM86.3734 40.9999C85.5096 41.224 84.7479 41.7354 84.2133 42.4499C83.7491 43.1914 83.5913 44.0843 83.7733 44.9399C84.7336 44.7675 85.5861 44.2207 86.1433 43.4199C86.5246 42.6721 86.6103 41.8081 86.3834 40.9999H86.3734Z" fill="white"/>
<path d="M86.1833 51.0008C85.0733 51.0008 84.0733 50.2308 82.9233 49.0008L82.6934 48.7508L82.9533 48.5208C83.0333 48.4608 84.8934 46.8808 86.7234 47.2708C87.226 47.4031 87.6898 47.6536 88.076 48.0015C88.4622 48.3494 88.7596 48.7846 88.9434 49.2708L89.0533 49.5008L88.8734 49.6608C88.1756 50.4279 87.2159 50.9059 86.1833 51.0008V51.0008ZM83.7133 48.8408C85.3533 50.5408 86.4233 50.9608 88.2733 49.3708C88.1226 49.0254 87.8959 48.7185 87.6103 48.4726C87.3247 48.2268 86.9873 48.0485 86.6234 47.9508C85.574 47.8525 84.5282 48.1724 83.7133 48.8408V48.8408Z" fill="white"/>
<path d="M91.0039 47.8709H90.9239C90.694 47.8632 90.4681 47.8087 90.2601 47.7107C90.052 47.6127 89.8662 47.4732 89.7139 47.3009V47.3009C89.5575 47.1339 89.4362 46.9372 89.3571 46.7225C89.2781 46.5078 89.243 46.2794 89.2539 46.0509C89.2794 45.5888 89.4838 45.1548 89.8239 44.8409C89.9927 44.6842 90.1911 44.5628 90.4075 44.4838C90.6238 44.4048 90.8538 44.3698 91.0839 44.3809C91.5449 44.4104 91.9775 44.6142 92.2939 44.9509C92.6029 45.2958 92.7645 45.7482 92.7439 46.2109C92.7339 46.4403 92.6784 46.6655 92.5805 46.8732C92.4827 47.081 92.3444 47.2671 92.1739 47.4209C91.8538 47.7119 91.4364 47.8724 91.0039 47.8709ZM91.0039 44.8709C90.7033 44.8724 90.4143 44.9866 90.1939 45.1909C90.0758 45.2961 89.9797 45.4235 89.911 45.566C89.8424 45.7084 89.8026 45.863 89.7939 46.0209C89.7819 46.3417 89.8969 46.6543 90.1139 46.8909V46.8909C90.2181 47.0094 90.3455 47.1051 90.4883 47.1722C90.6311 47.2393 90.7862 47.2763 90.9439 47.2809C91.1023 47.291 91.2612 47.2687 91.4107 47.2154C91.5603 47.1621 91.6975 47.0789 91.8139 46.9709C91.9326 46.8648 92.0285 46.7356 92.0955 46.5911C92.1626 46.4467 92.1994 46.2901 92.2039 46.1309C92.2139 45.9724 92.1916 45.8136 92.1383 45.664C92.085 45.5144 92.0019 45.3773 91.8939 45.2609C91.7766 45.1465 91.6371 45.0573 91.4841 44.9988C91.331 44.9403 91.1676 44.9138 91.0039 44.9209V44.8709Z" fill="white"/>
<path d="M14.1136 31.4708C14.1136 31.1499 14.241 30.8421 14.468 30.6152C14.6949 30.3883 15.0026 30.2608 15.3235 30.2608C15.3235 29.9399 15.1961 29.6321 14.9691 29.4052C14.7422 29.1783 14.4345 29.0508 14.1136 29.0508C13.7917 29.0508 13.4829 29.1779 13.2544 29.4046C13.0259 29.6312 12.8962 29.9389 12.8936 30.2608C13.2154 30.2608 13.5242 30.3879 13.7527 30.6146C13.9812 30.8412 14.1109 31.149 14.1136 31.4708Z" fill="white"/>
<path d="M14.1136 31.4707C14.1109 31.7925 13.9812 32.1003 13.7527 32.3269C13.5242 32.5536 13.2154 32.6807 12.8936 32.6807C12.8936 32.8409 12.9251 32.9996 12.9864 33.1476C13.0477 33.2956 13.1376 33.4301 13.2509 33.5434C13.3642 33.6567 13.4987 33.7465 13.6467 33.8078C13.7947 33.8691 13.9533 33.9007 14.1136 33.9007C14.4354 33.8981 14.7432 33.7684 14.9698 33.5399C15.1964 33.3113 15.3236 33.0025 15.3235 32.6807C15.0026 32.6807 14.6949 32.5532 14.468 32.3263C14.241 32.0994 14.1136 31.7916 14.1136 31.4707Z" fill="white"/>
<path d="M14.1136 31.4698C13.7917 31.4698 13.4829 31.3426 13.2544 31.116C13.0259 30.8893 12.8962 30.5816 12.8936 30.2598C12.5727 30.2598 12.2649 30.3872 12.038 30.6142C11.8111 30.8411 11.6836 31.1489 11.6836 31.4698C11.6836 31.7907 11.8111 32.0984 12.038 32.3254C12.2649 32.5523 12.5727 32.6798 12.8936 32.6798C12.8962 32.3579 13.0259 32.0502 13.2544 31.8236C13.4829 31.5969 13.7917 31.4698 14.1136 31.4698V31.4698Z" fill="white"/>
<path d="M15.3233 30.2598C15.3233 30.5807 15.1958 30.8885 14.9689 31.1154C14.742 31.3423 14.4342 31.4698 14.1133 31.4698C14.4342 31.4698 14.742 31.5973 14.9689 31.8242C15.1958 32.0511 15.3233 32.3589 15.3233 32.6798C15.6442 32.6798 15.952 32.5523 16.1789 32.3254C16.4058 32.0984 16.5333 31.7907 16.5333 31.4698C16.5333 31.1489 16.4058 30.8411 16.1789 30.6142C15.952 30.3872 15.6442 30.2598 15.3233 30.2598Z" fill="white"/>
<path d="M68.254 27.5001C68.2566 27.1782 68.3863 26.8705 68.6148 26.6439C68.8433 26.4172 69.1521 26.2901 69.474 26.2901C69.4713 25.9682 69.3416 25.6605 69.1131 25.4339C68.8846 25.2072 68.5758 25.0801 68.254 25.0801C68.0951 25.0801 67.9377 25.1114 67.7909 25.1722C67.6441 25.233 67.5107 25.3221 67.3983 25.4345C67.286 25.5468 67.1969 25.6802 67.1361 25.827C67.0753 25.9738 67.0439 26.1312 67.0439 26.2901C67.3649 26.2901 67.6726 26.4176 67.8996 26.6445C68.1265 26.8714 68.254 27.1792 68.254 27.5001Z" fill="white"/>
<path d="M68.254 27.5C68.254 27.8218 68.1268 28.1307 67.9002 28.3592C67.6735 28.5877 67.3658 28.7174 67.0439 28.72C67.0439 29.0409 67.1714 29.3487 67.3983 29.5756C67.6253 29.8025 67.9331 29.93 68.254 29.93C68.5758 29.93 68.8846 29.8029 69.1131 29.5762C69.3416 29.3496 69.4713 29.0418 69.474 28.72C69.1504 28.72 68.8401 28.5915 68.6113 28.3627C68.3825 28.1339 68.254 27.8236 68.254 27.5Z" fill="white"/>
<path d="M68.254 27.4991C67.9331 27.4991 67.6253 27.3716 67.3984 27.1447C67.1715 26.9177 67.044 26.61 67.044 26.2891C66.7231 26.2891 66.4153 26.4165 66.1884 26.6435C65.9615 26.8704 65.834 27.1782 65.834 27.4991C65.834 27.8209 65.9611 28.1297 66.1878 28.3582C66.4144 28.5867 66.7221 28.7164 67.044 28.7191C67.044 28.3972 67.1711 28.0884 67.3978 27.8599C67.6244 27.6314 67.9322 27.5017 68.254 27.4991V27.4991Z" fill="white"/>
<path d="M69.4739 26.2894C69.4713 26.6113 69.3415 26.919 69.113 27.1457C68.8845 27.3723 68.5757 27.4995 68.2539 27.4994C68.5775 27.4994 68.8878 27.628 69.1166 27.8568C69.3454 28.0856 69.4739 28.3959 69.4739 28.7194C69.6358 28.7221 69.7966 28.6925 69.9469 28.6324C70.0973 28.5723 70.2341 28.4828 70.3495 28.3693C70.4649 28.2557 70.5566 28.1203 70.6191 27.971C70.6817 27.8216 70.7139 27.6614 70.7139 27.4994C70.7139 27.338 70.6817 27.1782 70.619 27.0294C70.5563 26.8806 70.4645 26.7458 70.349 26.6331C70.2334 26.5203 70.0965 26.4318 69.9462 26.3728C69.7959 26.3138 69.6353 26.2854 69.4739 26.2894Z" fill="white"/>
<path d="M64.3533 23.3494C63.8919 23.3494 63.4493 23.1661 63.123 22.8397C62.7966 22.5134 62.6133 22.0709 62.6133 21.6094C62.612 21.38 62.656 21.1527 62.7429 20.9404C62.8297 20.7282 62.9577 20.5352 63.1194 20.3725C63.2811 20.2099 63.4734 20.0808 63.6851 19.9928C63.8969 19.9047 64.124 19.8594 64.3533 19.8594C64.8175 19.8594 65.2626 20.0437 65.5908 20.3719C65.9189 20.7001 66.1033 21.1452 66.1033 21.6094C66.1007 22.0718 65.9151 22.5143 65.5872 22.8403C65.2593 23.1664 64.8157 23.3494 64.3533 23.3494V23.3494ZM64.3533 20.3994C64.0324 20.3994 63.7246 20.5268 63.4977 20.7538C63.2708 20.9807 63.1433 21.2885 63.1433 21.6094C63.1459 21.9286 63.2746 22.2338 63.5012 22.4585C63.7279 22.6833 64.0341 22.8094 64.3533 22.8094C64.6725 22.8094 64.9788 22.6833 65.2054 22.4585C65.432 22.2338 65.5607 21.9286 65.5633 21.6094C65.5633 21.2885 65.4358 20.9807 65.2089 20.7538C64.982 20.5268 64.6742 20.3994 64.3533 20.3994V20.3994Z" fill="white"/>
<path d="M68.6238 19.7693C68.3945 19.7693 68.1674 19.724 67.9556 19.6359C67.7439 19.5479 67.5516 19.4188 67.3899 19.2562C67.2282 19.0935 67.1002 18.9005 67.0134 18.6883C66.9265 18.476 66.8825 18.2487 66.8838 18.0193C66.8838 17.5579 67.0671 17.1153 67.3934 16.789C67.7197 16.4626 68.1623 16.2793 68.6238 16.2793C68.8531 16.278 69.0805 16.322 69.2928 16.4089C69.505 16.4957 69.698 16.6237 69.8607 16.7854C70.0233 16.9471 70.1523 17.1394 70.2404 17.3511C70.3285 17.5629 70.3738 17.79 70.3738 18.0193C70.3738 18.4835 70.1894 18.9286 69.8612 19.2568C69.533 19.5849 69.0879 19.7693 68.6238 19.7693V19.7693ZM68.6238 16.7693C68.3055 16.7693 68.0003 16.8958 67.7753 17.1208C67.5502 17.3458 67.4238 17.6511 67.4238 17.9693C67.4238 18.2885 67.5499 18.5948 67.7747 18.8214C67.9994 19.048 68.3046 19.1767 68.6238 19.1793C68.7827 19.1793 68.94 19.148 69.0869 19.0872C69.2337 19.0264 69.367 18.9373 69.4794 18.8249C69.5918 18.7126 69.6809 18.5792 69.7417 18.4324C69.8025 18.2856 69.8338 18.1282 69.8338 17.9693C69.8184 17.6589 69.6841 17.3664 69.4589 17.1523C69.2336 16.9382 68.9346 16.819 68.6238 16.8193V16.7693Z" fill="white"/>
<path d="M66.4932 15.5096C66.029 15.5096 65.5839 15.3252 65.2557 14.997C64.9275 14.6688 64.7432 14.2237 64.7432 13.7596C64.7432 13.5302 64.7885 13.3031 64.8766 13.0914C64.9646 12.8796 65.0937 12.6874 65.2563 12.5256C65.419 12.3639 65.612 12.236 65.8242 12.1491C66.0365 12.0623 66.2638 12.0182 66.4932 12.0196C66.9546 12.0196 67.3972 12.2029 67.7235 12.5292C68.0499 12.8555 68.2332 13.2981 68.2332 13.7596C68.2345 13.9889 68.1905 14.2162 68.1036 14.4285C68.0168 14.6408 67.8888 14.8338 67.7271 14.9964C67.5654 15.159 67.3731 15.2881 67.1613 15.3762C66.9496 15.4642 66.7225 15.5096 66.4932 15.5096V15.5096ZM66.4932 12.5596C66.174 12.5595 65.8677 12.6857 65.6411 12.9104C65.4144 13.1352 65.2858 13.4404 65.2832 13.7596C65.2832 13.9184 65.3145 14.0758 65.3753 14.2226C65.4361 14.3694 65.5252 14.5028 65.6376 14.6152C65.7499 14.7275 65.8833 14.8166 66.0301 14.8775C66.1769 14.9383 66.3343 14.9696 66.4932 14.9696C66.8123 14.9669 67.1176 14.8383 67.3423 14.6116C67.5671 14.385 67.6932 14.0787 67.6932 13.7596C67.6932 13.4413 67.5667 13.1361 67.3417 12.911C67.1167 12.686 66.8114 12.5596 66.4932 12.5596V12.5596Z" fill="white"/>
<path d="M30.3631 20.2809C30.2112 20.2806 30.0599 20.2604 29.9132 20.2209C29.6914 20.1666 29.483 20.0676 29.3007 19.9301C29.1185 19.7925 28.9662 19.6193 28.8532 19.4209C28.7361 19.2223 28.6598 19.0024 28.6289 18.774C28.598 18.5456 28.613 18.3134 28.6731 18.0909V18.0909C28.7274 17.8691 28.8264 17.6607 28.964 17.4785C29.1015 17.2962 29.2748 17.1439 29.4732 17.0309C29.6717 16.9138 29.8916 16.8376 30.12 16.8066C30.3484 16.7757 30.5806 16.7908 30.8031 16.8509C31.0246 16.909 31.2324 17.0102 31.4147 17.1488C31.597 17.2874 31.7501 17.4606 31.8653 17.6585C31.9805 17.8564 32.0555 18.075 32.086 18.3019C32.1165 18.5289 32.1019 18.7596 32.0431 18.9809C31.9866 19.203 31.8857 19.4115 31.7465 19.5936C31.6073 19.7758 31.4326 19.9279 31.2331 20.0409C30.9701 20.1978 30.6695 20.2807 30.3631 20.2809ZM30.3631 17.3309C30.1522 17.3282 29.9447 17.3835 29.7631 17.4909C29.4863 17.6541 29.285 17.9201 29.2031 18.2309C29.121 18.5381 29.1641 18.8654 29.3231 19.1409C29.4031 19.2787 29.5098 19.3992 29.6368 19.4953C29.7639 19.5915 29.9088 19.6613 30.0631 19.7009C30.215 19.7438 30.3741 19.7553 30.5305 19.7347C30.687 19.7141 30.8376 19.6617 30.9732 19.5809C31.1109 19.5009 31.2314 19.3943 31.3276 19.2672C31.4237 19.1401 31.4936 18.9952 31.5331 18.8409C31.6125 18.532 31.5666 18.2042 31.4056 17.929C31.2445 17.6537 30.9813 17.4531 30.6731 17.3709C30.5691 17.3413 30.4612 17.3278 30.3532 17.3309H30.3631Z" fill="white"/>
<path d="M27.7738 15.0991C27.6218 15.0988 27.4705 15.0786 27.3238 15.0391C27.1023 14.9809 26.8945 14.8797 26.7122 14.7411C26.53 14.6025 26.3769 14.4293 26.2617 14.2315C26.1465 14.0336 26.0714 13.8149 26.0409 13.588C26.0104 13.3611 26.025 13.1303 26.0838 12.9091V12.9091C26.2013 12.4614 26.4915 12.0785 26.8907 11.8442C27.2899 11.6099 27.7656 11.5434 28.2138 11.6591C28.4353 11.7172 28.643 11.8187 28.825 11.9578C29.0069 12.0968 29.1595 12.2706 29.2738 12.4691C29.3907 12.6658 29.4676 12.8836 29.5002 13.1101C29.5328 13.3366 29.5205 13.5673 29.4638 13.7891C29.4058 14.0119 29.3044 14.2212 29.1654 14.4048C29.0264 14.5884 28.8526 14.7428 28.6538 14.8591C28.3876 15.0173 28.0834 15.1002 27.7738 15.0991V15.0991ZM26.6038 12.9991C26.563 13.1527 26.5529 13.3129 26.5741 13.4704C26.5953 13.628 26.6472 13.7798 26.7271 13.9172C26.807 14.0547 26.9132 14.175 27.0396 14.2714C27.1659 14.3678 27.3101 14.4384 27.4638 14.4791C27.618 14.5202 27.7789 14.5299 27.937 14.5076C28.095 14.4852 28.247 14.4313 28.3838 14.3491C28.6562 14.1878 28.8539 13.9254 28.9338 13.6191C28.9764 13.4655 28.9877 13.3049 28.9671 13.1469C28.9465 12.9888 28.8944 12.8366 28.8138 12.6991C28.7338 12.5613 28.6271 12.4408 28.5001 12.3446C28.373 12.2485 28.2281 12.1786 28.0738 12.1391C27.7651 12.061 27.4382 12.1077 27.1638 12.2691C27.0263 12.347 26.9059 12.4518 26.8097 12.5772C26.7135 12.7026 26.6435 12.8461 26.6038 12.9991V12.9991Z" fill="white"/>
<path d="M30.9132 11.5191C30.7646 11.5182 30.6167 11.4981 30.4732 11.4591C30.2517 11.401 30.0439 11.2998 29.8616 11.1612C29.6794 11.0226 29.5263 10.8494 29.4111 10.6516C29.2959 10.4537 29.2209 10.235 29.1903 10.0081C29.1598 9.78114 29.1744 9.55042 29.2332 9.32914V9.32914C29.2875 9.10736 29.3865 8.89899 29.524 8.71674C29.6616 8.53449 29.8348 8.38219 30.0332 8.26914C30.2317 8.15206 30.4516 8.07584 30.68 8.04493C30.9084 8.01402 31.1407 8.02905 31.3632 8.08915C31.5847 8.14726 31.7925 8.24851 31.9748 8.38709C32.157 8.52568 32.3101 8.69889 32.4253 8.89677C32.5405 9.09464 32.6155 9.31331 32.6461 9.54023C32.6766 9.76715 32.662 9.99787 32.6032 10.2192C32.5056 10.5926 32.2866 10.923 31.9807 11.1583C31.6747 11.3937 31.2992 11.5206 30.9132 11.5191V11.5191ZM29.7532 9.51914C29.6721 9.82646 29.7152 10.1533 29.8732 10.4291C29.9532 10.5669 30.0598 10.6874 30.1869 10.7836C30.3139 10.8797 30.4588 10.9496 30.6132 10.9891C30.9221 11.0685 31.2498 11.0226 31.5251 10.8616C31.8004 10.7005 32.001 10.4373 32.0832 10.1292C32.1654 9.82191 32.1222 9.4946 31.9632 9.21915C31.7999 8.9423 31.534 8.74106 31.2232 8.65916C31.0713 8.6162 30.9123 8.60468 30.7558 8.62531C30.5994 8.64595 30.4487 8.6983 30.3132 8.77915C30.1754 8.85914 30.0549 8.96579 29.9588 9.09284C29.8626 9.21989 29.7927 9.3648 29.7532 9.51914V9.51914Z" fill="white"/>
<path d="M86.7737 31.2603C85.9609 31.2592 85.1611 31.0568 84.4456 30.6712C83.7302 30.2855 83.1214 29.7286 82.6737 29.0503L82.5537 28.8703L82.6837 28.6903C83.0887 28.0641 83.6398 27.5458 84.2896 27.18C84.9393 26.8141 85.6683 26.6118 86.4137 26.5903C87.2521 26.5798 88.0819 26.7598 88.8406 27.1166C89.5993 27.4735 90.2671 27.9978 90.7937 28.6503L90.9437 28.8303L90.8137 29.0303C90.3897 29.7096 89.8004 30.2704 89.1009 30.6604C88.4014 31.0504 87.6145 31.2567 86.8137 31.2603H86.7737ZM83.3437 28.8803C83.7389 29.4183 84.2555 29.8554 84.8515 30.156C85.4476 30.4566 86.1062 30.6123 86.7737 30.6103V30.6103C87.4305 30.609 88.0774 30.4504 88.6603 30.1476C89.2432 29.8449 89.745 29.4069 90.1237 28.8703C89.6599 28.3458 89.0883 27.9278 88.448 27.6447C87.8077 27.3617 87.1138 27.2203 86.4137 27.2303C85.8107 27.2559 85.2212 27.4176 84.6895 27.7033C84.1579 27.9891 83.6978 28.3914 83.3437 28.8803Z" fill="white"/>
<path d="M1.07374 38.31C1.01297 38.6733 1.09891 39.0459 1.31266 39.3459C1.52641 39.6459 1.85051 39.8488 2.21375 39.91H2.46375C2.7762 39.4846 3.21295 39.1667 3.71375 39C3.74621 38.9229 3.76971 38.8424 3.78376 38.76C3.78871 38.6734 3.78871 38.5866 3.78376 38.5C3.34319 38.1897 3.02207 37.738 2.87376 37.22C2.79335 37.1893 2.70933 37.1692 2.62376 37.16C2.26677 37.1137 1.90572 37.2076 1.61662 37.4221C1.32752 37.6366 1.1329 37.9549 1.07374 38.31V38.31Z" fill="white"/>
<path d="M2.13358 40.3594C1.65136 40.2763 1.2217 40.0054 0.938696 39.6062C0.655693 39.207 0.542392 38.712 0.623571 38.2294C0.706723 37.7472 0.977543 37.3175 1.37674 37.0345C1.77595 36.7515 2.27102 36.6382 2.75358 36.7194H2.82355C2.8035 36.5199 2.8035 36.3189 2.82355 36.1194C2.50893 36.0665 2.18697 36.0764 1.87617 36.1484C1.56536 36.2204 1.27188 36.3532 1.01258 36.5391C0.753281 36.725 0.533286 36.9603 0.36527 37.2315C0.197255 37.5027 0.0845332 37.8045 0.0335748 38.1194C-0.0193759 38.4346 -0.00961605 38.7572 0.0622919 39.0686C0.1342 39.3801 0.266828 39.6743 0.452612 39.9344C0.638396 40.1945 0.873679 40.4154 1.14496 40.5844C1.41625 40.7534 1.71822 40.8673 2.03357 40.9194C2.069 40.7237 2.12599 40.5325 2.20356 40.3494L2.13358 40.3594Z" fill="white"/>
<path d="M4.90329 39.9994C4.84012 39.993 4.77646 39.993 4.71329 39.9994C4.63358 39.9898 4.55301 39.9898 4.4733 39.9994C4.15761 40.441 3.70366 40.7648 3.18329 40.9194C3.15403 40.9976 3.13062 41.0778 3.11328 41.1594C3.05522 41.5224 3.14224 41.8936 3.35553 42.1929C3.56882 42.4923 3.89128 42.6958 4.2533 42.7594C4.61625 42.8175 4.98748 42.7305 5.28684 42.5172C5.58619 42.3039 5.78966 41.9814 5.8533 41.6194C5.86294 41.5397 5.86294 41.4591 5.8533 41.3794C5.38554 41.0441 5.04952 40.556 4.90329 39.9994V39.9994Z" fill="white"/>
<path d="M6.25371 41.6194C6.1728 42.1015 5.90441 42.5319 5.50719 42.8167C5.10997 43.1015 4.6162 43.2175 4.13371 43.1395C3.89304 43.0995 3.66262 43.0123 3.45576 42.883C3.24891 42.7536 3.0697 42.5846 2.92842 42.3857C2.78714 42.1868 2.68663 41.9619 2.63261 41.724C2.5786 41.4861 2.57215 41.2399 2.61369 40.9995C2.61803 40.9797 2.61803 40.9592 2.61369 40.9395C2.41752 40.9592 2.21987 40.9592 2.0237 40.9395C1.97082 41.2541 1.98069 41.5761 2.05272 41.8869C2.12474 42.1977 2.2575 42.4911 2.44337 42.7504C2.62925 43.0097 2.86457 43.2297 3.13579 43.3978C3.407 43.5658 3.70875 43.6785 4.0237 43.7294C4.33832 43.7823 4.66031 43.7725 4.97111 43.7004C5.28192 43.6284 5.5754 43.4956 5.8347 43.3098C6.094 43.1239 6.31399 42.8886 6.48201 42.6174C6.65002 42.3462 6.76275 42.0444 6.8137 41.7294C6.62089 41.6955 6.43288 41.6384 6.25371 41.5594C6.24903 41.5792 6.24903 41.5997 6.25371 41.6194V41.6194Z" fill="white"/>
<path d="M8.59334 39.5707C8.65411 39.2074 8.56817 38.8348 8.35442 38.5348C8.14067 38.2348 7.81657 38.0319 7.45333 37.9707H7.20333C6.89306 38.4113 6.44137 38.7324 5.92333 38.8807C5.89407 38.9623 5.8707 39.0458 5.85335 39.1307C5.84836 39.2173 5.84836 39.3041 5.85335 39.3907C6.28559 39.7049 6.60474 40.1504 6.76332 40.6607C6.84038 40.6932 6.92093 40.7166 7.00335 40.7307C7.1841 40.7605 7.36899 40.7541 7.54723 40.7117C7.72547 40.6694 7.89349 40.592 8.04149 40.484C8.18949 40.376 8.31451 40.2396 8.40926 40.0828C8.50401 39.926 8.56658 39.7519 8.59334 39.5707V39.5707Z" fill="white"/>
<path d="M7.63376 37C7.59504 37.1961 7.53465 37.3873 7.45374 37.57H7.53375C8.01598 37.6532 8.4456 37.924 8.72861 38.3232C9.01161 38.7224 9.12491 39.2174 9.04373 39.7C9.00373 39.9384 8.91717 40.1665 8.78897 40.3714C8.66077 40.5764 8.49344 40.754 8.29657 40.8942C8.0997 41.0344 7.87713 41.1345 7.64157 41.1887C7.40601 41.2429 7.16209 41.2501 6.92374 41.21H6.84375C6.87292 41.4056 6.87292 41.6044 6.84375 41.8C7.15897 41.853 7.48153 41.8432 7.79297 41.7713C8.10441 41.6994 8.39862 41.5667 8.65872 41.381C8.91882 41.1952 9.13969 40.9599 9.30872 40.6886C9.47774 40.4173 9.59159 40.1154 9.64374 39.8C9.69797 39.4839 9.68885 39.1602 9.61688 38.8477C9.54491 38.5351 9.41154 38.24 9.22452 37.9795C9.03749 37.719 8.80056 37.4982 8.52747 37.3301C8.25438 37.1619 7.95059 37.0497 7.63376 37Z" fill="white"/>
<path d="M4.78334 37.9098C4.85039 37.939 4.92099 37.9592 4.99333 37.9698H5.22334C5.53011 37.4898 5.99821 37.1352 6.54332 36.9698C6.56589 36.9082 6.58264 36.8446 6.59334 36.7798C6.65432 36.418 6.56973 36.0467 6.35805 35.747C6.14636 35.4472 5.82474 35.2434 5.46333 35.1798C5.0992 35.1216 4.72672 35.2083 4.42576 35.4214C4.12481 35.6345 3.91933 35.957 3.85335 36.3198C3.84836 36.3864 3.84836 36.4533 3.85335 36.5198C4.31868 36.8579 4.64838 37.3507 4.78334 37.9098V37.9098Z" fill="white"/>
<path d="M3.414 36.2997C3.45283 36.0605 3.53853 35.8312 3.66623 35.6252C3.79392 35.4192 3.96108 35.2404 4.15808 35.0991C4.35508 34.9579 4.57806 34.857 4.81418 34.8022C5.0503 34.7473 5.29492 34.7397 5.534 34.7797C6.01622 34.8629 6.44585 35.1337 6.72885 35.5329C7.01185 35.9321 7.12515 36.4272 7.04398 36.9097V36.9097C7.23986 36.885 7.43812 36.885 7.634 36.9097C7.7382 36.2735 7.58633 35.6218 7.21158 35.0972C6.83683 34.5725 6.26967 34.2175 5.634 34.1097C5.31878 34.0568 4.99619 34.0666 4.68475 34.1385C4.37331 34.2104 4.07913 34.343 3.81903 34.5288C3.55893 34.7146 3.33804 34.9499 3.16901 35.2211C2.99998 35.4924 2.88613 35.7944 2.83398 36.1097C3.0272 36.147 3.21522 36.2075 3.39398 36.2897L3.414 36.2997Z" fill="white"/>
<path d="M4.71383 39.8292C4.48659 39.7876 4.28369 39.6611 4.14627 39.4754C4.00885 39.2897 3.94721 39.0586 3.97384 38.8292C4.0132 38.6008 4.13913 38.3964 4.3254 38.2586C4.51168 38.1207 4.74395 38.0601 4.97384 38.0892C5.20221 38.1285 5.40659 38.2545 5.54443 38.4407C5.68227 38.627 5.74295 38.8593 5.71383 39.0892C5.67221 39.3164 5.54574 39.5193 5.36004 39.6567C5.17434 39.7942 4.94331 39.8558 4.71383 39.8292V39.8292ZM4.97384 38.3192C4.80942 38.2901 4.64017 38.3275 4.50329 38.4231C4.36641 38.5187 4.27308 38.6648 4.24383 38.8292C4.21767 38.9947 4.25747 39.1639 4.3547 39.3004C4.45193 39.4369 4.59883 39.5298 4.76382 39.5592C4.92779 39.5825 5.09445 39.5414 5.22872 39.4444C5.36299 39.3474 5.45442 39.2022 5.48382 39.0392C5.49796 38.9561 5.49505 38.8711 5.47525 38.7893C5.45544 38.7074 5.41918 38.6304 5.36865 38.5631C5.31812 38.4957 5.25437 38.4393 5.18133 38.3974C5.1083 38.3555 5.0275 38.3288 4.94384 38.3192H4.97384Z" fill="white"/>
<path d="M74.7939 34.4906C74.7992 34.8585 74.949 35.2094 75.211 35.4677C75.473 35.7259 75.8261 35.8707 76.194 35.8706C76.2803 35.881 76.3676 35.881 76.4539 35.8706C76.6872 35.3863 77.0739 34.9926 77.554 34.7506C77.5592 34.6674 77.5592 34.5839 77.554 34.5006C77.5589 34.414 77.5589 34.3272 77.554 34.2406C77.0674 34.0105 76.6728 33.6229 76.434 33.1406H76.174C75.8146 33.1455 75.4709 33.2884 75.2141 33.5397C74.9572 33.791 74.8067 34.1315 74.7939 34.4906Z" fill="white"/>
<path d="M76.2038 36.3191C75.9613 36.3217 75.7207 36.2764 75.4958 36.1857C75.2709 36.0951 75.0661 35.9608 74.8933 35.7908C74.7204 35.6207 74.5829 35.4182 74.4886 35.1948C74.3943 34.9714 74.3451 34.7316 74.3438 34.4891C74.3411 34.0001 74.5321 33.53 74.875 33.1815C75.2179 32.833 75.6848 32.6344 76.1738 32.6291H76.2538C76.2013 32.4368 76.1744 32.2384 76.1738 32.0391C75.8546 32.0417 75.5392 32.1071 75.2454 32.2317C74.9515 32.3562 74.6851 32.5374 74.4613 32.7649C74.2375 32.9924 74.0608 33.2618 73.9411 33.5576C73.8214 33.8534 73.7611 34.17 73.7638 34.4891C73.7664 34.8069 73.8316 35.121 73.9556 35.4137C74.0797 35.7063 74.2601 35.9716 74.4867 36.1944C74.7133 36.4173 74.9815 36.5934 75.2761 36.7125C75.5708 36.8317 75.886 36.8917 76.2038 36.8891C76.2051 36.6898 76.232 36.4915 76.2838 36.2991L76.2038 36.3191Z" fill="white"/>
<path d="M78.8635 35.5098H78.6235C78.5405 35.4993 78.4565 35.4993 78.3735 35.5098C78.1427 36.0017 77.7512 36.4003 77.2635 36.6398C77.2585 36.7197 77.2585 36.7999 77.2635 36.8798C77.2635 37.0627 77.2998 37.2438 77.3704 37.4126C77.441 37.5813 77.5445 37.7343 77.6747 37.8627C77.805 37.9912 77.9595 38.0924 78.1292 38.1606C78.299 38.2287 78.4806 38.2624 78.6635 38.2598C79.0313 38.2545 79.3823 38.1047 79.6405 37.8427C79.8988 37.5808 80.0435 37.2277 80.0435 36.8598C80.0483 36.7799 80.0483 36.6997 80.0435 36.6198C79.5348 36.3957 79.1183 36.0039 78.8635 35.5098V35.5098Z" fill="white"/>
<path d="M80.4734 36.8591C80.476 37.348 80.285 37.8181 79.9421 38.1666C79.5992 38.5152 79.1323 38.7138 78.6433 38.7191C78.1552 38.7191 77.6866 38.5273 77.3386 38.1849C76.9907 37.8426 76.7912 37.3772 76.7834 36.8891C76.7834 36.8891 76.7834 36.8891 76.7834 36.8191C76.5911 36.8715 76.3927 36.8984 76.1934 36.8991C76.196 37.2182 76.2614 37.5337 76.386 37.8275C76.5105 38.1213 76.6917 38.3877 76.9192 38.6115C77.1467 38.8353 77.4161 39.0121 77.7119 39.1318C78.0077 39.2515 78.3242 39.3117 78.6433 39.3091C78.9611 39.3065 79.2753 39.2413 79.5679 39.1172C79.8605 38.9932 80.1259 38.8127 80.3487 38.5862C80.5716 38.3596 80.7476 38.0913 80.8668 37.7967C80.986 37.5021 81.046 37.1869 81.0433 36.8691C80.8473 36.8684 80.6523 36.8415 80.4633 36.7891L80.4734 36.8591Z" fill="white"/>
<path d="M82.4234 34.4303C82.4221 34.2477 82.3849 34.0673 82.3138 33.8991C82.2427 33.731 82.1392 33.5785 82.0092 33.4503C81.8792 33.3222 81.7252 33.2209 81.5561 33.1523C81.387 33.0836 81.206 33.049 81.0234 33.0503C80.9404 33.0405 80.8565 33.0405 80.7734 33.0503C80.5401 33.5346 80.1534 33.9283 79.6734 34.1703C79.6636 34.2533 79.6636 34.3372 79.6734 34.4203C79.6685 34.5069 79.6685 34.5937 79.6734 34.6803C80.16 34.9104 80.5546 35.298 80.7934 35.7803H81.0534C81.4125 35.7778 81.7565 35.6354 82.0123 35.3833C82.2681 35.1312 82.4156 34.7893 82.4234 34.4303V34.4303Z" fill="white"/>
<path d="M81.0233 32.0001C81.022 32.1994 80.9951 32.3976 80.9434 32.5901H81.0233C81.2658 32.5874 81.5064 32.6328 81.7313 32.7234C81.9562 32.8141 82.161 32.9483 82.3338 33.1184C82.5067 33.2884 82.6442 33.491 82.7385 33.7144C82.8328 33.9378 82.8821 34.1776 82.8834 34.4201C82.886 34.6626 82.8407 34.9032 82.75 35.1281C82.6593 35.353 82.5251 35.5577 82.3551 35.7306C82.185 35.9034 81.9825 36.041 81.7591 36.1353C81.5357 36.2296 81.2958 36.2788 81.0533 36.2801H80.9734C81.0258 36.4724 81.0527 36.6708 81.0533 36.8701C81.3725 36.8675 81.6879 36.802 81.9818 36.6775C82.2756 36.5529 82.542 36.3717 82.7658 36.1442C82.9896 35.9167 83.1664 35.6474 83.286 35.3515C83.4057 35.0557 83.466 34.7392 83.4633 34.4201C83.4634 34.1006 83.4001 33.7843 83.2773 33.4893C83.1544 33.1944 82.9743 32.9268 82.7475 32.7018C82.5207 32.4768 82.2515 32.299 81.9556 32.1785C81.6597 32.0581 81.3428 31.9974 81.0233 32.0001V32.0001Z" fill="white"/>
<path d="M78.3834 33.4593H78.6034H78.8234C79.0544 32.9452 79.4576 32.5278 79.9634 32.2793C79.9683 32.2127 79.9683 32.1458 79.9634 32.0793C79.9621 31.8967 79.9248 31.7162 79.8537 31.5481C79.7827 31.3799 79.6792 31.2274 79.5492 31.0993C79.4192 30.9711 79.2652 30.8699 79.0961 30.8012C78.9269 30.7326 78.7459 30.6979 78.5634 30.6993C78.1955 30.7045 77.8446 30.8543 77.5863 31.1163C77.3281 31.3783 77.1833 31.7314 77.1834 32.0993C77.1785 32.1658 77.1785 32.2327 77.1834 32.2993C77.7083 32.5314 78.1336 32.9425 78.3834 33.4593Z" fill="white"/>
<path d="M76.7137 32.1099C76.7111 31.8675 76.7564 31.6269 76.8471 31.402C76.9377 31.1771 77.072 30.9723 77.242 30.7994C77.4121 30.6266 77.6147 30.4891 77.838 30.3948C78.0614 30.3004 78.3013 30.2512 78.5437 30.2499C79.0327 30.2473 79.5028 30.4383 79.8513 30.7812C80.1999 31.1241 80.3985 31.591 80.4038 32.0799V32.0799C80.5961 32.0275 80.7944 32.0006 80.9937 31.9999C80.9911 31.6808 80.9257 31.3653 80.8012 31.0715C80.6766 30.7777 80.4954 30.5113 80.2679 30.2875C80.0404 30.0637 79.771 29.8869 79.4752 29.7672C79.1794 29.6475 78.8629 29.5873 78.5437 29.5899C78.2256 29.5912 77.9108 29.6555 77.6176 29.7791C77.3244 29.9027 77.0585 30.0831 76.8354 30.3099C76.6123 30.5368 76.4363 30.8055 76.3176 31.1008C76.1989 31.396 76.1398 31.7118 76.1437 32.0299C76.3397 32.0312 76.5347 32.0581 76.7238 32.1099H76.7137Z" fill="white"/>
<path d="M78.6231 35.3708C78.3826 35.3709 78.1515 35.2767 77.9796 35.1085C77.8076 34.9403 77.7084 34.7114 77.7031 34.4708C77.7031 34.2303 77.7973 33.9992 77.9655 33.8273C78.1337 33.6553 78.3626 33.5561 78.6031 33.5508C78.7222 33.5495 78.8403 33.5718 78.9506 33.6164C79.061 33.6611 79.1614 33.7272 79.246 33.8109C79.3306 33.8946 79.3978 33.9942 79.4437 34.1041C79.4895 34.2139 79.5131 34.3318 79.5131 34.4508C79.5158 34.5699 79.4948 34.6882 79.4514 34.7991C79.408 34.9099 79.343 35.0111 79.2602 35.0966C79.1774 35.1822 79.0785 35.2505 78.9691 35.2976C78.8598 35.3446 78.7422 35.3695 78.6231 35.3708V35.3708ZM78.6231 33.8308C78.4569 33.836 78.2992 33.9058 78.1835 34.0252C78.0677 34.1447 78.0031 34.3045 78.0031 34.4708C78.0083 34.6354 78.0766 34.7916 78.1939 34.9071C78.3112 35.0225 78.4686 35.0883 78.6331 35.0908C78.7985 35.0882 78.9562 35.0207 79.0722 34.9028C79.1882 34.7849 79.2532 34.6262 79.2531 34.4608C79.2532 34.3764 79.2362 34.2928 79.2033 34.215C79.1704 34.1373 79.1222 34.0669 79.0616 34.0081C79.0009 33.9494 78.9291 33.9034 78.8504 33.8729C78.7716 33.8425 78.6875 33.8282 78.6031 33.8308H78.6231Z" fill="white"/>
<path d="M95.1238 37.1894C94.9895 37.319 94.8827 37.4744 94.8098 37.6462C94.7368 37.818 94.6992 38.0027 94.6992 38.1894C94.6992 38.376 94.7368 38.5607 94.8098 38.7326C94.8827 38.9044 94.9895 39.0597 95.1238 39.1894C95.1831 39.2541 95.2503 39.3112 95.3238 39.3594C95.8333 39.1893 96.3842 39.1893 96.8938 39.3594C96.9652 39.3122 97.0321 39.2587 97.0938 39.1993C97.1524 39.1407 97.2059 39.0771 97.2538 39.0093C97.0793 38.5006 97.0793 37.9481 97.2538 37.4394C97.206 37.3684 97.1525 37.3015 97.0938 37.2394C96.8383 36.9731 96.488 36.8184 96.119 36.809C95.7501 36.7997 95.3925 36.9364 95.1238 37.1894V37.1894Z" fill="white"/>
<path d="M94.7133 39.469C94.3762 39.1145 94.1932 38.6408 94.2044 38.1516C94.2157 37.6625 94.4202 37.1977 94.7733 36.859C95.1213 36.5164 95.59 36.3244 96.0783 36.3244C96.5666 36.3244 97.0354 36.5164 97.3833 36.859L97.4333 36.929C97.5333 36.7553 97.6579 36.597 97.8033 36.459C97.3572 35.9959 96.7457 35.7285 96.1028 35.7154C95.4599 35.7022 94.838 35.9445 94.3733 36.389C94.1428 36.6092 93.9581 36.8728 93.8298 37.1646C93.7014 37.4565 93.632 37.7708 93.6255 38.0895C93.619 38.4082 93.6755 38.7251 93.7919 39.0219C93.9082 39.3187 94.082 39.5896 94.3033 39.819C94.4479 39.6826 94.6092 39.565 94.7833 39.469H94.7133Z" fill="white"/>
<path d="M97.1832 40.8402C97.1395 40.7722 97.0893 40.7086 97.0332 40.6502L96.8432 40.4902C96.3285 40.6701 95.768 40.6701 95.2532 40.4902C95.1932 40.4902 95.1232 40.5802 95.0632 40.6402C94.929 40.7699 94.8221 40.9252 94.7492 41.097C94.6763 41.2688 94.6387 41.4536 94.6387 41.6402C94.6387 41.8269 94.6763 42.0116 94.7492 42.1834C94.8221 42.3552 94.929 42.5106 95.0632 42.6402C95.1929 42.7745 95.3482 42.8813 95.52 42.9542C95.6918 43.0272 95.8766 43.0648 96.0632 43.0648C96.2499 43.0648 96.4346 43.0272 96.6064 42.9542C96.7782 42.8813 96.9336 42.7745 97.0632 42.6402C97.1214 42.5875 97.1719 42.5269 97.2132 42.4602C97.0214 41.939 97.0108 41.3682 97.1832 40.8402V40.8402Z" fill="white"/>
<path d="M100.413 42.6895C100.547 42.5599 100.654 42.4045 100.727 42.2327C100.8 42.0609 100.838 41.8762 100.838 41.6895C100.838 41.5029 100.8 41.3181 100.727 41.1463C100.654 40.9745 100.547 40.8192 100.413 40.6895L100.213 40.5195C99.7045 40.6948 99.1519 40.6948 98.6432 40.5195L98.4432 40.6795C98.3832 40.7395 98.3332 40.8095 98.2832 40.8695C98.4532 41.379 98.4532 41.93 98.2832 42.4395C98.3246 42.5122 98.375 42.5794 98.4332 42.6395C98.5592 42.7741 98.7107 42.8822 98.8788 42.9577C99.047 43.0331 99.2285 43.0744 99.4127 43.079C99.597 43.0837 99.7803 43.0516 99.9521 42.9848C100.124 42.9179 100.281 42.8175 100.413 42.6895V42.6895Z" fill="white"/>
<path d="M101.203 40C101.053 40.1343 100.889 40.2517 100.713 40.35H100.783C100.956 40.527 101.091 40.7367 101.181 40.9668C101.271 41.197 101.314 41.4428 101.308 41.6898C101.301 41.9368 101.245 42.18 101.143 42.405C101.041 42.63 100.895 42.8324 100.713 43C100.36 43.3385 99.8872 43.5232 99.3981 43.5139C98.909 43.5045 98.4435 43.3017 98.1034 42.95C98.1015 42.9267 98.1015 42.9033 98.1034 42.88C97.997 43.0493 97.8729 43.2068 97.7334 43.35C97.9536 43.5805 98.2172 43.7652 98.509 43.8936C98.8009 44.0219 99.1151 44.0913 99.4339 44.0978C99.7526 44.1043 100.069 44.0478 100.366 43.9315C100.663 43.8152 100.934 43.6413 101.163 43.42C101.617 42.969 101.875 42.3578 101.883 41.7182C101.89 41.0785 101.646 40.4615 101.203 40Z" fill="white"/>
<path d="M98.3333 39.0893C98.3833 39.1493 98.4233 39.2093 98.4733 39.2593C98.5252 39.3145 98.582 39.3647 98.6432 39.4093C99.1734 39.2193 99.7531 39.2193 100.283 39.4093C100.341 39.3759 100.395 39.3356 100.443 39.2893C100.578 39.1597 100.684 39.0043 100.757 38.8325C100.83 38.6607 100.868 38.476 100.868 38.2893C100.868 38.1027 100.83 37.918 100.757 37.7462C100.684 37.5743 100.578 37.419 100.443 37.2893C100.313 37.1563 100.157 37.0506 99.9856 36.9785C99.8139 36.9063 99.6295 36.8691 99.4433 36.8691C99.257 36.8691 99.0726 36.9063 98.9009 36.9785C98.7292 37.0506 98.5736 37.1563 98.4433 37.2893C98.3979 37.3348 98.3576 37.3851 98.3232 37.4393C98.5181 37.9715 98.5216 38.5549 98.3333 39.0893V39.0893Z" fill="white"/>
<path d="M98.2033 36.999C98.5565 36.6606 99.0295 36.4758 99.5186 36.4852C100.008 36.4946 100.473 36.6973 100.813 37.049C101.15 37.4036 101.333 37.8773 101.322 38.3664C101.311 38.8556 101.106 39.3204 100.753 39.659V39.659C100.925 39.7623 101.083 39.8866 101.223 40.029C101.685 39.5816 101.951 38.9693 101.962 38.3264C101.973 37.6835 101.729 37.0624 101.283 36.599C101.064 36.3688 100.801 36.1843 100.51 36.0561C100.219 35.9279 99.9058 35.8586 99.5879 35.8521C99.27 35.8456 98.9539 35.902 98.6579 36.0182C98.3619 36.1344 98.0919 36.308 97.8633 36.529C97.9943 36.6758 98.1083 36.8368 98.2033 37.009V36.999Z" fill="white"/>
<path d="M97.1137 40.5707C96.9451 40.4003 96.8506 40.1703 96.8506 39.9307C96.8506 39.691 96.9451 39.461 97.1137 39.2907C97.1974 39.206 97.2971 39.1388 97.4069 39.0929C97.5168 39.0471 97.6346 39.0234 97.7537 39.0234C97.8727 39.0234 97.9906 39.0471 98.1005 39.0929C98.2103 39.1388 98.31 39.206 98.3937 39.2907C98.5622 39.461 98.6568 39.691 98.6568 39.9307C98.6568 40.1703 98.5622 40.4003 98.3937 40.5707C98.31 40.6553 98.2103 40.7225 98.1005 40.7684C97.9906 40.8143 97.8727 40.8379 97.7537 40.8379C97.6346 40.8379 97.5168 40.8143 97.4069 40.7684C97.2971 40.7225 97.1974 40.6553 97.1137 40.5707V40.5707ZM98.2237 39.5107C98.1056 39.3928 97.9455 39.3266 97.7787 39.3266C97.6118 39.3266 97.4518 39.3928 97.3337 39.5107C97.2188 39.6283 97.1546 39.7862 97.1546 39.9507C97.1546 40.1151 97.2188 40.273 97.3337 40.3907C97.4518 40.5085 97.6118 40.5747 97.7787 40.5747C97.9455 40.5747 98.1056 40.5085 98.2237 40.3907C98.2817 40.333 98.3278 40.2645 98.3593 40.189C98.3907 40.1135 98.4069 40.0325 98.4069 39.9507C98.4069 39.8689 98.3907 39.7879 98.3593 39.7124C98.3278 39.6369 98.2817 39.5683 98.2237 39.5107V39.5107Z" fill="white"/>
<path d="M84.6197 48.732L65.3722 29.4845C57.3899 21.5022 44.448 21.5022 36.4657 29.4845L17.2182 48.732C9.23593 56.7143 9.23593 69.6562 17.2182 77.6385L36.4657 96.8859C44.448 104.868 57.3899 104.868 65.3722 96.8859L84.6197 77.6385C92.602 69.6562 92.602 56.7143 84.6197 48.732Z" fill="white"/>
<path d="M82.4774 49.659L64.4461 31.6278C56.9715 24.1531 44.8527 24.1531 37.3781 31.6278L19.3469 49.659C11.8722 57.1336 11.8722 69.2524 19.3469 76.7271L37.3781 94.7583C44.8527 102.233 56.9715 102.233 64.4461 94.7583L82.4774 76.727C89.952 69.2524 89.952 57.1336 82.4774 49.659Z" fill="#E1251B"/>
<path d="M38.3784 33.8472L21.7755 50.4501C14.8476 57.378 14.8476 68.6103 21.7755 75.5382L38.3784 92.1411C45.3063 99.069 56.5386 99.069 63.4665 92.1411L80.0694 75.5382C86.9973 68.6103 86.9973 57.378 80.0694 50.4501L63.4665 33.8472C56.5386 26.9193 45.3063 26.9193 38.3784 33.8472Z" stroke="white" stroke-width="0.99" stroke-miterlimit="10" stroke-dasharray="1 1"/>
<path d="M49.9236 53.6392C49.6836 45.7892 42.6036 41.6392 36.6436 43.8092C37.2241 44.0603 37.7472 44.4274 38.1806 44.888C38.6141 45.3486 38.9488 45.893 39.1642 46.4877C39.3796 47.0824 39.4711 47.7149 39.4332 48.3462C39.3953 48.9776 39.2286 49.5945 38.9436 50.1592C37.855 52.7294 37.5287 55.5586 38.0036 58.3092C38.4206 60.4121 39.3048 62.3944 40.5908 64.1097C41.8769 65.825 43.5319 67.2294 45.4336 68.2192C43.9436 60.6892 49.5536 54.0692 49.9236 53.6392Z" fill="white"/>
<path d="M49.9236 53.6403C50.3936 58.9903 49.4936 64.3203 45.4336 68.2203C47.2475 69.1177 49.2399 69.5962 51.2636 69.6203C56.2636 69.6203 59.3136 68.0103 62.5636 64.3803C65.9936 60.5503 67.8536 52.0303 68.5636 48.4803C66.6336 47.7803 56.8436 45.5703 49.9236 53.6403Z" fill="white"/>
<path d="M38.7139 41.9998C40.911 41.8496 43.1017 42.3729 44.9939 43.4998C45.103 43.1775 45.1604 42.84 45.1639 42.4998C45.1639 41.6405 44.8225 40.8164 44.2149 40.2088C43.6073 39.6011 42.7832 39.2598 41.9239 39.2598C41.1497 39.2577 40.4004 39.5328 39.8116 40.0354C39.2227 40.5381 38.8333 41.2349 38.7139 41.9998V41.9998Z" fill="white"/>
<path d="M37.3632 70.8109L38.4232 70.6109C38.8839 70.5261 39.3268 70.3638 39.7332 70.1309C39.9584 70.3433 40.1062 70.6248 40.1532 70.9308C40.1532 71.3308 39.3932 71.8709 38.4032 72.0709L37.6932 72.2109C37.1432 72.3209 36.8432 72.5608 36.7632 73.6208C36.9687 73.3801 37.2252 73.188 37.5139 73.0583C37.8027 72.9286 38.1167 72.8646 38.4332 72.8708C38.7435 72.879 39.0488 72.951 39.3301 73.0823C39.6114 73.2136 39.8626 73.4015 40.0681 73.6341C40.2735 73.8668 40.4288 74.1393 40.5244 74.4347C40.6199 74.7301 40.6535 75.0419 40.6232 75.3509C40.6161 75.7191 40.5339 76.0821 40.3818 76.4176C40.2296 76.753 40.0107 77.0539 39.7384 77.302C39.466 77.55 39.146 77.7399 38.7978 77.86C38.4496 77.9802 38.0805 78.0281 37.7132 78.0009C35.9532 78.0009 34.7832 76.6509 34.7832 74.6309C34.8132 71.9209 35.7132 71.1109 37.3632 70.8109ZM38.7232 75.4109C38.7447 75.271 38.7343 75.1281 38.6928 74.9928C38.6514 74.8575 38.58 74.7334 38.4838 74.6295C38.3877 74.5257 38.2694 74.4449 38.1377 74.3932C38.006 74.3415 37.8643 74.3202 37.7232 74.3309C37.5344 74.3377 37.3488 74.3818 37.1772 74.4608C37.0055 74.5397 36.8512 74.6519 36.7232 74.7908V74.7908C36.7232 75.8408 37.1632 76.5509 37.7232 76.5509C38.2832 76.5509 38.7132 76.1509 38.7132 75.4109H38.7232Z" fill="white"/>
<path d="M41.4338 75.0906C41.4184 74.6925 41.4854 74.2955 41.6307 73.9245C41.7759 73.5535 41.9964 73.2166 42.2781 72.9349C42.5598 72.6532 42.8967 72.4328 43.2677 72.2875C43.6387 72.1422 44.0357 72.0751 44.4338 72.0906C44.7466 72.0481 45.0649 72.0725 45.3676 72.1622C45.6703 72.2519 45.9505 72.4049 46.1897 72.611C46.4288 72.817 46.6215 73.0715 46.755 73.3577C46.8884 73.6438 46.9596 73.9549 46.9638 74.2706C46.9719 74.6179 46.8928 74.9617 46.7338 75.2706C46.5638 75.5806 46.3138 75.6706 45.8138 75.6706H43.4438C43.5177 75.9839 43.7043 76.2589 43.9681 76.4434C44.2318 76.6278 44.5542 76.7087 44.8738 76.6706C45.3235 76.685 45.7699 76.5889 46.1738 76.3906C46.3202 76.6121 46.4095 76.8663 46.4338 77.1306C46.4338 77.4706 45.6638 78.0606 44.4338 78.0606C44.0376 78.0788 43.6418 78.0147 43.2716 77.8723C42.9014 77.7299 42.5647 77.5123 42.2828 77.2332C42.0009 76.9541 41.7799 76.6197 41.6338 76.2509C41.4877 75.8821 41.4196 75.487 41.4338 75.0906V75.0906ZM43.4338 74.5706H45.0538C45.1111 74.4453 45.1385 74.3083 45.1338 74.1706C45.144 74.0805 45.1345 73.9892 45.1062 73.9031C45.0778 73.8169 45.0311 73.7379 44.9694 73.6715C44.9077 73.605 44.8324 73.5527 44.7486 73.518C44.6648 73.4833 44.5744 73.4672 44.4838 73.4706C44.3407 73.4706 44.1991 73.4992 44.0673 73.5548C43.9355 73.6105 43.8162 73.692 43.7164 73.7945C43.6167 73.8971 43.5385 74.0186 43.4865 74.1519C43.4345 74.2852 43.4098 74.4276 43.4138 74.5706H43.4338Z" fill="white"/>
<path d="M53.0739 72.4004C53.3439 72.4004 53.4639 72.5104 53.4639 72.7204V77.9104H51.9539C51.6839 77.9104 51.5639 77.8004 51.5639 77.5904V73.8404H50.5639C50.5465 74.546 50.4931 75.2502 50.4039 75.9504C50.2139 77.3704 49.6739 78.0404 48.5839 78.0404C47.8439 78.0404 47.2139 77.6404 47.2139 77.2504C47.22 76.9763 47.3031 76.7094 47.4539 76.4804C47.6062 76.5554 47.7741 76.5931 47.9439 76.5904C48.3139 76.5904 48.5139 76.3804 48.6039 75.5404C48.6939 74.7004 48.7539 73.4204 48.7639 72.4004H53.0739Z" fill="white"/>
<path d="M55.1331 73.8909C54.9977 73.6899 54.9246 73.4533 54.9231 73.2109C54.9231 72.7709 55.9231 72.2109 57.1831 72.2109C58.7931 72.2109 59.6131 72.9909 59.6131 74.5009V76.1209C59.6131 76.4009 59.7331 76.5209 59.9331 76.5209H60.2131C60.277 76.7249 60.3107 76.9372 60.3131 77.1509C60.3131 77.5509 59.8431 77.9909 59.1431 77.9909C58.8969 77.9943 58.6541 77.9322 58.4398 77.811C58.2254 77.6897 58.0471 77.5137 57.9231 77.3009C57.7637 77.5392 57.5457 77.7325 57.29 77.8621C57.0343 77.9917 56.7495 78.0533 56.4631 78.0409C56.2077 78.0663 55.9499 78.0375 55.7064 77.9562C55.463 77.8749 55.2395 77.743 55.0506 77.5693C54.8618 77.3955 54.7118 77.1838 54.6105 76.9479C54.5093 76.7121 54.459 76.4575 54.4631 76.2009C54.4631 75.0909 55.3431 74.4109 56.6031 74.4109C56.9441 74.4051 57.2832 74.4627 57.6031 74.5809V74.2809C57.6031 73.8509 57.3331 73.5509 56.6031 73.5509C56.0942 73.5557 55.5925 73.6718 55.1331 73.8909V73.8909ZM57.6931 76.1209V75.5409C57.5073 75.4912 57.3155 75.4677 57.1231 75.4709C57.0319 75.4638 56.9403 75.4761 56.8542 75.5068C56.768 75.5376 56.6894 75.5862 56.6233 75.6494C56.5572 75.7126 56.5052 75.7891 56.4708 75.8738C56.4363 75.9585 56.42 76.0495 56.4231 76.1409C56.4189 76.2147 56.4301 76.2886 56.4561 76.3578C56.4821 76.427 56.5223 76.49 56.5741 76.5427C56.6259 76.5955 56.6882 76.6368 56.7569 76.664C56.8256 76.6913 56.8993 76.7038 56.9731 76.7009C57.1441 76.7031 57.3107 76.6468 57.4453 76.5413C57.5799 76.4358 57.6744 76.2875 57.7131 76.1209H57.6931Z" fill="white"/>
<path d="M61.1338 77.3501C61.1375 77.1152 61.178 76.8824 61.2538 76.6601H61.4638C61.5436 76.6661 61.6238 76.6539 61.6983 76.6244C61.7728 76.595 61.8396 76.5491 61.8938 76.4901C62.0644 76.31 62.2 76.0998 62.2938 75.8701C61.9961 75.7237 61.7451 75.4975 61.5685 75.2168C61.3919 74.936 61.2968 74.6117 61.2938 74.2801C61.2938 73.0701 62.2938 72.3301 63.6938 72.3301H65.6138C65.8838 72.3301 66.0138 72.4501 66.0138 72.6601V77.9101H64.5138C64.2438 77.9101 64.1238 77.8001 64.1238 77.5901V76.1901C64.0173 76.2 63.9102 76.2 63.8038 76.1901C63.7144 76.5741 63.5588 76.9396 63.3438 77.2701C63.2296 77.4884 63.059 77.6722 62.8497 77.8024C62.6404 77.9325 62.4001 78.0042 62.1538 78.0101C61.5238 78.0001 61.1338 77.6401 61.1338 77.3501ZM63.9138 74.8901H64.1238V73.6401H63.8538C63.7667 73.6289 63.6781 73.6377 63.5948 73.6658C63.5116 73.6939 63.4358 73.7405 63.3732 73.8021C63.3106 73.8637 63.2628 73.9388 63.2335 74.0216C63.2041 74.1044 63.194 74.1928 63.2038 74.2801C63.2073 74.3678 63.229 74.4538 63.2672 74.5329C63.3055 74.6119 63.3596 74.6822 63.4262 74.7394C63.4928 74.7966 63.5704 74.8395 63.6543 74.8654C63.7382 74.8914 63.8265 74.8998 63.9138 74.8901V74.8901Z" fill="white"/>
<path d="M39.3838 80.3906H42.7137C42.9137 80.3906 43.0037 80.4806 42.9937 80.6206V84.3706H41.9138C41.7238 84.3706 41.6338 84.2906 41.6338 84.1406V81.4406H40.7137V84.3706H39.6338C39.4338 84.3706 39.3438 84.2906 39.3438 84.1406L39.3838 80.3906Z" fill="white"/>
<path d="M46.2239 84.3902H45.1339C44.9439 84.3902 44.8539 84.3001 44.8539 84.1501V81.4501H43.9439C43.7639 81.4501 43.6739 81.3402 43.6739 81.1402C43.6724 80.8946 43.6993 80.6496 43.7539 80.4102H47.1739C47.3239 80.4102 47.4039 80.5002 47.4039 80.6902V81.4501H46.2239V84.3902Z" fill="white"/>
<path d="M48.0835 80.4793C48.412 80.4085 48.7474 80.3749 49.0835 80.3793C49.3235 80.3793 49.4535 80.4793 49.4535 80.6793V82.3193L50.5535 80.5593C50.5874 80.5025 50.6359 80.4559 50.6939 80.4243C50.7519 80.3926 50.8174 80.3771 50.8835 80.3793C50.9751 80.3853 51.0657 80.4021 51.1535 80.4293C51.4004 80.5064 51.6309 80.6284 51.8335 80.7893V84.4093H50.7135C50.5235 84.4093 50.4335 84.3193 50.4335 84.1693V82.5093L49.3335 84.2693C49.3012 84.3252 49.2545 84.3715 49.1982 84.4031C49.1418 84.4348 49.078 84.4507 49.0135 84.4493H48.7335C48.4914 84.368 48.2649 84.2463 48.0635 84.0893L48.0835 80.4793Z" fill="white"/>
<path d="M54.1137 82.8204C54.1137 83.2704 54.2137 83.3804 54.4837 83.3804H55.0537V80.4504H56.1437C56.3337 80.4504 56.4237 80.5304 56.4237 80.6804V83.3804H56.7137C56.9037 83.3804 56.9937 83.4604 56.9937 83.6104V85.3004H55.9037C55.7137 85.3004 55.6237 85.2204 55.6237 85.0704V84.4304H54.1037C53.1837 84.4304 52.7637 83.9904 52.7637 83.0304V80.5104C53.0918 80.4365 53.4273 80.3996 53.7637 80.4004C54.0037 80.4004 54.1237 80.5004 54.1237 80.7004L54.1137 82.8204Z" fill="white"/>
<path d="M57.8036 81.5709C57.7058 81.4299 57.6534 81.2624 57.6536 81.0909C57.6536 80.7709 58.4036 80.3809 59.2636 80.3809C60.4036 80.3809 60.9936 80.9409 60.9936 82.0209V83.1709C60.9936 83.3709 61.0736 83.4609 61.2136 83.4609H61.4136C61.4661 83.6051 61.4931 83.7574 61.4936 83.9109C61.4936 84.1909 61.1536 84.5009 60.6536 84.5009C60.4774 84.5016 60.3041 84.4557 60.1514 84.3679C59.9986 84.2801 59.8717 84.1535 59.7836 84.0009C59.6754 84.1666 59.5268 84.3021 59.352 84.3948C59.1771 84.4875 58.9815 84.5343 58.7836 84.5309C58.6041 84.5418 58.4243 84.5158 58.2553 84.4542C58.0864 84.3927 57.9319 84.297 57.8015 84.1732C57.6711 84.0494 57.5676 83.9 57.4974 83.7345C57.4272 83.5689 57.3919 83.3907 57.3936 83.2109C57.3936 82.4209 58.0236 81.9409 58.9236 81.9509C59.1726 81.9396 59.4213 81.9805 59.6536 82.0709V81.8509C59.6536 81.5509 59.4636 81.3309 58.9136 81.3309C58.5304 81.3271 58.1511 81.4091 57.8036 81.5709V81.5709ZM59.6136 83.1609V82.7509C59.4829 82.7176 59.3485 82.7008 59.2136 82.7009C59.1491 82.6952 59.0841 82.7032 59.0229 82.7245C58.9616 82.7457 58.9056 82.7796 58.8584 82.8239C58.8112 82.8683 58.7739 82.9221 58.749 82.9819C58.724 83.0417 58.712 83.1061 58.7136 83.1709C58.7094 83.2241 58.7164 83.2776 58.7342 83.3279C58.752 83.3782 58.7803 83.4242 58.8171 83.4629C58.8539 83.5016 58.8984 83.5321 58.9478 83.5524C58.9972 83.5727 59.0503 83.5824 59.1036 83.5809C59.2231 83.5772 59.3381 83.534 59.4304 83.4579C59.5227 83.3819 59.5871 83.2774 59.6136 83.1609V83.1609Z" fill="white"/>
</svg>
