<svg width="356" height="103" viewBox="0 0 356 103" fill="none" xmlns="http://www.w3.org/2000/svg">
<path d="M17 5V17H5V5H17ZM22 0H0V22H22V0Z" fill="#3A4649"/>
<path d="M44 5V17H32V5H44ZM49 0H27V22H49V0Z" fill="#3A4649"/>
<path d="M71 5V17H59V5H71ZM76 0H54V22H76V0Z" fill="#3A4649"/>
<path d="M98 5V17H86V5H98ZM103 0H81V22H103V0Z" fill="#3A4649"/>
<path d="M17 32V44H5V32H17ZM22 27H0V49H22V27Z" fill="#3A4649"/>
<path d="M44 32V44H32V32H44ZM49 27H27V49H49V27Z" fill="#3A4649"/>
<path d="M71 32V44H59V32H71ZM76 27H54V49H76V27Z" fill="#3A4649"/>
<path d="M103 27H81V49H103V27Z" fill="#83C34E"/>
<path d="M17 59V71H5V59H17ZM22 54H0V76H22V54Z" fill="#3A4649"/>
<path d="M44 59V71H32V59H44ZM49 54H27V76H49V54Z" fill="#3A4649"/>
<path d="M71 59V71H59V59H71ZM76 54H54V76H76V54Z" fill="#3A4649"/>
<path d="M98 59V71H86V59H98ZM103 54H81V76H103V54Z" fill="#3A4649"/>
<path d="M17 86V98H5V86H17ZM22 81H0V103H22V81Z" fill="#3A4649"/>
<path d="M44 86V98H32V86H44ZM49 81H27V103H49V81Z" fill="#3A4649"/>
<path d="M71 86V98H59V86H71ZM76 81H54V103H76V81Z" fill="#3A4649"/>
<path d="M98 86V98H86V86H98ZM103 81H81V103H103V81Z" fill="#3A4649"/>
<path d="M182.46 0V49H177.66V26.9H160.84V49H156.04V0H160.84V22.1H177.66V0H182.46Z" fill="#3A4649"/>
<path d="M286.02 28L286 28.04V28H286.02Z" fill="#3A4649"/>
<path d="M313 28V28.04L312.98 28H313Z" fill="#3A4649"/>
<path d="M316.46 54V103H311.66V80.9H294.84V103H290.04V54H294.84V76.1H311.66V54H316.46Z" fill="#3A4649"/>
<path d="M244.43 54V103H239.63V65.26L221.37 102.71L221.23 103H216.57V54H221.37V91.74L239.63 54.29L239.77 54H244.43Z" fill="#3A4649"/>
<path d="M312.48 27.9L302.32 0H296.73L286.59 27.86L278.92 48.96H284.02L289.97 32.63H309.16L315.16 48.96H320.26L312.48 27.9ZM291.65 27.9L299.5 6.32999L307.35 27.9H291.65Z" fill="#3A4649"/>
<path d="M213.5 48.9994C209.934 48.9941 206.516 47.5754 203.995 45.0542C201.474 42.533 200.055 39.1149 200.05 35.5494V13.4994C200.145 9.99443 201.605 6.66509 204.118 4.21979C206.631 1.77449 209.999 0.40625 213.505 0.40625C217.011 0.40625 220.379 1.77449 222.892 4.21979C225.405 6.66509 226.864 9.99443 226.96 13.4994V35.5994C226.941 39.158 225.515 42.5647 222.993 45.0754C220.471 47.5861 217.058 48.9968 213.5 48.9994V48.9994ZM213.5 4.79941C211.208 4.8047 209.012 5.71806 207.393 7.33939C205.773 8.96072 204.862 11.1579 204.86 13.4494V35.5494C204.82 36.7094 205.015 37.8655 205.431 38.9489C205.848 40.0322 206.479 41.0205 207.285 41.8551C208.092 42.6897 209.058 43.3533 210.127 43.8066C211.195 44.2599 212.344 44.4935 213.505 44.4935C214.666 44.4935 215.814 44.2599 216.883 43.8066C217.951 43.3533 218.918 42.6897 219.724 41.8551C220.531 41.0205 221.161 40.0322 221.578 38.9489C221.995 37.8655 222.189 36.7094 222.15 35.5494V13.4994C222.155 12.3597 221.935 11.2301 221.503 10.1754C221.071 9.12077 220.435 8.16181 219.631 7.35355C218.827 6.54528 217.872 5.9036 216.82 5.4653C215.768 5.02701 214.64 4.80071 213.5 4.79941V4.79941Z" fill="#3A4649"/>
<path d="M264.97 24.4998C266.708 23.2407 268.122 21.5869 269.096 19.6744C270.069 17.762 270.575 15.6457 270.57 13.4998C270.602 9.95891 269.228 6.54997 266.75 4.02094C264.272 1.4919 260.891 0.0493478 257.35 0.00976562H242.44V49.0098H257.35C260.895 48.9702 264.278 47.5249 266.757 44.9915C269.236 42.4581 270.608 39.044 270.57 35.4998C270.575 33.3538 270.069 31.2375 269.096 29.3251C268.122 27.4127 266.708 25.7588 264.97 24.4998ZM247.29 4.94977H257.35C259.563 5.02553 261.661 5.95792 263.199 7.55026C264.738 9.14261 265.598 11.2704 265.598 13.4847C265.598 15.6991 264.738 17.8269 263.199 19.4193C261.661 21.0116 259.563 21.944 257.35 22.0197H247.29V4.94977ZM257.35 44.0497H247.29V26.9798H257.35C259.563 27.0555 261.661 27.9879 263.199 29.5803C264.738 31.1726 265.598 33.3004 265.598 35.5148C265.598 37.7291 264.738 39.8569 263.199 41.4492C261.661 43.0416 259.563 43.974 257.35 44.0497V44.0497Z" fill="#3A4649"/>
<path d="M341.44 0.000324074C338.011 -0.0230508 334.695 1.2188 332.125 3.48818C329.555 5.75756 327.912 8.89504 327.511 12.3001C327.109 15.7051 327.978 19.1385 329.95 21.943C331.923 24.7476 334.86 26.7262 338.2 27.5003L324.38 49.0003H330.09L343.67 27.8603H350.57V49.0003H355.37V0.000324074H341.44ZM350.57 23.0603H341.06C338.682 22.9495 336.441 21.9142 334.815 20.175C333.189 18.4358 332.307 16.1304 332.357 13.7501C332.406 11.3699 333.384 9.10319 335.08 7.43319C336.777 5.76318 339.059 4.82202 341.44 4.81032H350.57V23.0603Z" fill="#3A4649"/>
<path d="M191.66 79.57L209.6 103H203.55L185.6 79.57H182.9V103H178.1V79.57H175.4L157.45 103H151.4L169.34 79.57L172.37 75.62L169.34 71.66L155.81 54H161.86L175.39 71.66L175.4 71.67L175.41 71.66H178.1V54H182.9V71.66H185.59L185.6 71.67L185.61 71.66L199.14 54H205.19L191.66 71.66L188.63 75.62L191.66 79.57Z" fill="#3A4649"/>
<path d="M163.2 23.3809L163.19 23.3909L163.18 23.3809H163.2Z" fill="black"/>
<path d="M173.82 23.3809L173.81 23.3909L173.8 23.3809H173.82Z" fill="black"/>
<path d="M275.26 78.5008C276.283 79.3981 277.103 80.5039 277.663 81.744C278.224 82.9841 278.513 84.3299 278.51 85.6908V93.4108C278.508 95.9517 277.498 98.3879 275.702 100.185C273.906 101.983 271.471 102.996 268.93 103.001H264.08C261.538 102.998 259.1 101.987 257.302 100.189C255.504 98.3911 254.493 95.9534 254.49 93.4108V89.5508H259.3V93.4108C259.3 94.6794 259.804 95.8963 260.7 96.7943C261.596 97.6923 262.812 98.1982 264.08 98.2008H268.93C270.199 98.1982 271.415 97.6923 272.311 96.7943C273.207 95.8963 273.71 94.6794 273.71 93.4108V85.6908C273.712 85.0622 273.589 84.4396 273.349 83.8585C273.11 83.2774 272.758 82.7493 272.314 82.3044C271.87 81.8595 271.342 81.5065 270.762 81.2656C270.181 81.0248 269.559 80.9008 268.93 80.9008H264.1V76.1008H268.93C269.559 76.1008 270.181 75.9768 270.762 75.736C271.342 75.4951 271.87 75.1421 272.314 74.6972C272.758 74.2523 273.11 73.7242 273.349 73.1431C273.589 72.562 273.712 71.9394 273.71 71.3108V63.5908C273.71 62.3222 273.207 61.1053 272.311 60.2073C271.415 59.3093 270.199 58.8034 268.93 58.8008H264.08C262.812 58.8034 261.596 59.3093 260.7 60.2073C259.804 61.1053 259.3 62.3222 259.3 63.5908V67.5008H254.49V63.6408C254.493 61.0982 255.504 58.6604 257.302 56.8625C259.1 55.0646 261.538 54.0534 264.08 54.0508H268.93C271.471 54.0561 273.906 55.0685 275.702 56.8661C277.498 58.6637 278.508 61.0999 278.51 63.6408V71.3608C278.506 72.7133 278.213 74.0494 277.653 75.2803C277.093 76.5113 276.277 77.6091 275.26 78.5008V78.5008Z" fill="#3A4649"/>
<path d="M341.52 75.14H333.36V54H328.55V103H341.55C345.244 103 348.787 101.532 351.4 98.92C354.012 96.3076 355.48 92.7645 355.48 89.07C355.48 85.3755 354.012 81.8324 351.4 79.22C348.787 76.6077 345.244 75.14 341.55 75.14H341.52ZM341.52 98.2H333.36V79.94H341.52C343.941 79.94 346.264 80.9019 347.976 82.6141C349.688 84.3263 350.65 86.6486 350.65 89.07C350.65 91.4914 349.688 93.8137 347.976 95.5259C346.264 97.2381 343.941 98.2 341.52 98.2V98.2Z" fill="#3A4649"/>
</svg>
