<svg width="196" height="99" viewBox="0 0 196 99" fill="none" xmlns="http://www.w3.org/2000/svg">
<path d="M192.02 44.0305C190.295 42.3296 187.978 41.3477 185.27 41.7969C179.797 42.7051 175.222 47.3318 171.373 50.9964C171.083 51.2762 170.779 51.556 170.489 51.8457C169.395 52.8766 166.665 54.5775 170.136 46.4826C173.607 38.3852 174.662 37.2806 174.662 37.2806C174.662 37.2806 168.376 33.6161 166.216 37.6807C165.318 39.394 164.066 42.683 163.035 46.0702C163.011 46.0702 162.998 46.0948 162.986 46.1291C162.718 47.5135 161.494 49.3813 160.814 50.184C159.989 51.1535 160.014 51.1289 158.691 52.2948C158.313 52.6237 157.66 53.1932 157.463 52.5403C157.306 51.9684 157.549 51.2517 157.694 50.7166C158.082 49.3593 158.627 48.0363 159.186 46.7354C161.531 41.2496 162.915 38.7141 163.497 37.7421C163.579 37.6035 163.604 37.4379 163.565 37.2813C163.527 37.1246 163.428 36.9895 163.29 36.9051C161.918 36.0558 158.156 34.1021 156.626 37.1113C155.522 39.3081 152.525 44.8675 151.19 49.6734L147.304 52.7931C147.304 52.7931 145.424 54.4082 148.07 47.5626C150.107 42.2829 151.941 39.0405 152.67 37.8403C152.712 37.7712 152.738 37.694 152.748 37.6138C152.758 37.5336 152.75 37.4523 152.726 37.3752C152.702 37.2982 152.662 37.2271 152.608 37.1668C152.554 37.1065 152.488 37.0583 152.414 37.0254C150.679 36.2375 145.593 34.3205 144.185 38.0808C143.627 39.5879 142.486 42.4498 141.418 45.5842L136.794 46.1291C137.904 43.2579 139.033 40.3942 140.181 37.5384C140.231 37.4231 140.238 37.2941 140.202 37.1738C140.167 37.0536 140.09 36.9498 139.985 36.8806C138.652 35.9724 133.942 33.1914 132.096 37.693C131.173 39.9511 129.789 43.4709 128.515 46.7501C128.432 46.8581 126.392 49.455 123.866 49.9287C124.087 49.4795 124.291 49.0303 124.499 48.5444C126.939 42.7787 128.019 37.2806 124.801 36.7357C124.416 36.6729 124.028 36.6278 123.638 36.6007C124.109 35.8374 125.044 33.7977 121.269 34.3328C116.645 34.9881 110.833 37.9851 109.021 44.3717C108.624 45.765 108.3 47.1783 108.052 48.6057L104.034 52.5501C104.034 52.5501 101.923 54.8328 103.732 49.1629C105.538 43.4954 107.082 38.9816 107.082 38.9816C107.082 38.9816 108.26 36.4314 105.2 35.6926C102.154 34.9513 101.849 35.2557 100.539 37.4991C99.5199 39.259 96.5328 44.3079 95.2957 46.4089C95.2098 46.5562 94.9913 46.458 95.0404 46.2985L97.2618 38.3729C97.2618 38.3729 97.8926 36.4338 96.0591 35.8251C94.2157 35.2189 92.5393 35.0249 91.8373 36.7971C91.1329 38.5668 89.0195 42.8278 86.6411 46.0457C84.3952 49.0794 83.0723 51.8088 81.2167 49.1285L81.0817 48.834C79.82 46.4703 78.8235 46.4212 75.3529 50.5472C72.9867 53.3625 70.4267 54.5407 69.0423 55.0022C68.1342 55.3065 67.1131 55.1494 66.3841 54.5407C65.8981 54.1406 65.498 53.5098 65.498 52.5624C65.498 50.1962 65.1348 50.5742 69.1626 48.483C72.999 46.4826 74.3342 45.0958 75.2571 43.8833C76.1407 42.7051 76.2757 40.9599 76.0082 39.4308C75.6818 37.5605 74.322 35.3759 69.516 35.3759C65.2452 35.3759 62.3538 37.8157 60.5326 40.2555C58.6426 42.791 57.597 45.8518 57.3294 49.0181C57.3049 49.2856 57.2926 49.5654 57.2803 49.8428C57.1331 49.9041 56.9784 49.9655 56.8189 50.049C52.5603 52.1255 49.5118 48.6425 60.8369 21.5031C64.7322 12.1563 67.5009 7.35041 67.6113 4.21847C67.8396 -2.38169 60.9695 0.735525 60.9695 0.735525C60.9695 0.735525 53.736 2.47086 32.4236 30.3516C11.1455 58.2077 0.0167547 52.4421 0.0167547 52.4421C0.0167547 52.4421 -0.881594 63.0971 10.4779 63.0971C22.6031 63.0971 42.946 28.2137 52.3272 16.0173C58.8954 7.47068 61.6984 6.56252 62.2433 7.83641C62.5011 8.40585 62.0396 9.47356 61.7475 10.0209C59.4059 14.3654 45.4104 40.7022 43.4443 51.6272C41.5273 62.2601 54.3178 55.876 57.1601 54.4671C57.3073 54.3934 57.4988 54.31 57.6927 54.2143C58.348 56.7007 59.9508 58.7404 63.4215 58.7404C67.4518 58.7404 71.2023 57.0664 74.1281 55.2206C74.1281 56.7375 74.5895 58.2421 76.3617 58.2421C79.9428 58.2421 82.4906 56.5313 84.8101 52.4176C86.0839 50.1471 86.9455 48.834 87.4781 48.1075C87.5763 47.9749 87.7825 48.0829 87.7236 48.2425C86.7025 50.8393 83.8503 57.8052 86.0839 58.1586C89.481 58.7035 92.2865 58.0359 94.2648 54.2486C95.6467 51.5806 97.2004 48.7751 97.9907 47.3441C98.0742 47.1968 98.2926 47.2827 98.2558 47.4521C97.6373 49.9901 96.4739 56.4601 97.4311 57.7095C98.6706 59.3344 101.133 60.0265 106.633 54.0547C107.021 53.6301 107.384 53.23 107.713 52.8275C107.747 56.1165 108.805 58.5955 111.79 58.5955C115.626 58.5955 119.023 57.0173 121.731 53.5098C122.641 53.6325 123.758 53.6424 124.801 53.2423C125.287 53.0606 125.798 52.8422 126.296 52.6115C125.712 54.1161 125.349 55.0758 125.349 55.0758C125.349 55.0758 123.54 59.0938 127.509 58.6913C131.478 58.2912 132.339 58.4262 133.188 55.7802C133.874 53.8117 134.598 51.8567 135.361 49.9164L140.326 49.1163C138.785 54.4082 138.117 59.3123 141.296 58.7035C144.415 58.1096 147.96 55.925 150.569 54.0424C150.63 55.4391 151.067 56.5559 152.051 57.1989C156.116 59.8326 158.678 57.113 161.226 54.0572C161.094 55.39 161.165 56.3865 161.53 56.8357C163.133 58.7993 166.179 61.0083 174.601 52.2826C184.021 42.5136 190.879 44.8921 189.35 51.2639C189.338 51.313 189.313 51.3499 189.301 51.3965C189.033 52.15 188.766 52.8422 188.488 53.4607C187.505 55.6697 186.011 57.6131 184.129 59.1306C179.603 62.7829 168.703 69.6408 149.199 71.4842C122.254 74.0344 102.154 72.8194 76.288 69.8715C50.4225 66.9212 21.7293 63.5708 13.4282 74.3019C5.11476 85.0183 15.8434 98.2824 37.2909 98.1499C56.9048 98.0296 73.6052 78.0647 76.3126 74.6529C76.4274 74.5062 76.583 74.3967 76.7599 74.3382C76.9368 74.2797 77.127 74.2747 77.3066 74.324C80.4386 75.1635 83.5951 75.9145 86.7516 76.6681C92.5248 78.044 98.318 79.3344 104.129 80.5388C111.029 81.9869 117.963 83.2701 124.924 84.3875C131.441 85.4184 138.007 86.2922 144.597 86.6456C145.399 86.6947 146.187 86.7193 146.99 86.7291C168.509 87.8213 184.627 80.637 192.99 64.1182C198.768 52.6606 194.968 46.6642 192.02 44.0305V44.0305ZM69.9407 40.1696C70.6328 39.4774 71.8576 39.2614 72.6112 39.7695C73.2788 40.2187 73.4948 41.468 72.8542 41.9663C71.6883 42.8646 67.9501 44.6 67.6457 44.735C65.7287 45.6431 69.4547 40.6433 69.9407 40.1696ZM123.152 42.8769C122.023 47.16 119.232 53.8117 116.039 54.1774C112.762 54.5407 116.171 46.2494 118.623 42.3418C120.008 40.3046 123.029 37.8403 123.262 39.4185C123.432 40.5686 123.395 41.74 123.152 42.8769V42.8769ZM34.6081 86.2922C7.9669 88.1011 18.4771 78.3175 31.0515 74.2283C44.0506 70.0041 66.8333 72.2131 66.8333 72.2131C66.8333 72.2131 61.2493 84.4857 34.6081 86.2922Z" fill="#8F5541"/>
<path d="M92.7228 13.7112H93.9009L90.8401 17.1327L94.1415 20.7998H92.8897L89.6669 17.2064V20.7998H88.5869V13.7112H89.6669V17.1573L92.7252 13.7112H92.7228ZM101.571 17.2432C101.571 18.3968 101.277 19.2952 100.697 19.9505C100.113 20.6059 99.3131 20.92 98.2798 20.92C97.6864 20.9339 97.1014 20.7781 96.5935 20.4709C96.0945 20.1696 95.697 19.726 95.4522 19.197C95.1729 18.5843 95.0362 17.9163 95.0521 17.2432C95.0521 16.0896 95.3442 15.1912 95.9136 14.5482C96.4978 13.9051 97.2979 13.5909 98.319 13.5909C99.3131 13.5909 100.101 13.9173 100.683 14.5727C101.291 15.2281 101.569 16.1264 101.569 17.2432H101.571ZM96.1812 17.2432C96.1812 18.1514 96.3628 18.8337 96.7261 19.3197C97.0918 19.7934 97.6244 20.0217 98.3288 20.0217C99.0333 20.0217 99.5684 19.7934 99.9316 19.3197C100.295 18.846 100.479 18.1538 100.479 17.2432C100.479 16.3449 100.295 15.6527 99.9316 15.1912C99.5684 14.7298 99.0235 14.4892 98.3166 14.4892C97.6146 14.4892 97.0893 14.72 96.7261 15.179C96.3505 15.6404 96.1812 16.3326 96.1812 17.2432V17.2432ZM104.531 13.7112V16.6738H108.5V13.7112H109.58V20.7998H108.5V17.6089H104.531V20.7998H103.464V13.7112H104.531ZM118.004 23.2518H116.961V20.7973H112.008V23.2518H110.977V19.8769H111.534C112.14 19.038 112.6 18.1028 112.894 17.1107C113.223 16.0552 113.392 14.9261 113.404 13.7112H116.998V19.8769H118.004V23.2518V23.2518ZM115.952 19.8769V14.5604H114.364C114.315 15.5177 114.119 16.4897 113.804 17.4617C113.488 18.4435 113.1 19.2461 112.639 19.8769H115.952ZM120.432 13.7112V18.2029L120.383 19.3811L120.37 19.7566L124.197 13.7112H125.544V20.7998H124.538V16.4651L124.563 15.606L124.597 14.7666L120.761 20.7998H119.425V13.7112H120.432ZM132.591 14.6218H130.286V20.7998H129.219V14.6218H126.936V13.7112H132.594V14.6193L132.591 14.6218ZM136.987 20.9323C135.944 20.9323 135.119 20.6181 134.511 19.9751C133.904 19.332 133.603 18.4459 133.603 17.3168C133.603 16.1755 133.88 15.2649 134.452 14.5972C135.009 13.9173 135.772 13.5909 136.72 13.5909C137.606 13.5909 138.31 13.8805 138.831 14.4647C139.353 15.0464 139.609 15.8245 139.609 16.7719V17.4494H134.729C134.754 18.2864 134.96 18.9172 135.36 19.3443C135.76 19.7812 136.32 19.9873 137.049 19.9873C137.812 19.9873 138.566 19.8278 139.307 19.5136V20.4709C138.958 20.6215 138.597 20.7398 138.227 20.8243C137.818 20.9027 137.403 20.9389 136.987 20.9323V20.9323ZM136.695 14.477C136.126 14.477 135.677 14.6586 135.338 15.0341C134.997 15.3974 134.803 15.9202 134.741 16.5756H138.443C138.443 15.8957 138.286 15.3851 137.994 15.0219C137.692 14.6586 137.267 14.477 136.695 14.477ZM144.719 20.92C144.258 20.92 143.833 20.8366 143.457 20.6672C143.074 20.4923 142.744 20.2197 142.5 19.8769H142.426C142.476 20.2892 142.5 20.6795 142.5 21.055V23.9685H141.43V13.6964H142.304L142.451 14.6684H142.5C142.743 14.3078 143.077 14.0188 143.47 13.8314C143.833 13.6596 144.258 13.5762 144.731 13.5762C145.664 13.5762 146.393 13.8903 146.903 14.5334C147.414 15.1765 147.669 16.0749 147.669 17.2407C147.669 18.4066 147.414 19.3025 146.891 19.9481C146.371 20.6034 145.639 20.9176 144.719 20.9176V20.92ZM144.572 14.4892C143.845 14.4892 143.322 14.6954 142.996 15.0955C142.679 15.4956 142.51 16.1387 142.498 17.0125V17.2579C142.498 18.252 142.669 18.9663 142.996 19.3933C143.335 19.8155 143.855 20.034 144.596 20.034C144.88 20.0434 145.162 19.9805 145.415 19.8513C145.667 19.722 145.883 19.5307 146.042 19.2952C146.393 18.7969 146.565 18.117 146.565 17.2432C146.565 16.3596 146.393 15.6895 146.042 15.206C145.874 14.9757 145.653 14.7899 145.397 14.665C145.141 14.54 144.859 14.4797 144.574 14.4892H144.572ZM152.377 20.92C151.358 20.92 150.556 20.6059 149.999 19.9751C149.429 19.3443 149.149 18.4459 149.149 17.2923C149.149 16.1019 149.429 15.1912 150.011 14.5482C150.58 13.9051 151.395 13.5786 152.451 13.5786C152.789 13.5786 153.131 13.6154 153.469 13.6866C153.81 13.7603 154.076 13.8462 154.272 13.9419L153.943 14.8525C153.69 14.7554 153.431 14.6742 153.167 14.6095C152.924 14.5543 152.676 14.5255 152.426 14.5236C150.993 14.5236 150.266 15.4342 150.266 17.28C150.266 18.1538 150.436 18.8214 150.786 19.2829C151.14 19.7443 151.66 19.9873 152.352 19.9873C152.949 19.9873 153.555 19.8646 154.174 19.6093V20.5568C153.688 20.7998 153.094 20.92 152.377 20.92V20.92ZM159.976 13.7112H161.154L158.094 17.1327L161.407 20.7998H160.158L156.918 17.2064V20.7998H155.85V13.7112H156.918V17.1573L159.976 13.7112ZM167.077 20.7998L166.856 19.7934H166.807C166.533 20.1729 166.171 20.4803 165.752 20.6893C165.336 20.8569 164.889 20.9355 164.441 20.92C163.739 20.92 163.192 20.7384 162.791 20.3751C162.391 20.0094 162.197 19.5013 162.197 18.8337C162.197 17.4003 163.339 16.6492 165.634 16.5878L166.834 16.551V16.1141C166.834 15.557 166.711 15.1446 166.481 14.8869C166.238 14.6218 165.862 14.4868 165.327 14.4868C164.733 14.4868 164.065 14.6709 163.327 15.0341L162.998 14.2094C163.351 14.0131 163.727 13.8683 164.151 13.7603C164.56 13.6535 164.981 13.6006 165.403 13.6032C166.25 13.6032 166.868 13.7971 167.283 14.1603C167.696 14.5359 167.889 15.1421 167.889 15.9693V20.7998H167.077ZM164.647 20.034C165.317 20.034 165.838 19.8523 166.228 19.4891C166.603 19.1234 166.797 18.6153 166.797 17.9476V17.3046L165.73 17.3537C164.88 17.3782 164.259 17.523 163.884 17.7537C163.508 17.9845 163.327 18.36 163.327 18.846C163.327 19.2338 163.449 19.5259 163.678 19.7296C163.896 19.9382 164.222 20.034 164.65 20.034H164.647ZM170.44 20.7998H169.188L171.225 17.8004C170.739 17.7125 170.295 17.4656 169.964 17.0984C169.667 16.7274 169.513 16.2625 169.529 15.7877C169.529 15.1446 169.745 14.6341 170.182 14.2585C170.621 13.8928 171.228 13.6989 172.003 13.6989H175.16V20.7875H174.092V17.9599H172.295L170.437 20.7998H170.44ZM170.572 15.8098C170.572 16.6247 171.166 17.037 172.357 17.037H174.08V14.6463H172.138C171.093 14.6463 170.572 15.0341 170.572 15.8098Z" fill="#8F5541"/>
</svg>
