<svg width="162" height="127" viewBox="0 0 162 127" fill="none" xmlns="http://www.w3.org/2000/svg">
<path fill-rule="evenodd" clip-rule="evenodd" d="M123.893 109.226C124.034 109.275 124.18 109.32 124.33 109.36C124.397 109.379 124.467 109.393 124.537 109.4C124.562 109.401 124.586 109.395 124.607 109.381L124.668 109.329C124.698 109.285 124.718 109.235 124.729 109.183C124.756 109.07 124.772 108.954 124.778 108.838V108.643H125.553L125.571 108.829L125.907 112.636L125.925 112.856H125.19L125.15 112.709C125.005 112.284 124.816 111.875 124.586 111.489C124.393 111.175 124.158 110.888 123.887 110.638C123.519 110.316 123.091 110.069 122.627 109.912C121.419 109.528 120.113 109.593 118.949 110.095C118.339 110.39 117.814 110.835 117.423 111.389V111.389C117.08 111.882 116.818 112.428 116.648 113.005C116.471 113.629 116.384 114.275 116.389 114.924C116.388 115.465 116.446 116.004 116.563 116.532C116.676 117.035 116.852 117.523 117.085 117.984C117.3 118.413 117.571 118.812 117.89 119.17C118.18 119.491 118.52 119.763 118.897 119.976C119.251 120.182 119.63 120.341 120.025 120.449C120.401 120.553 120.789 120.606 121.178 120.607C121.63 120.608 122.079 120.555 122.518 120.449H122.536C122.743 120.396 122.947 120.33 123.146 120.253C123.32 120.186 123.491 120.113 123.655 120.031V116.675C123.658 116.434 123.646 116.192 123.619 115.952C123.609 115.823 123.578 115.696 123.527 115.577C123.488 115.506 123.438 115.442 123.378 115.388C123.315 115.331 123.243 115.284 123.164 115.25C123.051 115.203 122.932 115.174 122.81 115.162C122.599 115.135 122.386 115.124 122.173 115.128H121.953V114.375H127.444V115.128H126.98C126.798 115.122 126.616 115.153 126.447 115.22C126.323 115.274 126.217 115.363 126.142 115.476C126.081 115.611 126.043 115.756 126.029 115.903C125.996 116.159 125.982 116.417 125.986 116.675V120.479L125.87 120.54C125.507 120.721 125.134 120.882 124.754 121.022C124.385 121.158 124.01 121.272 123.628 121.364C123.242 121.456 122.851 121.522 122.457 121.562C122.029 121.607 121.599 121.63 121.169 121.629C120.006 121.65 118.848 121.455 117.756 121.053C116.792 120.687 115.931 120.092 115.248 119.32C114.759 118.771 114.373 118.137 114.11 117.45C113.855 116.767 113.726 116.043 113.732 115.315C113.732 114.774 113.803 114.235 113.943 113.713C114.09 113.181 114.302 112.669 114.574 112.188V112.188C114.901 111.613 115.304 111.086 115.773 110.62C116.243 110.16 116.775 109.769 117.353 109.458C117.864 109.182 118.41 108.976 118.976 108.847C119.592 108.709 120.221 108.641 120.852 108.646C121.303 108.641 121.753 108.678 122.197 108.756H122.219C122.46 108.802 122.698 108.866 122.932 108.933C123.253 109.024 123.567 109.131 123.881 109.238L123.893 109.226ZM5.53362 109.964C5.42828 109.862 5.30244 109.784 5.16451 109.735H5.14926C4.96482 109.677 4.77228 109.648 4.57881 109.65H3.85889V108.912H8.87393C9.40596 108.908 9.93772 108.936 10.4663 108.997C10.8802 109.044 11.2888 109.129 11.6865 109.253V109.253H11.714C12.0468 109.365 12.3645 109.517 12.6596 109.708L12.6993 109.732C12.9956 109.933 13.2652 110.171 13.5016 110.44V110.44C13.7209 110.683 13.8964 110.963 14.0201 111.266V111.266L14.0567 111.361C14.1825 111.707 14.2456 112.073 14.2428 112.441C14.2489 112.924 14.1533 113.403 13.9622 113.847C13.7866 114.262 13.5257 114.635 13.1965 114.942V114.942L13.1477 114.982C12.7526 115.32 12.2912 115.571 11.7933 115.72C11.219 115.889 10.6225 115.97 10.024 115.961C9.85314 115.961 9.68232 115.961 9.51454 115.961C9.34676 115.961 9.14848 115.934 8.9685 115.912C8.78852 115.891 8.58108 115.864 8.3889 115.836L8.01064 115.76V119.012C8.00555 119.308 8.02802 119.604 8.07775 119.896C8.09704 120.036 8.14933 120.169 8.23027 120.284C8.33078 120.39 8.45526 120.471 8.59328 120.519H8.61159C8.79032 120.574 8.97665 120.601 9.16373 120.598H9.8867V121.339H3.85889V120.598H4.57881C4.76239 120.617 4.94775 120.592 5.11996 120.525C5.29217 120.459 5.44641 120.353 5.57023 120.217C5.628 120.096 5.66413 119.966 5.677 119.832C5.71208 119.562 5.72738 119.29 5.72275 119.018V111.245C5.72837 110.947 5.70796 110.649 5.66174 110.354C5.64723 110.217 5.60355 110.084 5.53362 109.964V109.964ZM15.8504 120.217C15.9175 120.097 15.96 119.965 15.9755 119.829C16.0131 119.558 16.0294 119.285 16.0243 119.012V111.245C16.0321 110.949 16.0106 110.653 15.9603 110.36C15.9422 110.218 15.8898 110.082 15.8077 109.964C15.701 109.857 15.5703 109.776 15.4264 109.729C15.2414 109.669 15.0475 109.64 14.8529 109.644H14.1513V108.905H20.5177V109.659H20.295C20.0098 109.654 19.7246 109.666 19.4409 109.695C19.2667 109.713 19.0954 109.753 18.9315 109.814C18.8216 109.861 18.7188 109.922 18.6264 109.997C18.5559 110.053 18.4968 110.121 18.4525 110.199C18.404 110.328 18.3742 110.464 18.3641 110.601C18.3366 110.886 18.3244 111.172 18.3275 111.459V119.018C18.3239 119.222 18.3362 119.426 18.3641 119.628C18.3769 119.741 18.4099 119.85 18.4617 119.951V119.951C18.4879 119.985 18.5175 120.015 18.5501 120.043V120.043C18.593 120.073 18.6403 120.097 18.6905 120.113C18.7373 120.127 18.7853 120.136 18.8338 120.14C18.9345 120.14 19.0321 120.159 19.1389 120.165C19.4653 120.183 19.7948 120.186 20.1212 120.186H21.0821C21.4939 120.186 21.9149 120.186 22.3297 120.137C22.5815 120.118 22.8308 120.074 23.0741 120.006V120.006H23.1107C23.2972 119.946 23.4748 119.861 23.6384 119.753C23.8158 119.635 23.9795 119.498 24.1265 119.344C24.305 119.148 24.4634 118.934 24.5993 118.707C24.7844 118.404 24.9494 118.089 25.0935 117.764L25.1667 117.609L25.6548 117.7L25.8927 117.746L25.8195 117.962L24.703 121.229L24.6542 121.376H14.1513V120.635H14.856C15.0433 120.652 15.2319 120.622 15.4053 120.549C15.5786 120.477 15.7315 120.362 15.8504 120.217V120.217ZM34.9009 117.331H30.139L29.3093 119.115C29.2196 119.299 29.1411 119.487 29.0744 119.68V119.68V119.701C29.0292 119.825 29.0035 119.954 28.9981 120.086C28.9991 120.141 29.0149 120.194 29.0439 120.241C29.0828 120.301 29.1324 120.354 29.1903 120.397V120.397C29.3029 120.461 29.4256 120.507 29.5533 120.531C29.7992 120.577 30.0478 120.607 30.2977 120.619H30.5081V121.348H25.9324V120.641L26.1154 120.613C26.3321 120.582 26.5462 120.535 26.756 120.473C26.8659 120.441 26.9692 120.389 27.0611 120.32C27.2478 120.141 27.4071 119.936 27.5339 119.71C27.7378 119.377 27.9212 119.032 28.083 118.676L32.7198 108.716L32.7594 108.631H33.3878L33.4458 108.756L38.0002 118.78C38.1475 119.113 38.3177 119.435 38.5096 119.744V119.771C38.6205 119.955 38.7595 120.119 38.9214 120.259V120.259C39.0595 120.366 39.2155 120.448 39.3821 120.5C39.593 120.566 39.8113 120.603 40.0318 120.613H40.2393V121.345H34.6751V120.61H34.8856C35.0905 120.601 35.2944 120.576 35.4957 120.537C35.6037 120.516 35.7071 120.476 35.8008 120.418C35.8592 120.377 35.9081 120.324 35.9441 120.262C35.9743 120.206 35.99 120.143 35.9899 120.079C35.9814 119.926 35.9516 119.774 35.9014 119.628C35.8224 119.391 35.7297 119.159 35.6238 118.932L34.9009 117.331ZM45.4282 110.068V119.064C45.4214 119.355 45.4408 119.646 45.4861 119.933C45.5052 120.071 45.5552 120.202 45.6326 120.317V120.317C45.7367 120.416 45.8619 120.489 45.9986 120.531C46.1888 120.587 46.3862 120.613 46.5843 120.61H47.2493V121.351H41.2612V120.61H41.9567C42.1386 120.629 42.3223 120.605 42.4933 120.54C42.6643 120.476 42.8179 120.372 42.942 120.238C43.0089 120.122 43.0504 119.993 43.064 119.86C43.1026 119.594 43.1199 119.326 43.1159 119.057V110.068H41.7798C41.5296 110.068 41.2703 110.068 41.0202 110.098C40.8592 110.111 40.6998 110.14 40.5443 110.184V110.184C40.4111 110.232 40.2858 110.3 40.1722 110.385V110.385C40.0464 110.483 39.9345 110.598 39.8396 110.727V110.727H39.8244C39.7139 110.883 39.6275 111.054 39.5682 111.236C39.4972 111.461 39.4532 111.693 39.437 111.928V112.115H38.6347V111.901L38.7811 109.073V108.878H49.8728V109.073L50.0222 111.901V112.115H49.223L49.1956 111.938C49.1689 111.732 49.1302 111.528 49.0796 111.328C49.0475 111.194 48.9972 111.066 48.9302 110.946C48.8491 110.798 48.7463 110.662 48.6251 110.544C48.5084 110.432 48.3758 110.339 48.2316 110.266C48.0679 110.188 47.8945 110.133 47.7161 110.101C47.4885 110.061 47.2577 110.041 47.0266 110.043L45.4282 110.068ZM74.3653 110.028C74.2907 110.154 74.242 110.294 74.2219 110.44C74.1808 110.706 74.1624 110.976 74.167 111.245V116.498C74.167 116.742 74.167 116.986 74.2006 117.23C74.2341 117.474 74.2585 117.795 74.3012 118.075C74.3375 118.337 74.3998 118.595 74.4873 118.844V118.862C74.5517 119.053 74.6442 119.233 74.7619 119.396C74.8789 119.554 75.0164 119.695 75.1706 119.817C75.345 119.952 75.5344 120.067 75.735 120.159H75.7624C75.9815 120.259 76.212 120.331 76.4488 120.375C76.7363 120.431 77.0285 120.457 77.3212 120.455C77.7121 120.456 78.1019 120.414 78.4835 120.33C78.8417 120.252 79.1883 120.128 79.5146 119.96C79.8066 119.818 80.0759 119.633 80.3138 119.411C80.5163 119.222 80.68 118.995 80.7958 118.743C80.9302 118.413 81.0175 118.066 81.0551 117.712C81.1211 117.179 81.1507 116.642 81.1435 116.105V111.224C81.1493 110.928 81.1288 110.632 81.0825 110.339C81.0635 110.197 81.0113 110.061 80.93 109.943C80.8234 109.837 80.694 109.756 80.5517 109.708C80.3724 109.663 80.1871 109.646 80.0027 109.659H79.2827V108.921H87.7509L87.812 109.04L92.342 118.063L96.8079 109.043L96.8689 108.921H100.926V109.659H100.261C100.045 109.654 99.8302 109.688 99.6266 109.76C99.4795 109.812 99.3511 109.906 99.2575 110.031C99.1924 110.149 99.151 110.279 99.1354 110.412C99.1005 110.677 99.0852 110.944 99.0897 111.212V119.079C99.083 119.37 99.1024 119.661 99.1477 119.948C99.1657 120.086 99.2148 120.217 99.291 120.333C99.3945 120.431 99.52 120.503 99.6571 120.543C99.8549 120.602 100.061 120.63 100.267 120.625H100.932V121.367H94.9288V120.625H95.6213C95.8026 120.644 95.9859 120.621 96.1568 120.558C96.3277 120.494 96.4816 120.392 96.6066 120.259V120.259C96.6721 120.143 96.7136 120.014 96.7286 119.881C96.7661 119.615 96.7824 119.347 96.7774 119.079V111.971L92.165 121.251L92.1071 121.373H91.497L91.439 121.251L86.8083 111.971V119.079C86.8011 119.37 86.8215 119.661 86.8694 119.948C86.8863 120.086 86.9354 120.218 87.0127 120.333V120.333C87.1162 120.431 87.2417 120.503 87.3788 120.543C87.5685 120.601 87.7661 120.629 87.9645 120.625H88.6569V121.367H83.6633V120.625H84.3496C84.533 120.643 84.718 120.619 84.8907 120.555C85.0635 120.491 85.2195 120.389 85.3471 120.256C85.4096 120.136 85.4509 120.006 85.4692 119.872C85.5077 119.607 85.525 119.34 85.521 119.073V111.184C85.5231 110.968 85.5068 110.751 85.4722 110.537C85.4514 110.395 85.4082 110.257 85.3441 110.129V110.129C85.31 110.061 85.2634 110 85.2068 109.949C85.1315 109.886 85.0485 109.834 84.9597 109.793V109.793C84.3008 109.488 83.0684 109.525 82.6322 110.15C82.5741 110.263 82.5369 110.386 82.5224 110.513C82.4863 110.775 82.47 111.039 82.4736 111.303V116.184C82.4792 116.731 82.4465 117.277 82.376 117.819C82.3228 118.244 82.2204 118.662 82.0709 119.064C81.9278 119.426 81.7212 119.759 81.4608 120.049C81.171 120.371 80.836 120.65 80.4663 120.876C80.0284 121.142 79.5489 121.334 79.0478 121.443C78.4539 121.573 77.847 121.636 77.2389 121.629C76.5899 121.636 75.9418 121.577 75.3049 121.452C74.8872 121.37 74.4822 121.234 74.0999 121.046V121.046L73.862 120.903C73.4875 120.674 73.151 120.388 72.8645 120.055C72.5882 119.729 72.3676 119.36 72.2116 118.963C72.0778 118.578 71.9947 118.177 71.9646 117.77C71.9062 117.156 71.8797 116.539 71.8852 115.922V111.245C71.8852 110.922 71.8669 110.208 71.626 109.936L71.6107 109.921C71.5156 109.828 71.3995 109.759 71.2721 109.72C70.6031 109.592 69.9153 109.6 69.2496 109.744C69.1021 109.797 68.9729 109.891 68.8774 110.016C68.8137 110.134 68.7734 110.264 68.7585 110.397C68.7225 110.662 68.7062 110.929 68.7097 111.196V121.556H68.0142L67.947 121.48L59.729 112.227V119.067C59.7234 119.357 59.7438 119.647 59.79 119.933C59.809 120.071 59.8591 120.202 59.9364 120.317C60.2018 120.539 60.5433 120.649 60.8882 120.622H61.5715V121.364H50.5469V120.622H51.2425C51.4235 120.639 51.6059 120.616 51.7771 120.555C51.9483 120.493 52.1041 120.396 52.2339 120.269V120.269C52.304 120.15 52.3487 120.018 52.365 119.881C52.4087 119.599 52.4281 119.313 52.423 119.027V111.245C52.423 110.998 52.423 110.745 52.3925 110.501C52.3833 110.368 52.3556 110.238 52.3101 110.113C52.2876 110.06 52.2532 110.014 52.2095 109.976C52.1485 109.922 52.0821 109.874 52.0112 109.833C51.8897 109.771 51.7619 109.723 51.6299 109.689C51.5009 109.659 51.3688 109.644 51.2363 109.644H50.5408V108.905H59.729L59.7961 108.982L67.3979 117.572V111.184C67.403 110.896 67.3806 110.608 67.3308 110.324C67.3113 110.195 67.2633 110.072 67.1905 109.964C67.0839 109.86 66.9543 109.783 66.8122 109.738C66.6205 109.68 66.4208 109.652 66.2205 109.656H65.5524V108.918H76.0644V109.659H75.3415C75.1612 109.639 74.9787 109.662 74.809 109.726C74.6393 109.79 74.4872 109.894 74.3653 110.028V110.028ZM8.01064 114.845L8.31569 114.894L8.73361 114.948L9.08747 114.985H9.39252C9.68204 114.987 9.96912 114.932 10.2375 114.823C10.5085 114.709 10.7535 114.541 10.9574 114.329V114.329C11.1732 114.118 11.3416 113.863 11.4516 113.582C11.5654 113.274 11.6212 112.949 11.6163 112.621C11.6173 112.382 11.5907 112.143 11.537 111.91C11.485 111.683 11.404 111.464 11.296 111.257V111.23C11.1987 111.044 11.0754 110.872 10.93 110.72C10.7881 110.575 10.6245 110.453 10.4449 110.357H10.4175C10.2232 110.26 10.0185 110.184 9.80739 110.132V110.132C9.57407 110.079 9.33573 110.053 9.09662 110.052C8.9208 110.054 8.74537 110.069 8.57193 110.098C8.4011 110.12 8.23027 110.15 8.05944 110.187L8.01064 114.845ZM34.4433 116.266L32.555 112.13L30.618 116.266H34.4433ZM58.2556 120.256C58.3194 120.137 58.3607 120.006 58.3776 119.872C58.4161 119.607 58.4335 119.34 58.4294 119.073V110.769C58.2861 110.617 58.1427 110.464 57.9902 110.33C57.8854 110.23 57.7732 110.138 57.6546 110.055C57.5967 110.016 57.5417 109.982 57.4838 109.949C57.265 109.812 57.0231 109.717 56.77 109.668C56.3953 109.603 56.0135 109.59 55.6352 109.628C55.4948 109.638 55.3578 109.676 55.2325 109.74C55.1072 109.804 54.9961 109.892 54.9061 110.001V110.001C54.8296 110.119 54.7816 110.254 54.7658 110.394C54.7195 110.674 54.6991 110.958 54.7048 111.242V119.015C54.7048 119.259 54.7048 119.512 54.7353 119.759C54.7442 119.892 54.7698 120.023 54.8115 120.15V120.15C54.8339 120.197 54.865 120.239 54.9031 120.275C54.9671 120.33 55.0378 120.377 55.1135 120.415C55.232 120.475 55.3569 120.521 55.4857 120.552C55.6136 120.583 55.7447 120.598 55.8762 120.598H57.2489C57.4343 120.621 57.6225 120.602 57.7992 120.541C57.9758 120.48 58.1361 120.38 58.2678 120.247L58.2556 120.256ZM3.04136 123.371H159.2L159.953 124.463H1.47035L2.21467 123.362L3.04136 123.371ZM160.646 125.339L161.399 126.431H0L0.753475 125.339H160.646ZM148.718 118.057L153.215 109.027L153.273 108.905H157.336V109.659H156.668C156.451 109.654 156.235 109.688 156.03 109.76C155.886 109.814 155.76 109.908 155.667 110.031C155.601 110.148 155.56 110.278 155.545 110.412C155.508 110.677 155.492 110.944 155.497 111.212V119.079C155.489 119.37 155.51 119.661 155.558 119.948C155.575 120.085 155.623 120.217 155.698 120.333V120.333C155.803 120.431 155.929 120.503 156.067 120.543C156.26 120.601 156.461 120.629 156.662 120.625H157.33V121.367H151.333V120.625H152.025C152.207 120.645 152.39 120.622 152.561 120.558C152.732 120.495 152.886 120.393 153.01 120.259V120.259C153.077 120.143 153.119 120.014 153.133 119.881C153.17 119.615 153.186 119.347 153.181 119.079V111.971L148.572 121.251L148.511 121.373H147.901L147.84 121.251L143.212 111.971V119.079C143.206 119.37 143.227 119.661 143.276 119.948C143.291 120.086 143.339 120.218 143.417 120.333C143.521 120.431 143.646 120.504 143.783 120.546C143.972 120.601 144.168 120.628 144.365 120.625H145.061V121.367H140.079V120.625H140.763C140.946 120.643 141.131 120.619 141.304 120.555C141.477 120.491 141.633 120.389 141.76 120.256C141.829 120.139 141.872 120.008 141.885 119.872C141.924 119.607 141.941 119.34 141.934 119.073V111.184C141.937 110.968 141.922 110.751 141.888 110.537C141.869 110.395 141.826 110.257 141.76 110.129V110.129C141.724 110.067 141.677 110.011 141.623 109.964C141.547 109.902 141.464 109.85 141.376 109.808V109.808C141.133 109.708 140.872 109.659 140.609 109.665C140.347 109.672 140.088 109.733 139.851 109.845V109.845C139.703 109.908 139.561 109.985 139.427 110.074C139.289 110.164 139.159 110.266 139.039 110.379V110.379C138.874 110.525 138.718 110.682 138.572 110.849C138.392 111.08 138.225 111.324 138.06 111.565L134.936 116.102V119.061C134.932 119.351 134.953 119.641 135 119.927C135.019 120.065 135.072 120.195 135.153 120.308V120.323C135.257 120.42 135.382 120.491 135.519 120.531C135.717 120.589 135.923 120.616 136.129 120.613H136.773V121.355H130.806V120.613H131.489C131.67 120.63 131.853 120.605 132.023 120.542C132.193 120.478 132.346 120.376 132.471 120.244C132.535 120.127 132.575 119.998 132.59 119.866C132.626 119.6 132.643 119.332 132.639 119.064V116.278L129.116 111.285C128.942 111.047 128.768 110.806 128.585 110.571C128.49 110.442 128.389 110.319 128.28 110.202C128.187 110.121 128.084 110.051 127.975 109.994C127.791 109.892 127.602 109.799 127.408 109.717H127.389C127.336 109.698 127.281 109.683 127.225 109.674C127.132 109.659 127.038 109.652 126.944 109.653H126.721V108.915H132.752V109.659H132.233C131.985 109.657 131.739 109.715 131.517 109.827V109.827C131.437 109.866 131.367 109.925 131.315 109.997C131.273 110.068 131.252 110.15 131.254 110.232C131.273 110.361 131.315 110.485 131.379 110.598C131.505 110.836 131.648 111.065 131.806 111.282L134.341 114.891L136.721 111.456C136.877 111.235 137.013 111.001 137.13 110.757C137.202 110.62 137.245 110.469 137.258 110.315C137.258 110.251 137.249 110.187 137.23 110.126C137.215 110.073 137.19 110.023 137.157 109.979V109.979C137.128 109.935 137.092 109.896 137.05 109.863V109.863C136.995 109.824 136.936 109.791 136.873 109.766V109.766C136.789 109.733 136.701 109.712 136.611 109.702C136.472 109.682 136.331 109.673 136.19 109.674H135.964V108.936H144.201L144.262 109.055L148.718 118.057Z" fill="white"/>
<path fill-rule="evenodd" clip-rule="evenodd" d="M56.4318 97.4576C56.1603 97.3966 56.1268 97.1526 56.0871 96.9238V96.9086C56.0444 96.5582 55.9269 96.2211 55.7424 95.9202C55.5469 95.6236 55.2514 95.4071 54.9096 95.3101C54.5787 95.2052 54.2308 95.1648 53.8847 95.1911C53.499 95.2248 53.1323 95.3736 52.8322 95.6182C52.5507 95.8632 52.34 96.1792 52.2221 96.5334C52.1156 96.8313 52.071 97.1479 52.091 97.4638L56.4318 97.4576ZM65.8701 93.6171C65.8599 93.0513 66.0712 92.504 66.4589 92.0918C66.8286 91.7097 67.3105 91.4554 67.8346 91.3658V90.6428C67.8432 90.1892 67.7058 89.7449 67.4428 89.3753C67.1797 89.0056 66.8048 88.7303 66.3735 88.5898C66.0509 88.4717 65.7103 88.4108 65.3668 88.4098C65.0233 88.4081 64.6824 88.468 64.3601 88.5868C63.9335 88.7306 63.5649 89.0085 63.3092 89.3791C63.0536 89.7496 62.9246 90.193 62.9416 90.6428V95.0172C62.9508 95.0769 62.9458 95.1378 62.9272 95.1952C62.9086 95.2526 62.8769 95.3049 62.8345 95.3479C62.7921 95.3908 62.7403 95.4233 62.6832 95.4427C62.626 95.4621 62.5652 95.4679 62.5054 95.4596C62.3377 95.4484 62.1729 95.4103 62.0173 95.3467C61.9777 95.3467 61.9411 95.3193 61.9106 95.3132C61.6551 95.2371 61.3923 95.188 61.1266 95.1667V95.1667C60.8714 95.1454 60.6147 95.1515 60.3609 95.185C59.831 95.2477 59.3296 95.4593 58.915 95.7951C58.4919 96.1564 58.1711 96.6224 57.9846 97.1465C57.9599 97.2326 57.9085 97.3086 57.8377 97.3634C57.767 97.4183 57.6805 97.4492 57.591 97.4516H63.8629C64.025 97.0621 64.3216 96.7438 64.6987 96.5547C65.0677 96.3898 65.466 96.3005 65.8701 96.2924V93.6171ZM71.7973 97.4576V96.2985C71.7974 96.186 71.782 96.0741 71.7515 95.9659C71.722 95.8672 71.6755 95.7743 71.6142 95.6914C71.4513 95.4736 71.2151 95.3219 70.9492 95.2643C70.7318 95.2109 70.5047 95.2109 70.2872 95.2643C70.0784 95.3126 69.8871 95.4182 69.7351 95.5694C69.5511 95.7655 69.4524 96.0266 69.4606 96.2954V97.4576H71.7973ZM58.5428 94.944C59.1244 94.5521 59.801 94.3245 60.5012 94.2851V90.3683C60.187 90.4256 59.8879 90.5471 59.6227 90.7252C59.3315 90.9091 59.1045 91.1787 58.9729 91.497V91.497C58.832 91.9923 58.7823 92.5091 58.8265 93.0222C58.8265 93.1747 58.8265 93.3273 58.8265 93.4066C58.8271 93.4345 58.8197 93.462 58.8051 93.4859C58.7808 93.5278 58.7414 93.559 58.695 93.5731C58.6486 93.5873 58.5986 93.5834 58.555 93.5622L58.3628 93.4676C57.9005 93.1962 57.3737 93.0539 56.8376 93.0558C56.3489 93.0526 55.8694 93.1892 55.4557 93.4493C55.1214 93.673 54.8512 93.9801 54.6717 94.34C55.2554 94.3976 55.8041 94.6451 56.2336 95.0447C56.642 95.4617 56.9124 95.9942 57.0084 96.57H57.1945C57.4866 95.9156 57.953 95.3542 58.5428 94.9471V94.9471V94.944ZM68.4814 97.4576V96.2985C68.4802 96.1005 68.5068 95.9033 68.5607 95.7128C68.6162 95.5283 68.6995 95.3535 68.8078 95.1942V95.1942C68.9182 95.0339 69.0531 94.8919 69.2074 94.7732C69.3722 94.6524 69.5528 94.5549 69.7443 94.4834L69.8022 94.462V93.6262C69.8045 93.4757 69.785 93.3257 69.7443 93.1808C69.7122 93.0566 69.6607 92.9382 69.5917 92.83L69.5734 92.8026C69.5041 92.701 69.4197 92.6105 69.3233 92.5341C69.2157 92.4511 69.0965 92.3843 68.9694 92.3359C68.7673 92.2609 68.5536 92.2216 68.338 92.2199C68.0381 92.2187 67.7437 92.3 67.4869 92.4548C67.2429 92.5964 67.0481 92.8093 66.9286 93.0649V93.0649C66.8523 93.2378 66.8139 93.425 66.8158 93.614V96.7286C66.8157 96.7865 66.8032 96.8437 66.7792 96.8964V96.8964C66.7555 96.9486 66.7213 96.9954 66.6785 97.0336V97.0336C66.6334 97.0758 66.5806 97.109 66.5229 97.1312C66.4635 97.1542 66.4005 97.1666 66.3368 97.1678C66.1477 97.1678 65.9342 97.1678 65.7267 97.1861C65.5465 97.2015 65.3691 97.2405 65.199 97.3021V97.3021H65.1776C65.1336 97.323 65.0909 97.3464 65.0495 97.3722L64.9702 97.4363H68.4569L68.4814 97.4576ZM109.142 61.7423C109.563 61.3366 109.968 60.9065 110.362 60.4489C110.876 59.8555 111.359 59.2365 111.811 58.5942C112.284 57.9322 112.726 57.2397 113.141 56.5259C113.556 55.8121 113.943 55.0708 114.294 54.3143C115.236 52.3882 115.884 50.3316 116.216 48.2133C116.468 46.2319 116.57 44.2342 116.521 42.2373C115.51 43.0955 114.4 43.8288 113.214 44.4215C111.921 45.0619 110.568 45.5728 109.175 45.9468C109.169 51.2058 109.158 56.471 109.142 61.7423ZM85.5368 12.9342V16.7747C86.6692 16.8593 87.7418 17.3162 88.5873 18.0743C89.3835 18.8221 89.8683 19.8429 89.9447 20.9326H90.4877C90.4877 20.2279 90.4115 19.4927 90.6067 18.7972C90.7096 18.4434 90.8952 18.1191 91.1482 17.8513C91.4012 17.5834 91.7144 17.3796 92.0618 17.2567C93.1569 16.8327 94.5876 17.1042 95.1764 18.117C95.4477 18.6613 95.5927 19.2598 95.6004 19.868C95.6675 20.8289 95.6339 21.9759 95.6004 22.8483C95.5668 23.9282 95.6583 24.822 94.4747 25.4687C94.236 25.605 93.9704 25.6877 93.6964 25.7108C93.4225 25.734 93.1467 25.6972 92.8885 25.6029C92.9041 26.5243 92.734 27.4393 92.3882 28.2935C92.2331 28.6551 92.0409 28.9996 91.8147 29.3215C90.9621 30.4647 89.7775 31.317 88.4225 31.7619C87.8082 31.983 87.178 32.1574 86.5373 32.2835C86.8496 32.3542 87.1557 32.4501 87.4525 32.5703C88.1441 32.842 88.7785 33.2415 89.3224 33.7478L89.4475 33.8667C89.6847 34.0991 89.903 34.3501 90.1003 34.6172C90.3241 34.9288 90.5181 35.2607 90.6799 35.6086C90.8361 35.952 90.9557 36.3109 91.0368 36.6793C91.1184 37.0386 91.1593 37.406 91.1588 37.7745V59.1738C91.1588 60.6624 91.4334 61.5593 93.1051 61.5593C96.241 61.5593 99.2061 60.4916 101.784 58.8962C101.952 58.7925 102.116 58.6857 102.275 58.5911C101.973 58.4473 101.723 58.2127 101.561 57.92C101.455 57.7301 101.396 57.518 101.387 57.3008C101.377 57.0836 101.42 56.8673 101.509 56.6693C101.647 56.395 101.856 56.1633 102.115 55.9988C102.374 55.8343 102.673 55.7432 102.98 55.7354C103.286 55.7276 103.589 55.8032 103.856 55.9543C104.123 56.1054 104.344 56.3261 104.496 56.593C104.526 56.6453 104.55 56.7005 104.569 56.7578C104.947 56.3998 105.306 56.0277 105.646 55.6413C106.71 54.4211 107.845 52.7555 108.205 51.2058L108.22 46.9351C108.22 46.4928 108.22 46.0718 108.22 45.6631C108.205 42.7132 108.196 40.5138 109.535 37.3901V37.3748C109.7 36.9966 109.88 36.6305 110.075 36.2767C110.272 35.9194 110.49 35.5741 110.728 35.2425C110.959 34.9162 111.212 34.6054 111.484 34.3121L111.619 34.1657C111.832 33.94 112.055 33.7295 112.287 33.5281V29.1263C111.51 28.6941 110.658 28.4145 109.776 28.3026C108.851 28.1937 107.915 28.2484 107.009 28.4643C105.42 28.9707 104.483 29.6509 103.876 30.4105C103.342 31.1462 102.948 31.9732 102.711 32.8509V32.8509L102.668 32.9851C102.651 33.0375 102.624 33.0862 102.589 33.1285C102.552 33.1723 102.508 33.2095 102.458 33.2383V33.2383C102.415 33.2611 102.37 33.2785 102.324 33.2902H102.308C102.261 33.2963 102.213 33.2963 102.165 33.2902H102.119C101.973 33.2658 101.714 33.2292 101.409 33.1895C100.448 33.0553 99.0597 32.8662 98.7394 32.6343C98.711 32.6157 98.6887 32.5892 98.6753 32.5581C98.2208 31.4935 97.7327 25.7951 98.5319 24.8769C99.9077 23.3059 100.936 21.5915 101.247 19.569C99.1424 17.5818 96.7165 15.9656 94.0721 14.7889C91.3787 13.6081 88.4772 12.9755 85.5368 12.9281V12.9342ZM55.294 45.5563V60.0005C55.4706 59.8541 55.6667 59.733 55.8766 59.6405C56.2473 59.4829 56.6489 59.412 57.0511 59.4331H57.0785C57.78 59.4731 58.4422 59.7694 58.9394 60.2658C59.4254 60.7512 59.6996 61.4092 59.702 62.0962C59.702 63.716 59.3756 65.3633 58.5001 66.6567C57.7303 67.7986 56.5506 68.6003 55.2055 68.8957V73.4135C55.9869 73.3623 56.7561 73.1936 57.4873 72.9133C58.2555 72.6101 58.9486 72.1439 59.519 71.5466V71.5466C59.7066 71.349 59.8809 71.1391 60.0406 70.9182C60.2027 70.6933 60.3515 70.4591 60.486 70.2166L60.428 50.0833C59.8028 50.538 59.2566 51.0924 58.8112 51.7244C58.3052 52.4444 57.87 53.2116 57.5117 54.0154C57.4875 54.0754 57.4508 54.1296 57.404 54.1743C57.3572 54.2191 57.3013 54.2533 57.2402 54.2747V54.2747C57.2198 54.2835 57.1982 54.2897 57.1762 54.293H57.1396C57.0888 54.2976 57.0378 54.2976 56.987 54.293H56.9718C56.8953 54.2801 56.8225 54.2509 56.7582 54.2075C56.7069 54.1733 56.6636 54.1283 56.6315 54.0756C56.5994 54.0229 56.5791 53.9638 56.5722 53.9025C56.4288 52.3528 56.1512 50.8215 55.8766 49.2932C55.6601 48.0394 55.4374 46.8192 55.294 45.5563ZM79.088 0.55519L81.9982 1.95232H84.5301L81.748 0.55519H79.088ZM54.4429 62.4043C54.4018 62.3647 54.369 62.3174 54.3465 62.265C54.3239 62.2126 54.3121 62.1562 54.3117 62.0992V41.4046C52.2621 40.7862 50.2922 39.9292 48.4426 38.8513C46.8784 37.9315 45.4425 36.8094 44.1718 35.514C44.6477 36.6 45.4775 38.4181 45.7581 39.0374L45.8283 39.196C46.3133 39.437 46.7038 39.6383 47.1003 39.8396C48.0338 40.3155 48.9672 40.7914 49.919 41.2459C49.9499 41.2598 49.976 41.2826 49.994 41.3114C50.0119 41.3402 50.0208 41.3737 50.0197 41.4076C49.9373 43.0213 49.8977 44.6015 49.861 46.1725C49.7634 50.1382 49.6689 54.0306 48.8757 58.0329L48.8086 58.3715C48.6348 59.17 48.5055 59.9776 48.4212 60.7905C48.2299 63.1572 48.3324 65.5384 48.7263 67.8799C49.0832 70.2624 49.6201 72.6448 50.1295 74.8351H57.6856C58.2062 74.646 58.7036 74.3984 59.1681 74.0969C59.6296 73.7973 60.0755 73.4746 60.5043 73.1298V71.8517C59.9091 72.5517 59.1746 73.12 58.3476 73.5203C57.3395 73.9905 56.2495 74.2599 55.1384 74.3134H55.05C54.9767 74.3134 54.8944 74.3287 54.8212 74.3287C54.5161 74.3287 54.2355 74.2555 54.2355 73.8803V68.5419C54.2359 68.4423 54.2715 68.3461 54.3361 68.2704V68.2551C54.4104 68.1748 54.509 68.1212 54.6168 68.1026C55.2238 68.0086 55.8054 67.7925 56.3266 67.4675C56.8477 67.1424 57.2976 66.7151 57.649 66.2113C58.433 65.0674 58.7197 63.5665 58.7197 62.0931C58.7185 61.6361 58.5377 61.1979 58.2164 60.8729C57.8926 60.5433 57.4575 60.3464 56.9962 60.3208C55.776 60.2537 55.538 61.1963 55.3855 61.8094C55.3592 62.0302 55.2762 62.2404 55.1445 62.4195C55.0523 62.4998 54.9343 62.5441 54.812 62.5446V62.5446C54.7462 62.5451 54.6809 62.5327 54.6198 62.508V62.508C54.5604 62.4829 54.5057 62.4478 54.4582 62.4043H54.4429ZM103.022 56.6083C103.2 56.608 103.372 56.6732 103.504 56.7913C103.566 56.8479 103.616 56.9167 103.65 56.9933C103.684 57.07 103.702 57.1528 103.703 57.2367C103.691 57.4069 103.613 57.5658 103.486 57.6797C103.359 57.7936 103.193 57.8535 103.022 57.8468C102.845 57.8481 102.674 57.7827 102.543 57.6638C102.481 57.6091 102.432 57.542 102.398 57.4669C102.363 57.3917 102.345 57.3101 102.345 57.2275C102.346 57.1437 102.364 57.0608 102.398 56.9842C102.432 56.9076 102.481 56.8388 102.543 56.7822C102.677 56.6698 102.847 56.6092 103.022 56.6113V56.6083ZM72.9564 56.5259C73.1334 56.5249 73.3042 56.5902 73.4354 56.709C73.4969 56.7652 73.5462 56.8335 73.5803 56.9096C73.6144 56.9857 73.6326 57.0679 73.6337 57.1513C73.6257 57.3236 73.5502 57.4859 73.4234 57.603C73.2967 57.72 73.1289 57.7824 72.9564 57.7766C72.7791 57.7768 72.6082 57.7104 72.4775 57.5906C72.4142 57.5359 72.3635 57.4682 72.3287 57.3921C72.2939 57.3161 72.2759 57.2334 72.2759 57.1498C72.2759 57.0661 72.2939 56.9835 72.3287 56.9074C72.3635 56.8313 72.4142 56.7637 72.4775 56.709C72.6091 56.5913 72.7799 56.5271 72.9564 56.529V56.5259ZM104.737 57.8498V61.3C106.073 60.4695 107.242 59.3966 108.184 58.1366L108.199 53.6768C108.074 53.9086 107.924 54.1496 107.778 54.3692C106.928 55.6639 105.905 56.836 104.737 57.8529V57.8498ZM104.737 62.3585V65.2595C105.292 64.9118 105.832 64.5416 106.356 64.1491C106.988 63.6733 107.595 63.1699 108.187 62.6452V59.613C107.739 60.1124 107.254 60.5764 106.735 61.001C106.111 61.5184 105.442 61.9789 104.737 62.3768V62.3585ZM108.172 67.1966V63.8807C107.133 64.7616 106.024 65.5563 104.856 66.2571C103.584 67.0174 102.238 67.646 100.838 68.1331V72.0805C100.837 72.1377 100.825 72.1941 100.802 72.2465C100.779 72.2989 100.745 72.3462 100.704 72.3855V72.3855C100.61 72.4721 100.487 72.5201 100.359 72.5197C99.3053 72.5707 98.3063 73.0046 97.5496 73.7399C96.7474 74.4782 96.2013 75.4391 96.2013 76.342V84.7614C96.2028 84.7715 96.2028 84.7818 96.2013 84.7919V84.8072C95.9996 86.677 95.5322 88.5084 94.8133 90.2462C94.3644 91.3212 93.8084 92.3483 93.1539 93.312C93.285 93.1717 93.4223 93.0283 93.5535 92.8849C94.1676 92.2106 94.7363 91.4963 95.2557 90.7465C95.6328 90.0902 96.0798 89.4766 96.5887 88.9162C97.1167 88.3221 97.7846 87.8692 98.5319 87.5984C99.1239 87.4089 99.7556 87.3804 100.362 87.5161C100.816 87.615 101.254 87.7784 101.662 88.0011C101.625 87.8394 101.592 87.6808 101.558 87.5221C101.494 87.2171 101.433 86.9395 101.378 86.6436C101.376 86.6141 101.376 86.5846 101.378 86.5551C101.38 86.5229 101.386 86.4911 101.396 86.4606V86.4606C101.429 86.3481 101.499 86.2502 101.595 86.183V86.183C101.934 85.8977 102.251 85.5855 102.54 85.2495C102.819 84.9278 103.051 84.5684 103.23 84.1818C103.228 84.1728 103.228 84.1635 103.23 84.1544C103.364 83.8401 103.459 83.5101 103.51 83.1721C103.561 82.8275 103.591 82.4801 103.599 82.1319V82.1319V82.1136C103.599 81.5554 103.577 80.9514 103.562 80.3108C103.44 76.1285 103.288 70.6254 106.829 68.063H106.851C107.052 67.9135 107.275 67.7732 107.507 67.6328C107.738 67.4925 107.952 67.3156 108.172 67.1997V67.1966ZM93.4803 62.4439C91.5848 63.8045 89.9274 65.4691 88.5751 67.3705C87.2497 69.2565 86.2609 71.3579 85.6527 73.5813C85.4398 74.3545 85.2688 75.1386 85.1402 75.9302C85.006 76.7325 84.9144 77.5531 84.8565 78.4042V81.6987C84.9086 81.7006 84.9601 81.7109 85.009 81.7292C85.0597 81.7493 85.1071 81.7771 85.1493 81.8116L85.1768 81.836C85.2177 81.8745 85.25 81.9213 85.2713 81.9733V81.9733C85.2984 82.0261 85.3121 82.0847 85.311 82.1441C85.314 82.1715 85.314 82.1991 85.311 82.2265C85.3051 82.2549 85.2959 82.2825 85.2836 82.3088C85.2722 82.3322 85.2589 82.3547 85.2439 82.3759V82.3759L85.2012 82.4278L85.0609 82.5834C85.0029 82.6505 84.9572 82.7084 84.9144 82.7542L84.7711 82.9372L84.6368 83.1111C84.302 83.5747 84.0139 84.0703 83.7766 84.5906C83.5345 85.1253 83.3445 85.682 83.2092 86.2531C82.63 88.7508 83.0435 91.3757 84.3623 93.5744C84.7088 94.159 85.1114 94.7087 85.5642 95.2155C86.0288 95.739 86.5392 96.2198 87.0895 96.6523C87.1749 96.7194 87.2572 96.7865 87.3457 96.8506L87.608 97.0367C87.6813 97.0916 87.7636 97.1465 87.849 97.2014L87.9711 97.2807C88.4957 96.8964 88.9838 96.4967 89.4445 96.088C90.3971 95.2443 91.2571 94.3014 92.0099 93.2754C92.3693 92.7798 92.7022 92.2656 93.0074 91.7349C93.31 91.2039 93.584 90.6571 93.828 90.0968C94.0707 89.5349 94.2835 88.9606 94.4656 88.3763C94.6486 87.7967 94.8011 87.1988 94.9293 86.5856C95.0574 85.9725 95.1519 85.3654 95.2343 84.734V76.3603C95.2343 75.256 95.8444 74.1335 96.726 73.258C97.5779 72.4016 98.6827 71.8422 99.8772 71.6626V67.825C99.878 67.7261 99.9124 67.6303 99.9748 67.5535C100.041 67.4751 100.131 67.4196 100.231 67.3949C100.863 67.1844 101.476 66.9465 102.08 66.6811C102.684 66.4157 103.221 66.1411 103.776 65.833V58.643L103.519 58.8321C103.33 58.9694 103.138 59.1067 102.94 59.2439C102.742 59.3812 102.479 59.549 102.241 59.6893C102.003 59.8296 101.769 59.973 101.518 60.1103C101.268 60.2475 100.936 60.4153 100.64 60.5709C100.344 60.7265 100.03 60.876 99.7247 61.0041C99.4196 61.1322 99.081 61.2756 98.7485 61.4006C98.416 61.5257 98.0804 61.6416 97.7266 61.7515C97.4002 61.846 97.0585 61.9406 96.7108 62.026C96.363 62.1114 96.0122 62.1785 95.6522 62.2395C95.2923 62.3005 94.9293 62.3463 94.5663 62.3799C94.2032 62.4134 93.8433 62.4378 93.4803 62.447V62.4439ZM84.0237 65.8544V76.8972C84.0694 76.522 84.1213 76.1529 84.1793 75.796C84.3153 74.9737 84.4945 74.1591 84.7162 73.3556C85.3243 71.1418 86.2931 69.0434 87.5836 67.1447C88.8381 65.3214 90.3625 63.6993 92.1045 62.3341C92.0715 62.3268 92.0389 62.3176 92.0069 62.3066C91.859 62.2657 91.715 62.2116 91.5768 62.145C91.4165 62.0698 91.2659 61.9756 91.1283 61.8643C91.0026 61.764 90.8881 61.6505 90.7867 61.5257C90.7867 61.5257 90.7867 61.5105 90.7684 61.5044C90.6613 61.3661 90.5693 61.2168 90.4938 61.059C90.4171 60.8987 90.3568 60.7311 90.3138 60.5587C90.268 60.3846 90.2364 60.2071 90.2193 60.0279C90.1982 59.8508 90.188 59.6725 90.1888 59.4941V56.7151C89.4642 58.1581 88.3956 59.4006 87.0773 60.333C85.5432 61.4189 83.775 62.1285 81.9158 62.4043C82.4804 62.7181 82.9681 63.1537 83.3434 63.6794C83.7949 64.3151 84.0331 65.0777 84.0237 65.8574V65.8544ZM72.5355 59.1646L72.444 59.0761C72.4653 59.4941 72.4867 59.9181 72.505 60.3421C72.5233 60.9217 72.5416 61.5044 72.5507 62.0901C72.5599 62.6758 72.5507 63.3499 72.5507 63.9783C72.5507 64.6067 72.5141 65.2382 72.4745 65.8635C72.4348 66.4889 72.3769 67.1814 72.3006 67.8433C72.2243 68.5053 72.1359 69.155 72.023 69.817C71.9101 70.479 71.7881 71.0982 71.6417 71.7327C71.5136 72.294 71.3641 72.8614 71.1994 73.4257H72.6667C72.7295 73.4252 72.7918 73.4377 72.8497 73.4624C72.9023 73.4824 72.9516 73.5102 72.9961 73.5447C73.0403 73.5859 73.0756 73.6358 73.0998 73.6911C73.1248 73.7447 73.1383 73.8029 73.1395 73.862V97.4576H81.3972V82.1471C81.3971 82.0886 81.4085 82.0305 81.4308 81.9763V81.9763C81.4542 81.9213 81.4884 81.8715 81.5314 81.8299C81.5741 81.7921 81.6225 81.7612 81.6748 81.7384H81.6931C81.7516 81.7161 81.8136 81.7047 81.8761 81.7048H83.0536V65.8574C83.063 65.4415 82.9814 65.0286 82.8143 64.6476C82.6473 64.2666 82.3989 63.9268 82.0866 63.6519C81.267 62.9935 80.2785 62.5791 79.2344 62.4561C76.721 62.049 74.3852 60.9044 72.5233 59.1677L72.5355 59.1646ZM83.8529 82.5895H82.3703V85.5973C82.5004 85.1418 82.6656 84.6971 82.8645 84.2673C83.1321 83.6747 83.4635 83.1132 83.8529 82.5925V82.5895ZM82.3703 91.4359V97.4576H86.5831L86.4458 97.3509C85.8527 96.8854 85.3015 96.3689 84.7985 95.8073C84.3099 95.256 83.8748 94.6595 83.499 94.0258C83.1289 93.4033 82.8223 92.7451 82.5839 92.0613C82.4954 91.8417 82.4435 91.6342 82.3703 91.4238V91.4359ZM81.928 31.7649C82.3917 31.7649 82.8614 31.7649 83.3282 31.7466C83.7369 31.7314 84.1488 31.707 84.5484 31.6673V25.4656C84.5484 25.0264 84.9083 25.0203 85.2042 25.0172H85.2683C85.5536 25.0067 85.8374 24.971 86.1163 24.9105C86.3758 24.8535 86.6291 24.7718 86.8729 24.6664V24.6664C87.2977 24.482 87.6807 24.2132 87.9985 23.8763C88.321 23.5332 88.571 23.1286 88.7337 22.6866C88.9208 22.185 89.0039 21.6504 88.9777 21.1156C88.9701 20.9363 88.9487 20.7578 88.9137 20.5818C88.8798 20.407 88.834 20.2347 88.7764 20.0662C88.5396 19.372 88.0848 18.7728 87.4799 18.358C86.8138 17.9198 86.0406 17.672 85.2439 17.6411H85.189C85.042 17.652 84.8952 17.618 84.768 17.5435V17.5435C84.709 17.5032 84.66 17.45 84.6246 17.3879C84.5908 17.3273 84.573 17.259 84.5728 17.1896V12.9189C84.286 12.9189 83.9901 12.9342 83.6912 12.9494C83.3282 12.9708 82.9621 12.9952 82.593 13.0287C82.2239 13.0623 81.8334 13.105 81.443 13.1538C81.0525 13.2026 80.7444 13.2514 80.3936 13.3063L79.1307 19.0352C79.5848 18.9771 80.0431 18.9587 80.5004 18.9803H80.6132H82.1964C82.4496 18.9803 82.6479 18.9803 82.8431 19.0016C83.0384 19.023 83.2367 19.0474 83.4716 19.087C83.5417 19.087 83.6027 19.1084 83.6729 19.1145C84.1549 19.1724 84.8077 19.2518 84.8168 19.8344C84.8226 19.9668 84.7804 20.0968 84.6979 20.2005C84.6069 20.3064 84.4872 20.3838 84.3532 20.4232H84.3379C84.1374 20.4834 83.9337 20.5323 83.7278 20.5696C83.4143 20.623 83.1075 20.7099 82.8126 20.8289C82.6163 20.9116 82.4257 21.0074 82.2422 21.1156C82.0533 21.2249 81.871 21.3451 81.6962 21.4756C81.626 21.5305 81.5223 21.6159 81.4155 21.7105C81.2578 21.8585 81.0874 21.9922 80.9061 22.1101C80.817 22.1648 80.7189 22.2031 80.6163 22.223C80.5014 22.2423 80.3833 22.2263 80.2777 22.1772C80.2065 22.1446 80.1407 22.1014 80.0824 22.0491C80.0298 22.0031 79.987 21.947 79.9566 21.8841C79.9262 21.8212 79.9088 21.7528 79.9055 21.683C79.902 21.5545 79.9347 21.4276 80.0001 21.317C80.062 21.2036 80.1412 21.1007 80.235 21.0119L80.54 20.7252L80.4759 20.6519C80.4393 20.6031 80.4027 20.5482 80.3661 20.4933C80.3295 20.4384 80.3326 20.4354 80.3173 20.4079H80.2868C79.9583 20.3597 79.6325 20.2946 79.3107 20.2127V20.231C79.3676 20.3257 79.3925 20.4362 79.3815 20.5462C79.3705 20.6561 79.3242 20.7595 79.2496 20.8411C79.2165 20.8882 79.186 20.9371 79.1581 20.9875C78.8319 21.6591 78.5851 22.3665 78.423 23.0954C78.3375 23.4279 78.2491 23.7604 78.1515 24.0716C78.0996 24.2271 78.0477 24.3766 77.9898 24.5383C77.944 24.6542 77.8952 24.7701 77.8464 24.8861L77.9349 24.9776L78.0294 25.0813H79.4662C79.6491 25.0552 79.8354 25.0894 79.997 25.1789C80.049 25.2188 80.0923 25.2688 80.1243 25.326C80.1563 25.3832 80.1763 25.4462 80.1831 25.5114V25.5114C80.1973 25.6126 80.1973 25.7153 80.1831 25.8165C80.1434 26.0422 80.0616 26.2585 79.9421 26.454C79.8635 26.5884 79.7737 26.716 79.6737 26.8353C79.8068 26.9094 79.9481 26.9677 80.0946 27.0092C80.2774 27.0653 80.4678 27.0931 80.659 27.0916C80.7665 27.0847 80.8735 27.1125 80.964 27.1709V27.1709C81.0248 27.2104 81.0742 27.2651 81.1074 27.3295C81.1411 27.388 81.159 27.4542 81.1593 27.5217C81.1634 27.6227 81.1321 27.722 81.0708 27.8023V27.8023C80.941 27.9255 80.7707 27.9971 80.5919 28.0037C80.5431 28.0037 80.4943 28.0189 80.4668 28.0281C80.36 28.0587 80.2575 28.1028 80.1617 28.1592C80.0721 28.2155 79.9909 28.2844 79.9208 28.3636V28.3636H79.9574C80.3017 28.3971 80.6244 28.5466 80.8725 28.7877C81.044 29.0012 81.1752 29.2441 81.2599 29.5045C81.3065 29.5995 81.3307 29.7038 81.3307 29.8096C81.3307 29.9153 81.3065 30.0197 81.2599 30.1146C81.2036 30.1877 81.1343 30.2497 81.0556 30.2977V30.2977C80.9659 30.3452 80.8973 30.4247 80.8634 30.5203C80.8091 30.6791 80.7924 30.8482 80.8146 31.0145C80.8329 31.1727 80.8905 31.3237 80.9823 31.4538C81.1959 31.7588 81.4918 31.7588 81.8487 31.7588L81.928 31.7649ZM96.0854 91.2133C95.8353 91.5793 95.576 91.9332 95.3045 92.2809C95.033 92.6287 94.7371 92.9795 94.4412 93.3151C94.1453 93.6506 93.8463 93.9587 93.526 94.2699C93.2057 94.581 92.8824 94.88 92.5529 95.185C92.2235 95.4901 91.9611 95.6945 91.6561 95.9416C91.351 96.1886 91.0277 96.4266 90.7135 96.6584C90.3993 96.8903 90.1674 97.0458 89.8868 97.2319L89.5268 97.4668H104.621V97.421V97.2777L104.599 97.1099L104.575 96.9421L104.554 96.7896L104.526 96.6279L104.499 96.4723L104.465 96.2893L104.432 96.1093L104.398 95.9446L104.358 95.7738L104.322 95.609L104.279 95.4199L104.239 95.2521L104.197 95.0661L104.136 94.8342L104.075 94.6115L104.011 94.3888L103.95 94.1845C103.948 94.1754 103.948 94.1661 103.95 94.157L103.889 93.9526L103.825 93.7482L103.751 93.5286L103.684 93.3212C103.683 93.3131 103.683 93.3048 103.684 93.2968L103.629 93.132L103.568 92.9612L103.507 92.7965L103.446 92.644L103.379 92.4762C103.358 92.4213 103.336 92.3694 103.315 92.3237C103.294 92.2779 103.272 92.223 103.242 92.1589L103.172 92.0094L103.092 91.8539L103.016 91.6983L102.943 91.5397L102.867 91.378L102.72 91.0516L102.653 90.8991L102.595 90.7557L102.473 90.4506L102.406 90.2951V90.2798L102.348 90.1395C102.349 90.1293 102.349 90.1191 102.348 90.109L102.29 89.9625L102.229 89.807L102.174 89.6575L102.113 89.4989V89.4775L102.095 89.4104C101.826 89.214 101.543 89.0386 101.247 88.8857C100.985 88.751 100.71 88.6436 100.426 88.5654C100.181 88.5023 99.929 88.4705 99.6759 88.4709C99.4383 88.4749 99.2028 88.515 98.9773 88.5898C98.7307 88.6719 98.4959 88.7858 98.2787 88.9284C98.0311 89.0948 97.8012 89.2859 97.5924 89.4989V89.4989C97.3072 89.6921 97.0361 89.9051 96.7809 90.1364V90.1364C96.5415 90.4616 96.3185 90.7986 96.1129 91.1461C96.1078 91.1662 96.0984 91.1849 96.0854 91.2011V91.2133ZM71.7393 1.06158L74.9972 0.939557C74.9972 0.665011 74.9972 0.0549092 74.9972 0H71.5959C71.2665 0.131172 66.6358 2.37025 66.6571 2.44041C66.7487 2.65394 67.0903 2.70275 67.4533 2.68445C67.8179 2.65971 68.1778 2.58793 68.5241 2.47091L70.9401 1.42459L71.7393 1.06158ZM85.5368 25.908V31.5545C86.389 31.4359 87.227 31.2315 88.0382 30.9444C88.8943 30.6537 89.6829 30.193 90.3566 29.5899C90.6055 29.3642 90.8285 29.1115 91.0216 28.8365C91.2122 28.5643 91.3738 28.2729 91.5035 27.9671C91.7369 27.3986 91.876 26.7958 91.9154 26.1825C91.9575 25.5716 91.933 24.9578 91.8421 24.3522C91.827 24.2458 91.8508 24.1374 91.9093 24.0472C91.9401 24.0031 91.9795 23.9658 92.0252 23.9373V23.9373C92.0709 23.9075 92.1215 23.8858 92.1747 23.8733V23.8733C92.2352 23.8626 92.2971 23.8626 92.3577 23.8733V23.8733C92.4125 23.8791 92.466 23.8936 92.5163 23.916C92.5306 23.9223 92.5439 23.9305 92.556 23.9404C92.6025 23.9661 92.6439 24.0002 92.678 24.0411V24.0411C92.7157 24.0861 92.7447 24.1378 92.7634 24.1936V24.1936C92.7868 24.2755 92.8174 24.3551 92.8549 24.4315C92.8869 24.4981 92.9269 24.5606 92.9739 24.6176C93.0316 24.6892 93.1033 24.7483 93.1846 24.7913C93.2658 24.8343 93.3551 24.8603 93.4467 24.8677C93.6638 24.8725 93.8771 24.8096 94.0568 24.6878L94.0812 24.6725C94.2333 24.5732 94.3598 24.4395 94.4503 24.282C94.5375 24.1341 94.5838 23.9657 94.5846 23.794C94.5846 23.6231 94.5846 23.3272 94.6029 22.9734C94.6395 21.5732 94.7005 19.264 94.3558 18.6752L94.3405 18.6539C94.266 18.539 94.1744 18.4362 94.069 18.3488C93.9572 18.2567 93.8316 18.1825 93.6969 18.1292C93.647 18.1092 93.5961 18.0919 93.5443 18.0773C93.4923 18.0616 93.4393 18.0494 93.3857 18.0407H93.3674C93.0455 17.9844 92.7143 18.0171 92.4095 18.1353C92.1148 18.245 91.8612 18.4432 91.6835 18.7027C91.3602 19.1785 91.3785 20.173 91.4181 20.9326C91.4181 21.1248 91.4181 21.3078 91.4181 21.4329C91.418 21.4908 91.4056 21.548 91.3815 21.6007C91.3606 21.648 91.3317 21.6913 91.2961 21.7288C91.2885 21.7385 91.2792 21.7467 91.2687 21.7532C91.225 21.7928 91.1743 21.8238 91.1192 21.8447C91.0597 21.8669 90.9966 21.8783 90.9331 21.8782H89.8929C89.873 22.0649 89.8425 22.2503 89.8014 22.4334V22.4334C89.7493 22.6654 89.6789 22.8929 89.5909 23.1137C89.3823 23.6458 89.0714 24.1319 88.6757 24.5444V24.5444C88.286 24.9323 87.8278 25.2447 87.3243 25.4656C87.0235 25.5964 86.7109 25.6985 86.3909 25.7707C86.1096 25.8329 85.8241 25.8747 85.5368 25.8958V25.908ZM68.9786 29.5686H66.8188C67.0934 29.837 67.3557 30.1177 67.5998 30.4075C67.8438 30.6973 67.9963 30.9017 68.1793 31.1609C68.3349 30.9139 68.4844 30.6607 68.6095 30.4044C68.7476 30.1254 68.8708 29.8393 68.9786 29.5472V29.5686ZM69.5063 26.936H62.8166C63.2131 27.0977 63.5975 27.2807 63.9727 27.479C64.6154 27.8242 65.2277 28.2232 65.803 28.6717H69.2562C69.4011 28.1037 69.4849 27.5218 69.5063 26.936V26.936ZM56.0841 18.3549C54.4108 18.9826 52.9456 20.0643 51.853 21.4786C50.8455 22.7835 50.2393 24.3531 50.1081 25.9964C52.9024 25.9964 56.3525 25.9964 59.8057 25.9964C62.8166 25.9964 65.8518 25.9964 69.5033 25.9964C69.4267 24.9482 69.1535 23.9237 68.6979 22.9764C68.2063 21.9538 67.524 21.0344 66.6877 20.2676C65.288 19.0032 63.5586 18.1612 61.7001 17.8394C59.8151 17.4872 57.8696 17.6581 56.0749 18.3336L56.0841 18.3549ZM56.1207 35.2029H55.4557C55.1183 35.2574 54.7724 35.2151 54.4582 35.0809V35.0809C52.8377 34.2302 51.4699 32.9676 50.4925 31.4202C49.6071 30.0138 49.1336 28.3874 49.1259 26.7255V26.2283C49.174 24.9954 49.4688 23.7847 49.9928 22.6676C50.5167 21.5506 51.2592 20.5499 52.1764 19.7246C53.2359 18.7586 54.4729 18.0075 55.8187 17.513C57.1904 17.0041 58.6448 16.7548 60.1077 16.7778C62.8003 16.8097 65.3856 17.8378 67.3649 19.6636C68.9129 21.0666 69.9605 22.9368 70.3483 24.9898C70.7176 27.0152 70.3953 29.1059 69.4331 30.9261C69.3263 31.1304 69.2104 31.3287 69.0884 31.5362C68.9847 31.6978 68.8779 31.8626 68.765 32.0181C68.8413 32.1463 68.9084 32.2713 68.9725 32.3903C69.0086 32.4514 69.0412 32.5146 69.0701 32.5794C69.3615 32.2007 69.6245 31.801 69.8571 31.3836C71.1035 29.1942 71.4325 26.6004 70.7723 24.1692C70.085 21.6991 68.5296 19.5599 66.3918 18.1444C65.8953 17.7999 65.3731 17.494 64.8299 17.2293C62.2894 16.0495 59.4069 15.8327 56.7186 16.6192C55.2301 17.0347 53.8323 17.7247 52.5974 18.6539C51.3918 19.5573 50.3856 20.6996 49.6414 22.0094C48.9966 23.142 48.6004 24.399 48.4795 25.6966C48.3585 26.9942 48.5154 28.3028 48.9398 29.535C49.6065 31.558 50.8725 33.3304 52.5699 34.6172C54.3469 35.947 56.4599 36.7541 58.6709 36.9478V36.9478H58.7441C59.1163 36.9874 60.2938 37.1064 60.3517 36.9783C60.3924 36.9025 60.4182 36.8197 60.428 36.7342C60.4616 36.4292 60.248 36.1882 59.8972 35.9838C59.4172 35.7358 58.9033 35.5601 58.372 35.4622C57.6271 35.3092 56.8712 35.2154 56.1115 35.1815L56.1207 35.2029ZM82.8584 19.7948H80.9945C81.0393 19.8456 81.085 19.8944 81.1318 19.9412C81.3235 20.1236 81.5454 20.2712 81.7877 20.3774C82.1385 20.1486 82.4893 19.9564 82.8492 19.7734L82.8584 19.7948ZM66.9317 31.0603C66.6584 30.7284 66.3661 30.4127 66.0562 30.1146C65.0064 29.1058 63.7759 28.3037 62.4291 27.7505C61.1153 27.2029 59.7069 26.9179 58.2835 26.9116H50.0776C50.0851 27.218 50.1116 27.5236 50.1569 27.8267C50.2007 28.1352 50.2629 28.4408 50.343 28.7419H56.5478C59.5373 28.7419 62.4017 29.5777 64.4455 31.1823C65.395 31.9029 66.1619 32.8366 66.6844 33.908C67.2068 34.9794 67.4702 36.1585 67.4533 37.3504V88.1475C68.762 88.9864 68.8017 90.0571 68.8047 91.3627C69.1091 91.4047 69.4035 91.5008 69.6741 91.6464C69.9762 91.8108 70.2346 92.0451 70.4276 92.3297C70.8211 92.9124 70.8089 93.5652 70.7967 94.2028V94.34C71.1267 94.3674 71.4481 94.4597 71.7423 94.6115C71.8983 94.6942 72.0429 94.7968 72.1725 94.9166V74.3256H69.7321C69.6069 74.325 69.4864 74.2783 69.3935 74.1945V74.1945C69.3084 74.1152 69.258 74.0056 69.2531 73.8894V37.4846C69.2541 36.6042 69.1402 35.7275 68.9145 34.8765C68.6878 34.0285 68.3504 33.2142 67.9109 32.4544V32.4544C67.8212 32.413 67.7466 32.3448 67.6974 32.2591V32.2591C67.6553 32.185 67.6362 32.1001 67.6425 32.0151C67.4213 31.6762 67.1809 31.3503 66.9225 31.0389L66.9317 31.0603ZM57.2951 32.433H52.4326C52.753 32.771 53.0987 33.0841 53.4667 33.3695C53.9309 33.7339 54.4271 34.0555 54.9493 34.3304H55.5899C58.0303 34.2877 61.331 34.2328 61.3615 37.4175V37.4419V37.4633L61.395 49.2352V49.2596L61.456 70.2776V70.3081V70.3417C61.4743 76.4915 61.4794 82.6525 61.4713 88.8247V94.3156C61.5658 94.3156 61.6635 94.3431 61.7611 94.3644C61.8587 94.3858 61.9014 94.3919 61.9685 94.4102V90.6581C61.9687 90.372 62.0045 90.0872 62.0753 89.81C62.1434 89.5581 62.2461 89.3169 62.3803 89.0932C62.5112 88.8696 62.6713 88.6645 62.8562 88.4831C63.0225 88.3243 63.2056 88.1842 63.4023 88.0651V37.2467C63.4156 36.5798 63.273 35.919 62.986 35.3168C62.699 34.7147 62.2754 34.1879 61.7489 33.7783C60.6019 32.8784 58.9973 32.4117 57.286 32.4117L57.2951 32.433ZM51.4077 31.1152L51.4809 31.2281V31.2464L51.5724 31.3745L51.6547 31.4965L51.6761 31.527H57.2738C59.2414 31.527 61.0808 32.0853 62.3895 33.1407C63.0106 33.6288 63.5103 34.254 63.8496 34.9674C64.1888 35.6808 64.3583 36.463 64.3449 37.2528V87.6655C64.4303 87.6442 64.5218 87.6259 64.6164 87.6106C64.7353 87.5893 64.8512 87.574 64.9641 87.5618C65.0709 87.5618 65.1807 87.5618 65.2875 87.5618H65.3607C65.4735 87.5618 65.5895 87.5618 65.7115 87.577C65.8335 87.5923 65.9464 87.6045 66.0623 87.6228C66.1752 87.6472 66.2911 87.6686 66.4009 87.6991L66.4741 87.7204V37.3169C66.4905 36.2484 66.2539 35.1911 65.7836 34.2315C65.3134 33.2719 64.6228 32.4372 63.7683 31.7955C61.9014 30.3434 59.2719 29.6021 56.5356 29.6021L51.4077 31.1152ZM112.927 34.1779C111.326 35.5628 110.392 37.3596 109.858 39.2906C109.385 41.1627 109.156 43.0884 109.178 45.0194C112.715 44.0062 115.878 41.981 118.278 39.1929C120.661 36.4525 122.097 33.0162 122.372 29.3947C122.512 27.3905 122.198 25.2857 121.877 23.1534C121.585 21.4454 121.403 19.7203 121.334 17.9889C121.316 16.909 121.35 15.8535 121.435 14.795C121.521 13.7781 121.652 12.7735 121.829 11.7811C119.291 11.171 117.625 10.1765 115.889 9.13017C114.658 8.35478 113.369 7.67555 112.033 7.09853C107.674 5.28348 103.983 4.93267 99.9168 4.54526C97.9157 4.35612 95.817 4.15784 93.5108 3.77043C92.8763 3.66366 92.1899 3.53859 91.5127 3.38912C90.8562 3.24934 90.2092 3.06798 89.5756 2.84613H81.8792C81.8397 2.85064 81.7997 2.85064 81.7602 2.84613C81.7215 2.83612 81.6838 2.82285 81.6474 2.80647V2.80647L76.9862 0.567395H75.8971C75.8971 0.924304 75.9276 1.53441 75.7751 1.70218C75.7291 1.74698 75.6753 1.78314 75.6165 1.80895C75.5525 1.8347 75.4842 1.84816 75.4152 1.84861H72.3646C71.9162 2.50447 70.3483 3.9443 69.8602 3.73382C69.4915 3.6119 69.1299 3.46932 68.7773 3.30675C67.8133 3.6301 65.8335 3.66976 65.684 2.3916C64.9157 2.21504 64.1374 2.08465 63.3534 2.00113C62.459 1.90242 61.5598 1.85252 60.6598 1.85166C55.0145 1.80815 49.5591 3.88902 45.3768 7.68118C41.4386 11.3143 39.0195 16.3141 39.0195 21.805C39.019 23.9343 39.3853 26.0477 40.1025 28.0525C40.8163 30.0298 41.8465 31.8781 43.153 33.5251C43.3317 33.5048 43.5112 33.5552 43.6533 33.6654C44.2686 34.143 44.8301 34.6862 45.328 35.2852C46.597 36.6854 48.2595 37.7714 49.9709 38.6743C51.8369 39.6532 53.8135 40.4049 55.8583 40.9134C56.5691 41.1056 57.6581 41.3588 58.6557 41.5418C59.2361 41.6595 59.8227 41.744 60.4128 41.795V37.8965C59.5277 37.9214 58.6421 37.8734 57.7649 37.7531C56.8239 37.616 55.9024 37.3682 55.0195 37.0149C53.5666 36.4487 52.2336 35.6135 51.0904 34.5531C49.9799 33.522 49.0896 32.2768 48.4731 30.8925C47.8592 29.572 47.5178 28.1413 47.4694 26.6858C47.4391 24.3533 48.2173 22.0822 49.6719 20.2584C51.1371 18.4055 53.0813 16.9887 55.294 16.1616C56.7295 15.615 58.2486 15.3209 59.7843 15.2922C62.4301 15.2266 65.0262 16.0184 67.1849 17.5496C68.6386 18.5879 69.8363 19.9442 70.6869 21.5152C71.5251 23.047 71.9843 24.7572 72.026 26.5028C72.0658 29.0824 71.1548 31.5864 69.4667 33.5373C69.4758 33.5551 69.484 33.5735 69.4911 33.5922L112.927 34.1779ZM69.4911 33.5922C69.7274 34.212 69.9061 34.8523 70.0249 35.5049C70.1443 36.1591 70.2046 36.8227 70.2049 37.4877V52.9751C70.3937 54.2115 70.8338 55.3961 71.4983 56.4558C71.6083 56.2672 71.7557 56.1032 71.9315 55.9738C72.2107 55.7748 72.5419 55.6619 72.8845 55.6489C73.2271 55.6359 73.5659 55.7234 73.8594 55.9006C74.1257 56.0619 74.338 56.2986 74.4695 56.5808C74.576 56.8107 74.6173 57.0655 74.5888 57.3173C74.5603 57.5691 74.4631 57.8082 74.3078 58.0085C74.1186 58.2529 73.8651 58.4399 73.5757 58.5484C73.4909 58.5831 73.4031 58.6096 73.3134 58.6277L73.4354 58.7345C74.4702 59.6499 75.6521 60.3842 76.9313 60.9065C78.0974 61.3951 79.3488 61.6481 80.6132 61.6508C82.7414 61.6029 84.8004 60.8856 86.4977 59.6008C88.1653 58.38 89.3705 56.6307 89.9173 54.6377C90.1165 53.7976 90.2057 52.9352 90.1827 52.0722V37.7653C90.1811 37.1334 90.0438 36.5092 89.78 35.935C89.2462 34.7798 88.2947 33.8697 87.1169 33.3878C86.5823 33.1726 86.0171 33.0429 85.4422 33.0035C85.3484 33.1745 85.2325 33.3324 85.0975 33.4732C84.9566 33.6475 84.7679 33.7769 84.5545 33.8454V33.8454C81.0159 34.6355 77.8434 36.1729 74.6342 37.7165L74.2987 37.8782C74.231 37.9104 74.157 37.9271 74.0821 37.9271C74.0071 37.9271 73.9331 37.9104 73.8655 37.8782H73.8502C73.7877 37.8477 73.7325 37.804 73.6886 37.75V37.7348C73.6474 37.6801 73.6202 37.6163 73.6093 37.5487C73.5981 37.4758 73.6059 37.4012 73.6321 37.3323C73.6583 37.2633 73.7019 37.2023 73.7587 37.1552V37.1552C75.0198 36.1613 76.201 35.0699 77.2912 33.8911C78.3677 32.7324 79.2886 31.4382 80.0306 30.0414V30.0414C80.0738 29.9699 80.1206 29.9007 80.1709 29.834C80.2064 29.7914 80.2451 29.7516 80.2868 29.715C80.1801 29.3825 80.0946 29.3581 79.7713 29.2605L79.6401 29.2239C79.5777 29.2124 79.5144 29.2062 79.451 29.2056C79.0941 29.1781 78.667 29.1507 78.6914 28.69V28.6748C78.7356 28.4527 78.8306 28.2439 78.969 28.0647C79.0624 27.9297 79.1698 27.805 79.2893 27.6925C79.1252 27.6204 78.968 27.5336 78.8195 27.4332C78.7367 27.3888 78.6637 27.3281 78.605 27.2547C78.5462 27.1813 78.503 27.0967 78.4779 27.0062C78.4596 26.814 78.6273 26.6096 78.8165 26.3747C78.9152 26.2583 79.0069 26.136 79.091 26.0086H78.911C78.5168 26.0311 78.1217 26.0311 77.7274 26.0086C77.7052 26.0062 77.6835 26 77.6634 25.9903C77.4047 25.8381 77.1745 25.642 76.9831 25.4107C76.9007 25.3352 76.8432 25.2364 76.8181 25.1275C76.7931 25.0186 76.8017 24.9046 76.8428 24.8006V24.8006C76.9099 24.6695 76.9709 24.5291 77.0289 24.3827C77.0868 24.2363 77.1417 24.0777 77.1936 23.9129C77.2973 23.5835 77.3858 23.2449 77.4804 22.9002C77.6592 22.0674 77.9528 21.2636 78.3528 20.5116L78.2979 20.3743C78.1775 20.1252 78.0893 19.8618 78.0355 19.5904C78.0172 19.023 78.6945 16.2348 79.149 14.374C79.3046 13.7273 79.4357 13.1904 79.4998 12.9006V12.8823C79.6493 12.4095 81.4948 12.2722 82.2452 12.2203L82.4801 12.202C85.9183 11.8305 89.3961 12.1923 92.6841 13.2636C95.8847 14.3873 98.8275 16.1413 101.338 18.422C101.339 17.3839 101.128 16.3565 100.72 15.4022C100.311 14.4478 99.7134 13.5864 98.962 12.8701C97.6648 11.6187 96.121 10.6514 94.429 10.0301C92.6302 9.34368 90.7332 8.94926 88.8099 8.86173C85.4788 8.7031 82.2056 9.47183 80.0245 11.3174C79.5639 11.7078 79.3656 11.7323 79.1581 11.5218C79.0907 11.4465 79.0323 11.3636 78.9843 11.2747L78.9568 11.235C78.5329 10.5338 78.0534 9.86766 77.5231 9.24304C76.9821 8.61756 76.4046 8.02472 75.7934 7.46764C75.1881 6.93573 74.5481 6.44453 73.8777 5.9973C73.1992 5.54428 72.4977 5.12682 71.7759 4.74659C71.4098 4.57576 71.3549 4.38968 71.5044 4.11819C71.5898 3.96566 72.5599 2.79732 72.7978 2.7058C73.3103 2.50447 75.2626 2.62039 75.7416 3.01085C77.6939 4.62762 79.03 4.97843 80.5431 5.375C81.5248 5.60773 82.485 5.92305 83.4136 6.3176V6.3176L83.4807 6.34506C83.7148 6.42761 83.9341 6.54707 84.1305 6.69891V6.69891C84.2208 6.91042 84.2705 7.13707 84.2769 7.36698C85.4971 7.39138 86.6197 7.42799 87.6172 7.4768C88.6666 7.52865 89.6 7.59577 90.4359 7.67813C92.8183 7.91607 94.4656 8.28823 95.9542 8.9929C97.4429 9.69757 98.7546 10.7286 100.475 12.2905C101.748 13.4391 103.099 14.4991 104.517 15.463C105.708 16.2906 106.973 17.0054 108.297 17.5984C108.863 17.8476 109.449 18.0516 110.048 18.2085C110.532 18.3349 111.03 18.4025 111.53 18.4098H111.561C111.597 18.4134 111.633 18.4206 111.667 18.4312C111.701 18.442 111.731 18.4611 111.755 18.4867C111.779 18.5123 111.796 18.5436 111.805 18.5776V18.5776C111.811 18.6056 111.81 18.6345 111.804 18.6624C111.798 18.6904 111.785 18.7166 111.768 18.7393V18.7393C111.746 18.7653 111.723 18.7897 111.698 18.8125V18.8125C111.609 18.8857 111.466 18.9742 111.277 19.0962C109.959 19.9259 106.241 22.2687 107.18 27.4942C108.154 27.3029 109.154 27.2812 110.136 27.4302C111.154 27.5888 112.132 27.9419 113.016 28.4704V28.4704C113.038 28.4821 113.057 28.499 113.072 28.5197C113.086 28.5404 113.095 28.5643 113.098 28.5894C113.348 29.1995 113.29 31.7131 113.263 32.9424C113.263 33.2017 113.263 33.4 113.263 33.5342C113.263 33.8881 113.263 33.9003 113.025 34.0864L112.952 34.1474L69.4911 33.5922ZM56.56 29.5716H50.6328C50.7182 29.7882 50.8159 30.0048 50.9196 30.2183C51.0621 30.5068 51.221 30.7869 51.3955 31.0572V31.0572" fill="white"/>
</svg>
