<svg width="342" height="162" viewBox="0 0 342 162" fill="none" xmlns="http://www.w3.org/2000/svg">
<path fill-rule="evenodd" clip-rule="evenodd" d="M19.88 114.704C26.71 114.704 31.97 109.464 31.97 102.254C32.02 94.4837 27.32 89.9537 20.02 89.9537C15.02 89.9537 9.09999 93.9537 7.19999 98.8537C7.19999 107.304 11.81 114.714 19.87 114.714L19.88 114.704ZM35.02 70.2937C33.18 70.8437 30.02 71.6037 27.02 72.2937C23.5028 72.8804 20.031 73.7124 16.63 74.7837C10.63 76.9237 7.53 83.1037 6.96 90.8637C6.8784 91.3871 6.75124 91.9024 6.57999 92.4037H6.91C9.24 87.3537 15.61 83.9637 21.71 83.9637C32.33 83.9637 39.32 91.0537 39.32 101.964C39.3196 104.483 38.8144 106.977 37.8343 109.298C36.8541 111.619 35.4189 113.72 33.6134 115.477C31.8078 117.234 29.6685 118.611 27.3218 119.528C24.9751 120.445 22.4685 120.882 19.95 120.814C6.83999 120.814 0 110.004 0 96.3037C0 81.0537 4.22 72.9737 13.84 68.9237C16.2495 67.9864 18.7545 67.3157 21.31 66.9237C26.55 65.8537 29.67 65.1837 33.02 64.2637L35.02 70.2937Z" fill="#562212"/>
<path fill-rule="evenodd" clip-rule="evenodd" d="M50.6902 119.563H44.2402V83.5632H51.4302V107.123C51.4133 107.884 51.3025 108.64 51.1002 109.373H51.4302L72.0202 83.5332H78.4602V119.533H71.2702V96.0132C71.2801 95.2184 71.3944 94.4283 71.6102 93.6632H71.2702L50.6902 119.563Z" fill="#562212"/>
<path fill-rule="evenodd" clip-rule="evenodd" d="M83.2002 115.873L86.0402 110.683C89.2298 113.16 93.1235 114.561 97.1602 114.683C102.54 114.683 106.09 112.273 106.09 108.753C106.09 105.753 103.89 104.273 99.4802 104.273H93.3802V98.6733H99.0802C102.69 98.6733 104.91 96.6732 104.91 93.7532C104.91 90.5532 102.36 88.5933 97.6302 88.5933C93.7348 88.6723 89.9685 90.0049 86.8902 92.3933L84.0202 87.2333C88.2231 84.1221 93.3316 82.4778 98.5602 82.5533C107.21 82.5533 112.11 86.4233 112.11 92.4333C112.11 96.6033 110.02 99.4333 105.77 100.933V101.093C107.883 101.25 109.85 102.227 111.252 103.815C112.653 105.404 113.378 107.478 113.27 109.593C113.27 116.243 106.65 120.783 97.9902 120.783C91.7402 120.783 86.3302 118.713 83.2002 115.873Z" fill="#562212"/>
<path fill-rule="evenodd" clip-rule="evenodd" d="M144.84 119.563V103.913H125.5V119.563H118.32V83.5332H125.5V98.3132H144.84V83.5332H152.03V119.563H144.84Z" fill="#562212"/>
<path fill-rule="evenodd" clip-rule="evenodd" d="M174.91 88.5927C181.41 88.5927 184.56 92.9627 185.13 98.5027H164.55C165.46 92.9227 169.55 88.5927 174.91 88.5927ZM192.02 104.113C192.1 103.362 192.14 102.608 192.14 101.853C192.14 90.8527 186.84 82.5527 174.57 82.5527C163.98 82.5527 157.06 90.8827 157.06 101.853C157.06 112.823 164.06 120.783 176.64 120.783C182.056 120.925 187.356 119.19 191.64 115.873L188.81 110.683C185.34 113.264 181.134 114.666 176.81 114.683C168.92 114.683 165.11 110.393 164.42 104.103H192.02V104.113Z" fill="#562212"/>
<path fill-rule="evenodd" clip-rule="evenodd" d="M216.45 88.703C220.589 88.7407 224.62 90.0229 228.02 92.3829C228.02 92.3829 229.85 89.083 230.94 87.093C226.66 84.0636 221.534 82.4609 216.29 82.5129C204.69 82.5129 196.9 90.653 196.9 101.643C196.9 112.333 204.66 120.783 216.41 120.783C221.647 120.944 226.777 119.286 230.93 116.093L228.02 110.953C224.771 113.323 220.853 114.601 216.83 114.603C209.49 114.603 204.09 109.083 204.09 101.263C204.13 94.5229 208.44 88.703 216.45 88.703Z" fill="#562212"/>
<path fill-rule="evenodd" clip-rule="evenodd" d="M213.26 24.6445C213.26 27.2245 212.1 28.7145 210.08 28.7145C208.06 28.7145 206.9 27.1345 206.9 24.6445H196.43C196.73 32.3145 201.16 37.4845 210.24 37.4845C218.62 37.4845 223.4 32.1645 223.72 24.6445H213.26Z" fill="#562212"/>
<path fill-rule="evenodd" clip-rule="evenodd" d="M191.13 76.3242V40.3242H203.22C203.22 40.3242 203.22 55.8742 203.22 57.1042C203.202 57.983 203.115 58.8591 202.96 59.7242H203.49L216.65 40.3242H228.21V76.3242H216.12V59.3942C216.129 58.6042 216.216 57.8171 216.38 57.0442H215.86L202.7 76.3242H191.13Z" fill="#562212"/>
<path fill-rule="evenodd" clip-rule="evenodd" d="M166.19 66.043C170.58 66.043 173.49 62.633 173.49 58.363C173.49 54.093 170.58 50.573 166.19 50.573C161.8 50.573 158.89 53.983 158.89 58.363C158.89 62.743 161.89 66.043 166.19 66.043ZM166.19 39.373C177.66 39.373 186.19 47.483 186.19 58.373C186.19 69.263 177.63 77.253 166.19 77.253C154.75 77.253 146.27 69.143 146.27 58.373C146.27 47.603 154.83 39.373 166.19 39.373V39.373Z" fill="#562212"/>
<path fill-rule="evenodd" clip-rule="evenodd" d="M131.789 40.2832C131.789 40.2832 121.689 53.4132 121.279 53.9132C121.029 54.1802 120.844 54.5021 120.739 54.8532H120.219C120.085 54.5074 119.888 54.1889 119.639 53.9132C118.929 53.0232 108.469 40.2832 108.469 40.2832H98.9395V76.2832H110.589V61.1932C110.604 60.3095 110.517 59.427 110.329 58.5632H110.849L120.219 69.3332H120.719L129.409 58.5632H129.929C129.74 59.4267 129.653 60.3094 129.669 61.1932V76.3132H141.329V40.3132L131.789 40.2832Z" fill="#562212"/>
<path fill-rule="evenodd" clip-rule="evenodd" d="M305.15 131.633L293.05 119.553L280.95 131.633L293.05 156.893L305.15 131.633Z" fill="#ED5338"/>
<path fill-rule="evenodd" clip-rule="evenodd" d="M293.02 50.0645C291.357 50.0645 289.73 50.558 288.347 51.4825C286.964 52.4071 285.886 53.7211 285.25 55.2584C284.613 56.7957 284.447 58.4872 284.773 60.1189C285.098 61.7505 285.9 63.249 287.077 64.4248C288.254 65.6005 289.754 66.4007 291.386 66.7241C293.018 67.0475 294.709 66.8795 296.246 66.2414C297.782 65.6034 299.095 64.5239 300.018 63.1395C300.941 61.7552 301.432 60.1282 301.43 58.4645C301.43 57.3605 301.213 56.2674 300.79 55.2476C300.367 54.2278 299.748 53.3014 298.967 52.5212C298.185 51.7411 297.258 51.1226 296.238 50.701C295.218 50.2795 294.124 50.0631 293.02 50.0645V50.0645Z" fill="#C59368"/>
<path fill-rule="evenodd" clip-rule="evenodd" d="M303.83 93.024L293.02 82.224L282.24 93.024C281.69 91.524 274.47 71.974 274.47 59.214C274.47 42.004 291.72 32.364 293.02 31.654C294.32 32.364 311.58 42.004 311.58 59.214C311.58 71.974 304.35 91.524 303.8 93.024H303.83ZM293.02 12.334C290.46 13.644 257.02 31.334 257.02 59.584C257.02 83.754 276.72 120.414 276.72 120.414L293.02 104.054L309.35 120.414C309.35 120.414 329.05 83.754 329.05 59.584C329.08 31.324 295.61 13.644 293.02 12.334Z" fill="#C59368"/>
<path d="M329.076 -0.000184564L316.766 12.3105L329.076 24.6213L341.387 12.3105L329.076 -0.000184564Z" fill="#C59368"/>
<path fill-rule="evenodd" clip-rule="evenodd" d="M12.0396 159.414H10.5296L10.1596 155.554H0.889648V140.354H3.07965V153.574H8.08965V140.354H10.2796V153.574H12.0396V159.414Z" fill="#562212"/>
<path fill-rule="evenodd" clip-rule="evenodd" d="M21.1903 146.374C21.3088 145.222 21.0863 144.06 20.5503 143.034C20.3549 142.703 20.0749 142.431 19.7392 142.244C19.4035 142.058 19.0241 141.965 18.6403 141.974C18.2123 141.958 17.7869 142.047 17.4004 142.231C17.0139 142.416 16.6777 142.691 16.4203 143.034C15.7723 144.027 15.425 145.187 15.4203 146.374H21.1903ZM22.8903 154.524C22.3527 154.986 21.7217 155.327 21.0403 155.524C20.2738 155.766 19.4742 155.888 18.6703 155.884C17.8097 155.908 16.9569 155.715 16.1903 155.324C15.4851 154.944 14.8894 154.39 14.4603 153.714C13.9778 152.944 13.6389 152.094 13.4603 151.204C13.2375 150.125 13.1302 149.025 13.1403 147.924C13.0036 145.851 13.5025 143.785 14.5703 142.004C15.0145 141.36 15.6142 140.84 16.3135 140.49C17.0128 140.14 17.7891 139.973 18.5703 140.004C19.1409 140.002 19.7091 140.076 20.2603 140.224C20.8261 140.371 21.3433 140.664 21.7603 141.074C22.2523 141.58 22.6218 142.192 22.8403 142.864C23.1408 143.834 23.2793 144.848 23.2503 145.864C23.2503 146.204 23.2503 146.574 23.2003 146.974C23.1503 147.374 23.1403 147.774 23.1003 148.204H15.4203C15.4135 148.999 15.4838 149.792 15.6303 150.574C15.7453 151.209 15.9722 151.818 16.3003 152.374C16.5842 152.854 16.9871 153.254 17.4703 153.534C18.0182 153.822 18.6315 153.963 19.2503 153.944C19.8049 153.943 20.3545 153.837 20.8703 153.634C21.3267 153.483 21.746 153.238 22.1003 152.914L22.8903 154.524Z" fill="#562212"/>
<path fill-rule="evenodd" clip-rule="evenodd" d="M33.6998 148.774H28.4498V155.554H26.2598V140.354H28.4498V146.804H33.6998V140.354H35.8898V155.554H33.6998V148.774Z" fill="#562212"/>
<path fill-rule="evenodd" clip-rule="evenodd" d="M47.8495 142.333H44.1095V155.553H41.9195V142.333H38.1895V140.363H47.8495V142.333Z" fill="#562212"/>
<path fill-rule="evenodd" clip-rule="evenodd" d="M52.0904 153.154C52.3899 153.401 52.7277 153.597 53.0904 153.734C53.5434 153.891 54.0214 153.962 54.5004 153.944C55.0364 153.937 55.5597 153.78 56.0106 153.49C56.4614 153.2 56.8218 152.789 57.0504 152.304C57.7561 150.849 58.0796 149.239 57.9904 147.624C57.9975 146.851 57.944 146.079 57.8304 145.314C57.7375 144.698 57.5556 144.098 57.2904 143.534C57.0819 143.082 56.7661 142.687 56.3704 142.384C55.9643 142.099 55.4761 141.955 54.9804 141.974C53.5004 141.974 52.5504 142.874 52.1304 144.674V153.154H52.0904ZM49.9004 140.364H51.4504L51.7804 142.004H51.9104C52.2433 141.368 52.7522 140.841 53.3764 140.487C54.0005 140.132 54.7136 139.965 55.4304 140.004C56.136 139.959 56.8409 140.102 57.4733 140.418C58.1057 140.735 58.6429 141.213 59.0304 141.804C59.8304 142.994 60.2304 144.954 60.2304 147.664C60.2435 148.826 60.1125 149.985 59.8404 151.114C59.6141 152.042 59.232 152.924 58.7104 153.724C58.2642 154.412 57.652 154.976 56.9304 155.364C56.217 155.744 55.4187 155.937 54.6104 155.924C54.1416 155.935 53.6729 155.901 53.2104 155.824C52.8174 155.733 52.4401 155.585 52.0904 155.384V161.644H49.9004V140.364Z" fill="#562212"/>
<path fill-rule="evenodd" clip-rule="evenodd" d="M71.8904 147.954C71.8861 148.767 71.943 149.58 72.0603 150.384C72.148 151.037 72.3299 151.674 72.6004 152.274C72.8267 152.761 73.1703 153.183 73.6004 153.504C74.0155 153.798 74.5118 153.955 75.0204 153.954C75.5088 153.97 75.9915 153.846 76.4114 153.596C76.8314 153.346 77.1711 152.981 77.3904 152.544C78.0149 151.102 78.2857 149.532 78.1804 147.964C78.1831 147.158 78.1263 146.352 78.0104 145.554C77.9241 144.898 77.7421 144.258 77.4704 143.654C77.244 143.168 76.9004 142.745 76.4704 142.424C76.0516 142.113 75.5421 141.948 75.0204 141.954C74.5315 141.942 74.0494 142.071 73.6312 142.324C73.213 142.578 72.8761 142.945 72.6604 143.384C72.0342 144.815 71.7598 146.376 71.8604 147.934L71.8904 147.954ZM69.6104 147.954C69.6104 145.221 70.0804 143.221 71.0204 141.954C71.4782 141.33 72.0823 140.827 72.7798 140.491C73.4772 140.154 74.2466 139.994 75.0204 140.024C75.8218 139.97 76.6236 140.126 77.3463 140.476C78.0689 140.827 78.6874 141.361 79.1404 142.024C80.0204 143.334 80.4604 145.334 80.4604 148.024C80.4604 150.714 79.9803 152.794 79.0303 154.074C78.5722 154.697 77.9674 155.197 77.2697 155.53C76.5719 155.864 75.8028 156.02 75.0303 155.984C74.2288 156.04 73.4266 155.884 72.7038 155.533C71.9809 155.183 71.3626 154.648 70.9104 153.984C70.0204 152.624 69.6104 150.634 69.6104 147.954Z" fill="#562212"/>
<path fill-rule="evenodd" clip-rule="evenodd" d="M86.3403 148.714H85.2203V155.554H83.0303V140.354H85.2203V147.224L86.2503 146.804L89.9603 140.354H92.3003L88.6803 146.464L87.6203 147.474L88.9303 148.684L92.8203 155.554H90.2003L86.3403 148.714Z" fill="#562212"/>
<path fill-rule="evenodd" clip-rule="evenodd" d="M101.48 148.623H100.88H100.28C99.8071 148.622 99.3354 148.663 98.8697 148.743C98.4365 148.808 98.0193 148.954 97.6397 149.173C97.2829 149.362 96.9853 149.646 96.7797 149.993C96.5536 150.392 96.4428 150.845 96.4597 151.303C96.4193 151.981 96.6293 152.65 97.0497 153.183C97.2361 153.4 97.4683 153.572 97.7294 153.688C97.9905 153.804 98.2741 153.86 98.5597 153.853C99.2795 153.909 99.9939 153.692 100.56 153.243C101.003 152.89 101.348 152.429 101.56 151.903V148.683L101.48 148.623ZM94.9497 141.273C95.6112 140.874 96.3343 140.586 97.0897 140.423C97.957 140.211 98.847 140.107 99.7397 140.113C100.446 140.085 101.15 140.215 101.8 140.493C102.283 140.716 102.7 141.061 103.01 141.493C103.314 141.939 103.512 142.449 103.59 142.983C103.68 143.559 103.723 144.141 103.72 144.723C103.72 145.943 103.72 147.123 103.65 148.283C103.58 149.443 103.57 150.533 103.57 151.563C103.57 152.333 103.57 153.043 103.65 153.703C103.697 154.333 103.794 154.958 103.94 155.573H102.23L101.69 153.783H101.57C101.245 154.336 100.792 154.802 100.25 155.143C99.5371 155.564 98.7163 155.766 97.8897 155.723C97.3887 155.737 96.8907 155.643 96.4297 155.446C95.9688 155.249 95.556 154.955 95.2197 154.583C94.5022 153.7 94.145 152.578 94.2197 151.443C94.1972 150.689 94.3477 149.94 94.6597 149.253C94.9432 148.678 95.3703 148.185 95.8997 147.823C96.4752 147.442 97.1212 147.18 97.7997 147.053C98.6058 146.889 99.4272 146.812 100.25 146.823H100.86H101.49C101.55 146.193 101.58 145.633 101.58 145.153C101.655 144.31 101.477 143.464 101.07 142.723C100.836 142.467 100.544 142.269 100.219 142.148C99.894 142.026 99.5446 141.983 99.1997 142.023C98.578 142.033 97.9599 142.121 97.3597 142.283C96.7821 142.422 96.2268 142.641 95.7097 142.933L94.9497 141.273Z" fill="#562212"/>
<path fill-rule="evenodd" clip-rule="evenodd" d="M108.369 148.685V146.865H110.019C110.308 146.861 110.591 146.793 110.849 146.665C111.124 146.536 111.372 146.356 111.579 146.135C111.798 145.912 111.975 145.651 112.099 145.365C112.23 145.072 112.298 144.755 112.299 144.435C112.327 144.119 112.286 143.8 112.179 143.502C112.072 143.203 111.901 142.931 111.679 142.705C111.134 142.296 110.459 142.101 109.779 142.155C109.195 142.148 108.614 142.239 108.059 142.425C107.634 142.561 107.23 142.756 106.859 143.005L106.219 141.275C106.772 140.927 107.371 140.661 107.999 140.485C108.754 140.274 109.536 140.173 110.319 140.185C111.427 140.109 112.524 140.435 113.409 141.105C113.785 141.457 114.076 141.888 114.263 142.367C114.45 142.847 114.527 143.362 114.489 143.875C114.493 144.621 114.293 145.354 113.909 145.995C113.55 146.622 112.995 147.114 112.329 147.395V147.515C112.731 147.585 113.114 147.734 113.458 147.954C113.801 148.174 114.097 148.46 114.329 148.795C114.771 149.551 114.983 150.42 114.939 151.295C114.957 151.889 114.852 152.48 114.632 153.032C114.412 153.584 114.081 154.085 113.659 154.505C113.128 154.972 112.508 155.326 111.836 155.548C111.164 155.77 110.454 155.854 109.749 155.795C109.059 155.81 108.37 155.736 107.699 155.575C107.176 155.429 106.67 155.228 106.189 154.975L106.769 153.095C107.192 153.351 107.655 153.534 108.139 153.635C108.676 153.765 109.227 153.829 109.779 153.825C110.587 153.884 111.385 153.63 112.009 153.115C112.265 152.851 112.462 152.537 112.59 152.192C112.717 151.848 112.771 151.481 112.749 151.115C112.766 150.79 112.712 150.465 112.592 150.163C112.471 149.861 112.286 149.588 112.049 149.365C111.38 148.868 110.55 148.636 109.719 148.715L108.369 148.685Z" fill="#562212"/>
<path fill-rule="evenodd" clip-rule="evenodd" d="M124.64 148.623H124.04H123.44C122.967 148.622 122.495 148.662 122.03 148.743C121.597 148.811 121.181 148.957 120.8 149.173C120.445 149.365 120.148 149.648 119.94 149.993C119.717 150.392 119.61 150.846 119.63 151.303C119.586 151.979 119.793 152.648 120.21 153.183C120.4 153.397 120.635 153.567 120.897 153.683C121.159 153.799 121.443 153.857 121.73 153.853C122.433 153.899 123.128 153.682 123.68 153.243C124.123 152.89 124.468 152.428 124.68 151.903V148.683L124.64 148.623ZM118.11 141.273C118.772 140.875 119.495 140.588 120.25 140.423C121.12 140.212 122.014 140.107 122.91 140.113C123.613 140.086 124.313 140.216 124.96 140.493C125.445 140.716 125.866 141.06 126.18 141.493C126.476 141.942 126.671 142.45 126.75 142.983C126.843 143.558 126.89 144.14 126.89 144.723C126.89 145.943 126.89 147.123 126.81 148.283C126.73 149.443 126.73 150.533 126.73 151.563C126.73 152.333 126.73 153.043 126.81 153.703C126.857 154.333 126.954 154.958 127.1 155.573H125.39L124.86 153.783H124.74C124.412 154.336 123.956 154.803 123.41 155.143C122.701 155.564 121.883 155.766 121.06 155.723C120.558 155.739 120.06 155.645 119.598 155.448C119.137 155.251 118.725 154.956 118.39 154.583C117.672 153.7 117.315 152.578 117.39 151.443C117.367 150.689 117.518 149.94 117.83 149.253C118.11 148.678 118.533 148.186 119.06 147.823C119.636 147.444 120.282 147.182 120.96 147.053C121.769 146.888 122.594 146.811 123.42 146.823H124.02H124.65C124.71 146.193 124.74 145.633 124.74 145.153C124.815 144.31 124.637 143.464 124.23 142.723C123.997 142.464 123.706 142.266 123.38 142.144C123.055 142.022 122.705 141.98 122.36 142.023C121.741 142.033 121.126 142.12 120.53 142.283C119.948 142.42 119.389 142.639 118.87 142.933L118.11 141.273Z" fill="#562212"/>
<path fill-rule="evenodd" clip-rule="evenodd" d="M137.84 148.774H132.58V155.554H130.39V140.354H132.58V146.804H137.84V140.354H140.03V155.554H137.84V148.774Z" fill="#562212"/>
<path fill-rule="evenodd" clip-rule="evenodd" d="M151.16 146.804L151.34 144.494H151.22L150.16 147.044L145.02 155.554H143.6V140.354H145.78V149.384L145.6 151.604H145.72L146.73 149.114L151.92 140.354H153.35V155.554H151.16V146.804Z" fill="#562212"/>
<path fill-rule="evenodd" clip-rule="evenodd" d="M163.36 147.865V142.245C163.138 142.141 162.902 142.07 162.66 142.035C162.428 141.998 162.194 141.978 161.96 141.975C161.556 141.944 161.15 141.996 160.767 142.127C160.384 142.257 160.031 142.464 159.73 142.735C159.449 143.046 159.235 143.412 159.1 143.809C158.966 144.206 158.915 144.627 158.95 145.045C158.926 145.449 158.993 145.853 159.145 146.229C159.297 146.604 159.531 146.941 159.83 147.215C160.154 147.481 160.527 147.681 160.929 147.803C161.33 147.925 161.752 147.966 162.17 147.925L163.36 147.865ZM163.36 149.265L161.5 149.625L158.44 155.555H155.85L158.68 150.325L159.68 149.235C158.846 149.073 158.098 148.619 157.57 147.955C156.953 147.16 156.644 146.169 156.7 145.165C156.63 144.437 156.727 143.703 156.984 143.019C157.24 142.334 157.649 141.717 158.18 141.215C159.329 140.352 160.745 139.92 162.18 139.995C162.776 139.994 163.371 140.041 163.96 140.135C164.52 140.225 165.05 140.335 165.55 140.455V155.555H163.37L163.36 149.265Z" fill="#562212"/>
<path fill-rule="evenodd" clip-rule="evenodd" d="M178.44 150.173L179.07 153.123H179.23L179.68 150.173L181.99 140.363H184.21L180.59 154.003C180.31 155.093 180.02 156.123 179.74 157.073C179.498 157.919 179.191 158.745 178.82 159.543C178.544 160.156 178.161 160.715 177.69 161.193C177.297 161.576 176.768 161.788 176.22 161.783C175.71 161.795 175.203 161.703 174.73 161.513L175.09 159.443C175.362 159.542 175.656 159.563 175.94 159.503C176.261 159.426 176.546 159.243 176.75 158.983C177.058 158.609 177.295 158.182 177.45 157.723C177.7 157.018 177.888 156.292 178.01 155.553L173.09 140.363H175.58L178.44 150.173Z" fill="#562212"/>
<path fill-rule="evenodd" clip-rule="evenodd" d="M193.88 154.794C193.361 155.188 192.77 155.477 192.14 155.644C191.489 155.824 190.816 155.915 190.14 155.914C189.285 155.944 188.438 155.751 187.68 155.354C187.002 154.973 186.44 154.417 186.05 153.744C185.607 152.961 185.3 152.109 185.14 151.224C184.94 150.146 184.842 149.051 184.85 147.954C184.719 145.888 185.199 143.829 186.23 142.034C186.666 141.382 187.264 140.855 187.966 140.505C188.667 140.154 189.447 139.992 190.23 140.034C190.903 140.026 191.574 140.096 192.23 140.244C192.734 140.369 193.22 140.554 193.68 140.794L193.08 142.714C192.275 142.248 191.36 142.006 190.43 142.014C189.924 141.998 189.423 142.124 188.984 142.379C188.546 142.634 188.188 143.006 187.95 143.454C187.305 144.876 187.02 146.435 187.12 147.994C187.117 148.778 187.177 149.56 187.3 150.334C187.4 150.996 187.606 151.637 187.91 152.234C188.168 152.74 188.541 153.179 189 153.514C189.498 153.84 190.085 154.004 190.68 153.984C191.183 153.987 191.682 153.895 192.15 153.714C192.549 153.555 192.923 153.34 193.26 153.074L193.88 154.794Z" fill="#562212"/>
<path fill-rule="evenodd" clip-rule="evenodd" d="M203.7 142.333H200.39C200.32 144.053 200.24 145.723 200.14 147.333C200.06 148.767 199.883 150.193 199.61 151.603C199.437 152.661 199.071 153.678 198.53 154.603C198.351 154.938 198.084 155.218 197.758 155.414C197.433 155.609 197.06 155.713 196.68 155.713C196.385 155.717 196.091 155.697 195.8 155.653C195.567 155.618 195.341 155.547 195.13 155.443L195.46 153.553C195.645 153.618 195.841 153.645 196.037 153.633C196.233 153.621 196.424 153.57 196.6 153.483C196.94 153.303 197.22 152.783 197.47 151.893C197.778 150.579 197.975 149.241 198.06 147.893C198.21 146.083 198.32 143.593 198.38 140.453H205.88V155.553H203.7V142.333Z" fill="#562212"/>
<path fill-rule="evenodd" clip-rule="evenodd" d="M213.32 150.173L213.96 153.123H214.11L214.57 150.173L216.88 140.363H219.09L215.48 154.003C215.19 155.093 214.91 156.123 214.63 157.073C214.381 157.918 214.07 158.744 213.7 159.543C213.427 160.155 213.048 160.714 212.58 161.193C212.183 161.577 211.651 161.789 211.1 161.783C210.59 161.794 210.083 161.702 209.61 161.513L209.98 159.443C210.252 159.543 210.546 159.564 210.83 159.503C211.146 159.423 211.428 159.24 211.63 158.983C211.94 158.611 212.178 158.184 212.33 157.723C212.584 157.018 212.775 156.292 212.9 155.553L208.02 140.363H210.51L213.32 150.173Z" fill="#562212"/>
<path fill-rule="evenodd" clip-rule="evenodd" d="M228.66 142.333H223.61V155.553H221.43V140.363H228.66V142.333Z" fill="#562212"/>
</svg>
