<svg width="369" height="202" viewBox="0 0 369 202" fill="none" xmlns="http://www.w3.org/2000/svg">
<path fill-rule="evenodd" clip-rule="evenodd" d="M105.113 26.8159C107.603 26.2059 110.593 25.7459 113.753 25.3359C117.083 27.4359 120.303 29.4859 125.323 34.0559C131.263 39.4259 136.163 45.7759 140.033 52.6259C146.163 63.4859 149.293 75.7559 149.443 87.8259C149.493 91.5959 149.243 95.3359 148.753 99.0259L146.743 100.006L134.203 82.6559C132.173 80.3659 132.493 79.3159 130.683 76.8959C128.633 71.8759 128.643 68.0759 129.073 64.0459C130.213 53.3659 136.683 59.0259 137.803 59.2659C132.433 49.4059 119.603 29.4759 105.113 26.8159Z" fill="#6B994A"/>
<path fill-rule="evenodd" clip-rule="evenodd" d="M38.0332 153.615C40.2432 152.875 42.2132 152.115 44.2532 151.145C47.6432 154.445 65.2832 158.155 68.1232 156.165C66.4132 152.435 57.4132 148.985 53.9432 145.265C55.5832 143.885 56.5232 143.215 58.9732 140.615C69.9832 145.935 60.3532 143.905 78.2932 148.505C89.0732 151.265 88.0332 142.125 95.4232 144.845L90.6532 147.595C95.0932 152.225 92.3532 147.425 96.6632 149.715L93.8132 152.985C98.5632 154.455 95.3032 151.295 98.2932 154.555L94.4032 157.865C95.7332 158.015 96.8032 158.255 99.6632 156.855C110.073 151.795 102.623 156.635 109.243 153.685C112.853 152.065 112.353 151.345 115.073 151.445C102.113 159.715 87.4632 163.595 72.7732 163.185C58.4332 162.885 46.2732 158.345 38.0332 153.615Z" fill="#B4CF8D"/>
<path fill-rule="evenodd" clip-rule="evenodd" d="M95.4233 144.846L101.213 142.966C107.203 141.186 103.023 144.146 107.173 140.886C111.913 137.156 109.773 133.726 115.623 131.426C112.763 129.806 113.563 131.916 110.133 129.616C111.793 126.656 115.413 123.436 116.603 120.776C118.603 116.286 118.373 113.946 124.043 116.806C123.853 117.626 123.933 117.506 123.283 118.716C122.963 119.316 122.553 119.816 122.203 120.396C121.733 121.796 120.333 121.456 121.253 124.306C125.333 123.766 125.283 120.366 125.633 115.356L126.183 110.846C128.873 118.346 127.143 116.246 126.133 122.666C128.973 124.256 126.423 123.516 130.413 122.846C129.583 124.666 130.033 124.136 129.843 124.876C129.793 125.096 129.643 125.776 129.583 126.016L129.263 127.176C129.203 127.406 129.003 128.096 128.963 128.336L129.093 131.396C129.113 131.526 129.233 131.816 129.243 132.026C133.773 131.506 135.643 130.076 138.793 126.546L139.783 125.426C139.093 126.686 138.653 127.356 137.933 128.506C137.623 129.176 134.313 133.786 133.603 134.616C130.923 137.966 128.063 141.176 124.773 144.056C121.553 146.936 118.323 149.386 115.083 151.436C111.983 151.666 112.853 152.066 109.243 153.686C102.623 156.636 110.073 151.796 99.6633 156.856C96.8033 158.256 95.7333 158.016 94.4033 157.866L98.2933 154.556C95.3033 151.296 98.5633 154.456 93.8133 152.986L96.6633 149.716C92.3533 147.426 95.0933 152.226 90.6533 147.596L95.4233 144.846Z" fill="#95C74C"/>
<path fill-rule="evenodd" clip-rule="evenodd" d="M126.184 110.845C126.174 110.675 126.344 110.535 126.244 110.325L126.574 108.735C127.104 106.585 126.934 108.325 127.134 106.515C127.334 104.685 126.884 103.445 126.354 101.595L130.094 97.9945C128.304 95.0545 127.174 95.6545 127.894 92.1345C128.554 88.8445 129.694 88.4545 132.224 88.0945C131.024 84.5145 131.794 85.6145 131.734 82.3845C131.694 79.9945 131.134 79.1345 130.684 76.8945C132.794 79.6945 132.174 80.3645 134.204 82.6545L146.744 100.005L148.754 99.0245C147.804 104.855 146.364 113.665 139.784 125.425C136.324 129.335 134.514 131.505 129.244 132.025C129.234 131.815 129.114 131.525 129.094 131.395L128.964 128.335C129.004 128.095 129.204 127.405 129.264 127.175L129.584 126.015C129.644 125.775 129.794 125.095 129.844 124.875C130.034 124.135 129.584 124.665 130.414 122.845C126.424 123.515 128.974 124.255 126.134 122.665C127.144 116.245 128.874 118.345 126.184 110.845Z" fill="#76A943"/>
<path fill-rule="evenodd" clip-rule="evenodd" d="M80.5136 93.5661C77.7736 96.2461 81.0536 93.5461 75.9336 93.2561L72.4336 96.4961C72.8036 85.7161 72.3036 76.2261 73.5236 67.2461C74.4236 67.7261 75.9636 67.9461 76.1236 68.1161C77.0936 73.0361 72.1836 68.7061 77.7136 75.3361C79.3436 72.9561 78.9936 70.4061 81.5236 69.2061C84.3836 67.8561 83.0236 69.7961 86.5336 69.0161C89.5136 68.3561 86.8836 68.5561 86.6836 68.5061L86.4836 69.3661C86.4436 69.5061 86.3536 69.7861 86.3036 69.9661L85.5536 72.5761C85.9836 73.1261 86.7136 74.1461 87.1836 74.6061L89.1436 76.2461C90.4436 77.2661 92.6236 75.8261 94.3836 74.3761C96.0236 73.0261 97.0036 71.5961 98.1236 70.1661C97.4836 73.7361 91.5136 79.1061 88.0136 81.7761C83.9736 76.3561 87.3436 76.4461 82.7836 70.3661C80.2736 73.5861 82.1136 72.8261 81.0636 74.8961C80.2436 76.5361 78.4336 77.6361 77.2336 79.3061C79.6836 84.9861 87.9536 88.0661 89.8436 87.7061C90.7936 84.7961 90.7736 87.7061 89.0536 83.1561L93.9336 78.9561L96.8336 82.5461C95.0436 86.1761 92.3036 91.3061 87.5836 94.2461C84.1236 90.9661 86.4536 93.9261 85.9536 89.5661C83.9336 91.7261 84.5036 90.5061 84.8336 92.9861C81.0036 92.5061 81.1836 91.8461 80.5136 93.5661Z" fill="#A4CF58"/>
<path fill-rule="evenodd" clip-rule="evenodd" d="M78.0139 47.7344C83.7739 50.8844 83.9739 55.9344 89.8839 57.4844C92.7239 58.2244 91.9439 56.6844 96.4339 58.8244C96.0239 60.7944 93.4839 63.5344 93.6039 63.9044C93.6839 64.1144 93.4239 64.2244 93.3639 64.3744L98.6139 64.5544C100.404 60.9444 98.4639 61.5544 102.974 59.2744C103.964 64.2344 98.4039 64.9044 99.8639 68.9244L98.1239 70.1644C97.0039 71.5944 96.0239 73.0244 94.3839 74.3744C92.6239 75.8244 90.4439 77.2644 89.1439 76.2444L87.1839 74.6044C86.7139 74.1444 85.9839 73.1244 85.5539 72.5744L86.3039 69.9644L86.5339 69.0144C83.0239 69.7944 84.3839 67.8544 81.5239 69.2044C78.9939 70.4044 79.3439 72.9544 77.7139 75.3344C72.1839 68.7044 77.0939 73.0344 76.1239 68.1144C75.8739 67.9744 74.3339 67.6944 73.4639 67.2344C74.0939 60.7244 75.1839 54.2044 78.0139 47.7344Z" fill="#97C946"/>
<path fill-rule="evenodd" clip-rule="evenodd" d="M72.4334 96.4959L75.9334 93.2559C81.0534 93.5459 77.7734 96.2459 80.5134 93.5659L80.8134 98.6559C80.9334 98.9259 80.6734 99.0659 80.6434 99.2859L77.0834 101.326C75.3734 98.9859 76.2034 98.1459 76.6234 95.4959C73.6834 97.4159 72.0934 103.226 72.2134 101.106C72.2934 99.6359 72.3834 97.9659 72.4334 96.4959Z" fill="#AED36F"/>
<path fill-rule="evenodd" clip-rule="evenodd" d="M112.293 89.8258C110.653 86.9158 109.593 86.7958 108.173 83.2658C106.503 79.1558 107.333 80.0658 109.013 76.8758C97.4434 75.0258 102.843 84.1458 98.4834 90.3058C96.1934 93.5458 95.1334 94.1658 94.0134 97.1958C89.9534 95.8958 92.4034 94.6958 90.0434 96.2958C88.5634 97.3058 89.2534 99.1058 89.9234 100.256C92.4934 104.726 92.1934 101.176 98.1734 101.756C104.493 102.366 110.073 95.7858 112.293 89.8258ZM80.6434 99.2858C80.6734 99.0658 80.9334 98.9258 80.8134 98.6558L80.5134 93.5658C81.1834 91.8458 81.0034 92.5058 84.8334 92.9858C84.5034 90.5058 83.9334 91.7258 85.9534 89.5658C86.4534 93.9258 84.1234 90.9658 87.5834 94.2458C92.3034 91.3058 95.0434 86.1758 96.8334 82.5458L93.9334 78.9558L89.0534 83.1558C90.7734 87.7058 90.7934 84.7958 89.8434 87.7058C87.9534 88.0658 79.6834 84.9858 77.2334 79.3058C78.4334 77.6358 80.2434 76.5358 81.0634 74.8958C82.1134 72.8258 80.2734 73.5858 82.7834 70.3658C87.3434 76.4458 83.9734 76.3558 88.0134 81.7758C91.5134 79.1058 97.4834 73.7358 98.1234 70.1658L99.8634 68.9258C100.083 71.4358 102.373 69.1858 99.4834 71.4258C98.5134 72.0058 102.103 71.7758 101.313 72.1558C95.8834 76.3458 96.9134 75.7058 97.5134 78.2858C97.8334 78.2958 98.4634 78.4558 98.4734 78.1458C98.4734 77.8358 99.1234 78.0558 99.3834 77.9558C99.6334 77.8658 99.9534 77.8158 100.243 77.6958C100.533 77.5758 100.733 77.4858 101.033 77.3358C101.583 77.0658 102.813 76.0758 103.663 75.5558C105.193 74.6258 109.123 74.5058 111.433 72.9458C112.743 74.5558 110.793 76.2458 112.233 76.5258L108.713 81.7258L111.493 83.9158C115.943 81.9558 111.683 82.0958 115.443 82.7058L113.263 84.4458L113.553 87.2758C114.613 87.9958 115.833 88.6358 117.013 89.3158L114.283 90.1458C111.693 96.2758 104.153 104.086 96.8034 103.916C94.9434 103.876 96.5434 103.906 95.0134 103.986C94.7634 104.006 94.0034 104.096 93.7434 104.106H92.4734C91.9034 104.076 91.1234 103.936 90.5734 103.896L88.1834 103.766C86.1634 103.366 87.2634 104.196 85.5134 101.436C88.0434 102.496 86.6634 102.286 88.8634 101.596C84.7934 90.4458 81.6134 98.2958 80.6434 99.2858Z" fill="#F8FBE7"/>
<path fill-rule="evenodd" clip-rule="evenodd" d="M112.294 89.8259C110.074 95.7859 104.494 102.366 98.1739 101.756C92.1939 101.176 92.4939 104.726 89.9239 100.256C89.2539 99.1059 88.5639 97.3059 90.0439 96.2959C92.4039 94.6959 89.9539 95.8959 94.0139 97.1959C95.1339 94.1659 96.1939 93.5459 98.4839 90.3059C102.844 84.1459 97.4439 75.0259 109.014 76.8759C107.334 80.0659 106.504 79.1559 108.174 83.2659C109.594 86.7959 110.654 86.9159 112.294 89.8259Z" fill="#95C74C"/>
<path fill-rule="evenodd" clip-rule="evenodd" d="M122.144 103.666C122.614 105.166 122.784 104.446 122.204 105.956C127.224 102.936 124.714 103.866 126.384 105.116C127.974 107.286 127.884 107.196 120.204 113.556C118.914 109.796 118.704 106.536 122.144 103.666Z" fill="#8FB554"/>
<path fill-rule="evenodd" clip-rule="evenodd" d="M115.444 82.7051C116.334 83.5351 118.054 85.0951 119.254 86.9951L117.014 89.3151C115.834 88.6351 114.614 87.9951 113.554 87.2751L113.264 84.4451L115.444 82.7051Z" fill="#8FB554"/>
<path fill-rule="evenodd" clip-rule="evenodd" d="M30.6737 76.4058C23.5537 95.1458 20.5037 119.846 23.2937 142.756C7.07367 127.046 1.25367 109.406 0.163667 93.0958C-1.05633 75.0658 4.60367 57.6658 15.1537 43.9058C20.7837 36.5558 27.7637 30.1658 35.7437 25.3358C54.3037 14.0658 78.0537 10.1158 101.594 19.3358C105.374 20.8158 107.994 22.0558 111.714 24.1358C34.6237 35.8758 106.204 129.316 36.5037 152.736C76.8037 118.466 32.7037 84.8358 44.7437 51.0858C16.4337 59.3758 8.86367 81.2358 14.9937 112.056C17.7437 96.6058 20.7337 85.3858 30.6737 76.4058Z" fill="#6B994A"/>
<path d="M195.221 66.4592C194.498 66.9554 193.718 67.3595 192.882 67.6714C192.06 67.9691 191.223 68.1179 190.373 68.1179C189.706 68.1179 189.125 68.04 188.629 67.884C188.147 67.7281 187.743 67.5154 187.417 67.2461C187.091 66.9767 186.85 66.679 186.694 66.3529C186.538 66.0127 186.46 65.6583 186.46 65.2897C186.46 64.7793 186.573 64.3185 186.8 63.9074C187.041 63.4963 187.36 63.1489 187.757 62.8654C188.154 62.5677 188.622 62.3409 189.161 62.1849C189.699 62.029 190.266 61.951 190.862 61.951C191.471 61.951 192.088 62.0361 192.712 62.2062C193.35 62.3763 193.988 62.6386 194.626 62.993C195.732 62.4543 196.731 61.8376 197.624 61.1429C198.531 60.4482 199.304 59.6756 199.942 58.825C200.594 57.9602 201.097 57.0174 201.452 55.9967C201.806 54.9618 201.984 53.8347 201.984 52.6155C201.984 51.2403 201.764 50.014 201.324 48.9366C200.885 47.8591 200.275 46.9518 199.495 46.2146C198.73 45.4774 197.816 44.9174 196.752 44.5347C195.703 44.1519 194.555 43.9605 193.307 43.9605C192.23 43.9605 191.152 44.0456 190.075 44.2157C189.012 44.3858 187.948 44.6623 186.885 45.045C185.822 45.4136 184.752 45.9027 183.674 46.5123C182.611 47.1078 181.533 47.845 180.442 48.7239C180.016 48.3695 179.705 48.0576 179.506 47.7883C179.322 47.5189 179.23 47.285 179.23 47.0865C179.23 46.9306 179.279 46.7888 179.378 46.6612C179.478 46.5336 179.584 46.4131 179.697 46.2997C180.08 45.9311 180.569 45.52 181.165 45.0663C181.774 44.5985 182.462 44.1306 183.227 43.6628C184.007 43.1949 184.865 42.7413 185.801 42.3018C186.736 41.8623 187.736 41.4725 188.799 41.1322C189.876 40.7778 191.004 40.5013 192.18 40.3029C193.357 40.0902 194.576 39.9839 195.838 39.9839C197.497 39.9839 199.042 40.2249 200.474 40.7069C201.92 41.1889 203.174 41.8907 204.238 42.8122C205.315 43.7195 206.159 44.8395 206.768 46.1721C207.378 47.5047 207.683 49.0146 207.683 50.7016C207.683 52.4737 207.371 54.0615 206.747 55.4651C206.137 56.8544 205.315 58.102 204.28 59.2078C203.259 60.2994 202.083 61.2634 200.75 62.0999C199.418 62.9363 198.035 63.6806 196.603 64.3327C198.9 64.7013 200.878 65.2684 202.536 66.0339C204.209 66.7853 205.584 67.6997 206.662 68.7772C207.739 69.8404 208.533 71.0455 209.044 72.3923C209.554 73.7249 209.809 75.1497 209.809 76.6666C209.809 77.8858 209.618 79.0909 209.235 80.2817C208.866 81.4726 208.314 82.6067 207.576 83.6842C206.839 84.7475 205.918 85.7328 204.812 86.6401C203.72 87.5474 202.458 88.3342 201.027 89.0005C199.595 89.6668 197.993 90.1843 196.221 90.5529C194.449 90.9357 192.513 91.1271 190.415 91.1271C188.856 91.1271 187.374 91.0207 185.971 90.8081C184.567 90.5954 183.334 90.319 182.271 89.9787C181.207 89.6385 180.357 89.2557 179.719 88.8304C179.095 88.4051 178.783 87.9869 178.783 87.5757C178.783 86.8811 178.797 86.1084 178.826 85.2578C178.854 84.393 178.889 83.4999 178.932 82.5784C178.974 81.6569 179.017 80.7283 179.059 79.7926C179.116 78.857 179.166 77.9496 179.208 77.0707L181.356 77.177C181.328 77.4747 181.307 77.7795 181.292 78.0914C181.292 78.4033 181.292 78.701 181.292 78.9845C181.292 80.7141 181.519 82.1743 181.973 83.3652C182.441 84.5561 183.1 85.5272 183.951 86.2786C184.801 87.0299 185.829 87.5757 187.034 87.916C188.239 88.2421 189.586 88.4051 191.074 88.4051C192.832 88.4051 194.491 88.1783 196.051 87.7246C197.61 87.2568 198.978 86.5621 200.155 85.6406C201.331 84.7049 202.26 83.5353 202.94 82.1318C203.635 80.7283 203.982 79.0767 203.982 77.177C203.982 75.7735 203.784 74.4834 203.387 73.3067C203.004 72.13 202.437 71.088 201.686 70.1807C200.949 69.2592 200.034 68.4865 198.943 67.8628C197.865 67.239 196.625 66.7711 195.221 66.4592Z" fill="white"/>
<path d="M181.363 94.7097C183.688 94.7097 185.836 94.6955 187.807 94.6671C189.791 94.6246 191.528 94.5892 193.017 94.5608C194.519 94.5183 195.739 94.4828 196.674 94.4545C197.61 94.4119 198.205 94.3907 198.461 94.3907C199.141 94.3907 199.68 94.575 200.077 94.9436C200.474 95.298 200.672 95.8013 200.672 96.4534C200.672 96.7511 200.644 97.3111 200.587 98.1334C200.53 98.9556 200.452 99.9126 200.353 101.004C200.268 102.082 200.162 103.223 200.034 104.428C199.921 105.619 199.8 106.739 199.673 107.788L197.27 107.724C197.298 107.086 197.319 106.498 197.333 105.959C197.362 105.42 197.376 104.917 197.376 104.449C197.376 103.06 197.291 101.926 197.121 101.047C196.951 100.168 196.66 99.4802 196.249 98.984C195.838 98.4736 195.285 98.1192 194.59 97.9207C193.896 97.7223 193.031 97.6159 191.996 97.6017C191.585 97.5876 191.195 97.5805 190.826 97.5805C190.472 97.5805 190.132 97.5805 189.806 97.5805H186.488C185.751 97.5805 184.985 97.5876 184.191 97.6017C183.398 97.6017 182.455 97.6159 181.363 97.6443C181.165 105.271 180.952 112.892 180.725 120.505C180.498 128.118 180.272 135.723 180.045 143.322L175.005 143.96L174.622 143.918C174.792 139.849 174.941 135.979 175.069 132.307C175.21 128.635 175.324 125.055 175.409 121.568C175.508 118.08 175.579 114.635 175.622 111.233C175.678 107.816 175.707 104.322 175.707 100.749C175.707 100.139 175.636 99.6432 175.494 99.2604C175.352 98.8635 175.14 98.5516 174.856 98.3248C174.587 98.0979 174.253 97.942 173.857 97.8569C173.46 97.7719 173.006 97.7293 172.496 97.7293C171.985 97.7293 171.432 97.7577 170.837 97.8144C170.241 97.8569 169.582 97.9207 168.859 98.0058L168.647 96.0494C170.036 95.8367 171.326 95.6524 172.517 95.4965C173.708 95.3264 174.821 95.1846 175.855 95.0712C176.905 94.9436 177.883 94.8514 178.79 94.7947C179.697 94.738 180.555 94.7097 181.363 94.7097Z" fill="white"/>
<path d="M233.797 76.3758L237.752 76.8649C237.129 79.1757 235.973 80.9691 234.286 82.2449C232.599 83.5208 230.444 84.1588 227.822 84.1588C224.519 84.1588 221.896 83.1452 219.954 81.1179C218.026 79.0765 217.062 76.2199 217.062 72.5481C217.062 68.7488 218.04 65.8 219.996 63.7019C221.953 61.6038 224.49 60.5547 227.609 60.5547C230.629 60.5547 233.095 61.5825 235.009 63.6381C236.923 65.6937 237.88 68.5858 237.88 72.3142C237.88 72.541 237.873 72.8813 237.859 73.3349H221.017C221.159 75.8158 221.86 77.7155 223.122 79.0339C224.384 80.3524 225.958 81.0116 227.843 81.0116C229.246 81.0116 230.444 80.643 231.437 79.9058C232.429 79.1686 233.216 77.992 233.797 76.3758ZM221.23 70.1877H233.84C233.67 68.288 233.188 66.8633 232.394 65.9135C231.175 64.4391 229.594 63.7019 227.652 63.7019C225.894 63.7019 224.412 64.2902 223.207 65.4669C222.016 66.6435 221.357 68.2172 221.23 70.1877ZM243.005 61.065H260.782V83.6484H256.976V64.2335H246.833V75.4827C246.833 78.1054 246.748 79.8349 246.577 80.6713C246.407 81.5078 245.939 82.2379 245.174 82.8616C244.408 83.4854 243.303 83.7973 241.857 83.7973C240.963 83.7973 239.936 83.7406 238.773 83.6272V80.4374H240.453C241.247 80.4374 241.814 80.3595 242.154 80.2035C242.495 80.0334 242.721 79.7711 242.835 79.4167C242.948 79.0623 243.005 77.9069 243.005 75.9505V61.065ZM282.026 76.3758L285.981 76.8649C285.358 79.1757 284.202 80.9691 282.515 82.2449C280.828 83.5208 278.673 84.1588 276.051 84.1588C272.748 84.1588 270.125 83.1452 268.183 81.1179C266.255 79.0765 265.291 76.2199 265.291 72.5481C265.291 68.7488 266.269 65.8 268.225 63.7019C270.182 61.6038 272.719 60.5547 275.838 60.5547C278.858 60.5547 281.324 61.5825 283.238 63.6381C285.152 65.6937 286.109 68.5858 286.109 72.3142C286.109 72.541 286.102 72.8813 286.088 73.3349H269.246C269.388 75.8158 270.089 77.7155 271.351 79.0339C272.613 80.3524 274.186 81.0116 276.072 81.0116C277.475 81.0116 278.673 80.643 279.666 79.9058C280.658 79.1686 281.445 77.992 282.026 76.3758ZM269.459 70.1877H282.069C281.899 68.288 281.417 66.8633 280.623 65.9135C279.403 64.4391 277.823 63.7019 275.881 63.7019C274.123 63.7019 272.641 64.2902 271.436 65.4669C270.245 66.6435 269.586 68.2172 269.459 70.1877ZM290.83 61.065H294.658V70.4642H305.269V61.065H309.096V83.6484H305.269V73.6326H294.658V83.6484H290.83V61.065ZM336.379 61.065H340.207V83.6484H336.379V61.065ZM314.966 61.065H318.793V69.89H323.642C326.803 69.89 329.234 70.5067 330.936 71.7401C332.651 72.9592 333.509 74.6463 333.509 76.8011C333.509 78.6866 332.793 80.3027 331.361 81.6495C329.943 82.9821 327.668 83.6484 324.535 83.6484H314.966V61.065ZM318.793 80.5012H322.812C325.237 80.5012 326.966 80.2035 328.001 79.6081C329.036 79.0127 329.553 78.0841 329.553 76.8224C329.553 75.8442 329.171 74.9723 328.405 74.2068C327.64 73.4413 325.945 73.0585 323.323 73.0585H318.793V80.5012ZM346.183 61.065H350.01V78.2897L360.621 61.065H364.747V83.6484H360.919V66.5301L350.308 83.6484H346.183V61.065ZM359.473 52.5165H362.089C361.876 54.2886 361.224 55.6496 360.132 56.5994C359.055 57.5492 357.616 58.0241 355.816 58.0241C354.001 58.0241 352.548 57.5563 351.456 56.6207C350.379 55.6708 349.734 54.3028 349.521 52.5165H352.137C352.335 53.4805 352.725 54.2035 353.306 54.6855C353.902 55.1534 354.696 55.3873 355.688 55.3873C356.836 55.3873 357.701 55.1605 358.282 54.7068C358.878 54.239 359.275 53.5089 359.473 52.5165Z" fill="white"/>
<path d="M199.116 125.009C199.116 120.827 200.278 117.729 202.603 115.716C204.546 114.043 206.913 113.207 209.706 113.207C212.811 113.207 215.348 114.228 217.319 116.269C219.289 118.296 220.275 121.103 220.275 124.69C220.275 127.596 219.835 129.886 218.956 131.559C218.091 133.217 216.823 134.507 215.15 135.429C213.491 136.35 211.676 136.811 209.706 136.811C206.545 136.811 203.986 135.798 202.029 133.77C200.087 131.743 199.116 128.823 199.116 125.009ZM203.05 125.009C203.05 127.901 203.681 130.07 204.943 131.516C206.204 132.948 207.792 133.664 209.706 133.664C211.606 133.664 213.186 132.941 214.448 131.495C215.71 130.049 216.341 127.844 216.341 124.881C216.341 122.089 215.703 119.976 214.427 118.545C213.165 117.099 211.591 116.376 209.706 116.376C207.792 116.376 206.204 117.091 204.943 118.523C203.681 119.955 203.05 122.117 203.05 125.009ZM224.783 144.956V113.717H228.27V116.652C229.092 115.504 230.021 114.646 231.056 114.079C232.091 113.498 233.345 113.207 234.82 113.207C236.748 113.207 238.449 113.703 239.923 114.696C241.398 115.688 242.511 117.091 243.262 118.906C244.013 120.706 244.389 122.684 244.389 124.839C244.389 127.15 243.971 129.234 243.134 131.091C242.312 132.934 241.107 134.351 239.519 135.344C237.946 136.322 236.287 136.811 234.543 136.811C233.267 136.811 232.119 136.542 231.098 136.003C230.092 135.464 229.263 134.784 228.61 133.962V144.956H224.783ZM228.249 125.137C228.249 128.043 228.837 130.191 230.014 131.58C231.191 132.969 232.615 133.664 234.288 133.664C235.989 133.664 237.443 132.948 238.648 131.516C239.867 130.07 240.476 127.837 240.476 124.818C240.476 121.94 239.881 119.785 238.69 118.353C237.513 116.921 236.103 116.205 234.458 116.205C232.828 116.205 231.382 116.971 230.12 118.502C228.873 120.019 228.249 122.23 228.249 125.137ZM249.025 113.717H252.853V130.942L263.464 113.717H267.589V136.301H263.761V119.182L253.15 136.301H249.025V113.717ZM278.349 126.094V123.095C279.965 123.081 281.064 123.017 281.645 122.904C282.241 122.79 282.801 122.45 283.325 121.883C283.85 121.316 284.112 120.607 284.112 119.757C284.112 118.722 283.765 117.899 283.07 117.29C282.39 116.666 281.504 116.354 280.412 116.354C278.257 116.354 276.747 117.623 275.882 120.161L272.246 119.565C273.38 115.326 276.116 113.207 280.454 113.207C282.864 113.207 284.75 113.866 286.111 115.185C287.486 116.503 288.174 118.077 288.174 119.905C288.174 121.748 287.281 123.216 285.494 124.307C286.628 124.917 287.479 125.697 288.046 126.646C288.613 127.582 288.897 128.695 288.897 129.985C288.897 132.012 288.159 133.657 286.685 134.919C285.211 136.18 283.148 136.811 280.497 136.811C275.351 136.811 272.367 134.522 271.544 129.943L275.138 129.177C275.464 130.623 276.123 131.743 277.116 132.537C278.122 133.331 279.271 133.728 280.561 133.728C281.851 133.728 282.921 133.366 283.772 132.643C284.637 131.906 285.069 130.97 285.069 129.836C285.069 128.957 284.8 128.192 284.261 127.54C283.722 126.887 283.148 126.483 282.538 126.328C281.929 126.157 280.823 126.072 279.221 126.072C279.093 126.072 278.803 126.079 278.349 126.094ZM291.406 125.009C291.406 120.827 292.568 117.729 294.893 115.716C296.836 114.043 299.203 113.207 301.996 113.207C305.101 113.207 307.638 114.228 309.609 116.269C311.579 118.296 312.565 121.103 312.565 124.69C312.565 127.596 312.125 129.886 311.246 131.559C310.381 133.217 309.113 134.507 307.44 135.429C305.781 136.35 303.966 136.811 301.996 136.811C298.834 136.811 296.276 135.798 294.319 133.77C292.377 131.743 291.406 128.823 291.406 125.009ZM295.34 125.009C295.34 127.901 295.971 130.07 297.233 131.516C298.494 132.948 300.082 133.664 301.996 133.664C303.896 133.664 305.476 132.941 306.738 131.495C308 130.049 308.631 127.844 308.631 124.881C308.631 122.089 307.993 119.976 306.717 118.545C305.455 117.099 303.881 116.376 301.996 116.376C300.082 116.376 298.494 117.091 297.233 118.523C295.971 119.955 295.34 122.117 295.34 125.009ZM317.094 113.717H320.922V123.116H331.533V113.717H335.361V136.301H331.533V126.285H320.922V136.301H317.094V113.717ZM339.082 113.717H357.434V116.886H350.161V136.301H346.355V116.886H339.082V113.717Z" fill="white"/>
</svg>
