<svg width="439" height="148" viewBox="0 0 439 148" fill="none" xmlns="http://www.w3.org/2000/svg">
<path fill-rule="evenodd" clip-rule="evenodd" d="M223.062 36.6698L219.892 46.4998C218.832 49.7898 218.972 49.3898 215.512 49.3798H205.772C198.182 49.3798 197.412 48.4798 203.982 53.2298L212.372 59.2997C214.832 61.0897 215.282 60.7198 214.372 63.6198L209.792 77.4098C208.492 81.4098 208.632 80.6698 211.732 78.4098L223.252 70.0298C225.392 68.4698 225.092 68.5198 227.252 70.0898L237.742 77.7298C241.852 80.7298 241.972 81.5898 240.272 76.3698L236.272 64.0197C235.382 61.3197 235.042 61.4997 237.342 59.8297L245.262 54.0998C252.462 48.8898 253.352 49.3397 244.092 49.3597H234.332C231.332 49.3597 231.592 49.6098 230.672 46.7898L227.562 37.1298C225.102 29.5098 225.732 28.5597 223.122 36.6497L223.062 36.6698Z" fill="#BDC600"/>
<path fill-rule="evenodd" clip-rule="evenodd" d="M268.341 118.3C267.113 118.262 265.892 118.514 264.779 119.036C263.665 119.557 262.69 120.332 261.931 121.3C260.26 123.44 259.119 125.945 258.601 128.61C258.363 129.745 258.23 130.9 258.201 132.06C258.201 136.48 260.148 138.69 264.041 138.69C265.681 138.729 267.283 138.195 268.571 137.18C269.868 136.156 270.915 134.849 271.631 133.36C272.404 131.769 272.982 130.09 273.351 128.36C273.642 127.079 273.807 125.773 273.841 124.46C273.874 123.248 273.609 122.046 273.071 120.96C272.639 120.094 271.958 119.376 271.115 118.899C270.273 118.421 269.307 118.206 268.341 118.28V118.3ZM270.341 109.01C273.147 108.928 275.928 109.561 278.421 110.85C280.602 112.026 282.379 113.831 283.521 116.03C284.716 118.389 285.314 121.006 285.261 123.65C285.255 125.276 285.087 126.897 284.761 128.49C284.198 131.232 283.206 133.867 281.821 136.3C280.488 138.64 278.767 140.736 276.731 142.5C274.707 144.234 272.387 145.589 269.881 146.5C267.294 147.463 264.553 147.948 261.791 147.93C259.181 147.965 256.595 147.419 254.221 146.33C252.011 145.337 250.136 143.726 248.821 141.69C247.283 139.164 246.509 136.247 246.591 133.29C246.596 131.681 246.764 130.076 247.091 128.5C247.665 125.721 248.678 123.051 250.091 120.59C251.443 118.24 253.185 116.136 255.241 114.37C257.287 112.634 259.628 111.28 262.151 110.37C264.771 109.425 267.537 108.951 270.321 108.97L270.341 109.01ZM24.8815 119.7C24.3713 119.201 23.7601 118.817 23.0892 118.574C22.4182 118.331 21.7029 118.234 20.9915 118.29C19.4246 118.271 17.9028 118.814 16.7015 119.82C15.4339 120.866 14.41 122.177 13.7015 123.66C12.9464 125.168 12.3917 126.768 12.0515 128.42C11.8166 129.609 11.696 130.818 11.6915 132.03C11.6241 133.718 12.0591 135.389 12.9415 136.83C13.3883 137.464 13.9916 137.971 14.6925 138.302C15.3935 138.633 16.1683 138.777 16.9415 138.72C18.6238 138.769 20.2581 138.155 21.4915 137.01C23.7315 134.89 23.3115 132.56 26.9115 132.5C28.2315 132.5 30.1115 132.5 31.6615 132.5C36.6615 132.67 33.8615 137.6 31.2715 140.62C29.3092 142.929 26.8608 144.777 24.1015 146.03C21.3293 147.305 18.3126 147.96 15.2615 147.95C12.7557 147.951 10.2757 147.444 7.97146 146.46C5.64903 145.458 3.66108 143.813 2.24146 141.72C0.673338 139.284 -0.105387 136.424 0.0114643 133.53C0.0175804 131.848 0.205333 130.172 0.571462 128.53C1.73043 123.187 4.55206 118.349 8.63146 114.71C10.6354 112.931 12.9283 111.507 15.4115 110.5C17.8885 109.494 20.538 108.981 23.2115 108.99C27.0315 108.99 29.9815 109.763 32.0615 111.31C34.4056 113.161 36.0863 115.723 36.8515 118.61C37.5415 120.83 37.7715 123.32 34.8515 123.61C32.8212 123.751 30.7847 123.778 28.7515 123.69C25.6315 123.53 26.5915 121.57 24.9115 119.74L24.8815 119.7ZM58.5515 129.27L58.2315 125.11C57.9115 121.11 58.1215 120.7 55.8415 125.11L53.6515 129.33C51.2115 134.05 51.6515 133.54 55.3315 133.64C58.6415 133.64 58.9115 134.09 58.5515 129.29V129.27ZM67.2415 118.42C66.7115 115.1 66.9815 109.99 62.3915 109.71C61.2415 109.64 59.7815 109.62 58.5015 109.66C53.5915 109.83 52.9715 112.49 50.6015 116.61C46.8615 123.09 43.1181 129.563 39.3715 136.03C37.0915 140.03 30.7415 146.9 39.6515 146.86C40.8115 146.86 41.8915 146.86 42.5515 146.78C44.6615 146.65 45.1615 145.99 46.5515 143.53C47.9415 141.07 49.9115 141.53 53.6115 141.53C55.7815 141.53 57.6115 141.53 58.6115 142C58.9311 142.118 59.2125 142.321 59.4256 142.587C59.6388 142.853 59.7756 143.172 59.8215 143.51C60.4915 147.58 63.0415 146.79 66.4915 146.85C72.8815 146.97 70.8415 141.03 70.0215 135.85L69.2415 130.96L67.2415 118.34V118.42ZM166.311 129.27L166.001 125.11C165.671 121.11 165.881 120.7 163.611 125.11L161.411 129.33C158.971 134.05 159.411 133.54 163.091 133.64C166.401 133.64 166.671 134.09 166.311 129.29V129.27ZM175.011 118.42L177.011 131.04L177.791 135.93C178.621 141.09 180.651 147.03 174.271 146.93C170.821 146.87 168.271 147.66 167.601 143.59C167.555 143.253 167.417 142.934 167.204 142.668C166.991 142.403 166.711 142.199 166.391 142.08C165.281 141.6 163.501 141.61 161.341 141.61C157.631 141.61 155.641 141.13 154.271 143.61C152.901 146.09 152.411 146.73 150.271 146.86C149.611 146.86 148.531 146.94 147.361 146.94C138.461 146.94 144.811 140.06 147.091 136.11L158.311 116.66C160.691 112.54 161.311 109.88 166.211 109.71C167.491 109.71 168.951 109.71 170.101 109.76C174.701 110.04 174.421 115.15 174.961 118.47L175.011 118.42ZM426.361 129.27L426.051 125.11C425.721 121.11 425.941 120.7 423.661 125.11L421.471 129.33C419.021 134.05 419.471 133.54 423.141 133.64C426.461 133.64 426.721 134.09 426.361 129.29V129.27ZM435.061 118.42L437.061 131.04L437.851 135.93C438.671 141.09 440.711 147.03 434.321 146.93C430.871 146.87 428.321 147.66 427.651 143.59C427.605 143.253 427.467 142.934 427.254 142.668C427.041 142.403 426.761 142.199 426.441 142.08C425.331 141.6 423.561 141.61 421.391 141.61C417.681 141.61 415.691 141.13 414.331 143.61C412.971 146.09 412.461 146.73 410.331 146.86C409.671 146.86 408.591 146.94 407.431 146.94C398.521 146.94 404.871 140.06 407.151 136.11L418.371 116.66C420.751 112.54 421.371 109.88 426.271 109.71C427.551 109.71 429.011 109.71 430.171 109.76C434.761 110.04 434.481 115.15 435.021 118.47L435.061 118.42ZM141.351 119.54C149.051 119.54 151.601 120.6 152.681 114.7C153.531 110.05 151.901 109.81 148.781 109.81C140.731 109.81 133.271 109.72 125.401 109.73C122.331 109.73 121.401 111.42 120.671 114.43C119.131 120.33 121.861 119.54 129.991 119.54L125.791 139.93C124.791 144.64 124.191 146.78 130.181 147.02C136.291 147.08 135.771 145.84 137.131 140.02C138.551 133.2 139.975 126.383 141.401 119.57L141.351 119.54ZM115.091 118.41L114.691 120.31L111.521 135.58C110.111 142.31 110.161 147.12 103.871 146.92C96.9515 146.73 98.7115 142.98 99.9815 136.92C100.981 131.72 101.651 132.39 95.6115 132.39C89.5715 132.39 90.4015 131.74 89.2515 136.96L88.6615 139.75C87.6115 144.75 87.8115 146.91 81.7215 146.91C75.1515 146.63 76.7215 143.09 77.9615 137.26L81.9615 118.26C83.1715 112.48 82.8615 109.9 89.2215 110.08C95.5815 110.26 94.4215 112.25 93.2815 117.76C92.1015 122.53 91.8515 122.76 97.3415 122.84C103.731 122.84 102.631 123.53 103.971 117.84C105.161 112.14 104.541 110.06 111.211 110.06C117.741 110.25 116.211 113.06 115.121 118.4L115.091 118.41ZM325.561 118.41L325.171 120.31L321.991 135.58C320.591 142.31 320.631 147.12 314.341 146.92C307.421 146.73 309.171 142.98 310.451 136.92C311.451 131.72 312.121 132.39 306.081 132.39C300.041 132.39 300.881 131.74 299.721 136.96L299.141 139.75C298.081 144.75 298.281 146.91 292.141 146.91C285.571 146.63 287.141 143.09 288.381 137.26L292.381 118.26C293.591 112.48 293.281 109.9 299.641 110.08C306.001 110.26 304.841 112.25 303.701 117.76C302.531 122.53 302.271 122.76 307.761 122.84C314.151 122.84 313.051 123.53 314.391 117.84C315.581 112.14 314.961 110.06 321.641 110.06C328.161 110.25 326.641 113.06 325.541 118.4L325.561 118.41ZM360.081 110.94C354.551 110.94 353.931 112.44 350.621 116.23L345.201 122.46C339.481 129.03 338.931 130.99 340.801 122.22L341.971 116.67C342.821 112.57 342.571 111.02 339.331 110.92C338.621 110.92 337.901 110.92 337.201 110.92C333.201 111 333.411 112.39 332.511 115.92L331.901 118.86L328.351 135.86L327.531 139.79C326.661 144.11 327.141 146.1 331.921 146.08C336.701 146.06 337.621 143.86 340.711 140.35L345.961 134.24C351.601 127.65 352.301 126.17 350.401 134.35L349.101 140.61C348.381 144.31 348.381 145.81 353.101 146C356.271 146 357.821 145.69 358.641 141.24L359.701 136.15L363.941 115.83C364.851 111.17 363.401 110.99 360.121 110.93L360.081 110.94ZM399.571 115.17C403.331 111.89 401.721 111.02 397.771 110.92C393.371 110.92 392.331 111.05 391.221 111.84C389.253 113.301 387.407 114.92 385.701 116.68C379.321 122.42 378.701 125.33 380.581 116.25C381.891 110.65 379.981 110.81 375.581 110.82C371.481 110.82 371.211 112.33 370.071 116.01L365.071 140.01C364.211 144.29 364.331 146.1 367.691 146.16C368.871 146.16 370.221 146.16 371.271 146.16C374.721 146.06 374.721 143.67 375.511 140.51C376.201 137.18 376.451 135.51 378.221 134.21C380.751 132.07 380.431 132.72 382.121 136.77L383.971 141.17C385.971 145.77 385.811 146.09 392.461 146.09C398.711 146.09 398.781 145.09 396.711 140.78L394.141 135.43L391.841 130.62C388.571 123.8 387.951 125.57 393.471 120.62L399.551 115.18L399.571 115.17ZM291.971 80.29C291.711 79.1327 291.265 78.025 290.651 77.01C290.191 76.4 289.081 75.29 288.651 74.68C288.221 74.07 286.821 72.17 286.471 71.68C286.121 71.19 285.751 70.61 285.551 70.35C285.351 70.09 282.841 66.61 281.671 65.08C280.776 64.0465 279.97 62.9392 279.261 61.77C279.108 60.8263 279.162 59.8603 279.421 58.94C279.638 57.6292 279.973 56.3406 280.421 55.09C281.195 53.5693 282.113 52.1261 283.161 50.78C284.105 49.6476 284.983 48.4623 285.791 47.23C286.568 46.2615 287.543 45.4704 288.651 44.91C290.15 44.3812 291.604 43.7359 293.001 42.98C294.591 42.04 297.001 40.75 298.571 39.98C300.84 38.7041 303.009 37.26 305.061 35.66C306.352 34.7717 307.587 33.8067 308.761 32.77C309.271 32.14 310.411 31.08 310.901 30.51C311.254 30.1688 311.51 29.7397 311.642 29.2668C311.774 28.794 311.777 28.2946 311.651 27.82C311.361 26.36 311.101 26.19 310.591 25.82C310.081 25.45 310.161 25.56 309.421 25.56C308.681 25.56 307.551 25.62 305.861 25.5C304.171 25.38 302.261 25.1 300.431 25.13C298.601 25.16 296.001 25.28 296.001 25.28C295.937 25.1318 295.837 25.0014 295.711 24.9C295.481 24.7 295.461 24.62 294.941 24.67C294.421 24.72 292.021 24.73 291.821 24.73C290.954 24.7731 290.091 24.8868 289.241 25.07C288.74 25.1531 288.273 25.3827 287.901 25.73C287.901 25.73 287.611 25.9 287.671 25.65C287.731 25.4 288.041 25.01 288.131 24.73C288.205 24.4312 288.205 24.1189 288.131 23.82C287.901 23.05 286.981 22.04 287.071 21.41C287.241 20.29 287.501 18.96 286.871 17.95C286.648 17.4475 286.483 16.9206 286.381 16.38C286.204 15.8413 285.973 15.322 285.691 14.83C285.408 14.3858 285.204 13.8949 285.091 13.38C285.101 12.6113 284.893 11.8554 284.491 11.2C284.138 10.3199 283.591 9.53039 282.891 8.88998C282.255 8.29985 281.458 7.91032 280.601 7.76999C279.741 7.62999 278.951 7.48 278.031 7.37C276.701 7.18404 275.349 7.22123 274.031 7.48001C272.642 7.79818 271.323 8.37119 270.141 9.17001C269.639 9.53415 269.22 10.0012 268.911 10.54C268.701 10.95 268.651 11.15 268.561 11.29C268.471 11.43 268.191 11.46 267.961 11.66C267.7 11.822 267.475 12.0366 267.301 12.29C267.125 12.586 266.984 12.9014 266.881 13.23C266.742 13.6979 266.547 14.1477 266.301 14.57C265.99 15.0063 265.716 15.4679 265.481 15.95C265.251 16.49 265.391 17.52 265.131 18.07C264.841 18.7981 264.594 19.5427 264.391 20.3C264.299 20.7477 264.055 21.15 263.701 21.44C263.338 21.7163 263.053 22.0813 262.871 22.5C262.769 22.7947 262.769 23.1153 262.871 23.41C262.871 23.79 262.951 24.33 262.951 24.33C262.733 24.0857 262.472 23.8825 262.181 23.73C261.691 23.47 262.011 23.56 261.181 23.41C260.557 23.282 259.939 23.1218 259.331 22.93C258.811 22.78 258.181 22.62 257.411 22.36C256.641 22.1 255.781 21.7 254.011 21.01C253.011 20.63 251.911 20.32 250.801 19.94C249.911 19.63 249.021 19.24 248.251 18.94C246.541 18.31 245.251 17.8 243.931 17.4C242.643 16.961 241.327 16.6069 239.991 16.34C238.841 16.17 237.591 15.85 236.901 15.8C236.554 15.6839 236.185 15.6444 235.821 15.6841C235.457 15.7238 235.106 15.8418 234.791 16.03C234.467 16.2326 234.191 16.5044 233.984 16.8259C233.776 17.1474 233.642 17.5108 233.591 17.89C233.309 18.605 233.277 19.3946 233.501 20.13C233.897 20.8161 234.366 21.4566 234.901 22.04C235.501 22.79 236.591 24.1 237.621 25.27C238.651 26.44 240.621 28.68 242.141 30.14C243.661 31.6 244.771 32.42 245.891 33.51C247.011 34.6 250.261 37.51 251.121 38.2C252.961 39.74 254.441 41.79 254.181 44.2C252.231 46.86 253.421 49.92 255.541 51.62C255.691 51.74 255.801 52.24 255.731 53.67C255.731 53.67 255.791 56.16 255.841 57.1C255.869 57.9829 255.966 58.8623 256.131 59.73C257.303 65.7525 258.89 71.6866 260.881 77.49C261.075 78.0229 261.235 78.5673 261.361 79.12C261.361 79.22 261.421 79.73 261.471 80.27L291.971 80.29ZM264.191 34.96C264.191 34.96 263.501 34.96 263.091 34.96C262.616 35.024 262.132 34.9865 261.671 34.85C261.281 34.64 261.301 34.57 260.851 34.09C260.154 33.4479 259.419 32.8469 258.651 32.29C257.741 31.5634 256.786 30.8954 255.791 30.29C254.671 29.61 251.701 28.09 250.691 27.65C249.576 27.1305 248.522 26.4864 247.551 25.73C247.086 25.3062 246.642 24.8589 246.221 24.39C246.221 24.39 248.651 24.73 249.881 25.07C251.111 25.41 255.561 26.72 256.611 27.07C257.661 27.42 258.671 27.46 259.201 28.21C259.731 28.96 260.461 30.21 261.051 30.94C261.641 31.67 262.151 32.22 262.151 32.22C262.125 32.581 262.165 32.9439 262.271 33.29C262.368 33.6447 262.597 33.9487 262.911 34.14C263.271 34.41 264.191 34.92 264.191 34.92V34.96ZM204.901 3.17001C206.491 4.01001 207.111 4.43 207.121 4.37L207.951 4.82999L209.331 5.66L209.701 5.94C212.127 7.29497 214.329 9.01511 216.231 11.04C217.157 12.0667 218.006 13.1596 218.771 14.31C219.441 15.2 221.141 16.52 221.141 17.75V18.03C221.141 20.6 214.561 30.49 213.001 32.31C211.111 34.5 209.651 36.15 206.171 36.74C204.65 36.9725 203.158 37.3681 201.721 37.92C200.401 38.45 198.851 38.86 198.811 40.64L198.721 40.91C198.481 41.28 197.891 43.91 197.651 44.64C197.221 45.89 196.921 47.05 196.471 48.27C195.73 50.5965 194.706 52.8231 193.421 54.9C192.171 56.97 190.861 58.69 189.561 60.64C188.261 62.59 188.941 62.21 188.941 64.64C188.941 66.3 189.031 67.72 189.031 69.44L189.101 69.72L188.661 74.23V74.51C188.661 74.83 190.041 76.46 190.041 77.74C190.041 78.31 189.851 78.94 190.041 79.31C190.231 79.68 190.601 80.03 190.601 80.51V80.97C190.471 81.5164 190.377 82.071 190.321 82.63H156.081C155.919 82.469 155.817 82.2573 155.791 82.03V81.93C155.791 80.93 156.461 79.69 156.531 78.93L155.331 79.04H154.331C152.892 78.869 151.544 78.2457 150.481 77.26C149.081 76.09 149.201 75.73 146.901 75.31C143.99 74.8237 141.179 73.8608 138.581 72.46C136.205 71.2238 134.039 69.6208 132.161 67.71C131.324 66.7089 130.426 65.7605 129.471 64.87C128.351 64.03 127.201 63.54 127.201 61.6V59.85C127.082 55.7742 128.454 51.795 131.061 48.66C132.186 47.2374 133.609 46.0799 135.231 45.27C136.671 44.55 139.231 43.83 140.031 42.59C140.031 37.65 145.631 32.72 150.641 32.72H150.921C151.761 32.72 152.701 33.46 153.511 33.46H153.791C153.991 33.46 154.601 32.69 154.911 32.46C155.33 32.161 155.767 31.8904 156.221 31.65C157.159 31.1709 158.124 30.7468 159.111 30.38C160.391 29.87 164.111 28.53 164.111 27.09V26.72C163.784 25.7617 163.393 24.8263 162.941 23.92C162.609 22.8522 162.41 21.7469 162.351 20.63H161.981C161.111 20.63 160.981 19.5 160.871 18.7C160.693 17.8155 160.573 16.9202 160.511 16.02V15.37C160.511 15.09 160.671 15.06 160.871 15V11.77C160.871 9.08999 161.541 8.06999 163.071 6.85999C164.517 5.68797 166.302 5.01452 168.161 4.94H169.271C170.373 4.8582 171.479 5.03536 172.5 5.45731C173.521 5.87925 174.429 6.53428 175.151 7.37C176.439 9.20472 177.156 11.3791 177.211 13.62C177.881 13.62 177.941 14.28 177.941 15V17.68C177.941 18.58 177.941 19.8 177.021 19.8C176.864 19.7932 176.709 19.7628 176.561 19.71V22.29C176.561 24.39 176.941 26.22 178.621 27.62C179.676 28.4741 180.889 29.1098 182.191 29.49C184.191 28.17 185.131 25.91 187.661 24.49C190.191 23.07 192.421 22.7 196.311 22.7C197.031 22.22 197.841 20.29 198.691 19.45C199.21 18.9163 199.832 18.4953 200.521 18.2131C201.209 17.9309 201.948 17.7937 202.691 17.81H203.421C204.032 17.7962 204.642 17.8703 205.231 18.03C206.431 18.37 206.121 18.17 206.101 17.44C204.518 16.2095 203.463 14.4214 203.151 12.44C202.861 11.85 202.731 10.78 202.431 10.3C202.085 9.67854 201.683 9.08953 201.231 8.54001C200.801 8.03001 198.581 5.88998 197.981 5.88998H197.341C196.981 6.55061 196.499 7.1375 195.921 7.62C195.041 8.29 194.201 7.80999 194.201 9.01999C193.481 9.50999 193.121 9.27001 192.441 9.67001C191.919 10.022 191.318 10.2416 190.691 10.31H190.321C189.421 10.31 186.911 8.80001 186.911 7.82001V7.45001C187.045 6.27476 187.341 5.12374 187.791 4.03C187.983 3.55028 188.282 3.1207 188.665 2.77408C189.048 2.42745 189.505 2.17295 190.001 2.03C191 1.5757 192.025 1.18167 193.071 0.850006C193.531 0.710006 196.331 0.09 196.461 0H198.951C199.291 0.21 199.881 0.130005 200.541 0.630005C200.941 1.01828 201.388 1.3543 201.871 1.63C202.907 2.09815 203.909 2.63604 204.871 3.23999L204.901 3.17001ZM142.611 60.85C143.051 61.49 143.301 61.16 143.711 62.33C143.931 62.96 144.121 63.56 144.331 64.2C144.492 64.8057 144.798 65.363 145.223 65.8232C145.649 66.2833 146.18 66.6324 146.771 66.84C147.771 67.36 149.281 67.84 149.971 68.71C150.661 69.58 151.371 70.81 152.861 70.81H153.321C154.151 70.81 154.921 69.81 156.321 69.81H157.981V68.33C157.994 66.5268 157.779 64.7293 157.341 62.98C156.309 61.9967 155.191 61.1066 154.001 60.32C151.885 58.2864 150.278 55.7818 149.311 53.01H149.131C148.417 54.1466 147.608 55.2205 146.711 56.22C146.241 56.71 145.801 57.12 145.321 57.6C144.841 58.08 144.321 58.39 143.771 58.82C143.521 58.96 141.931 59.46 141.931 59.75V59.93C142.06 60.2904 142.281 60.6109 142.571 60.86L142.611 60.85ZM289.521 31.85C289.751 31.92 290.111 32.19 290.281 32.17C290.451 32.15 290.521 31.92 290.641 31.85C290.816 31.782 291.007 31.7647 291.191 31.8C291.441 31.8 292.311 31.92 292.541 31.92H293.291C293.521 31.92 294.291 31.8 294.531 31.8H295.381C295.579 31.7794 295.772 31.7253 295.951 31.64C296.108 31.579 296.239 31.4661 296.321 31.32C296.321 31.18 296.431 30.98 296.431 30.98H297.301C297.711 30.98 298.761 31.07 299.041 31.07C299.321 31.07 299.341 31.16 299.341 31.16L297.551 31.74C296.851 31.96 295.081 32.67 294.231 33.01C293.381 33.35 291.321 34.2 291.071 34.32C290.758 34.4647 290.417 34.543 290.071 34.55C289.618 34.5696 289.171 34.6537 288.741 34.8C287.891 35 287.071 35.04 286.211 35.32C285.811 35.46 284.921 35.81 284.921 35.81C284.942 35.5989 285.022 35.3979 285.151 35.23C285.319 35.016 285.436 34.7662 285.491 34.5C285.581 34.23 285.551 33.93 285.651 33.68C285.746 33.4766 285.794 33.2544 285.791 33.03C285.791 32.73 285.791 32.41 285.791 32.41C285.791 32.41 285.791 32.36 286.031 32.3C286.271 32.24 286.491 31.9 286.651 31.77C286.811 31.64 286.721 31.63 286.951 31.47C287.062 31.38 287.199 31.3305 287.341 31.33C288.781 32.23 288.021 31.4 289.471 31.86L289.521 31.85ZM243.841 121.85C245.041 116.09 247.371 109.63 239.901 110.01C238.571 110.08 237.141 110.01 235.821 110.01C230.371 110.07 229.871 111.01 227.471 116.23L222.401 127.47C220.581 131.8 220.091 132.31 220.161 127.06L219.891 118.74C219.731 113.8 219.891 110.08 214.381 109.99C212.381 109.99 210.381 109.99 208.381 109.99C202.541 110.13 202.501 114.05 201.461 119.06L196.661 142.06C195.471 147.5 194.661 147.12 201.111 147.12C207.021 147.12 206.031 147.6 207.251 142.57L209.891 129.94C211.161 123.76 211.631 123.68 211.891 130.37L212.571 141.97C212.731 144.59 212.571 147.12 215.571 147.19C216.791 147.19 218.571 147.19 219.661 147.11C222.131 146.94 222.831 144.11 223.731 142.22L229.371 130.39C232.551 123.83 232.961 123.39 231.371 130.55L229.371 140.12C228.231 145.58 227.101 147.06 233.371 147.12C238.581 147.12 238.501 146.78 239.531 142.42L240.141 139.51L243.841 121.85Z" fill="white"/>
</svg>
