<svg width="524" height="405" viewBox="0 0 524 405" fill="none" xmlns="http://www.w3.org/2000/svg">
<path fill-rule="evenodd" clip-rule="evenodd" d="M247.48 0.539993C251.23 0.539993 255 0.71 258.71 0.0699997C261.08 -3.05474e-07 263.47 0.13 265.85 0L265.7 0.519997C269.21 0.399997 272.7 0.609997 276.25 0.519997V1.03999C278.36 1.03999 280.48 1.03999 282.6 1.03999L282.44 1.56C283.87 1.56 285.31 1.56 286.74 1.56L286.67 2.07999H289.91L289.79 2.60999C290.94 2.60999 292.09 2.61 293.24 2.71C294.24 3.44 295.55 3.06 296.7 3.13L296.59 3.68H298.79L298.66 4.21999H301.94L301.78 4.8L304.03 4.7L303.91 5.28999L306.11 5.21999L305.97 5.8C307.22 5.8 308.46 5.8 309.72 5.8L309.64 6.25C310.89 6.45 312.13 6.73 313.39 6.93L313.27 7.28C314.53 7.47 315.76 7.78 317.02 7.99L316.95 8.46L318.59 8.32L318.53 8.96L320.18 8.82999L320.1 9.43H322.23L322.18 10.03L323.84 9.91L323.78 10.68L324.84 10.22L324.75 10.99H326.96L326.82 11.5C327.502 11.4277 328.187 11.6132 328.74 12.02H330.09L330.04 12.76L331.05 12.27L330.98 12.94C332.06 13.15 333.14 13.4 334.23 13.64L334.09 14.05C335 14.26 335.92 14.5 336.85 14.69L336.77 15.34L337.85 14.93L337.76 15.58C339.09 15.77 340.21 16.63 341.55 16.81L341.45 17.45L342.53 17.07V17.92L343.59 17.53L343.53 18.29L345.21 18.23L345.12 19L346.19 18.63V19.49L347.26 19.2V19.99L348.31 19.7V20.55L349.36 20.19V21.01L350.45 20.78V21.57L351.56 21.27V22.1L352.64 21.77L352.58 22.62L353.67 22.27V23.17L354.76 22.77L354.58 23.58L355.37 23.41L355.23 24.18L356.29 23.83V24.7L357.36 24.36V25.22L358.36 24.93C358.36 25.21 358.43 25.77 358.46 26.04C359.14 26.04 359.83 26.1 360.53 26.13C360.53 26.38 360.44 26.88 360.42 27.13H362.1L361.92 27.71C362.67 27.94 363.41 28.17 364.16 28.38V29.1C365.71 29.45 366.76 30.9 368.41 30.97L368.29 31.9L369.37 31.82L369.44 32.46L370.54 32.37C370.54 32.63 370.42 33.15 370.39 33.42H372.01V34.16L373.06 33.85C373.06 34.09 373.06 34.57 373.06 34.85C374.839 35.5445 376.436 36.6355 377.73 38.04C380.13 38.69 381.16 41.42 383.56 42.04C383.56 42.27 383.56 42.73 383.5 42.97C383.73 42.92 384.19 42.85 384.42 42.81L385.24 44.06L386.24 43.88C386.24 44.12 386.16 44.59 386.12 44.82C389.24 46 390.89 49.34 393.69 51.08C398.54 55.61 403.2 60.37 407.79 65.19C408.302 65.6557 408.652 66.2721 408.79 66.95H409.69C409.69 67.22 409.69 67.78 409.64 68.05H410.56C411.07 70.48 414.02 71.39 414.56 73.84H415.56L415.27 74.92L415.83 74.85C415.875 75.367 416.065 75.8608 416.378 76.2747C416.691 76.6886 417.115 77.0058 417.6 77.19L417.48 78.08L418.43 77.95C418.486 78.4346 418.654 78.8996 418.919 79.309C419.184 79.7183 419.541 80.0609 419.96 80.31C420.515 81.3438 421.154 82.3304 421.87 83.26H422.12C422.16 83.7598 422.337 84.2388 422.632 84.6445C422.927 85.0502 423.327 85.3669 423.79 85.56V86.93H424.88C424.83 87.21 424.72 87.77 424.67 88.04L425.51 87.98C425.41 88.24 425.23 88.75 425.14 88.98L425.94 88.91L425.77 89.7L426.05 89.27C426.05 90.99 427.89 91.93 428.28 93.56H428.75C428.75 93.94 428.75 94.73 428.75 95.12H429.87C429.81 95.39 429.69 95.95 429.64 96.22H430.47C430.38 96.49 430.19 97.02 430.1 97.28L430.87 97.2C430.87 97.63 430.87 98.48 430.87 98.91L431.97 98.76L431.77 99.91H432.51C432.45 100.19 432.35 100.74 432.29 101.02L433.13 100.94L432.73 102.01L433.5 101.92C433.5 102.33 433.5 103.16 433.5 103.58L434.63 103.52C434.56 103.8 434.43 104.37 434.36 104.65L434.98 104.52C435.19 105.44 435.43 106.36 435.65 107.28L436.32 107.2C436.23 107.46 436.04 107.99 435.95 108.26L436.53 108.19C437.057 109.037 437.464 109.952 437.74 110.91L438.12 110.8C438.33 111.71 438.58 112.62 438.8 113.53L439.45 113.45L439.1 114.5H439.92L439.6 115.57H440.45C440.36 115.84 440.19 116.37 440.11 116.64L440.71 116.54C440.83 117.89 441.82 118.95 441.9 120.32L442.31 120.2C442.52 121.11 442.77 122.01 442.97 122.93L443.38 122.78C443.57 123.71 443.8 124.63 444.01 125.57L444.69 125.48L444.05 126.37L444.82 126.26C444.82 127 444.82 127.75 444.88 128.49L445.82 128.34C445.82 129.09 445.82 129.83 445.82 130.58L446.42 130.48C446.42 130.89 446.32 131.71 446.29 132.12H446.94C446.94 132.52 446.86 133.34 446.83 133.75L447.46 133.62C447.46 134.04 447.39 134.88 447.37 135.3H448.16C448.04 135.56 447.81 136.09 447.69 136.36L448.34 136.26C448.54 137.52 448.82 138.77 449.05 140.04L449.52 139.94C449.52 140.34 449.47 141.16 449.45 141.57H450.06C450.06 141.98 449.96 142.8 449.93 143.2L450.6 143.11C450.6 143.53 450.5 144.37 450.46 144.79L450.97 144.64C451.14 145.91 451.44 147.16 451.65 148.43L452.03 148.33C452.03 151.24 453.73 153.83 453.71 156.76H454.17C454.17 157.65 454.17 158.54 454.17 159.43L454.62 159.32C455.04 162.7 456.29 165.97 456.29 169.4L456.8 169.19C456.8 170.45 456.8 171.71 456.8 172.97L457.29 172.91C457.1 175.4 458.15 177.8 457.85 180.3L458.36 180.18C458.05 183.4 459.25 186.53 458.86 189.76L459.4 189.55C459.33 192.04 459.5 194.55 459.4 197.02L459.9 196.89C459.82 202.74 459.99 208.61 459.85 214.46C459.405 217.841 459.235 221.252 459.34 224.66L458.82 224.53C458.82 226.53 458.82 228.53 458.82 230.53L459.54 230.25L459.31 230.94C466.92 230.87 474.54 230.94 482.16 230.94C484.02 230.85 485.79 231.66 487.67 231.5L487.56 231.9C488.81 232.09 490.03 232.39 491.29 232.61L491.23 232.96C492.162 233.036 493.082 233.224 493.97 233.52L493.87 234.13L495.51 234L495.39 234.51C496.72 234.67 497.78 235.56 499.09 235.78C499.09 235.98 499.09 236.37 499.09 236.56C499.96 236.82 500.85 237.1 501.74 237.34L501.66 238.21L503.28 238.29V239.14L504.58 239.6C507.07 241.7 509.06 244.4 511.72 246.28L511.56 247.16L512.69 247.1V248.76L513.69 248.59V250.27H514.83C514.76 250.55 514.6 251.12 514.53 251.4L515.3 251.26C515.3 251.68 515.3 252.53 515.25 252.94L516.4 252.84L516.16 253.98H516.99L516.63 255.05L517.37 254.92C517.37 255.34 517.37 256.18 517.37 256.59L518.09 256.53L517.8 257.65H518.86C518.86 258.37 518.86 259.09 518.93 259.81L519.69 259.74C519.58 260 519.34 260.51 519.22 260.74L519.97 260.68C519.97 261.3 519.99 261.93 520.03 262.57C520.409 262.846 520.704 263.223 520.88 263.658C521.057 264.092 521.109 264.568 521.03 265.03L521.44 264.93C522.09 270.05 523.32 275.15 523.07 280.36C523.07 306.12 523.07 331.88 523.07 357.64C522.95 359.64 522.37 361.64 522.6 363.64L522.11 363.54C522.25 366.25 521.05 368.78 520.93 371.47L520.26 371.41L520.74 372.46L519.95 372.39L520.03 374.11L519.29 374.02L519.69 375.08L518.91 375.01C518.91 375.44 518.96 376.27 518.98 376.69L518.25 376.64C518.34 376.9 518.51 377.42 518.6 377.69H517.74C517.82 377.95 517.99 378.47 518.08 378.69H517.35C517.35 379.1 517.35 379.91 517.41 380.32L516.7 380.24C516.7 380.53 516.85 381.08 516.91 381.37L515.78 381.27C515.78 381.69 515.83 382.51 515.84 382.92L515.36 382.8C514.65 385.19 512.36 386.66 511.36 388.91C509.57 390.3 508.36 392.29 506.36 393.52C505.04 394.27 504.36 396.01 502.69 396.09V396.98H501.06C501.06 397.21 501.16 397.67 501.19 397.9C500.43 398.1 499.68 398.33 498.94 398.57L499.02 399.22L498.02 398.88V399.71L497.02 399.45V400.25L495.96 399.98V400.82L494.9 400.44L494.97 401.06C493.91 401.33 492.86 401.6 491.78 401.79V402.25L490.14 402.12L490.26 402.78L488.58 402.65L488.67 403.19C486.01 403.19 483.46 404.19 480.78 403.78V404.27C436.727 404.19 392.68 404.19 348.64 404.27L348.41 402.78L348.17 404.27C292.637 404.21 237.103 404.21 181.57 404.27L181.33 402.75L181.09 404.27C134.423 404.197 87.7833 404.197 41.17 404.27V403.79C39.93 403.79 38.7 403.79 37.46 403.79L37.56 403.27C36.5 403.27 35.43 403.27 34.37 403.27V402.69L32.79 402.81V402.2L31.21 402.29V401.69L29.6 401.79L29.7 401.27C28.79 401.06 27.89 400.82 26.99 400.62L27.1 400.21C26.0346 399.903 24.9529 399.656 23.86 399.47C23.92 399.28 24.01 398.89 24.06 398.7C22.65 398.3 21.64 397.1 20.18 396.84C20.18 396.67 20.29 396.31 20.33 396.14C18.25 395.95 17.59 393.33 15.49 393.21C15.49 393.05 15.57 392.72 15.6 392.55C14.11 391.8 13.19 390.36 12.08 389.19C11.33 387.9 9.88 387.06 9.64 385.51L8.75 385.59C8.75 385.17 8.75 384.34 8.75 383.93L7.61 384C7.67 383.73 7.81 383.17 7.89 382.9L7.28 382.97C7.27656 382.456 7.1221 381.955 6.83583 381.528C6.54957 381.101 6.14414 380.768 5.67 380.57C5.67 380.23 5.67 379.57 5.67 379.21L5.05 379.32C5.05 378.91 5.12 378.07 5.14 377.65L4.36 377.71C4.46 377.44 4.67 376.91 4.77 376.65L4.13 376.74C4.13231 375.831 3.80147 374.952 3.2 374.27C3.2 373.89 3.2 373.12 3.2 372.73L2.61 372.81C2.61 372.4 2.7 371.59 2.72 371.17L2.05 371.27C2.05 370.85 2.16 370 2.2 369.58L1.58 369.69L1.64 367.48L1.1 367.59C1.32 364.91 0.239999 362.33 0.529999 359.65L0 359.83C0.13 331.5 -0.0999994 303.17 0.110001 274.83C0.760001 273.43 0.509999 271.83 0.529999 270.37L1.04 270.49C0.810001 268.49 1.57 266.6 1.69 264.63L2.1 264.8C2.2 263.28 3.04 261.95 3.19 260.44L3.73 260.59C3.73 260.16 3.66 259.3 3.63 258.87L4.4 258.98C4.3 258.71 4.1 258.17 3.99 257.9H4.86C4.79 257.63 4.63 257.11 4.56 256.84L5.16 256.93C5.42 254.53 7.7 252.93 8.01 250.53L8.73 250.7C9.64 247.86 12.53 246.18 13.8 243.49C14.26 243.2 14.72 242.91 15.19 242.64C17.56 240.43 19.96 237.98 23.05 236.84C23.05 236.66 22.95 236.29 22.91 236.11C23.75 235.89 24.58 235.65 25.41 235.4C26.3374 234.529 27.5176 233.976 28.78 233.82L28.67 233.3L30.34 233.43L30.24 232.79L31.91 232.92L31.79 232.26L33.49 232.4L33.34 231.78L36.09 231.83L35.97 231.34C37.67 231.34 39.29 230.67 40.97 230.75C48.41 230.75 55.85 230.75 63.29 230.75L63.13 230.01L64.23 230.43C64.3882 228.376 64.3279 226.311 64.05 224.27C63.39 221.18 64.12 217.98 63.34 214.91C63.08 209.06 63.34 203.18 63.24 197.32L63.73 197.37C63.31 192.8 64.61 188.37 64.3 183.76H64.82C64.82 182.51 64.82 181.28 64.82 180.04L65.34 180.15C65.34 178.56 65.34 176.97 65.34 175.39H65.78C66.14 170.61 67.45 165.95 68 161.21L68.72 161.27L68 160.22L68.89 160.29L68.95 156.51L69.42 156.66C69.51 155.2 69.89 153.78 70.08 152.34L70.56 152.47C70.56 151.74 70.56 151 70.56 150.26L71.17 150.37L71.01 148.69L71.65 148.82L71.59 146.63L72.03 146.68C72.26 145.45 72.56 144.22 72.77 142.98L73.26 143.03C73.26 142.63 73.15 141.82 73.11 141.41H73.62C73.7454 140.153 73.9762 138.908 74.31 137.69L74.69 137.78C75.02 135.58 76.3 133.64 76.43 131.4L77.12 131.5C76.99 131.24 76.73 130.71 76.59 130.5H77.4C77.4 130.09 77.33 129.27 77.31 128.85L77.95 128.95C77.95 128.53 77.88 127.68 77.85 127.26L78.62 127.32C78.52 127.05 78.3 126.53 78.2 126.32L78.98 126.4C78.98 125.97 78.92 125.11 78.89 124.68L79.65 124.76C79.55 124.5 79.35 123.97 79.24 123.7L79.91 123.77C80.12 122.85 80.36 121.93 80.58 121.01L81.24 121.12L80.8 120.04L81.57 120.11C81.57 119.69 81.57 118.85 81.51 118.43L82.26 118.52L81.9 117.44H82.75C82.66 117.16 82.5 116.61 82.42 116.34H83.27C83.18 116.07 82.99 115.53 82.89 115.27L83.54 115.33C83.81 114.25 84.1 113.17 84.31 112.08L85.19 112.22C85.19 111.79 85.19 110.95 85.19 110.52L85.95 110.6L85.59 109.55H86.43L86.15 108.46H87.02C86.91 108.2 86.7 107.66 86.59 107.39L87.43 107.49C87.43 107.22 87.29 106.67 87.24 106.4L87.98 106.34L87.74 105.25L88.57 105.35C88.47 105.09 88.29 104.55 88.2 104.28H89.05C88.98 104.01 88.83 103.47 88.76 103.21L89.37 103.27C89.42 102.42 89.57 101.58 90.56 101.43L90.28 100.58H91.16L90.8 99.5L91.62 99.57C91.56 99.29 91.45 98.73 91.39 98.45H92.39C92.61 97.37 92.9 96.31 93.18 95.24L93.98 95.42C94.27 94.28 94.98 93.32 95.33 92.2H96.17C96.17 91.79 96.17 90.96 96.17 90.55L97.41 90.66C97.24 90.38 96.91 89.8 96.74 89.51L97.64 89.7C97.8359 88.8524 98.0933 88.0202 98.41 87.21C99.63 86.44 100.07 84.93 101.04 83.9L101.48 83.84C101.48 83.59 101.38 83.09 101.35 82.84H102.03L101.87 82.14L102.66 82.27C102.57 82.01 102.39 81.5 102.29 81.27L103.14 81.36C103.14 81.09 103 80.52 102.95 80.25H103.88C104.14 78.25 106.6 77.51 106.8 75.46L107.74 75.55L107.58 74.42L108.49 74.47C108.39 74.2 108.18 73.67 108.07 73.41H109.39C109.32 73.14 109.17 72.61 109.1 72.33H109.61C110.53 70.27 113.11 69.33 113.61 67.09H114.61C114.56 66.87 114.45 66.44 114.4 66.22C114.998 65.9976 115.527 65.6219 115.935 65.1305C116.342 64.639 116.613 64.0491 116.72 63.42H117.37C119.16 60.91 121.8 59.15 123.59 56.62L124.52 56.68C124.46 56.46 124.33 56.01 124.26 55.79C125.239 55.3208 126.069 54.5907 126.66 53.68C128.04 52.54 129.23 51.2 130.66 50.15V49.53C131.378 49.3122 132.044 48.9508 132.618 48.4678C133.193 47.9848 133.663 47.3901 134 46.72H134.89L134.77 45.84C136.51 45.53 137.61 43.99 138.72 42.74C140.19 42.25 140.98 40.74 142.48 40.25C143.128 39.2548 144.128 38.5406 145.28 38.25C145.28 38.07 145.28 37.71 145.28 37.53C146.73 37.36 147.56 35.97 148.95 35.66V35.27L150.01 35.53L149.89 34.42H151.56C151.56 34.2 151.49 33.77 151.46 33.55C151.974 33.5209 152.47 33.3481 152.891 33.051C153.312 32.754 153.64 32.3448 153.84 31.87L155.22 31.8C155.22 31.55 155.22 31.04 155.17 30.8H156.87C156.82 30.58 156.71 30.12 156.66 29.89C157.56 29.64 158.46 29.37 159.37 29.13L159.29 28.59L160.04 28.7C159.98 28.45 159.84 27.93 159.78 27.7L161.53 27.77L161.4 27.12H163.02C163.02 26.83 163.02 26.27 163.02 25.98L164.1 26.23V25.41L165.15 25.72V24.93L166.28 25.12L166.2 24.12C167.85 24.28 168.83 22.64 170.49 22.8C170.49 22.57 170.34 22.12 170.29 21.89H172.01V21.15L173.06 21.54V20.68L174.14 20.95V20.12L175.22 20.47L175.13 19.87C177.01 19.36 178.63 18.19 180.49 17.61L180.39 17.1L182.05 17.25L181.92 16.58L183.65 16.64C183.59 16.38 183.49 15.87 183.44 15.64H185.15L185.1 15.03L186.75 15.12L186.68 14.34L187.68 14.75V14L189.36 14.08L189.31 13.33L190.31 13.75L190.25 12.97L191.93 13.03L191.85 12.24L192.91 12.7V11.93L194.58 12.04L194.47 11.42H196.61L196.56 10.86H198.74L198.64 9.93999L199.64 10.6V9.89C201.48 9.89 203.08 8.74 204.93 8.7V8.31C207.5 8.2 209.71 6.49 212.32 6.63L212.16 6.13L214.05 6.27V5.71999L217.84 5.64999C217.79 5.42999 217.68 4.98 217.63 4.75C221.74 4.91 225.63 2.97 229.72 3.07V2.60999C231.29 2.60999 232.87 2.55 234.44 2.55L234.32 2.00999C235.96 1.87999 237.76 2.38 239.32 1.57C240.48 1.5 241.65 1.49 242.82 1.5L242.73 0.979996C244.32 0.979996 245.91 0.979996 247.49 0.979996V0.509995L247.48 0.539993ZM250.94 13.95C247.41 13.95 243.94 14.49 240.42 14.75C239.411 15.0348 238.369 15.1861 237.32 15.2C232.588 15.7472 227.889 16.5416 223.24 17.58C219.56 18.29 215.9 19.17 212.29 20.21C211.21 20.49 210.13 20.79 209.05 21.05L208.69 21.27C199.516 23.9626 190.569 27.3732 181.93 31.47C180.1 32.29 178.44 33.47 176.52 34.07L176.45 34.55L175.72 34.46C169.91 37.91 163.96 41.17 158.43 45.09C132.956 62.6616 112.348 86.4 98.53 114.09C94.9556 121.227 91.8166 128.574 89.13 136.09C88.88 136.74 88.62 137.4 88.37 138.09C87.9 139.51 87.37 140.91 87.05 142.38C86.79 143.05 86.52 143.72 86.24 144.38C86.24 144.65 86.1 145.2 86.05 145.47C85.204 147.874 84.4962 150.325 83.93 152.81C83.65 153.65 83.41 154.51 83.15 155.36C83.06 155.88 82.96 156.41 82.86 156.94C82.65 157.63 82.48 158.33 82.31 159.03C81.93 160.58 81.59 162.15 81.31 163.72C80.45 166.62 80.31 169.67 79.57 172.6C79.4696 173.649 79.2891 174.689 79.03 175.71C78.8522 178.169 78.5182 180.614 78.03 183.03C77.79 184.76 78.03 186.55 77.5 188.24C77.4151 190.522 77.2149 192.798 76.9 195.06C76.64 203.06 76.56 211.06 76.98 219.06C77.48 220.92 77.27 222.87 77.51 224.76C78 228.25 78.45 231.76 79.09 235.23C79.51 236.96 79.76 238.72 80.14 240.46C80.4363 241.573 80.5942 242.718 80.61 243.87C68.61 243.93 56.68 243.87 44.71 243.87C42.77 243.94 40.86 244.27 38.92 244.43C36.0882 245.006 33.3559 245.993 30.81 247.36C23.39 251.36 18.02 258.56 15.38 266.49C15.2 267.02 15.03 267.54 14.84 268.08C14.0117 271.149 13.5782 274.311 13.55 277.49C13.55 303.77 13.55 330.05 13.55 356.33C13.35 369.49 20.89 382.99 33.17 388.33C33.9 388.58 34.63 388.84 35.35 389.11C38.1893 390.116 41.1887 390.594 44.2 390.52C187.433 390.52 330.663 390.52 473.89 390.52C478.06 390.45 482.35 390.89 486.38 389.52L487.48 389.35L489.48 388.35H490.03C494.029 386.484 497.618 383.844 500.591 380.583C503.564 377.322 505.861 373.504 507.35 369.35C507.53 368.83 507.72 368.3 507.92 367.79L508.21 366.79C508.768 365.097 509.13 363.345 509.29 361.57C509.633 359.495 509.757 357.39 509.66 355.29C509.66 329.89 509.66 304.487 509.66 279.08C509.827 273.709 508.803 268.368 506.66 263.44C503.421 255.641 497.289 249.399 489.55 246.02C485.169 244.521 480.559 243.804 475.93 243.9H450.33C447.431 244 444.528 243.91 441.64 243.63L442.72 243.31C442.689 242.337 442.81 241.365 443.08 240.43C445.355 229.965 446.515 219.289 446.54 208.58C446.82 192.95 444.77 177.38 441.54 162.1C441.14 160.56 440.77 159.01 440.49 157.45C440.24 156.57 440.01 155.69 439.78 154.82C439.61 154.13 439.43 153.43 439.23 152.75C439.16 152.48 439.04 151.94 438.97 151.67C438.7 150.8 438.44 149.93 438.16 149.08C438.16 148.8 438.03 148.26 437.98 147.99C437.46 146.64 437.11 145.24 436.67 143.87C436.48 143.34 436.29 142.81 436.11 142.28C436.05 142.02 435.92 141.49 435.86 141.22C435.66 140.7 435.49 140.22 435.32 139.65C435.07 138.96 434.84 138.28 434.58 137.65C433.9 135.75 433.22 133.85 432.47 131.97L431.69 129.74C431.12 128.54 430.59 127.32 430.1 126.09C423.993 111.527 416.096 97.7808 406.59 85.17C389.009 61.7913 365.939 43.104 339.42 30.76L339.33 30.48C338.378 30.2629 337.458 29.9269 336.59 29.48C326.966 25.1899 316.984 21.7501 306.76 19.2C301.76 17.95 296.69 16.93 291.6 16.07C287.4 15.47 283.21 14.79 278.97 14.51C276.26 13.9 273.44 14.51 270.75 13.81C264.82 13.55 258.88 13.65 252.95 13.75C252.274 13.7659 251.603 13.8633 250.95 14.04L250.94 13.95ZM209.84 34.95C209.1 37.32 209.73 39.84 209.26 42.24C208.26 45.24 205.84 47.49 203.59 49.6C203.467 49.7732 203.31 49.919 203.127 50.028C202.945 50.137 202.742 50.2069 202.532 50.2333C202.321 50.2596 202.107 50.2418 201.904 50.181C201.7 50.1201 201.512 50.0177 201.35 49.88C199.828 48.6939 198.682 47.0928 198.05 45.27C197.87 43.59 197.96 41.9 197.92 40.21H194.28C194.35 42.0693 194.28 43.9312 194.07 45.78C193.07 48.28 190.77 49.78 188.96 51.64C186.08 54.0315 183.744 57.0115 182.11 60.38C180.79 63.31 181 66.6 181.3 69.72C181.49 70.25 181.67 70.78 181.86 71.33C183.11 74.88 185.7 77.66 188.17 80.41C203.75 80.5 219.34 80.41 234.92 80.41C238.37 76.84 241.44 72.65 242.14 67.61C242.83 61.01 238.46 55.4 233.83 51.27C231.83 49.6 229.71 47.79 228.77 45.27C228.77 43.58 228.77 41.89 228.77 40.19H225.05C225.104 41.9407 225.067 43.693 224.94 45.44C224.24 47.73 222.22 49.2 220.58 50.8C217.58 47.8 213.69 45.01 213.12 40.46C213.07 38.62 213.07 36.79 213.06 34.96C211.97 34.96 210.89 34.96 209.8 34.91L209.84 34.95ZM210.96 50.12C207.25 54.44 201.89 57.43 199.56 62.83C199.13 64.1881 199.051 65.633 199.33 67.03C199.72 70.12 201.94 72.44 203.84 74.72C208.91 74.8 213.98 74.84 219.04 74.72C220.49 72.93 222.12 71.2 223.04 69.04C223.86 67.27 223.59 65.27 223.49 63.38C221.2 57.11 214.43 54.26 211.15 48.71C211.15 49.19 211.05 49.71 210.99 50.14L210.96 50.12ZM195.74 52.65C192.85 56.1 188.92 58.72 187.01 62.92C186.951 63.8023 186.79 64.6748 186.53 65.52C186.53 65.92 186.53 66.71 186.53 67.11C186.78 67.97 187.01 68.85 187.24 69.72C188.133 71.5217 189.252 73.2019 190.57 74.72C192.57 74.78 194.57 74.72 196.57 74.72C194.496 71.8976 193.462 68.4444 193.644 64.9465C193.826 61.4485 195.214 58.1215 197.57 55.53C198.68 54.42 197.22 53.28 196.47 52.53C196.37 52.18 196.19 51.47 196.09 51.12C196.01 51.51 195.85 52.3 195.76 52.7L195.74 52.65ZM224.98 54.65C225.07 55.47 225.83 56.03 226.24 56.71C227.267 58.1083 228.079 59.652 228.65 61.29L228.88 62.36C229.586 65.1123 229.404 68.0173 228.36 70.66C227.909 72.1388 227.145 73.5031 226.12 74.66C228.19 74.66 230.27 74.75 232.34 74.71C233.807 73.2772 234.991 71.581 235.83 69.71C236.01 69.19 236.2 68.66 236.41 68.14C236.644 66.5849 236.576 64.9993 236.21 63.47C234.957 60.58 233.03 58.0323 230.59 56.04C229.09 54.65 227.46 53.17 226.88 51.13C226.75 52.57 225.64 53.51 224.98 54.69V54.65ZM451.91 271.12C447.785 271.752 443.804 273.106 440.15 275.12C434.15 278.78 430.02 284.97 427.82 291.56C427.64 292.23 427.46 292.92 427.27 293.56C425.935 299.617 425.564 305.847 426.17 312.02C427.57 322.58 435.52 330.47 439.54 340.02C439.98 341.41 440.2 342.85 440.54 344.27C440.66 346.05 440.63 347.84 440.61 349.63C445.256 351.141 450.126 351.851 455.01 351.73C461.81 351.6 467.87 347.66 472.31 342.73C475.79 339.21 478.16 334.82 480.45 330.48L483.5 330.37C483.5 328.837 483.5 327.307 483.5 325.78C475.97 325.72 468.44 325.78 460.91 325.72C460.64 327.18 460.08 329.07 461.02 330.35C462.27 330.45 463.54 330.42 464.8 330.42C464.817 331.402 464.641 332.377 464.28 333.29C464.23 333.56 464.13 334.11 464.09 334.38C463.81 335.05 463.54 335.73 463.29 336.38C462.376 339.023 460.819 341.398 458.76 343.29C457.052 344.897 454.957 346.034 452.679 346.591C450.401 347.148 448.017 347.107 445.76 346.47C445.76 343.98 446.56 341.54 446.35 339.04C446.47 332.04 444.35 325.41 443.09 318.64C442.8 317.44 442.68 316.21 442.39 315.01C442.18 313.22 441.89 311.44 441.63 309.66C444.16 306.37 448.34 304.05 452.58 304.84C455.14 305.84 456.37 308.6 456.99 311.13C456.04 311.13 455.08 311.13 454.13 311.13C453.752 312.663 453.637 314.249 453.79 315.82C461.04 315.91 468.29 315.89 475.54 315.82C475.633 314.277 475.508 312.728 475.17 311.22C474 311.22 472.84 311.17 471.68 311.12C471.41 310.12 471.11 309.17 470.8 308.2C469.679 305.907 468.08 303.88 466.11 302.257C464.14 300.633 461.845 299.451 459.38 298.79C454.623 297.867 449.695 298.863 445.67 301.56C444.31 302.47 443.34 303.92 441.76 304.56C441.63 305 441.5 305.43 441.38 305.87C440.95 299.72 440.93 293.43 442.6 287.45C442.66 287.17 442.79 286.62 442.85 286.35C443.03 285.83 443.2 285.35 443.39 284.79C444.294 282.091 445.854 279.658 447.93 277.71C450.47 275.43 454.29 275.13 457.42 276.2C460.55 277.27 462.56 280.32 463.8 283.28C464.05 283.96 464.31 284.64 464.58 285.28C464.63 285.56 464.72 286.12 464.76 286.4C464.976 286.974 465.14 287.567 465.25 288.17L462.57 288.24C462.57 289.78 462.57 291.32 462.57 292.87C469.73 292.923 476.89 292.923 484.05 292.87C484.05 291.31 484.05 289.77 484.05 288.22H479.98C479.85 287.9 479.61 287.27 479.48 286.95C478.305 283.488 476.337 280.348 473.732 277.782C471.128 275.215 467.959 273.294 464.48 272.17C460.412 271.024 456.159 270.685 451.96 271.17L451.91 271.12ZM39.05 272.49C39.05 274.05 39.05 275.61 39.11 277.18C41.41 277.18 43.71 277.18 46.01 277.18C45.95 280.27 46.44 283.33 46.01 286.4C46.14 290.58 46.24 294.73 46.21 298.9C46.21 300.13 46.62 301.44 45.94 302.56C46.67 304.89 46.28 307.48 46.12 309.9C46.49 313.53 46.21 317.19 46.3 320.84C46.44 325.02 45.83 329.18 46.3 333.36C45.94 337.41 46.11 341.48 46.04 345.54C43.71 345.54 41.39 345.54 39.04 345.54C39.04 347.1 39.04 348.64 39.04 350.2C46.8 350.25 54.57 350.2 62.34 350.2C63.4825 350.203 64.6222 350.086 65.74 349.85C65.74 348.41 65.74 346.98 65.74 345.55C63.83 345.55 61.91 345.49 60 345.47C59.733 344.214 59.589 342.934 59.57 341.65C59.62 330.65 59.57 319.65 59.63 308.6L60.49 308.25L59.63 307.89C59.52 298.95 59.63 290.02 59.57 281.09C59.5648 279.746 59.7022 278.405 59.98 277.09C66.26 277.09 72.53 277.09 78.81 277.09C79.0884 278.916 79.2122 280.763 79.18 282.61C78.8499 284.508 78.7792 286.443 78.97 288.36C79.3063 289.759 79.3539 291.212 79.11 292.63C78.8684 295.026 78.8216 297.437 78.97 299.84C79.66 301.91 78.78 304.03 78.88 306.13C78.74 307.87 79.41 309.61 78.98 311.33C78.98 311.72 78.98 312.51 78.98 312.91C79.2218 313.751 79.2999 314.63 79.21 315.5C78.8999 316.339 78.8999 317.261 79.21 318.1C78.795 320.864 78.795 323.675 79.21 326.44C78.72 328.44 79.04 330.44 78.92 332.44L79.38 332.49C79.1471 332.929 79.0154 333.415 78.9946 333.911C78.9739 334.408 79.0645 334.903 79.26 335.36C79.19 335.74 79.06 336.49 78.99 336.87C79.18 339.69 78.83 342.55 78.91 345.4L73.13 345.47C73.13 346.88 73.13 348.3 73.13 349.72C74.4115 349.973 75.7138 350.107 77.02 350.12C84.61 350.12 92.2 350.12 99.79 350.12C99.84 348.57 99.85 347.02 99.79 345.48C97.5 345.48 95.19 345.43 92.9 345.48C92.6982 344.219 92.5713 342.946 92.52 341.67C92.52 321.29 92.52 300.913 92.52 280.54C92.5567 279.391 92.6636 278.246 92.84 277.11C95.15 277.11 97.45 277.11 99.77 277.11C99.77 275.56 99.77 274 99.77 272.45C79.53 272.41 59.2867 272.41 39.04 272.45L39.05 272.49ZM122.93 307.07C119.18 308.64 116.21 311.5 113.65 314.59C112.548 315.891 111.672 317.368 111.06 318.96L110.77 319.1C110.34 320.22 109.87 321.33 109.42 322.45C109.25 322.96 109.08 323.45 108.91 324C107.83 327.19 107.91 330.58 107.98 333.91C108.15 336.5 107.74 339.17 108.42 341.7C108.66 343.43 108.42 345.25 108.96 346.93C109.22 349 108.88 351.15 109.48 353.17C109.78 359.35 109.72 365.54 109.67 371.73H110.19L110.07 372.73C111.466 372.912 112.885 372.729 114.19 372.2C115.468 370.833 116.371 369.159 116.81 367.34C116.96 364.7 117.6 362.09 117.29 359.45C116.82 355.98 117.16 352.45 116.64 349C116.437 347.459 116.383 345.902 116.48 344.35L117.02 345.98C118.47 347.17 119.64 348.67 121.27 349.65C124.02 351.54 127.7 352.58 130.91 351.29C134.68 349.9 137.26 346.43 138.5 342.72C140.29 337.72 140.15 332.29 139.19 327.13C139 326.42 138.83 325.71 138.65 325C138.49 324.48 138.32 324 138.15 323.44C137.8 322.56 137.48 321.66 137.15 320.76C134.7 315.28 131.15 309.76 125.6 307.02C124.7 307.02 123.8 307.02 122.9 307.07H122.93ZM115.79 320.93C114.806 324.637 114.585 328.505 115.14 332.3C115.63 335.931 117.045 339.374 119.25 342.3C120.91 344.23 122.92 346.3 125.59 346.55C127.59 346.69 128.93 344.96 129.96 343.55C129.96 343.24 130.09 342.63 130.13 342.32C130.746 339.577 130.774 336.734 130.21 333.98C130.01 333.3 129.83 332.61 129.64 331.93C129.165 330.111 128.546 328.332 127.79 326.61C126.34 322.928 124.061 319.629 121.13 316.97C120.34 316.27 119.31 315.88 118.7 314.97C117.7 316.97 116.33 318.79 115.79 320.97V320.93ZM205.65 307.93C200.2 311.77 196.48 317.68 194.34 323.93C194.02 325.16 193.73 326.4 193.44 327.64C192.99 330.254 192.94 332.921 193.29 335.55C194.65 341.84 198.68 347.33 203.69 351.26C205.87 352.77 208.85 354.36 211.45 352.87C214.549 350.819 217.152 348.103 219.07 344.92C222.77 339 225.53 332.08 224.86 324.99C224.438 321.682 223.302 318.505 221.53 315.68C218.899 311.75 215.105 308.74 210.68 307.07C209.831 306.873 208.951 306.849 208.092 306.999C207.233 307.148 206.413 307.468 205.68 307.94L205.65 307.93ZM201.7 316.83C200.605 318.275 199.844 319.944 199.472 321.718C199.1 323.493 199.127 325.327 199.55 327.09C200.98 333.36 204.87 339.51 211.11 341.84C212.847 342.326 214.646 342.555 216.45 342.52C218.24 338.21 217.93 333.42 216.54 329.05C215.714 326.494 214.351 324.144 212.541 322.159C210.732 320.174 208.519 318.599 206.05 317.54C204.673 317.003 203.196 316.768 201.72 316.85L201.7 316.83ZM240.95 310.96C238.95 313.38 236.9 315.96 235.87 318.96L235.55 319.09C234.77 321.03 234.1 323 233.45 324.99C233.441 326.232 233.279 327.467 232.97 328.67C232.97 329.07 232.97 329.85 232.97 330.25C233.48 331.59 233.09 333.11 233.74 334.42L233.97 335.49C234.323 336.748 234.809 337.965 235.42 339.12C235.42 339.25 235.42 339.52 235.42 339.65C237.69 344.31 240.42 348.93 244.62 352.12C245.244 352.675 245.992 353.07 246.802 353.274C247.611 353.478 248.458 353.483 249.27 353.29C251.372 352.387 253.243 351.02 254.74 349.29C257.272 346.505 259.437 343.406 261.18 340.07C261.445 339.433 261.607 338.758 261.66 338.07C260.74 337.47 259.85 336.66 258.66 336.71C257.66 338.91 255.95 340.65 254.47 342.53H253.45C248.27 339.87 244.8 334.76 242.79 329.43C241.193 325.398 240.937 320.959 242.06 316.77C242.34 316.1 242.61 315.42 242.88 314.77C243.83 315 244.78 315.26 245.74 315.49C249.15 316.66 251.74 319.33 253.86 322.15C254.19 322.81 254.92 322.73 255.55 322.79C256.96 320.14 259.24 318.08 261.1 315.79C261.1 315.17 261.1 314.55 261.1 313.94C258.46 311.23 254.86 309.82 251.49 308.28C250.74 308.01 250.01 307.72 249.29 307.42C245.97 305.95 243.08 308.84 241 311.06L240.95 310.96ZM324.43 307.03C319.43 309.89 315.83 314.61 313.33 319.71C312.87 320.79 312.43 321.87 312.01 322.96C311.44 324.46 311.24 326.06 310.72 327.58C310.59 329.02 310.64 330.49 310.48 331.93L309.67 332.3L310.46 332.71C310.49 334.152 310.651 335.587 310.94 337L311.48 338.54C313.84 344.47 318.02 349.97 323.81 352.86C326.11 354.09 328.87 353.24 330.71 351.58C334.552 348.134 337.556 343.855 339.49 339.07C339.93 338.07 340.35 337.01 340.82 335.99C340.82 335.72 340.95 335.18 341 334.9C341.546 333.396 341.882 331.825 342 330.23C342.13 326.91 342.25 323.49 341.08 320.32C340.74 319.44 340.38 318.58 340.02 317.73C338.717 315.042 336.819 312.686 334.47 310.84C331.73 308.49 328.17 306.47 324.47 307.03H324.43ZM319.05 316.81C317.556 318.94 316.668 321.435 316.48 324.03C316.762 327.061 317.554 330.022 318.82 332.79C321.01 336.69 324.21 340.49 328.61 341.84C329.15 342 329.69 342.19 330.22 342.38C331.32 342.47 332.43 342.52 333.54 342.58C334.54 341.07 334.69 339.28 335.07 337.58C335.193 335.284 334.957 332.983 334.37 330.76C334.09 329.86 333.8 328.97 333.52 328.07C332.621 325.734 331.27 323.598 329.544 321.786C327.817 319.974 325.75 318.521 323.46 317.51L322.39 317.27C321.313 316.917 320.182 316.762 319.05 316.81V316.81ZM299.43 309.38C293.92 311.69 290.31 316.67 287.01 321.38C285.58 323.38 284.58 325.69 282.95 327.55C282.95 327.75 282.95 328.13 283 328.32H282C282.12 325.8 281.65 323.22 282.29 320.76C282.453 317.347 282.867 313.952 283.53 310.6L282.9 310.51C282.9 310.28 282.95 309.82 282.96 309.59C280.05 309.59 277.15 309.7 274.24 309.59C273.727 309.783 273.265 310.092 272.89 310.493C272.516 310.893 272.238 311.375 272.08 311.9C271.08 319.35 271.51 326.9 271.42 334.39C271.57 339.13 271.05 343.97 272.14 348.64C272.38 349.41 272.92 350.39 273.87 350.31C276.519 350.438 279.174 350.412 281.82 350.23L282.94 349.16C282.94 348.39 282.85 347.63 282.8 346.87C282.16 344.81 282.61 342.63 282.29 340.53C281.96 337.636 281.86 334.72 281.99 331.81C284.61 332.2 286.69 334.05 288.46 335.89C292.03 339.75 293.31 345.03 294.09 350.08L295.22 350.75C297.32 350.75 299.41 350.18 301.5 350.58C303.021 350.855 304.586 350.755 306.06 350.29C306.155 348.56 305.9 346.829 305.31 345.2C302.85 339.2 297.75 334.66 292.04 331.85C289.751 330.745 287.364 329.854 284.91 329.19L285.78 328.72C288.36 324.55 291.41 320.17 296.26 318.48H297.87L299.45 319.06C300.04 319.69 300.62 320.34 301.19 321H303.34C303.325 318.417 303.775 315.853 304.67 313.43C305.362 312.277 305.808 310.994 305.98 309.66C303.898 308.789 301.582 308.648 299.41 309.26L299.43 309.38ZM150.43 310.7C149.627 312.403 149.227 314.268 149.26 316.15C148.26 327.15 149.11 338.15 149.91 349.07L151.08 350.34C153.884 350.505 156.696 350.505 159.5 350.34L160.71 349.65C161.05 346.45 160.16 343.32 160.1 340.14C159.41 336.91 159.77 333.54 159.7 330.26C164.37 327.98 168.46 324.59 173.23 322.5C173.35 322.24 173.58 321.7 173.69 321.43C174.18 325.73 173.69 330.08 173.79 334.43C173.89 338.78 173.47 343.23 174.55 347.51C174.866 348.617 175.474 349.619 176.31 350.41C179.46 350.27 182.86 351.12 185.81 349.75C186.12 346.35 185.12 343.04 185.17 339.64C184.96 338.993 184.846 338.32 184.83 337.64C184.72 332.05 184.64 326.47 184.83 320.89C184.841 320.186 184.959 319.488 185.18 318.82C185.32 315.93 186.18 313.1 185.91 310.18C182.48 310.09 179.06 310.02 175.64 310.18C175.47 310.48 175.14 311.09 174.98 311.4C174.87 313.69 174.41 315.96 174.29 318.26C170.09 320.48 166.15 323.16 161.99 325.44C161.188 325.872 160.448 326.41 159.79 327.04C159.79 324.3 159.41 321.47 160.13 318.8C160.159 317.398 160.34 316.003 160.67 314.64C160.805 313.147 160.855 311.648 160.82 310.15C158.11 310.04 155.4 310.04 152.69 310.07C151.94 310.14 150.93 309.93 150.47 310.72L150.43 310.7ZM362.21 310.13C362.21 312.13 362.33 314.13 362.21 316.13C357.95 325.13 350.97 332.7 347.81 342.21C347.26 344.84 346.58 347.69 347.66 350.28C349.129 350.694 350.666 350.806 352.18 350.61C354.82 350.23 357.48 350.54 360.13 350.33C360.13 349.85 360.13 349.38 360.13 348.92C359.252 347.622 358.508 346.238 357.91 344.79C355.98 339.66 357.4 334.02 359.29 329.09C359.72 328.09 360.14 327.09 360.56 326.09C361.189 324.452 361.927 322.858 362.77 321.32C362.77 321.18 362.77 320.91 362.77 320.78C363.563 319.625 364.029 318.278 364.12 316.88L364.71 318.71L365.22 320.3C365.35 321.16 365.49 322.05 365.71 322.91C366.13 324.83 366.6 326.75 367.12 328.65C367.36 329.5 367.59 330.36 367.84 331.21C368.84 335.46 370.21 339.63 371.29 343.87L371.49 344.25C371.75 345.14 372.05 346.03 372.33 346.93C372.859 348.154 373.585 349.282 374.48 350.27C378.09 350.43 381.7 350.45 385.31 350.27C385.34 349.089 385.104 347.917 384.62 346.84C380.702 337.589 377.545 328.034 375.18 318.27C374.41 315.63 374.6 312.81 373.8 310.19C369.96 309.98 366.12 310.02 362.28 310.19L362.21 310.13ZM396.39 310.31C394.95 312.89 395.05 315.9 394.72 318.74C394.61 328.42 394.53 338.11 394.65 347.74C394.646 348.118 394.724 348.493 394.879 348.839C395.034 349.184 395.261 349.492 395.546 349.741C395.832 349.99 396.167 350.174 396.53 350.281C396.893 350.388 397.275 350.415 397.65 350.36C405.1 350.43 412.56 350.36 420.01 350.36C422.091 350.591 424.187 350.678 426.28 350.62C426.97 350.44 427.68 350.29 428.38 350.14C428.67 350 429.23 349.7 429.51 349.55L430.11 348.39C430.331 345.444 429.805 342.489 428.58 339.8C426.68 335.48 422.74 332.36 418.5 330.52C414.38 328.83 409.93 328.44 405.57 327.86C405.57 324.44 405.57 321.03 405.82 317.63C406.361 315.152 406.696 312.633 406.82 310.1C404.05 309.1 401 309.83 398.12 309.66L396.43 310.22L396.39 310.31ZM405.14 337.55C405.21 340.91 404.93 344.31 405.63 347.62C409.4 347.44 413.24 348.01 416.96 347.22L416.61 346.49C417.61 344.49 416.47 342.25 416.26 340.19C415.674 338.602 414.873 337.101 413.88 335.73C412.534 334.357 410.877 333.329 409.05 332.73C407.872 332.606 406.71 332.365 405.58 332.01C405.05 333.79 405.24 335.7 405.21 337.55H405.14Z" fill="#FEEC03"/>
<path fill-rule="evenodd" clip-rule="evenodd" d="M250.94 13.9501C251.592 13.7734 252.264 13.676 252.94 13.6601C258.87 13.5601 264.81 13.4601 270.74 13.7201C273.43 14.3901 276.25 13.8101 278.96 14.4201C283.2 14.7001 287.39 15.4201 291.59 15.9801C296.68 16.8401 301.74 17.8601 306.75 19.1101C316.974 21.6602 326.955 25.0999 336.579 29.3901C337.447 29.837 338.368 30.173 339.319 30.3901L339.409 30.6701C365.929 43.0141 388.999 61.7014 406.579 85.0801C416.085 97.6909 423.983 111.437 430.09 126C430.58 127.23 431.09 128.45 431.68 129.65L432.46 131.88C433.21 133.76 433.889 135.66 434.569 137.56C434.829 138.24 435.06 138.92 435.31 139.56C435.48 140.09 435.649 140.61 435.849 141.13C435.909 141.4 436.039 141.93 436.099 142.19C436.279 142.72 436.469 143.25 436.659 143.78C437.099 145.15 437.45 146.55 437.97 147.9C438.02 148.17 438.11 148.71 438.15 148.99C438.43 149.84 438.69 150.71 438.96 151.58C439.03 151.85 439.15 152.39 439.22 152.66C439.42 153.34 439.6 154.04 439.77 154.73C440 155.6 440.229 156.48 440.479 157.36C440.759 158.92 441.13 160.47 441.53 162.01C444.74 177.29 446.79 192.86 446.53 208.49C446.504 219.23 445.337 229.937 443.049 240.43C442.78 241.365 442.659 242.337 442.69 243.31L441.609 243.63C444.497 243.91 447.4 244 450.299 243.9H475.9C480.529 243.804 485.139 244.521 489.519 246.02C497.259 249.399 503.39 255.641 506.63 263.44C508.772 268.368 509.797 273.709 509.63 279.08C509.63 304.493 509.63 329.897 509.63 355.29C509.727 357.391 509.603 359.496 509.26 361.57C509.099 363.346 508.737 365.097 508.18 366.79L507.89 367.79C507.69 368.3 507.5 368.79 507.32 369.35C505.83 373.504 503.533 377.322 500.56 380.583C497.587 383.844 493.998 386.484 490 388.35H489.45L487.45 389.35L486.349 389.52C482.349 390.85 478.029 390.41 473.859 390.52C330.626 390.52 187.396 390.52 44.1695 390.52C41.1582 390.594 38.1588 390.116 35.3195 389.11C34.5995 388.84 33.8695 388.58 33.1395 388.33C20.8595 382.99 13.3195 369.49 13.5195 356.33C13.5195 330.05 13.5195 303.77 13.5195 277.49C13.5477 274.311 13.9812 271.149 14.8095 268.08C14.9995 267.54 15.1695 267.02 15.3495 266.49C17.9895 258.56 23.3495 251.38 30.7795 247.36C33.3254 245.993 36.0577 245.006 38.8895 244.43C40.8295 244.27 42.7395 243.94 44.6795 243.87C56.6795 243.87 68.6095 243.87 80.5795 243.87C80.5637 242.718 80.4058 241.573 80.1095 240.46C79.7295 238.72 79.4795 236.96 79.0595 235.23C78.4195 231.76 77.9695 228.23 77.4795 224.76C77.2395 222.87 77.4795 220.92 76.9495 219.06C76.5295 211.06 76.6095 203.06 76.8695 195.06C77.1844 192.798 77.3846 190.522 77.4695 188.24C77.9895 186.55 77.7595 184.76 77.9995 183.03C78.4877 180.614 78.8217 178.169 78.9995 175.71C79.2586 174.689 79.4391 173.649 79.5395 172.6C80.2595 169.67 80.4195 166.6 81.2795 163.72C81.5595 162.15 81.8995 160.58 82.2795 159.03C82.4495 158.33 82.6195 157.63 82.8295 156.94C82.9295 156.41 83.0295 155.88 83.1195 155.36C83.3795 154.51 83.6195 153.65 83.8995 152.81C84.4657 150.325 85.1735 147.874 86.0195 145.47C86.0195 145.2 86.1595 144.65 86.2095 144.38C86.4895 143.7 86.7595 143.03 87.0195 142.38C87.3595 140.91 87.8695 139.51 88.3395 138.09C88.5895 137.43 88.8495 136.77 89.0995 136.09C91.7861 128.574 94.9251 121.227 98.4995 114.09C112.318 86.4001 132.926 62.6617 158.4 45.0901C163.93 41.1701 169.879 37.9101 175.689 34.4601L176.419 34.5501L176.49 34.0701C178.41 33.4801 180.07 32.2901 181.9 31.4701C190.548 27.3718 199.505 23.9612 208.689 21.2701L209.049 21.0501C210.129 20.7901 211.21 20.4901 212.29 20.2101C215.9 19.2101 219.56 18.2901 223.24 17.5801C227.888 16.5417 232.588 15.7473 237.319 15.2001C238.368 15.1862 239.41 15.0349 240.419 14.7501C243.929 14.4901 247.42 13.9801 250.94 13.9501V13.9501ZM209.839 34.9501C209.099 37.3201 209.73 39.8401 209.26 42.2401C208.26 45.2401 205.839 47.4901 203.589 49.6001C203.467 49.7733 203.309 49.9191 203.127 50.0281C202.945 50.1371 202.742 50.207 202.531 50.2334C202.32 50.2597 202.107 50.2419 201.903 50.1811C201.7 50.1202 201.511 50.0178 201.35 49.8801C199.828 48.694 198.682 47.0929 198.049 45.2701C197.869 43.5901 197.959 41.9001 197.919 40.2101H194.279C194.35 42.0694 194.279 43.9313 194.07 45.7801C193.07 48.2801 190.77 49.7801 188.96 51.6401C186.079 54.0316 183.743 57.0116 182.109 60.3801C180.789 63.3101 180.999 66.6001 181.299 69.7201C181.489 70.2501 181.669 70.7801 181.859 71.3301C183.109 74.8801 185.699 77.6601 188.169 80.4101C203.749 80.5001 219.339 80.4101 234.919 80.4101C238.369 76.8401 241.439 72.6501 242.139 67.6101C242.829 61.0101 238.459 55.4001 233.829 51.2701C231.829 49.6001 229.71 47.7901 228.77 45.2701C228.77 43.5801 228.77 41.8901 228.77 40.1901H225.049C225.103 41.9408 225.066 43.6931 224.94 45.4401C224.24 47.7301 222.219 49.2001 220.579 50.8001C217.579 47.8001 213.69 45.0101 213.12 40.4601C213.07 38.6201 213.069 36.7901 213.059 34.9601C211.969 34.9601 210.889 34.9601 209.799 34.9101L209.839 34.9501ZM257.049 82.0001L257.829 82.6201C257.93 83.3808 258.101 84.1306 258.34 84.8601C258.4 85.1401 258.539 85.6901 258.609 85.9801C258.889 86.8001 259.149 87.6301 259.419 88.4701C260.079 91.2601 260.86 94.0201 261.47 96.8201C261.8 98.5601 262.1 100.31 262.47 102.03C262.589 102.916 262.76 103.794 262.979 104.66C263.259 106.96 263.659 109.26 263.889 111.57C264.379 113.94 264.02 116.4 264.56 118.75C264.72 122.75 264.72 126.75 264.56 130.75C264.06 132.62 264.24 134.58 264.06 136.49C263.736 137.694 263.562 138.933 263.539 140.18C263.049 141.89 262.85 143.67 262.46 145.4C262.25 146.09 262.09 146.79 261.94 147.5C261.79 148.21 261.599 148.88 261.449 149.58C260.829 151.45 260.35 153.38 259.65 155.23C259.39 155.97 259.119 156.7 258.879 157.44L258.079 159.44C257.479 160.87 256.84 162.28 256.24 163.71C252.655 170.939 248.132 177.664 242.789 183.71C230.329 197.59 214.45 207.64 200.02 219.27C192.38 225.61 185.189 233.09 181.579 242.51C181.098 243.671 180.687 244.86 180.35 246.07C180.19 246.6 180.02 247.13 179.85 247.66C179.44 249.39 179.23 251.16 178.76 252.87C178.24 257.23 178.059 261.623 178.219 266.01C178.779 268.19 178.5 270.48 178.99 272.68C179.16 275.23 180.06 277.68 179.99 280.27C179.686 278.611 179.286 276.972 178.79 275.36C178.34 273.82 178.049 272.25 177.729 270.69C176.412 261.986 176.768 253.11 178.779 244.54C178.949 244.01 179.119 243.48 179.279 242.95L179.76 241.33C180.02 240.67 180.269 240.01 180.529 239.33C180.949 238.25 181.41 237.19 181.88 236.14L182.359 235.08C182.699 234.37 183.049 233.67 183.359 232.97C189.179 221.61 197.859 212.07 206.839 203.13C210.949 199.23 215.209 195.49 219.339 191.6C226.352 184.998 232.269 177.322 236.87 168.86C237.4 167.86 237.95 166.86 238.49 165.79C244.21 153.65 247.4 140.08 246.12 126.62C245.289 114.987 242.33 103.605 237.389 93.0401C236.309 90.4801 234.789 88.1401 233.699 85.5801C213.033 85.5001 192.386 85.5001 171.76 85.5801C171.76 87.2501 171.76 88.9201 171.76 90.5801C177.798 91.0161 183.739 92.3439 189.389 94.5201C197.199 97.8201 204.549 103.37 207.919 111.38C208.309 112.38 208.669 113.47 208.919 114.54C209.149 115.39 209.299 116.26 209.449 117.13C210.11 121.47 209.988 125.893 209.089 130.19C208.878 130.879 208.708 131.581 208.579 132.29C208.249 133.29 207.929 134.38 207.579 135.43C204.209 144.43 198.129 151.95 192.579 159.67C186.159 168.53 180.179 177.67 174.579 187.11C168.849 197.25 163.34 207.84 161.46 219.45C160.862 222.033 160.527 224.67 160.46 227.32C160.113 229.371 159.995 231.454 160.109 233.53C159.981 235.315 160.106 237.11 160.479 238.86C160.451 240.577 160.598 242.293 160.919 243.98C161.238 246.802 161.753 249.599 162.46 252.35C162.63 253.03 162.789 253.73 162.969 254.42C163.279 255.63 163.639 256.83 164.049 258.01C164.209 258.55 164.379 259.07 164.549 259.61C164.719 260.15 164.91 260.61 165.1 261.16C168.676 270.968 173.949 280.07 180.68 288.05C182.44 288.05 184.209 288.05 185.979 288.05C187.503 287.072 189.079 286.177 190.699 285.37C191.889 284.82 193.079 284.25 194.309 283.8C194.969 283.55 195.639 283.31 196.309 283.04C197.189 282.74 198.089 282.47 198.999 282.25C210.879 278.88 223.399 279.5 235.569 280.47C242.569 281.18 249.479 282.25 256.449 283.05C257.641 283.335 258.856 283.516 260.079 283.59C264.949 284.35 269.839 285.01 274.729 285.66C277.729 286.15 280.659 286.45 283.639 286.66C285.366 286.992 287.121 287.16 288.879 287.16C290.925 287.518 293.004 287.653 295.079 287.56C298.739 287.56 302.409 287.65 306.079 287.41C307.625 287.105 309.194 286.934 310.77 286.9C312.99 286.4 315.269 286.2 317.479 285.65C318.179 285.5 318.899 285.36 319.599 285.18L321.669 284.64C322.349 284.47 323.04 284.32 323.72 284.13C326.37 283.13 329.099 282.4 331.659 281.18C343.069 276.45 353.189 267.89 358.389 256.53C358.839 255.45 359.31 254.38 359.72 253.29C359.88 252.76 360.04 252.23 360.21 251.71C360.733 250.21 361.157 248.676 361.479 247.12C361.969 244.544 362.32 241.944 362.53 239.33C362.93 235.8 362.25 232.33 362.02 228.79C361.6 227.05 361.32 225.29 361.02 223.54C360.76 222.7 360.53 221.85 360.28 221.01C359.94 219.56 359.43 218.16 358.96 216.75C358.69 216.09 358.439 215.44 358.169 214.75C357.899 214.06 357.579 213.17 357.319 212.37L356.669 212.2C350.049 225.2 340.509 236.84 328.049 244.53C317.759 250.96 306.05 254.81 294.18 256.97C281.11 259.53 267.759 259.52 254.509 259.67C249.619 260.24 244.659 259.74 239.759 260.24C237.759 260.58 235.659 260.5 233.609 260.71C229.969 261.3 226.279 261.61 222.609 262.28C220.019 262.85 217.409 263.28 214.859 264.05C213.629 264.303 212.416 264.637 211.229 265.05L209.66 265.55L208.1 266.06C207.21 266.37 206.329 266.72 205.469 267.06C199.522 269.476 194.053 272.934 189.32 277.27C194.199 269.659 201.269 263.704 209.6 260.19C211.3 259.44 213.069 258.83 214.809 258.19C232.049 252.68 250.299 252.32 268.099 249.97C280.188 248.611 292.007 245.463 303.169 240.63C304.909 239.73 306.709 238.92 308.389 237.88L307.02 237.15C307.717 237.033 308.432 237.187 309.02 237.58C321.73 230.58 333.08 220.39 339.78 207.34C344.78 198.14 346.89 187.71 347.72 177.34C348.38 167.39 347.04 157.02 342.09 148.21C337.39 139.5 329.54 132.91 321.09 128.03C321.16 141.36 319.3 154.84 314.46 167.32C314.15 168.21 313.78 169.09 313.46 169.96C312.98 171.21 312.459 172.43 311.859 173.63C306.389 185.161 298.628 195.456 289.049 203.89C270.529 218.17 248.92 227.89 226.799 235.08C226.159 235.34 225.529 235.6 224.909 235.87C223.809 236.29 222.71 236.74 221.62 237.18C220.06 237.85 218.52 238.6 216.96 239.25C216.09 239.64 215.249 240.07 214.419 240.53C213.169 241.1 211.979 241.79 210.749 242.38C207.222 244.385 203.858 246.665 200.689 249.2C194.785 253.958 190.108 260.062 187.049 267C186.789 267.73 186.529 268.47 186.279 269.22L185.439 271.22C185.439 271.5 185.31 272.06 185.27 272.34C184.68 273.66 184.48 275.12 183.99 276.48C183.83 277.43 183.7 278.38 183.54 279.33C183.325 277.528 183.304 275.707 183.479 273.9C183.786 272.511 183.943 271.093 183.949 269.67C184.544 266.134 185.482 262.664 186.749 259.31C188.317 255.404 190.505 251.778 193.229 248.57C199.149 241.78 206.57 236.48 214.35 232.04C223.25 227.04 232.47 222.66 241.59 218.1C246.799 215.445 251.854 212.497 256.729 209.27C270.729 201.16 283.929 190.79 292.789 177.02C298.969 167.47 303.011 156.698 304.639 145.44C305.199 143.58 304.96 141.62 305.12 139.71C305.408 138.154 305.462 136.563 305.28 134.99C305.083 130.387 304.413 125.816 303.28 121.35C301.572 115.026 298.531 109.141 294.359 104.09C288.789 97.1401 281.299 91.9701 273.359 88.0901C271.679 87.2701 269.96 86.5101 268.24 85.7801C267.37 85.4501 266.51 85.0901 265.65 84.7301C264.79 84.3701 263.879 84.1001 263.009 83.7301C261.009 83.1601 259.159 82.1201 257.009 82.0001H257.049ZM451.949 271.12C447.825 271.752 443.844 273.106 440.19 275.12C434.19 278.78 430.059 284.97 427.859 291.56C427.679 292.23 427.5 292.92 427.31 293.56C425.975 299.617 425.604 305.847 426.21 312.02C427.61 322.58 435.559 330.47 439.579 340.02C440.019 341.41 440.239 342.85 440.579 344.27C440.699 346.05 440.67 347.84 440.65 349.63C445.296 351.141 450.165 351.851 455.049 351.73C461.849 351.6 467.909 347.66 472.349 342.73C475.829 339.21 478.2 334.82 480.49 330.48L483.539 330.37C483.539 328.837 483.539 327.307 483.539 325.78C476.009 325.72 468.479 325.78 460.949 325.72C460.679 327.18 460.12 329.07 461.06 330.35C462.31 330.45 463.58 330.42 464.84 330.42C464.857 331.402 464.68 332.377 464.319 333.29C464.269 333.56 464.169 334.11 464.129 334.38C463.849 335.05 463.579 335.73 463.329 336.38C462.416 339.023 460.859 341.398 458.799 343.29C457.091 344.897 454.996 346.034 452.718 346.591C450.44 347.149 448.057 347.107 445.799 346.47C445.799 343.98 446.599 341.54 446.389 339.04C446.509 332.04 444.389 325.41 443.129 318.64C442.839 317.44 442.72 316.21 442.43 315.01C442.22 313.22 441.929 311.44 441.669 309.66C444.199 306.37 448.38 304.05 452.62 304.84C455.18 305.84 456.41 308.6 457.03 311.13C456.08 311.13 455.119 311.13 454.169 311.13C453.791 312.663 453.676 314.249 453.829 315.82C461.079 315.91 468.329 315.89 475.579 315.82C475.672 314.277 475.548 312.729 475.21 311.22C474.04 311.22 472.88 311.17 471.72 311.12C471.45 310.12 471.15 309.17 470.84 308.2C469.719 305.907 468.12 303.88 466.15 302.257C464.18 300.634 461.885 299.451 459.419 298.79C454.663 297.867 449.735 298.863 445.71 301.56C444.35 302.47 443.379 303.92 441.799 304.56C441.669 305 441.539 305.43 441.419 305.87C440.989 299.72 440.969 293.43 442.639 287.45C442.699 287.17 442.829 286.62 442.889 286.35C443.069 285.83 443.24 285.35 443.43 284.79C444.334 282.091 445.894 279.658 447.97 277.71C450.51 275.43 454.33 275.13 457.46 276.2C460.59 277.27 462.6 280.32 463.84 283.28C464.09 283.96 464.35 284.64 464.62 285.28C464.67 285.56 464.759 286.12 464.799 286.4C465.015 286.974 465.179 287.567 465.289 288.17L462.609 288.24C462.609 289.78 462.609 291.32 462.609 292.87C469.769 292.923 476.929 292.923 484.089 292.87C484.089 291.31 484.089 289.77 484.089 288.22H480.019C479.889 287.9 479.649 287.27 479.519 286.95C478.345 283.488 476.376 280.348 473.772 277.782C471.167 275.215 467.999 273.294 464.52 272.17C460.451 271.025 456.198 270.685 452 271.17L451.949 271.12ZM39.0495 272.49C39.0495 274.05 39.0495 275.61 39.1095 277.18C41.4095 277.18 43.7095 277.18 46.0095 277.18C45.9495 280.27 46.4395 283.33 46.0095 286.4C46.1395 290.58 46.2395 294.73 46.2095 298.9C46.2095 300.13 46.6195 301.44 45.9395 302.56C46.6695 304.89 46.2795 307.48 46.1195 309.9C46.4895 313.53 46.2095 317.19 46.2995 320.84C46.4395 325.02 45.8295 329.18 46.2995 333.36C45.9395 337.41 46.1095 341.48 46.0395 345.54C43.7095 345.54 41.3895 345.54 39.0395 345.54C39.0395 347.1 39.0395 348.64 39.0395 350.2C46.7995 350.25 54.5695 350.2 62.3395 350.2C63.482 350.204 64.6217 350.086 65.7395 349.85C65.7395 348.41 65.7395 346.98 65.7395 345.55C63.8295 345.55 61.9095 345.49 59.9995 345.47C59.7325 344.214 59.5885 342.934 59.5695 341.65C59.6195 330.65 59.5695 319.65 59.6295 308.6L60.4895 308.25L59.6295 307.89C59.5195 298.95 59.6295 290.02 59.5695 281.09C59.5643 279.746 59.7017 278.405 59.9795 277.09C66.2595 277.09 72.5295 277.09 78.8095 277.09C79.0879 278.916 79.2117 280.763 79.1795 282.61C78.8494 284.508 78.7787 286.443 78.9695 288.36C79.3058 289.759 79.3534 291.212 79.1095 292.63C78.8679 295.026 78.8211 297.437 78.9695 299.84C79.6595 301.91 78.7795 304.03 78.8795 306.13C78.7395 307.87 79.4095 309.61 78.9795 311.33C78.9795 311.72 78.9795 312.51 78.9795 312.91C79.2213 313.751 79.2994 314.63 79.2095 315.5C78.8995 316.339 78.8995 317.261 79.2095 318.1C78.7945 320.865 78.7945 323.676 79.2095 326.44C78.7195 328.44 79.0395 330.44 78.9195 332.44L79.3795 332.49C79.1466 332.929 79.0149 333.415 78.9941 333.911C78.9734 334.408 79.064 334.903 79.2595 335.36C79.1895 335.74 79.0595 336.49 78.9895 336.87C79.1795 339.69 78.8295 342.55 78.9095 345.4L73.1295 345.47C73.1295 346.88 73.1295 348.3 73.1295 349.72C74.411 349.973 75.7133 350.107 77.0195 350.12C84.6095 350.12 92.1995 350.12 99.7895 350.12C99.8395 348.57 99.8495 347.02 99.7895 345.48C97.4995 345.48 95.1895 345.43 92.8995 345.48C92.6977 344.219 92.5708 342.946 92.5195 341.67C92.5195 321.29 92.5195 300.913 92.5195 280.54C92.5562 279.391 92.6631 278.246 92.8395 277.11C95.1495 277.11 97.4495 277.11 99.7695 277.11C99.7695 275.56 99.7695 274 99.7695 272.45C79.5295 272.41 59.2862 272.41 39.0395 272.45L39.0495 272.49ZM122.93 307.07C119.18 308.64 116.21 311.5 113.65 314.59C112.547 315.891 111.672 317.369 111.06 318.96L110.77 319.1C110.34 320.22 109.87 321.33 109.42 322.45C109.25 322.96 109.08 323.45 108.91 324C107.83 327.19 107.909 330.58 107.979 333.91C108.149 336.5 107.74 339.17 108.42 341.7C108.66 343.43 108.42 345.25 108.96 346.93C109.22 349 108.879 351.15 109.479 353.17C109.779 359.35 109.72 365.54 109.67 371.73H110.19L110.07 372.73C111.466 372.912 112.885 372.729 114.19 372.2C115.468 370.833 116.37 369.159 116.81 367.34C116.96 364.7 117.6 362.09 117.29 359.45C116.82 355.98 117.16 352.45 116.64 349C116.436 347.459 116.383 345.902 116.479 344.35L117.02 345.98C118.47 347.17 119.64 348.67 121.27 349.65C124.02 351.54 127.7 352.58 130.91 351.29C134.68 349.9 137.26 346.43 138.5 342.72C140.29 337.72 140.15 332.29 139.19 327.13C139 326.42 138.83 325.71 138.65 325C138.49 324.48 138.32 324 138.15 323.44C137.8 322.56 137.48 321.66 137.15 320.76C134.7 315.28 131.15 309.76 125.6 307.02C124.7 307.02 123.8 307.02 122.9 307.07H122.93ZM205.65 307.95C200.2 311.79 196.479 317.7 194.339 323.95C194.019 325.18 193.729 326.42 193.439 327.66C192.99 330.274 192.939 332.941 193.29 335.57C194.65 341.86 198.679 347.35 203.689 351.28C205.869 352.79 208.849 354.38 211.449 352.89C214.549 350.839 217.152 348.124 219.07 344.94C222.77 339.02 225.529 332.1 224.859 325.01C224.438 321.702 223.301 318.525 221.529 315.7C218.898 311.77 215.105 308.76 210.68 307.09C209.83 306.894 208.95 306.869 208.091 307.019C207.233 307.168 206.412 307.488 205.68 307.96L205.65 307.95ZM240.949 310.95C238.949 313.37 236.9 315.95 235.87 318.95L235.549 319.08C234.769 321.02 234.099 322.99 233.449 324.98C233.44 326.222 233.279 327.458 232.97 328.66C232.97 329.06 232.97 329.84 232.97 330.24C233.48 331.58 233.09 333.1 233.74 334.41L233.97 335.48C234.322 336.738 234.808 337.955 235.419 339.11C235.419 339.24 235.419 339.51 235.419 339.64C237.689 344.3 240.42 348.92 244.62 352.11C245.243 352.665 245.992 353.061 246.801 353.264C247.611 353.468 248.457 353.473 249.27 353.28C251.372 352.378 253.242 351.01 254.74 349.28C257.272 346.495 259.436 343.396 261.18 340.06C261.444 339.423 261.606 338.748 261.659 338.06C260.739 337.46 259.849 336.65 258.659 336.7C257.659 338.9 255.95 340.64 254.47 342.52H253.449C248.269 339.86 244.799 334.75 242.789 329.42C241.192 325.388 240.936 320.949 242.06 316.76C242.34 316.09 242.609 315.41 242.879 314.76C243.829 314.99 244.78 315.25 245.74 315.48C249.15 316.65 251.739 319.32 253.859 322.14C254.189 322.8 254.919 322.72 255.549 322.78C256.959 320.13 259.239 318.07 261.099 315.78C261.099 315.16 261.099 314.54 261.099 313.93C258.459 311.22 254.86 309.81 251.49 308.27C250.74 308 250.009 307.71 249.289 307.41C245.969 305.94 243.08 308.83 241 311.05L240.949 310.95ZM324.43 307.02C319.43 309.88 315.829 314.6 313.329 319.7C312.869 320.78 312.429 321.86 312.009 322.95C311.439 324.45 311.24 326.05 310.72 327.57C310.59 329.01 310.639 330.48 310.479 331.92L309.669 332.29L310.46 332.7C310.49 334.142 310.65 335.578 310.94 336.99L311.479 338.53C313.839 344.46 318.02 349.96 323.81 352.85C326.11 354.08 328.87 353.23 330.71 351.57C334.552 348.124 337.555 343.845 339.49 339.06C339.93 338.06 340.349 337 340.819 335.98C340.819 335.71 340.95 335.17 341 334.89C341.545 333.387 341.882 331.815 342 330.22C342.13 326.9 342.249 323.48 341.079 320.31C340.739 319.43 340.38 318.57 340.02 317.72C338.716 315.032 336.818 312.676 334.47 310.83C331.73 308.48 328.17 306.46 324.47 307.02H324.43ZM299.43 309.35C293.92 311.66 290.309 316.64 287.009 321.35C285.579 323.35 284.579 325.66 282.949 327.52C282.949 327.72 282.95 328.1 283 328.29H282C282.12 325.77 281.649 323.19 282.289 320.73C282.452 317.318 282.867 313.922 283.53 310.57L282.9 310.48C282.9 310.25 282.95 309.79 282.96 309.56C280.05 309.56 277.15 309.67 274.24 309.56C273.726 309.753 273.264 310.062 272.89 310.463C272.515 310.863 272.238 311.345 272.079 311.87C271.079 319.32 271.509 326.87 271.419 334.36C271.569 339.1 271.049 343.94 272.139 348.61C272.379 349.38 272.92 350.36 273.87 350.28C276.519 350.409 279.173 350.382 281.819 350.2L282.94 349.13C282.94 348.36 282.849 347.6 282.799 346.84C282.159 344.78 282.609 342.6 282.289 340.5C281.959 337.606 281.859 334.69 281.99 331.78C284.61 332.17 286.69 334.02 288.46 335.86C292.03 339.72 293.31 345 294.09 350.05L295.22 350.72C297.32 350.72 299.41 350.15 301.5 350.55C303.021 350.825 304.586 350.725 306.06 350.26C306.154 348.53 305.899 346.799 305.31 345.17C302.85 339.17 297.749 334.63 292.039 331.82C289.75 330.715 287.363 329.824 284.909 329.16L285.78 328.69C288.36 324.52 291.409 320.14 296.259 318.45H297.87L299.449 319.03C300.039 319.66 300.62 320.31 301.19 320.97H303.34C303.324 318.387 303.775 315.823 304.669 313.4C305.361 312.247 305.807 310.964 305.979 309.63C303.897 308.759 301.582 308.618 299.409 309.23L299.43 309.35ZM150.43 310.67C149.627 312.373 149.226 314.238 149.26 316.12C148.26 327.12 149.11 338.12 149.91 349.04L151.079 350.31C153.884 350.475 156.695 350.475 159.499 350.31L160.71 349.62C161.05 346.42 160.16 343.29 160.1 340.11C159.41 336.88 159.769 333.51 159.699 330.23C164.369 327.95 168.459 324.56 173.229 322.47C173.349 322.21 173.579 321.67 173.689 321.4C174.179 325.7 173.69 330.05 173.79 334.4C173.89 338.75 173.469 343.2 174.549 347.48C174.866 348.587 175.473 349.589 176.309 350.38C179.459 350.24 182.859 351.09 185.809 349.72C186.119 346.32 185.119 343.01 185.169 339.61C184.96 338.963 184.845 338.29 184.829 337.61C184.719 332.02 184.639 326.44 184.829 320.86C184.84 320.156 184.958 319.458 185.18 318.79C185.32 315.9 186.18 313.07 185.91 310.15C182.48 310.06 179.059 309.99 175.639 310.15C175.469 310.45 175.139 311.06 174.979 311.37C174.869 313.66 174.41 315.93 174.29 318.23C170.09 320.45 166.15 323.13 161.99 325.41C161.188 325.842 160.448 326.38 159.79 327.01C159.79 324.27 159.41 321.44 160.13 318.77C160.158 317.368 160.339 315.973 160.669 314.61C160.805 313.117 160.855 311.618 160.82 310.12C158.11 310.01 155.399 310.01 152.689 310.04C151.939 310.11 150.929 309.9 150.469 310.69L150.43 310.67ZM362.21 310.1C362.21 312.1 362.33 314.1 362.21 316.1C357.95 325.1 350.97 332.67 347.81 342.18C347.26 344.81 346.579 347.66 347.659 350.25C349.128 350.664 350.666 350.776 352.18 350.58C354.82 350.2 357.479 350.51 360.129 350.3C360.129 349.82 360.129 349.35 360.129 348.89C359.251 347.592 358.508 346.208 357.909 344.76C355.979 339.63 357.399 333.99 359.289 329.06C359.719 328.06 360.14 327.06 360.56 326.06C361.188 324.422 361.926 322.829 362.77 321.29C362.77 321.15 362.77 320.88 362.77 320.75C363.562 319.595 364.029 318.248 364.12 316.85L364.71 318.68L365.22 320.27C365.35 321.13 365.49 322.02 365.71 322.88C366.13 324.8 366.6 326.72 367.12 328.62C367.36 329.47 367.59 330.33 367.84 331.18C368.84 335.43 370.209 339.6 371.289 343.84L371.49 344.22C371.75 345.11 372.049 346 372.329 346.9C372.858 348.124 373.585 349.252 374.479 350.24C378.089 350.4 381.7 350.42 385.31 350.24C385.339 349.06 385.103 347.887 384.62 346.81C380.703 337.569 377.546 328.024 375.18 318.27C374.41 315.63 374.599 312.81 373.799 310.19C369.959 309.98 366.12 310.02 362.28 310.19L362.21 310.1ZM396.389 310.28C394.949 312.86 395.05 315.87 394.72 318.71C394.61 328.39 394.53 338.08 394.65 347.71C394.645 348.089 394.724 348.464 394.878 348.809C395.033 349.154 395.261 349.462 395.546 349.711C395.831 349.96 396.167 350.144 396.53 350.251C396.893 350.358 397.275 350.385 397.65 350.33C405.1 350.4 412.559 350.33 420.009 350.33C422.091 350.561 424.186 350.648 426.28 350.59C426.97 350.41 427.679 350.26 428.379 350.11C428.669 349.97 429.229 349.67 429.509 349.52L430.109 348.36C430.33 345.414 429.804 342.459 428.579 339.77C426.679 335.45 422.74 332.33 418.5 330.49C414.38 328.8 409.929 328.41 405.569 327.83C405.569 324.41 405.569 321 405.819 317.6C406.361 315.122 406.695 312.603 406.819 310.07C404.049 309.07 401 309.8 398.12 309.63L396.43 310.19L396.389 310.28ZM210.96 50.1001C207.25 54.4201 201.889 57.4101 199.559 62.8101C199.13 64.1682 199.05 65.6131 199.329 67.0101C199.719 70.1001 201.939 72.4201 203.839 74.7001C208.909 74.7801 213.98 74.8201 219.04 74.7001C220.49 72.9101 222.119 71.1801 223.039 69.0201C223.859 67.2501 223.59 65.2501 223.49 63.3601C221.2 57.0901 214.43 54.2401 211.15 48.6901C211.15 49.1701 211.05 49.6901 210.99 50.1201L210.96 50.1001ZM195.74 52.6301C192.85 56.0801 188.92 58.7001 187.01 62.9001C186.95 63.7824 186.789 64.6548 186.529 65.5001C186.529 65.9001 186.529 66.6901 186.529 67.0901C186.779 67.9501 187.01 68.8301 187.24 69.7001C188.132 71.5018 189.251 73.182 190.57 74.7001C192.57 74.7601 194.57 74.7001 196.57 74.7001C194.495 71.8777 193.461 68.4245 193.644 64.9266C193.826 61.4286 195.213 58.1016 197.57 55.5101C198.68 54.4001 197.219 53.2601 196.469 52.5101C196.369 52.1601 196.189 51.4501 196.089 51.1001C196.009 51.4901 195.85 52.2801 195.76 52.6801L195.74 52.6301ZM224.979 54.6301C225.069 55.4501 225.83 56.0101 226.24 56.6901C227.266 58.0884 228.078 59.6321 228.65 61.2701L228.879 62.3401C229.585 65.0924 229.403 67.9974 228.359 70.6401C227.909 72.1189 227.145 73.4832 226.12 74.6401C228.19 74.6401 230.27 74.7301 232.34 74.6901C233.806 73.2573 234.99 71.5611 235.829 69.6901C236.009 69.1701 236.199 68.6401 236.409 68.1201C236.644 66.5651 236.576 64.9794 236.21 63.4501C234.956 60.5601 233.029 58.0124 230.59 56.0201C229.09 54.6301 227.459 53.1501 226.879 51.1101C226.749 52.5501 225.639 53.4901 224.979 54.6701V54.6301ZM203.669 93.4801C208.316 97.0191 212.064 101.603 214.609 106.86C218.789 115.47 218.72 125.62 216.24 134.71C213.4 145.26 206.619 154.06 200.419 162.83C194.539 170.83 188.959 179.04 183.829 187.54C178.439 196.8 173.02 206.28 170.4 216.76C167.821 226.805 167.684 237.321 169.999 247.43C172.069 235.89 177.82 225.43 184.74 216.06C191.21 207.632 198.451 199.825 206.37 192.74C216.75 183.85 226.32 173.53 231.97 160.94C232.6 159.785 233.128 158.577 233.549 157.33C233.829 156.67 234.109 156 234.409 155.33C234.409 155.06 234.52 154.51 234.56 154.24C234.826 153.573 235.106 152.907 235.4 152.24C235.4 151.96 235.56 151.43 235.62 151.16C235.88 150.3 236.109 149.44 236.349 148.58C236.499 147.87 236.659 147.16 236.859 146.47C237.369 144.58 237.439 142.6 237.949 140.72C238.022 138.99 238.206 137.267 238.5 135.56C238.55 133.94 238.55 132.33 238.5 130.72C238.183 128.367 238.026 125.995 238.03 123.62C237.66 122.379 237.458 121.095 237.43 119.8C236.75 116.66 236.259 113.48 235.379 110.37C234.939 109.01 234.569 107.61 234.079 106.26L233.84 105.2C233.57 104.53 233.32 103.85 233.06 103.2C232.8 102.55 232.51 101.72 232.24 100.98C231.39 98.6101 230.08 96.4301 229.24 94.0501C228.716 93.6617 228.07 93.4737 227.419 93.5201C219.499 93.5201 211.57 93.5201 203.65 93.5201L203.669 93.4801ZM269.229 94.9001C269.839 99.0101 270.829 103.06 271.299 107.19C274.149 126.09 272.499 145.94 264.879 163.58C259.212 176.658 250.735 188.328 240.049 197.76C232.264 204.67 224.133 211.182 215.689 217.27C208.269 222.9 200.789 228.61 194.779 235.8C205.689 226.55 218.78 220.52 231.52 214.19C238.003 211.132 244.304 207.699 250.389 203.91C259.569 198.19 268.849 192.38 276.389 184.56C287.831 173.184 295.109 158.287 297.049 142.27C297.779 132.76 296.509 122.84 291.819 114.41C286.819 105.52 278.279 99.3201 269.259 94.9501L269.229 94.9001ZM328.449 143.13C327.349 150.21 326.239 157.34 323.949 164.13C320.617 174.839 315.487 184.902 308.78 193.89C303.39 201.11 297.32 208 289.84 213.13C278.788 221.001 266.919 227.656 254.44 232.98C253.11 233.6 251.74 234.16 250.44 234.77C247.85 235.85 245.239 236.84 242.639 237.88C241.749 238.2 240.87 238.54 240 238.88L238.449 239.35C237.909 239.54 237.379 239.74 236.849 239.95L235.789 240.22C233.879 240.95 231.95 241.63 230.03 242.31C224.223 244.452 218.598 247.057 213.21 250.1C226 246.33 239.28 244.73 252.52 243.55C255.63 243.06 258.799 242.8 261.949 242.55C264.859 242.03 267.84 241.94 270.77 241.48C271.796 241.217 272.843 241.043 273.9 240.96C274.756 240.734 275.624 240.554 276.5 240.42C277.368 240.182 278.254 240.015 279.15 239.92C279.84 239.73 280.54 239.57 281.24 239.4C281.94 239.23 282.619 239.03 283.329 238.87C284.039 238.71 284.709 238.52 285.419 238.37C286.129 238.22 287.12 237.87 287.97 237.6L288.97 237.39L291.079 236.62L292.639 236.14L294.21 235.59C305.415 231.434 315.517 224.763 323.74 216.09C328.191 211.422 331.786 206.006 334.359 200.09C335.171 198.398 335.859 196.651 336.419 194.86C336.599 194.34 336.78 193.86 336.97 193.3C337.14 192.62 337.31 191.93 337.47 191.3C338.52 187.022 339.285 182.679 339.759 178.3C340.089 173.428 339.911 168.535 339.229 163.7C339.011 162.844 338.84 161.976 338.72 161.1C338.22 159.5 337.72 157.9 337.18 156.32C335.114 151.439 332.161 146.984 328.47 143.18L328.449 143.13ZM321.97 256.75C319.2 258.034 316.359 259.156 313.46 260.11C311.6 260.76 309.709 261.29 307.849 261.95C305.749 262.38 303.669 262.95 301.579 263.46C300.859 263.61 300.16 263.77 299.46 263.97C298.59 264.11 297.719 264.26 296.849 264.46C295.979 264.66 295.09 264.75 294.22 264.97C293.334 265.075 292.46 265.262 291.609 265.53C290.382 265.587 289.163 265.761 287.97 266.05C286.396 266.108 284.828 266.282 283.28 266.57C281.03 266.82 278.74 266.57 276.52 267.1C269.52 267.45 262.599 267.16 255.669 267.7C244.079 267.467 232.496 268.472 221.12 270.7C223.548 270.771 225.971 270.968 228.379 271.29C249.769 273.17 270.81 278.02 292.25 279.57C298.82 280.39 305.42 279.63 311.94 278.75C321.1 277.13 330.25 274.26 337.94 268.85C342.269 265.986 345.956 262.252 348.766 257.886C351.575 253.52 353.446 248.618 354.259 243.49C354.989 239.31 354.66 235.05 354.46 230.83C345.999 242.094 334.83 251.037 321.99 256.83L321.97 256.75ZM115.83 320.93C114.845 324.637 114.624 328.505 115.18 332.3C115.669 335.931 117.085 339.374 119.29 342.3C120.95 344.23 122.96 346.3 125.63 346.55C127.63 346.69 128.97 344.96 130 343.55C130 343.24 130.13 342.63 130.17 342.32C130.786 339.577 130.813 336.734 130.25 333.98C130.05 333.3 129.87 332.61 129.68 331.93C129.204 330.111 128.586 328.332 127.83 326.61C126.38 322.928 124.101 319.629 121.17 316.97C120.38 316.27 119.35 315.88 118.74 314.97C117.74 316.97 116.37 318.79 115.83 320.97V320.93ZM201.74 316.85C200.644 318.295 199.883 319.964 199.512 321.739C199.14 323.513 199.166 325.347 199.589 327.11C201.019 333.38 204.91 339.53 211.15 341.86C212.887 342.346 214.686 342.575 216.49 342.54C218.28 338.23 217.969 333.44 216.579 329.07C215.752 326.507 214.383 324.151 212.567 322.161C210.75 320.172 208.528 318.596 206.049 317.54C204.672 317.004 203.196 316.768 201.719 316.85H201.74ZM319.079 316.85C317.586 318.98 316.698 321.475 316.509 324.07C316.792 327.101 317.583 330.062 318.849 332.83C321.039 336.73 324.239 340.53 328.639 341.88C329.179 342.04 329.72 342.23 330.25 342.42C331.35 342.51 332.459 342.56 333.569 342.62C334.569 341.11 334.719 339.32 335.099 337.62C335.223 335.324 334.986 333.023 334.4 330.8C334.12 329.9 333.829 329.01 333.549 328.11C332.651 325.774 331.3 323.639 329.573 321.826C327.847 320.014 325.779 318.561 323.49 317.55L322.419 317.31C321.343 316.958 320.211 316.802 319.079 316.85V316.85ZM405.21 337.59C405.28 340.95 404.999 344.35 405.699 347.66C409.469 347.48 413.31 348.05 417.03 347.26L416.68 346.53C417.68 344.53 416.539 342.29 416.329 340.23C415.743 338.642 414.943 337.141 413.949 335.77C412.603 334.398 410.947 333.369 409.12 332.77C407.942 332.646 406.779 332.405 405.65 332.05C405.05 333.79 405.24 335.7 405.21 337.55V337.59Z" fill="#009038"/>
<path fill-rule="evenodd" clip-rule="evenodd" d="M321.97 256.8C319.201 258.084 316.359 259.206 313.46 260.16C311.6 260.81 309.71 261.34 307.85 262C305.75 262.43 303.67 263 301.58 263.51C300.86 263.66 300.16 263.82 299.46 264.02C298.59 264.16 297.72 264.31 296.85 264.51C295.98 264.71 295.09 264.8 294.22 265.02C293.334 265.125 292.461 265.312 291.61 265.58C290.383 265.637 289.164 265.811 287.97 266.1C286.396 266.158 284.828 266.332 283.28 266.62C281.03 266.87 278.74 266.62 276.52 267.15C269.52 267.5 262.6 267.21 255.67 267.75C244.079 267.517 232.497 268.522 221.12 270.75C223.548 270.821 225.972 271.018 228.38 271.34C249.77 273.22 270.81 278.07 292.25 279.62C298.82 280.44 305.42 279.68 311.94 278.8C321.1 277.18 330.25 274.31 337.94 268.9C342.27 266.035 345.957 262.302 348.766 257.936C351.576 253.57 353.447 248.668 354.26 243.54C354.99 239.36 354.66 235.1 354.46 230.88C346 242.144 334.831 251.087 321.99 256.88L321.97 256.8ZM328.45 143.18C332.141 146.984 335.094 151.439 337.16 156.32C337.69 157.9 338.16 159.5 338.7 161.1C338.821 161.976 338.991 162.844 339.21 163.7C339.891 168.535 340.069 173.428 339.74 178.3C339.265 182.679 338.5 187.022 337.45 191.3C337.29 191.97 337.12 192.66 336.95 193.3C336.76 193.82 336.58 194.3 336.4 194.86C335.839 196.65 335.151 198.398 334.34 200.09C331.767 206.005 328.172 211.422 323.72 216.09C315.498 224.763 305.395 231.434 294.19 235.59L292.62 236.14L291.06 236.62L288.95 237.39L287.95 237.6C287.1 237.87 286.24 238.11 285.4 238.37C284.56 238.63 284 238.68 283.31 238.87C282.62 239.06 281.91 239.2 281.22 239.4C280.53 239.6 279.82 239.73 279.13 239.92C278.235 240.015 277.348 240.182 276.48 240.42C275.604 240.554 274.736 240.734 273.88 240.96C272.824 241.043 271.776 241.217 270.75 241.48C267.82 241.94 264.84 242.03 261.93 242.55C258.78 242.81 255.61 243.07 252.5 243.55C239.26 244.73 225.98 246.33 213.19 250.1C218.579 247.057 224.204 244.452 230.01 242.31C231.93 241.63 233.86 240.95 235.77 240.22L236.83 239.95C237.36 239.74 237.89 239.54 238.43 239.35L239.98 238.88C240.85 238.53 241.73 238.19 242.62 237.88C245.22 236.88 247.83 235.88 250.42 234.77C251.76 234.16 253.13 233.6 254.42 232.98C266.9 227.656 278.768 221.001 289.82 213.13C297.3 208 303.37 201.13 308.76 193.89C315.468 184.902 320.597 174.838 323.93 164.13C326.22 157.32 327.33 150.19 328.43 143.13L328.45 143.18ZM269.23 94.95C278.23 99.32 286.81 105.52 291.79 114.41C296.48 122.84 297.79 132.76 297.02 142.27C295.094 158.271 287.842 173.159 276.43 184.54C268.85 192.36 259.57 198.17 250.43 203.89C244.344 207.679 238.044 211.112 231.56 214.17C218.86 220.5 205.73 226.53 194.82 235.78C200.82 228.59 208.31 222.88 215.73 217.25C224.16 211.167 232.277 204.662 240.05 197.76C250.722 188.34 259.192 176.688 264.86 163.63C272.48 145.99 274.13 126.14 271.28 107.24C270.81 103.11 269.82 99.06 269.21 94.95H269.23ZM203.67 93.53C211.59 93.53 219.52 93.53 227.44 93.53C228.09 93.4836 228.736 93.6716 229.26 94.06C230.06 96.44 231.37 98.62 232.26 100.99C232.53 101.73 232.81 102.46 233.08 103.21C233.35 103.96 233.59 104.55 233.86 105.21L234.05 106.27C234.54 107.62 234.91 109.02 235.35 110.38C236.23 113.49 236.72 116.67 237.4 119.81C237.428 121.104 237.63 122.389 238 123.63C237.996 126.005 238.153 128.377 238.47 130.73C238.54 132.34 238.54 133.95 238.47 135.57C238.176 137.276 237.993 139 237.92 140.73C237.41 142.61 237.34 144.59 236.83 146.48C236.63 147.17 236.47 147.88 236.32 148.59C236.08 149.45 235.85 150.31 235.59 151.17C235.53 151.44 235.42 151.97 235.37 152.25C235.077 152.917 234.797 153.583 234.53 154.25C234.53 154.52 234.41 155.07 234.38 155.34C234.08 156.01 233.8 156.68 233.52 157.34C233.099 158.587 232.57 159.795 231.94 160.95C226.29 173.54 216.72 183.86 206.34 192.75C198.422 199.835 191.181 207.642 184.71 216.07C177.79 225.39 172.04 235.9 169.97 247.44C167.655 237.331 167.792 226.815 170.37 216.77C172.99 206.29 178.37 196.77 183.8 187.55C188.93 179.05 194.51 170.84 200.39 162.84C206.59 154.07 213.39 145.27 216.21 134.72C218.69 125.63 218.76 115.48 214.58 106.87C212.035 101.613 208.287 97.029 203.64 93.49L203.67 93.53ZM257.05 82C259.15 82.12 261.05 83.16 263.05 83.73C263.917 84.09 264.797 84.4233 265.69 84.73C266.55 85.09 267.41 85.45 268.28 85.78C270 86.51 271.72 87.27 273.4 88.09C281.4 91.94 288.85 97.09 294.4 104.09C298.536 109.124 301.553 114.98 303.25 121.27C304.383 125.736 305.053 130.307 305.25 134.91C305.432 136.483 305.378 138.073 305.09 139.63C304.93 141.54 305.17 143.5 304.61 145.36C302.982 156.618 298.939 167.39 292.76 176.94C283.9 190.71 270.76 201.08 256.7 209.19C251.818 212.421 246.756 215.372 241.54 218.03C232.42 222.59 223.2 226.98 214.3 231.97C206.52 236.41 199.1 241.71 193.18 248.5C190.463 251.719 188.285 255.356 186.73 259.27C185.463 262.624 184.525 266.094 183.93 269.63C183.924 271.053 183.766 272.471 183.46 273.86C183.285 275.667 183.305 277.487 183.52 279.29C183.68 278.34 183.81 277.39 183.97 276.44C184.46 275.08 184.66 273.62 185.25 272.3C185.25 272.02 185.38 271.46 185.42 271.18L186.26 269.18C186.51 268.43 186.77 267.69 187.03 266.96C190.082 260.024 194.753 253.92 200.65 249.16C203.818 246.625 207.182 244.345 210.71 242.34C211.94 241.75 213.13 241.06 214.38 240.49C215.21 240.03 216.05 239.6 216.92 239.21C218.48 238.56 220.02 237.81 221.58 237.14C222.67 236.7 223.77 236.25 224.87 235.83C225.49 235.56 226.12 235.3 226.76 235.04C248.88 227.81 270.49 218.13 289.01 203.85C298.586 195.403 306.34 185.093 311.8 173.55C312.4 172.35 312.92 171.13 313.4 169.88C313.77 169.01 314.14 168.13 314.4 167.24C319.24 154.76 321.1 141.24 321.03 127.95C329.51 132.83 337.36 139.42 342.03 148.13C346.98 156.94 348.32 167.31 347.66 177.26C346.83 187.6 344.66 198.03 339.72 207.26C333.02 220.31 321.67 230.46 308.96 237.5C308.373 237.107 307.657 236.953 306.96 237.07L308.33 237.8C306.65 238.8 304.85 239.65 303.11 240.55C291.947 245.383 280.128 248.531 268.04 249.89C250.24 252.24 231.99 252.6 214.75 258.11C213.01 258.79 211.24 259.4 209.54 260.11C201.221 263.656 194.171 269.638 189.32 277.27C194.08 272.967 199.569 269.547 205.53 267.17C206.39 266.79 207.27 266.44 208.16 266.17L209.72 265.66L211.29 265.16C212.476 264.747 213.689 264.413 214.92 264.16C217.47 263.42 220.08 262.96 222.67 262.39C226.31 261.72 230 261.39 233.67 260.82C235.72 260.61 237.79 260.69 239.82 260.35C244.72 259.85 249.68 260.35 254.57 259.78C267.82 259.63 281.17 259.64 294.24 257.08C306.12 254.92 317.82 251.08 328.11 244.64C340.54 236.95 350.11 225.31 356.86 212.48L357.51 212.65C357.77 213.45 358.06 214.24 358.36 215.03C358.66 215.82 358.88 216.33 359.15 217.03C359.62 218.44 360.15 219.84 360.47 221.29C360.72 222.13 360.95 222.98 361.21 223.82C361.55 225.57 361.83 227.33 362.21 229.07C362.44 232.58 363.12 236.07 362.72 239.61C362.51 242.224 362.16 244.824 361.67 247.4C361.348 248.956 360.923 250.489 360.4 251.99C360.23 252.51 360.07 253.04 359.91 253.57C359.5 254.66 359.03 255.73 358.58 256.81C353.38 268.17 343.26 276.73 331.85 281.46C329.29 282.68 326.56 283.46 323.91 284.41C323.23 284.6 322.54 284.75 321.86 284.92L319.79 285.46C319.09 285.64 318.37 285.78 317.67 285.93C315.46 286.48 313.18 286.68 310.96 287.18C309.385 287.214 307.816 287.385 306.27 287.69C302.62 287.93 298.95 287.86 295.27 287.84C293.195 287.932 291.116 287.798 289.07 287.44C287.311 287.44 285.557 287.272 283.83 286.94C280.83 286.71 277.83 286.41 274.92 285.94C270.03 285.29 265.14 284.63 260.27 283.87C259.047 283.796 257.832 283.615 256.64 283.33C249.64 282.53 242.73 281.46 235.76 280.75C223.59 279.75 211.07 279.16 199.19 282.53C198.28 282.75 197.38 283.02 196.5 283.32C195.84 283.59 195.17 283.83 194.5 284.08C193.27 284.53 192.08 285.08 190.89 285.65C189.269 286.457 187.693 287.352 186.17 288.33C184.4 288.33 182.63 288.33 180.87 288.33C174.137 280.296 168.876 271.135 165.33 261.27C165.14 260.75 164.96 260.27 164.78 259.72C164.6 259.17 164.44 258.66 164.28 258.12C163.87 256.94 163.51 255.74 163.2 254.53C163.02 253.84 162.86 253.14 162.69 252.46C161.983 249.709 161.469 246.912 161.15 244.09C160.829 242.403 160.681 240.687 160.71 238.97C160.336 237.22 160.212 235.425 160.34 233.64C160.226 231.563 160.343 229.481 160.69 227.43C160.757 224.78 161.092 222.143 161.69 219.56C163.57 207.95 169.08 197.36 174.81 187.22C180.41 177.82 186.39 168.64 192.81 159.78C198.33 152.06 204.41 144.52 207.81 135.54C208.13 134.54 208.45 133.44 208.81 132.4C208.939 131.691 209.109 130.989 209.32 130.3C210.219 126.003 210.34 121.58 209.68 117.24C209.53 116.37 209.38 115.5 209.15 114.65C208.86 113.58 208.5 112.52 208.15 111.49C204.78 103.49 197.43 97.93 189.62 94.63C183.97 92.4538 178.029 91.126 171.99 90.69C171.99 89.01 171.99 87.34 171.99 85.69C192.657 85.6433 213.303 85.6433 233.93 85.69C235.02 88.25 236.54 90.59 237.62 93.15C242.561 103.715 245.52 115.097 246.35 126.73C247.63 140.19 244.44 153.73 238.72 165.9C238.18 166.9 237.63 167.95 237.1 168.97C232.5 177.432 226.582 185.108 219.57 191.71C215.44 195.6 211.18 199.34 207.07 203.24C198.07 212.18 189.41 221.72 183.59 233.08C183.24 233.78 182.89 234.48 182.59 235.19L182.11 236.25C181.64 237.3 181.18 238.36 180.76 239.44C180.5 240.09 180.25 240.75 179.99 241.44L179.51 243.06C179.35 243.59 179.18 244.12 179.01 244.65C176.998 253.22 176.642 262.096 177.96 270.8C178.28 272.36 178.57 273.93 179.02 275.47C179.516 277.082 179.917 278.721 180.22 280.38C180.27 277.8 179.37 275.38 179.22 272.79C178.73 270.59 179.01 268.3 178.45 266.12C178.29 261.733 178.47 257.339 178.99 252.98C179.46 251.27 179.67 249.5 180.08 247.77C180.25 247.24 180.42 246.71 180.58 246.18C180.918 244.97 181.329 243.781 181.81 242.62C185.42 233.2 192.61 225.72 200.25 219.38C214.68 207.75 230.56 197.7 243.02 183.82C248.363 177.773 252.885 171.049 256.47 163.82C257.07 162.39 257.71 160.98 258.31 159.55L259.11 157.55C259.35 156.81 259.62 156.08 259.88 155.34C260.58 153.49 261.06 151.56 261.68 149.69C261.83 148.99 261.98 148.3 262.17 147.61C262.36 146.92 262.48 146.2 262.69 145.51C263.08 143.78 263.28 142 263.77 140.29C263.792 139.043 263.967 137.804 264.29 136.6C264.47 134.69 264.29 132.73 264.79 130.86C264.95 126.86 264.95 122.86 264.79 118.86C264.25 116.51 264.61 114.05 264.12 111.68C263.89 109.37 263.49 107.07 263.21 104.77C262.99 103.904 262.82 103.026 262.7 102.14C262.3 100.42 262 98.67 261.7 96.93C261.09 94.13 260.31 91.37 259.65 88.58C259.38 87.74 259.12 86.91 258.84 86.09C258.77 85.8 258.63 85.25 258.57 84.97C258.332 84.2406 258.161 83.4907 258.06 82.73L257.05 82Z" fill="#FEFEFE"/>
</svg>
