<svg width="417" height="94" viewBox="0 0 417 94" fill="none" xmlns="http://www.w3.org/2000/svg">
<path d="M163.46 93.2999H282.56L297.4 85.5898H416.69" stroke="#00305B" stroke-width="0.49"/>
<path d="M181.45 30.5207V25.0507C182.1 25.1207 182.96 25.1207 183.45 25.1207C187.06 25.1207 188.98 22.7907 188.98 20.2207C188.98 17.6507 187.58 15.3607 183.13 15.3607H178.83V30.4807L181.45 30.5207ZM183.35 17.8407C185.16 17.8407 186.13 18.6207 186.13 20.2007C186.13 21.7807 184.9 22.6407 183.33 22.6407C182.72 22.6407 182.07 22.5907 181.45 22.5307V17.8907C182.16 17.8907 182.81 17.8407 183.35 17.8407V17.8407ZM190.88 22.9607C190.837 24.0021 191.012 25.041 191.393 26.011C191.774 26.9809 192.354 27.8607 193.095 28.5939C193.835 29.3271 194.721 29.8976 195.695 30.269C196.669 30.6404 197.709 30.8045 198.75 30.7507C199.787 30.7878 200.821 30.6124 201.788 30.2352C202.755 29.8581 203.634 29.2871 204.372 28.5575C205.11 27.8278 205.692 26.9549 206.08 25.9925C206.468 25.03 206.655 23.9982 206.63 22.9607C206.67 21.9188 206.493 20.88 206.11 19.9102C205.727 18.9404 205.147 18.0608 204.406 17.3273C203.665 16.5938 202.779 16.0224 201.806 15.6494C200.832 15.2765 199.791 15.11 198.75 15.1607C197.713 15.1248 196.68 15.3016 195.714 15.6801C194.748 16.0586 193.87 16.6309 193.134 17.3616C192.398 18.0923 191.819 18.9661 191.433 19.929C191.047 20.8919 190.862 21.9237 190.89 22.9607H190.88ZM193.69 22.9607C193.648 22.2785 193.746 21.5948 193.978 20.952C194.21 20.3091 194.572 19.7207 195.04 19.223C195.509 18.7254 196.074 18.3291 196.702 18.0587C197.33 17.7882 198.007 17.6494 198.69 17.6507C199.378 17.6457 200.06 17.7814 200.694 18.0495C201.328 18.3175 201.9 18.7123 202.376 19.2096C202.852 19.7068 203.221 20.2961 203.46 20.9411C203.7 21.5862 203.806 22.2735 203.77 22.9607C203.77 25.9607 201.87 28.2707 198.69 28.2707C198.011 28.258 197.341 28.1096 196.72 27.8344C196.098 27.5591 195.539 27.1625 195.073 26.6678C194.607 26.1732 194.245 25.5904 194.007 24.9538C193.77 24.3172 193.662 23.6396 193.69 22.9607V22.9607ZM220.18 27.0607C219.153 27.8483 217.894 28.2738 216.6 28.2707C215.897 28.3045 215.196 28.1896 214.54 27.9336C213.885 27.6776 213.291 27.2862 212.798 26.7851C212.304 26.2839 211.922 25.6842 211.676 25.0252C211.43 24.3662 211.326 23.6627 211.37 22.9607C211.37 19.6807 213.49 17.6507 216.3 17.6507C217.514 17.6156 218.708 17.9657 219.71 18.6507L220.9 16.6507C219.605 15.5959 217.97 15.0485 216.3 15.1107C211.3 15.1107 208.57 18.5707 208.57 22.9107C208.509 23.9497 208.669 24.9898 209.038 25.9626C209.408 26.9354 209.98 27.8189 210.716 28.5548C211.452 29.2907 212.335 29.8624 213.308 30.2323C214.281 30.6022 215.321 30.7618 216.36 30.7007C218.13 30.7669 219.86 30.1594 221.2 29.0007L220.2 27.0007L220.18 27.0607ZM234.33 27.0607C233.299 27.8484 232.037 28.2737 230.74 28.2707C230.038 28.303 229.338 28.1871 228.684 27.9304C228.03 27.6738 227.437 27.2822 226.945 26.7812C226.452 26.2802 226.071 25.681 225.825 25.0227C225.58 24.3645 225.476 23.6619 225.52 22.9607C225.52 19.6807 227.63 17.6507 230.44 17.6507C231.654 17.6156 232.848 17.9657 233.85 18.6507L235.04 16.6507C233.745 15.5943 232.11 15.0467 230.44 15.1107C225.44 15.1107 222.71 18.5707 222.71 22.9107C222.649 23.9497 222.809 24.9898 223.178 25.9626C223.548 26.9354 224.12 27.8189 224.856 28.5548C225.592 29.2907 226.475 29.8624 227.448 30.2323C228.421 30.6022 229.461 30.7618 230.5 30.7007C232.27 30.7669 234 30.1594 235.34 29.0007L234.34 27.0007L234.33 27.0607ZM240.33 30.5207L248.25 19.7907V30.5207H250.91V15.4007H248.58L240.65 26.1507V15.4007H237.99V30.5207H240.33ZM257.43 30.5207L265.35 19.7907V30.5207H268.01V15.4007H265.68L257.75 26.1507V15.4007H255.1V30.5207H257.43ZM257.49 11.7307C257.64 13.5707 259.22 14.8207 261.81 14.8207C264.19 14.8207 265.96 13.5907 266.02 11.7307H263.54C263.45 12.6607 262.78 12.9807 261.81 12.9807C260.84 12.9807 260.15 12.5707 259.98 11.7307H257.49ZM282.67 27.0507C281.642 27.837 280.384 28.2623 279.09 28.2607C278.387 28.2945 277.686 28.1796 277.03 27.9236C276.375 27.6676 275.781 27.2762 275.288 26.7751C274.794 26.2739 274.412 25.6742 274.166 25.0152C273.92 24.3562 273.816 23.6527 273.86 22.9507C273.86 19.6707 275.98 17.6407 278.78 17.6407C279.994 17.6042 281.188 17.9544 282.19 18.6407L283.38 16.6407C282.086 15.5826 280.45 15.0348 278.78 15.1007C273.78 15.1007 271.05 18.5607 271.05 22.9007C270.99 23.9402 271.151 24.9805 271.522 25.9533C271.893 26.9261 272.466 27.8094 273.203 28.5452C273.94 29.2809 274.824 29.8524 275.797 30.2222C276.77 30.592 277.811 30.7517 278.85 30.6907C280.617 30.7544 282.343 30.147 283.68 28.9907L282.68 26.9907L282.67 27.0507ZM286.32 30.5107H288.97V22.7107L295.15 30.5107H298.52L291.91 22.4307L298.13 15.4307H294.93L288.93 22.6007V15.4307H286.28V30.5507L286.32 30.5107ZM303.16 30.5107L311.08 19.7807V30.5107H313.75V15.3907H311.42L303.49 26.1407V15.3907H300.84V30.5107H303.16ZM320.26 30.5107L328.19 19.7807V30.5107H330.84V15.3907H328.51L320.59 26.1407V15.3907H317.93V30.5107H320.26ZM320.33 11.7207C320.48 13.5607 322.05 14.8107 324.64 14.8107C327.02 14.8107 328.79 13.5807 328.85 11.7207H326.37C326.29 12.6507 325.62 12.9707 324.64 12.9707C323.66 12.9707 322.98 12.5607 322.81 11.7207H320.33Z" fill="#00305B"/>
<path d="M327.37 59.7705H330.03V44.6505H327.75L319.75 55.4005V44.6505H317.1V59.7705H319.43L327.37 49.0505V59.7905V59.7705ZM328.04 40.9805H325.56C325.47 41.9105 324.8 42.2305 323.83 42.2305C322.86 42.2305 322.17 41.8205 322 40.9805H319.51C319.66 42.8205 321.24 44.0705 323.83 44.0705C326.21 44.0705 327.98 42.8405 328.04 40.9805ZM310.29 59.7705H312.93V44.6505H310.29V59.7705ZM308.29 54.6105C308.29 51.6105 306.5 49.7305 302.76 49.7305C302.198 49.7306 301.637 49.764 301.08 49.8305V44.6505H298.42V59.7705C299.31 59.7705 300.75 59.7705 302.18 59.7705C306.04 59.7705 308.29 57.7705 308.29 54.5705V54.6105ZM305.48 54.6705C305.48 56.4405 304.48 57.3305 302.48 57.3305C301.96 57.3305 301.53 57.3305 301.06 57.2605V52.3205C301.547 52.2555 302.038 52.2188 302.53 52.2105C304.38 52.2105 305.46 53.0505 305.46 54.6705H305.48ZM291.6 59.7705H294.23V44.6505H291.6V50.8305H284.75V44.6505H282.09V59.7705H284.75V53.3105H291.66V59.7705H291.6ZM274.82 47.1305H279.75V44.6505H267.3V47.1305H272.21V59.7705H274.86V47.1305H274.82ZM266.08 49.4705C266.08 46.9805 264.67 44.6105 260.23 44.6105H255.93V59.7305H258.58V54.2605C259.23 54.3305 260.1 54.3305 260.58 54.3305C264.19 54.3305 266.11 52.0005 266.11 49.4305L266.08 49.4705ZM263.27 49.4705C263.27 51.1605 262.04 51.9105 260.46 51.9105C259.86 51.9105 259.21 51.9105 258.58 51.8105V47.1605C259.3 47.1605 259.94 47.1605 260.48 47.1605C262.3 47.1605 263.27 47.9405 263.27 49.5105V49.4705ZM252.86 52.2405C252.9 51.1986 252.723 50.1598 252.34 49.1899C251.957 48.2201 251.376 47.3406 250.635 46.6071C249.894 45.8736 249.009 45.3022 248.035 44.9292C247.062 44.5562 246.021 44.3898 244.98 44.4405C243.943 44.4046 242.91 44.5814 241.944 44.9599C240.978 45.3384 240.1 45.9106 239.363 46.6414C238.627 47.3721 238.048 48.2458 237.662 49.2088C237.276 50.1717 237.092 51.2035 237.12 52.2405C237.077 53.2809 237.251 54.319 237.632 55.2882C238.012 56.2575 238.591 57.1367 239.331 57.8698C240.07 58.6029 240.955 59.1736 241.927 59.5456C242.9 59.9177 243.94 60.0828 244.98 60.0305C246.017 60.0676 247.051 59.8922 248.017 59.515C248.984 59.1378 249.864 58.5669 250.602 57.8372C251.34 57.1076 251.921 56.2347 252.309 55.2722C252.698 54.3097 252.885 53.278 252.86 52.2405V52.2405ZM250.06 52.2405C250.06 55.2405 248.16 57.5505 244.98 57.5505C244.296 57.5443 243.621 57.4009 242.994 57.1286C242.367 56.8562 241.801 56.4607 241.33 55.9653C240.859 55.47 240.492 54.885 240.251 54.2451C240.011 53.6052 239.901 52.9235 239.93 52.2405C239.887 51.554 239.986 50.8662 240.222 50.2199C240.457 49.5736 240.823 48.9828 241.297 48.4844C241.771 47.986 242.343 47.5908 242.976 47.3234C243.61 47.056 244.292 46.9223 244.98 46.9305C245.668 46.9255 246.35 47.0612 246.983 47.3292C247.617 47.5973 248.19 47.9921 248.665 48.4893C249.141 48.9866 249.51 49.5759 249.75 50.2209C249.99 50.866 250.095 51.5532 250.06 52.2405V52.2405ZM231.4 59.8005H234.06V44.6505H222.06V59.7705H224.75V47.1305H231.49V59.7705L231.4 59.8005ZM209.55 52.2405C209.55 48.9605 211.67 46.9305 214.47 46.9305C215.684 46.894 216.878 47.2442 217.88 47.9305L219.07 45.9305C217.776 44.8724 216.14 44.3246 214.47 44.3905C209.47 44.3905 206.74 47.8505 206.74 52.1905C206.68 53.2299 206.841 54.2702 207.212 55.2431C207.583 56.2159 208.156 57.0992 208.892 57.8349C209.629 58.5707 210.513 59.1422 211.486 59.512C212.46 59.8818 213.5 60.0414 214.54 59.9805C216.307 60.0441 218.032 59.4368 219.37 58.2805L218.37 56.2805C217.339 57.0681 216.077 57.4935 214.78 57.4905C214.078 57.5228 213.377 57.4068 212.723 57.1502C212.069 56.8935 211.477 56.5019 210.984 56.0009C210.492 55.4999 210.11 54.9008 209.865 54.2425C209.619 53.5842 209.515 52.8816 209.56 52.1805L209.55 52.2405ZM205.55 59.8005L198.94 51.7205L205.16 44.7205H201.96L195.96 51.8905V44.7205H193.4V59.8405H196.05V52.0405L202.23 59.8405L205.55 59.8005ZM190.28 52.2205C190.28 47.5105 187.13 44.4405 182.68 44.4405C180.805 44.375 178.966 44.9656 177.48 46.1105L178.48 48.1105C179.503 47.3504 180.745 46.9433 182.02 46.9505C184.87 46.9505 186.95 48.3505 187.46 50.8805H180.81V53.3605H187.61C187.431 54.5931 186.792 55.7123 185.822 56.4933C184.852 57.2743 183.622 57.6591 182.38 57.5705C180.976 57.5706 179.612 57.1065 178.5 56.2505L177.35 58.4805C178.822 59.5528 180.609 60.1051 182.43 60.0505C187.26 60.0505 190.33 56.9705 190.33 52.2405L190.28 52.2205Z" fill="#00305B"/>
<path d="M410.33 49.4694C410.33 46.9794 408.93 44.6094 404.48 44.6094H400.18V59.7294H402.84V54.2594C403.49 54.3294 404.35 54.3294 404.84 54.3294C408.45 54.3294 410.37 51.9994 410.37 49.4294L410.33 49.4694ZM407.52 49.4694C407.52 51.1594 406.29 51.9094 404.72 51.9094C404.11 51.9094 403.46 51.9094 402.84 51.8094V47.1594C403.55 47.1594 404.2 47.1594 404.74 47.1594C406.55 47.1594 407.52 47.9394 407.52 49.5094V49.4694ZM392.97 47.1594H397.87V44.6794H385.41V47.1594H390.31V59.7994H392.97V47.1594V47.1594ZM380.47 59.7994H383.1V44.6494H380.47V50.8294H373.56V44.6494H370.9V59.7694H373.56V53.3094H380.47V59.7694V59.7994ZM358.47 59.7994H367.47V57.3094H361.16V53.3994H366.61V50.9194H361.16V47.1594H367.25V44.6794H358.51V59.7994H358.47ZM353.35 62.4894H355.83V57.3094H353.83V44.6494H351.15V57.2794H344.52V44.6494H341.86V59.7694H353.37V62.4594L353.35 62.4894Z" fill="#00305B"/>
<path d="M74.5403 0.01L65.6603 3.32L64.0703 0L74.5403 0.01Z" fill="#1D71B8"/>
<path d="M64.0698 0L65.6598 3.32L58.0498 6.13L64.0698 0Z" fill="#E30613"/>
<path d="M101.46 0.779297L108.75 10.9793L81.3799 8.5093L101.46 0.779297Z" fill="#1D71B8"/>
<path d="M146.34 0.00976562L135.47 4.28977L129.65 0.00976562H146.34Z" fill="#1D71B8"/>
<path d="M58.0498 17.2598L49.3898 27.6298L38.5498 26.4698L58.0498 17.2598Z" fill="#1D71B8"/>
<path d="M49.3898 27.6307L38.5498 40.4107V26.4707L49.3898 27.6307Z" fill="#E30613"/>
<path d="M146.51 0.00976562L142.07 9.12977L135.47 4.28977L146.34 0.00976562H146.51Z" fill="#E30613"/>
<path d="M17.15 48.6992L16.25 59.0692L0.0400391 67.8492L17.15 48.6992Z" fill="#1D71B8"/>
<path d="M16.25 59.0703L15.03 70.8203L0 67.8903L16.25 59.0703Z" fill="#E30613"/>
<path d="M114.49 20.4004L129.83 39.0304L104.28 36.3304L114.49 20.4004Z" fill="#1D71B8"/>
<path d="M129.83 39.0301L92.5898 54.5501L104.28 36.3301L129.83 39.0301Z" fill="#E30613"/>
<path d="M74.4004 61.2591L38.4004 76.3391V53.1191L74.4004 61.2591Z" fill="#E30613"/>
<path d="M118.44 68.0801L107.92 89.6101L102.33 74.7601L118.44 68.0801Z" fill="#1D71B8"/>
<path d="M102.33 74.7598L107.92 89.6098L80.7598 84.0898L102.33 74.7598Z" fill="#E30613"/>
<path d="M63.46 29.6096L84.62 21.3496L90.43 32.3696L63.46 29.6096Z" fill="#1D71B8"/>
<path d="M63.46 29.6094L90.43 32.3694L66.81 41.8894L63.46 29.6094Z" fill="#E30613"/>
</svg>
