<svg width="343" height="107" viewBox="0 0 343 107" fill="none" xmlns="http://www.w3.org/2000/svg">
<path fill-rule="evenodd" clip-rule="evenodd" d="M271.78 74.3349C264.78 85.9949 253.59 88.5449 238.05 88.3349C232.147 88.1233 226.392 86.4352 221.31 83.4249C217.499 81.0931 214.205 78.0066 211.63 74.3549H204.37C208.293 79.887 213.489 84.3946 219.52 87.4977C225.55 90.6008 232.238 92.2084 239.02 92.185H243.35C257.61 92.185 272.12 88.075 278.24 74.3549L271.78 74.3349ZM286.16 24.085C283.631 23.5017 281.065 23.0941 278.48 22.865C273.37 22.535 268.01 21.415 262.12 21.415H255.38C242.01 21.415 231.29 22.9549 219.98 24.7649C214.622 25.5749 209.317 26.6968 204.09 28.1249C200.95 29.0649 191.5 32.0049 188.49 32.0049H185.6C184.21 32.0049 172.84 28.7249 170.53 28.0649C165.63 26.6449 160.24 25.6149 154.94 24.6449C143.463 22.5289 131.82 21.4479 120.15 21.415H113.89C108.66 21.415 83.33 23.4149 83.33 26.2349V38.2349C83.3267 38.5034 83.3813 38.7694 83.49 39.0149H96.87C98.0844 35.9064 100.167 33.2127 102.87 31.2549C106.98 28.3649 114.14 26.445 121.16 26.445H125.01C134.197 26.5313 143.341 27.7096 152.25 29.9549C156.226 30.8099 160.093 32.108 163.78 33.8249C166.245 34.9972 168.367 36.7846 169.94 39.0149H205.07C205.806 37.9057 206.683 36.8972 207.68 36.0149C210.38 33.6749 215.47 32.1849 219.38 30.8749C226.17 28.5949 239.98 26.4549 248.88 26.4549H252.97C257.846 26.39 262.698 27.1508 267.32 28.7049C270.21 29.6549 275.84 33.1749 276.55 35.8349C276.94 36.8949 277.28 37.955 277.55 39.025H291.66C291.829 38.7192 291.915 38.3744 291.91 38.025V26.9549C291.95 24.5049 288.35 24.515 286.16 24.085ZM163.4 74.3349C153.27 91.8249 113.57 94.8449 101.34 74.3349H96.94C103.06 87.7249 116.73 92.1649 130.94 92.1649H133.34C141.52 92.1649 149.68 90.6449 155 87.8349C162 84.1249 166.76 80.1249 170.78 74.3349H163.4ZM82.86 8.47495C82.2517 7.82581 81.5134 7.31219 80.6932 6.96758C79.873 6.62297 78.9894 6.45511 78.1 6.47495V6.47495C70.94 6.63495 62.88 13.5649 58.02 18.2649L49.66 26.9549C48.4 28.2883 47.1333 29.5949 45.86 30.8749C46.27 30.0549 46.68 29.2349 47.07 28.4049C48.0168 26.4336 48.8515 24.4104 49.57 22.3449C50.1733 20.722 50.6318 19.0488 50.94 17.3449C51.2229 15.737 51.3667 14.1076 51.37 12.475V12.415C51.2956 10.7318 51.0066 9.06493 50.51 7.45495C50.0134 5.9395 49.123 4.58324 47.93 3.52495C46.7625 2.36576 45.3715 1.45598 43.8415 0.850881C42.3116 0.245779 40.6746 -0.0420245 39.03 0.00494937V0.00494937C36.4878 0.0793445 33.9635 0.455304 31.51 1.12494C28.6954 1.90676 25.9756 2.99668 23.4 4.37494C17.6496 7.20242 12.403 10.9558 7.87 15.4849C5.93 17.4049 3.97 19.3549 2.14 21.3849C1.63 21.9549 1.14 22.5449 0.660004 23.1549C0.30303 23.5517 0.0731374 24.0463 0 24.5749V24.6749C0.09 25.4749 0.510006 26.2449 1.42001 26.2449H1.63L1.83 26.1449C2.26669 25.9011 2.68155 25.62 3.07 25.305C3.79537 24.6997 4.46474 24.0303 5.07 23.305C6.17 22.115 7.28 20.9149 8.4 19.7349C9.02 19.0649 9.65 18.3949 10.3 17.7349C13.7613 14.496 17.7093 11.8201 22 9.80495C24.5444 8.52724 27.182 7.44414 29.89 6.56495C31.9293 5.88368 34.0603 5.51615 36.21 5.47495C37.3236 5.44461 38.4311 5.64984 39.4599 6.07722C40.4887 6.50459 41.4157 7.14447 42.18 7.95495C43.0829 8.90475 43.7658 10.0416 44.18 11.2849C44.6156 12.6793 44.8249 14.1344 44.8 15.5949C44.8 20.7049 42.39 26.5949 40.14 31.0449C38 35.0449 35.57 39.0449 33.14 42.8449C29.69 48.1749 26.07 53.4149 22.38 58.5849C20.67 61.0249 18.95 63.525 17.38 66.075C16.86 66.925 15.59 68.9649 15.59 69.9749C15.582 70.1937 15.6207 70.4116 15.7035 70.6142C15.7863 70.8168 15.9114 70.9995 16.0704 71.1499C16.2294 71.3004 16.4186 71.4152 16.6255 71.4868C16.8323 71.5583 17.052 71.585 17.27 71.5649H17.38C18.0609 71.4571 18.7076 71.1936 19.27 70.7949C20.036 70.2712 20.7115 69.626 21.27 68.8849V68.8849C21.92 67.9549 22.59 67.055 23.27 66.145C24.55 64.425 25.76 62.6349 26.96 60.8649C28.43 58.8649 29.96 56.8649 31.49 54.8649C33.02 52.8649 34.84 50.6949 36.59 48.6749C38.63 46.1949 40.6867 43.7216 42.76 41.2549C44.8333 38.7883 46.8967 36.3083 48.95 33.8149C51.33 30.9549 53.81 28.1549 56.38 25.4649C58.7787 22.9528 61.3338 20.5948 64.03 18.4049V18.4049C66.0984 16.554 68.3196 14.8814 70.67 13.4049C71.8069 12.6448 73.0916 12.1336 74.44 11.9049C74.9061 11.9359 75.357 12.0829 75.7518 12.3327C76.1465 12.5824 76.4725 12.927 76.7 13.335V13.335C77.4099 14.2607 77.7647 15.4101 77.7 16.5749C77.6399 17.9179 77.4829 19.2547 77.23 20.5749C76.89 22.5749 76.45 24.4749 75.97 26.3949C75.06 29.8149 74.16 33.2449 73.34 36.6849C72.87 38.6349 72.41 40.5749 71.96 42.5249C71.52 44.0649 71.09 45.6049 70.67 47.1449C70.26 48.6649 69.86 50.1449 69.46 51.6949C68.5048 55.032 68.0102 58.4839 67.99 61.9549V62.0249C68.04 62.6049 68.09 63.1849 68.17 63.7649C68.2018 64.1273 68.2687 64.4856 68.37 64.8349V64.8349C68.6894 65.4936 69.1781 66.0555 69.7861 66.4632C70.394 66.8708 71.0994 67.1096 71.83 67.1549L72.75 67.2949L72.89 66.3749C73.43 62.8149 74.0533 59.2649 74.76 55.7249C75.4267 52.3249 76.2433 48.9516 77.21 45.6049C79.21 38.3749 81.13 31.1049 82.85 23.8149C83.37 21.6549 83.85 19.485 84.27 17.305C84.41 16.585 84.54 15.8649 84.63 15.1349C84.708 14.6318 84.7515 14.124 84.76 13.615C84.8053 12.6744 84.6603 11.7345 84.3339 10.8513C84.0074 9.96811 83.5061 9.15988 82.86 8.47495V8.47495ZM210.36 39.4749L211.19 38.4749C211.465 38.2378 211.64 37.9056 211.68 37.5449V37.4249V37.305C211.47 36.535 211.03 35.7049 210.12 35.7049H210.02C209.091 35.9202 208.254 36.4244 207.63 37.1449V37.1449C201.63 43.6949 195.54 50.2849 189.63 56.9549L185.24 61.9549C184.67 62.3049 184.09 62.6349 183.51 62.9549C182.301 63.6041 181.036 64.1429 179.73 64.5649C178.752 64.8784 177.748 65.1027 176.73 65.2349C175.908 65.3417 175.079 65.3984 174.25 65.4049C173.821 65.4095 173.396 65.3278 173 65.1649C174.26 64.0729 175.325 62.7743 176.15 61.3249C176.97 59.864 177.411 58.2203 177.43 56.5449C177.43 53.2449 175.43 51.6149 172.25 51.6149C170.432 51.6877 168.649 52.1444 167.02 52.9549C164.799 54.0245 162.734 55.3902 160.88 57.0149V57.0149C159.679 58.0399 158.553 59.1494 157.51 60.3349C155.968 61.3346 154.35 62.2107 152.67 62.9549C151.079 63.6581 149.449 64.2724 147.79 64.7949C146.526 65.2058 145.232 65.5168 143.92 65.7249C143.128 65.8915 142.319 65.9687 141.51 65.9549V65.9549C140.51 65.8749 139.06 65.625 138.51 64.715C138.302 64.361 138.198 63.9554 138.21 63.5449C138.42 61.6421 139.225 59.8539 140.51 58.4349L143.09 55.3549L143.39 55.0049L143.28 54.5549C143.1 53.7549 142.7 52.7549 141.72 52.7549C140.516 52.901 139.383 53.3983 138.46 54.1849C137.207 55.1226 136.081 56.2183 135.11 57.4449C134.197 57.8886 133.258 58.2793 132.3 58.6149C131.12 59.0349 129.93 59.4349 128.74 59.8149C127.55 60.1949 126.39 60.5449 125.21 60.8949L124.42 61.1249C124.855 60.3612 125.353 59.6353 125.91 58.9549C126.703 58.1189 127.355 57.1598 127.84 56.1149V56.1149C127.973 55.7723 128.019 55.4019 127.974 55.0372C127.928 54.6724 127.793 54.3246 127.58 54.0249C127.337 53.7335 127.031 53.5023 126.684 53.3496C126.336 53.1969 125.959 53.1269 125.58 53.1449H125.4L125.24 53.2149C124.8 53.3949 124.33 53.5449 123.87 53.6949C123.165 53.8861 122.538 54.2957 122.08 54.8649C121.692 55.3371 121.357 55.8501 121.08 56.3949C120.86 56.8849 120.62 57.3949 120.38 57.8349C120.04 58.5249 119.64 59.2049 119.25 59.8349C119.02 60.2149 118.79 60.5949 118.55 60.9649L117.02 61.8949C115.65 62.7149 114.23 63.4649 112.79 64.1549C111.163 64.9552 109.474 65.624 107.74 66.1549C106.072 66.6751 104.337 66.9447 102.59 66.9549C101.07 66.9549 100.49 66.2149 100.49 64.7049C100.706 63.6376 101.12 62.6201 101.71 61.7049C102.2 60.8349 103.25 58.9949 103.25 57.9849C103.259 57.7607 103.224 57.5368 103.144 57.3267C103.065 57.1166 102.945 56.9246 102.79 56.7622C102.635 56.5997 102.449 56.4702 102.243 56.3814C102.036 56.2925 101.814 56.2461 101.59 56.2449C102.145 55.5238 102.438 54.6349 102.42 53.7249C102.416 53.3742 102.323 53.0302 102.15 52.7249C101.43 51.4249 99.63 51.2849 98.32 51.3249C96.3467 51.422 94.411 51.9009 92.62 52.7349C90.1799 53.7919 87.8737 55.1346 85.75 56.7349V56.7349C83.05 58.8349 78.55 62.7349 78.55 66.4749V66.645C78.6267 67.2996 78.8641 67.9252 79.2409 68.4661C79.6178 69.0069 80.1224 69.4462 80.71 69.7449C81.759 70.2057 82.9129 70.375 84.05 70.2349C85.111 70.1053 86.1461 69.8153 87.12 69.3749C88.3199 68.8834 89.4917 68.3258 90.63 67.7049C91.73 67.1149 92.82 66.5149 93.91 65.9049L94.91 65.3149C95.16 67.4049 95.85 69.6049 97.66 70.7449C98.5105 71.2559 99.4881 71.5159 100.48 71.4949C103.844 71.3272 107.131 70.4262 110.11 68.8549C111.75 68.0749 113.36 67.235 114.95 66.365L114.71 66.7749C114.247 67.4939 113.95 68.3069 113.84 69.1549C113.863 69.46 113.968 69.7532 114.144 70.0032C114.32 70.2533 114.56 70.4509 114.84 70.575C115.15 70.7991 115.511 70.9433 115.89 70.9949C116.408 70.9138 116.884 70.6601 117.24 70.2749C117.73 69.8549 118.24 69.4249 118.66 68.9849C119.08 68.5449 119.82 67.8349 120.37 67.2249C120.92 66.6149 121.37 66.0949 121.86 65.5149C122.86 65.2049 123.78 64.9349 124.76 64.7049C125.93 64.4149 127.1 64.1049 128.26 63.7749C129.42 63.4449 130.65 63.0449 131.82 62.6249C132.24 62.4749 132.66 62.3149 133.07 62.1349C132.879 62.8429 132.775 63.5717 132.76 64.3049C132.76 68.0349 134.64 70.2449 138.45 70.2449C141.671 70.1712 144.859 69.5769 147.89 68.4849C150.13 67.7034 152.315 66.7713 154.43 65.6949C154.251 66.3468 154.157 67.019 154.15 67.6949C154.12 68.3452 154.249 68.9929 154.526 69.5819C154.803 70.171 155.22 70.6835 155.74 71.075C156.799 71.815 158.081 72.1681 159.37 72.075V72.075C161.387 71.9741 163.364 71.478 165.19 70.615C166.836 69.7991 168.38 68.7922 169.79 67.615C171.003 68.5057 172.476 68.9699 173.98 68.935V68.935C176.011 68.8237 178.023 68.4883 179.98 67.935L178.98 69.185C174.51 74.355 170.21 79.5449 166.17 84.9549C164.6 87.0349 163.08 89.1449 161.65 91.3049C160.47 93.0849 159.34 94.8949 158.32 96.7649C158.17 97.0349 157.93 97.355 157.76 97.615C157.23 98.385 156.76 99.2449 156.3 100.065C155.493 100.939 155.046 102.085 155.05 103.275V103.385V103.495C155.135 103.916 155.312 104.314 155.568 104.659C155.824 105.005 156.152 105.29 156.53 105.495C156.887 105.766 157.301 105.954 157.74 106.045C158.11 106.105 158.485 106.135 158.86 106.135H159.03C159.729 106.013 160.392 105.736 160.97 105.325C161.373 105.063 161.7 104.7 161.918 104.272C162.136 103.843 162.236 103.365 162.21 102.885V99.9549C162.4 99.2965 162.658 98.6597 162.98 98.0549C163.51 96.9649 164.13 95.8949 164.77 94.8549C166.77 91.5549 169.05 88.3349 171.3 85.1949C174.3 81.1949 177.47 77.195 180.85 73.535C183.117 71.0092 185.517 68.6058 188.04 66.3349C188.03 66.5081 188.03 66.6818 188.04 66.8549C188.025 67.3286 188.106 67.8003 188.278 68.242C188.45 68.6836 188.709 69.0859 189.04 69.4249C189.336 69.7376 189.673 70.0099 190.04 70.2349C190.516 70.501 191.055 70.6324 191.6 70.615V70.615C194.28 70.535 197.42 69.1349 199.76 67.9249C201.27 67.0449 202.76 66.1049 204.17 65.0849C205.478 64.1461 206.697 63.0883 207.81 61.9249V61.9249C209.2 60.4349 211.4 57.8649 211.4 55.6949V55.6249C211.18 52.9049 209.34 51.6849 206.72 51.6849C204.084 51.836 201.502 52.4876 199.11 53.6049V53.6049L197.11 54.7049C200.443 50.9116 203.757 47.1183 207.05 43.3249L210.36 39.4749ZM97.71 58.4749C96.98 59.2649 96.25 60.0549 95.48 60.8049C95.0587 61.2246 94.6038 61.6092 94.12 61.9549C92.6482 62.9832 91.0689 63.8483 89.41 64.535C88.081 65.0824 86.6443 65.3184 85.21 65.2249C85.14 65.2249 85.07 65.2249 85.04 65.1349C84.9247 64.8736 84.8667 64.5906 84.87 64.3049C84.87 62.1749 87.22 59.9249 88.72 58.6649C90.53 57.1349 93.22 55.2149 95.72 55.2049C95.9716 55.1917 96.2209 55.258 96.4327 55.3944C96.6445 55.5308 96.808 55.7304 96.9 55.9649V55.9649C96.9834 56.1167 97.0569 56.2737 97.12 56.4349C97.17 56.5649 97.23 56.6949 97.29 56.8249C97.3638 57.0604 97.4903 57.2759 97.66 57.4549L97.93 57.7249H98.27C98.08 58.0349 97.88 58.2549 97.71 58.4649V58.4749ZM161.25 67.4749C160.736 67.4595 160.245 67.2568 159.87 66.9049C159.714 66.6972 159.605 66.4584 159.55 66.2048C159.495 65.9511 159.495 65.6886 159.55 65.435C159.734 64.4753 160.111 63.5633 160.66 62.7549C161.311 61.7596 162.087 60.8522 162.97 60.0549C163.889 59.211 164.894 58.4668 165.97 57.8349C166.362 57.6032 166.766 57.3929 167.18 57.2049C167.1 57.4349 167.03 57.6749 166.96 57.9049C166.695 58.8094 166.544 59.7432 166.51 60.6849C166.471 61.5963 166.579 62.5079 166.83 63.3849C166.99 63.9511 167.24 64.4879 167.57 64.9749C165.755 66.4048 163.554 67.2581 161.25 67.4249V67.4749ZM170.33 62.4749C170.029 61.6006 169.887 60.6794 169.91 59.7549C170.017 58.6166 170.483 57.5417 171.24 56.6849C171.517 56.3041 171.875 55.9892 172.289 55.7628C172.702 55.5363 173.16 55.4039 173.63 55.3749C173.821 55.3926 174.009 55.4329 174.19 55.4949C174.234 55.6476 174.254 55.8061 174.25 55.9649C174.25 58.4649 172.24 60.7649 170.33 62.4149V62.4749ZM198.81 57.6549C200.361 56.6142 202.173 56.0287 204.04 55.9649C204.624 55.9921 205.2 56.1067 205.75 56.3049C205.84 56.3049 206.12 56.4749 206.16 56.5849C206.16 58.8249 203.27 61.3049 201.68 62.5849C200.18 63.8449 196.99 66.3749 194.92 66.3749C194.3 66.3749 193.46 66.2949 193.16 65.6549C192.957 65.2202 192.719 64.8023 192.45 64.4049C192.333 64.2011 192.176 64.0227 191.989 63.8802C191.801 63.7377 191.588 63.6339 191.36 63.5749C192.71 62.4349 194.08 61.2949 195.46 60.1849C196.51 59.2649 197.65 58.3449 198.81 57.5949V57.6549ZM342.64 60.8349V60.7649C342.583 60.5134 342.453 60.2843 342.266 60.1064C342.079 59.9285 341.844 59.8097 341.59 59.7649C341.367 59.7362 341.141 59.7745 340.94 59.8749C340.69 60.0024 340.46 60.1677 340.26 60.3649C339.43 60.9449 338.53 61.4749 337.66 61.9949C336.29 62.8149 334.87 63.565 333.43 64.255C331.819 65.0533 330.147 65.722 328.43 66.255C326.762 66.7744 325.027 67.044 323.28 67.0549C321.75 67.0549 321.18 66.3149 321.18 64.8049C321.397 63.7395 321.807 62.7227 322.39 61.8049C322.88 60.9349 323.93 59.0949 323.93 58.0849C323.939 57.8615 323.904 57.6384 323.825 57.429C323.747 57.2196 323.627 57.028 323.473 56.8657C323.319 56.7034 323.134 56.5737 322.929 56.4843C322.724 56.3948 322.504 56.3474 322.28 56.3449C322.832 55.6225 323.121 54.7337 323.1 53.8249C323.086 53.4757 322.993 53.1341 322.83 52.8249C322.11 51.5249 320.31 51.3849 318.99 51.4249C317.02 51.5233 315.088 52.0021 313.3 52.8349C310.859 53.8896 308.552 55.2325 306.43 56.8349V56.8349C304.375 58.3533 302.535 60.1429 300.96 62.1549L300.3 62.5949C299.057 63.4341 297.754 64.1795 296.4 64.825C295.119 65.4503 293.755 65.8881 292.35 66.1249C291.015 66.3592 289.643 66.27 288.35 65.865C287.501 65.6389 286.736 65.1697 286.15 64.5149C285.602 63.6961 285.341 62.7181 285.41 61.7349C285.511 60.8742 285.755 60.0361 286.13 59.2549C286.611 58.1207 287.323 57.099 288.22 56.2549V56.2549C289.068 55.4541 289.866 54.6025 290.61 53.7049C291.145 53.1601 291.495 52.4602 291.61 51.7049C291.617 51.4474 291.569 51.1913 291.469 50.9539C291.369 50.7166 291.219 50.5035 291.029 50.329C290.84 50.1546 290.615 50.0229 290.37 49.9428C290.125 49.8628 289.866 49.8362 289.61 49.8649C287.75 49.8649 285.61 52.7249 284.61 54.0649C283.371 55.5931 282.222 57.1925 281.17 58.8549C280.624 59.8332 279.929 60.7204 279.11 61.4849V61.4849C278.48 62.0049 277.83 62.4849 277.18 63.0149C276.53 63.5449 275.86 63.9549 275.18 64.3749C274.615 64.7217 274.011 65.0003 273.38 65.2049C272.981 65.3194 272.559 65.3194 272.16 65.2049C271.889 65.1095 271.654 64.9311 271.49 64.6949C271.319 64.2072 271.244 63.6911 271.27 63.1749C271.418 62.0335 271.756 60.9249 272.27 59.8949C272.905 58.515 273.849 57.3002 275.03 56.3449C275.649 55.8063 276.338 55.3555 277.08 55.0049C278.008 54.5668 278.828 53.9281 279.48 53.1349L279.57 53.0349L279.63 52.9049C279.768 52.6159 279.835 52.2978 279.824 51.9776C279.814 51.6574 279.727 51.3444 279.57 51.0649C279.327 50.6521 278.983 50.3079 278.57 50.0649C278.174 49.8184 277.725 49.6709 277.26 49.6349C276.812 49.5917 276.36 49.6676 275.95 49.8549C274.914 50.4864 274.062 51.3797 273.48 52.4449C272.483 53.9059 271.322 55.2479 270.02 56.4449C268.69 57.7749 267.34 59.0849 265.93 60.3349C264.93 61.2349 263.85 62.1349 262.76 62.9649C261.96 63.5749 261.14 64.175 260.28 64.715C259.634 65.137 258.967 65.5242 258.28 65.8749V65.8749C257.757 66.1849 257.18 66.392 256.58 66.4849C256.241 66.5074 255.9 66.4597 255.58 66.3449C255.537 66.3369 255.496 66.3199 255.46 66.2949V66.2249C255.465 65.6763 255.505 65.1285 255.58 64.5849C255.66 63.8749 255.72 63.1649 255.75 62.4549C255.795 61.5972 255.537 60.7509 255.02 60.0649C254.707 59.6917 254.287 59.4234 253.817 59.2965C253.346 59.1695 252.848 59.1899 252.39 59.3549C251.486 59.5857 250.636 59.9936 249.89 60.5549C249.245 61.1532 248.701 61.8523 248.28 62.6249C248.21 62.7449 248.15 62.8749 248.09 62.9949C247.43 63.3449 246.76 63.6849 246.09 63.9949C244.463 64.7952 242.774 65.464 241.04 65.9949C239.376 66.5152 237.644 66.7848 235.9 66.7949C234.37 66.7949 233.8 66.0549 233.8 64.5449C234.017 63.4795 234.427 62.4627 235.01 61.5449C235.5 60.6749 236.55 58.8349 236.55 57.8249C236.559 57.6015 236.524 57.3784 236.445 57.169C236.367 56.9596 236.247 56.768 236.093 56.6057C235.939 56.4434 235.754 56.3137 235.549 56.2243C235.344 56.1348 235.124 56.0874 234.9 56.0849C235.452 55.3625 235.741 54.4737 235.72 53.5649C235.707 53.2142 235.611 52.8715 235.44 52.5649C234.72 51.2649 232.92 51.1249 231.61 51.1649C229.64 51.262 227.707 51.7409 225.92 52.5749C223.477 53.6318 221.167 54.9745 219.04 56.5749V56.5749C216.33 58.6749 211.83 62.5749 211.83 66.3149V66.4849C211.907 67.1396 212.144 67.7652 212.521 68.3061C212.898 68.8469 213.402 69.2862 213.99 69.5849C215.043 70.0456 216.2 70.2148 217.34 70.075C218.397 69.944 219.429 69.6541 220.4 69.215C221.6 68.7234 222.772 68.1658 223.91 67.5449C225.01 66.9549 226.11 66.3549 227.19 65.7449L228.19 65.1549C228.44 67.2449 229.13 69.4449 230.95 70.5849C231.797 71.0946 232.771 71.3546 233.76 71.3349C237.124 71.1685 240.411 70.2674 243.39 68.6949C244.83 68.0283 246.25 67.3049 247.65 66.5249C247.733 67.1873 247.954 67.8249 248.298 68.3968C248.643 68.9686 249.103 69.4619 249.65 69.8449C250.643 70.7059 251.916 71.1753 253.23 71.1649C254.599 71.1148 255.95 70.8412 257.23 70.3549C258.375 69.8933 259.473 69.324 260.51 68.6549C261.808 67.79 263.054 66.8483 264.24 65.8349C264.83 65.3249 265.44 64.835 266.04 64.325C265.903 65.0473 265.887 65.7871 265.99 66.5149C266.106 67.3771 266.451 68.1922 266.99 68.8749C267.298 69.2474 267.683 69.5497 268.117 69.7618C268.552 69.9739 269.027 70.0909 269.51 70.1049C270.514 70.1407 271.513 69.9457 272.43 69.535C273.5 69.0983 274.531 68.5696 275.51 67.9549C276.51 67.2949 277.51 66.6249 278.51 65.9549L279.84 65.0449C279.884 66.4094 280.392 67.7181 281.28 68.755C282.338 69.8823 283.749 70.6159 285.28 70.8349V70.8349C286.467 70.9549 287.663 70.9549 288.85 70.8349C290.431 70.687 291.989 70.3513 293.49 69.8349C295.411 69.161 297.266 68.3107 299.03 67.2949L299.19 67.215C299.303 67.7891 299.548 68.3291 299.906 68.7924C300.263 69.2557 300.723 69.6297 301.25 69.8849C302.303 70.3456 303.46 70.5148 304.6 70.3749C305.66 70.2428 306.695 69.9529 307.67 69.5149C308.866 69.0213 310.034 68.4639 311.17 67.8449C312.27 67.2549 313.37 66.6549 314.45 66.0449L315.45 65.4549C315.7 67.5449 316.4 69.7449 318.21 70.8849C319.06 71.3959 320.038 71.6559 321.03 71.6349C324.394 71.4656 327.68 70.5647 330.66 68.9949C334.477 67.1432 338.189 65.0834 341.78 62.8249C342.159 62.6593 342.46 62.354 342.621 61.9722C342.781 61.5905 342.788 61.1617 342.64 60.7749V60.8349ZM230.7 58.5249C229.98 59.3149 229.24 60.1049 228.47 60.8549C228.051 61.262 227.596 61.6302 227.11 61.9549C225.64 62.9809 224.065 63.8459 222.41 64.535C221.077 65.0815 219.638 65.3174 218.2 65.2249C218.13 65.2249 218.06 65.2249 218.03 65.1349C217.918 64.8728 217.864 64.5899 217.87 64.3049C217.87 62.1749 220.22 59.9249 221.71 58.6649C223.52 57.1349 226.21 55.2149 228.71 55.2049C228.96 55.1924 229.208 55.259 229.418 55.3955C229.628 55.532 229.79 55.7312 229.88 55.9649V55.9649C229.963 56.1167 230.037 56.2737 230.1 56.4349C230.1 56.5649 230.21 56.6949 230.27 56.8249C230.344 57.0604 230.47 57.2759 230.64 57.4549L230.91 57.7249H231.26C231.07 58.0349 230.88 58.2549 230.7 58.4649V58.5249ZM318.33 58.5249C317.61 59.3149 316.87 60.1049 316.11 60.8549C315.69 61.2884 315.235 61.6865 314.75 62.0449C313.276 63.0691 311.697 63.9339 310.04 64.6249C308.707 65.1715 307.268 65.4074 305.83 65.3149C305.796 65.3154 305.763 65.3075 305.733 65.2917C305.704 65.276 305.678 65.253 305.66 65.2249C305.548 64.9628 305.494 64.6799 305.5 64.395C305.5 62.265 307.85 60.0149 309.35 58.7549C311.15 57.2249 313.84 55.3049 316.35 55.2949C316.587 55.275 316.825 55.3274 317.032 55.4452C317.239 55.563 317.406 55.7407 317.51 55.9549V55.9549C317.593 56.1067 317.667 56.2637 317.73 56.4249L317.9 56.8149C317.981 57.0469 318.107 57.2609 318.27 57.4449L318.54 57.7149H318.89C318.7 58.0349 318.51 58.2549 318.33 58.4649V58.5249ZM174.83 102.685H170.83C169.87 102.685 169.39 102.455 169.39 101.995V99.8549C169.391 99.7237 169.439 99.5971 169.525 99.498C169.611 99.399 169.73 99.334 169.86 99.3149C170.123 99.2622 170.392 99.2387 170.66 99.2449H174.75C175.02 99.2449 175.15 99.1049 175.15 98.8049V98.685C175.15 98.385 175.02 98.2349 174.75 98.2349H170.63C169.13 98.2349 168.38 98.7849 168.38 99.8849V102.045C168.357 102.338 168.426 102.631 168.579 102.882C168.731 103.134 168.959 103.33 169.23 103.445C169.746 103.63 170.293 103.712 170.84 103.685H174.74C175.06 103.685 175.22 103.545 175.22 103.245V103.135C175.22 102.835 175.09 102.685 174.83 102.685ZM181.71 98.2349H181.13C180.87 98.2349 180.74 98.385 180.74 98.685V98.8049C180.74 99.1049 180.87 99.2449 181.12 99.2449H181.92C182.69 99.2449 183.1 99.4349 183.16 99.8049H179.44C178.943 99.7896 178.45 99.9033 178.01 100.135C177.77 100.25 177.569 100.433 177.431 100.66C177.293 100.887 177.223 101.149 177.23 101.415V102.115C177.23 102.825 177.71 103.315 178.66 103.575C178.927 103.648 179.203 103.684 179.48 103.685H182.05C183.49 103.685 184.21 103.145 184.21 102.055V99.9549C184.21 98.7949 183.37 98.2349 181.71 98.2349V98.2349ZM183.16 102.115C183.16 102.495 182.79 102.685 182.06 102.685H179.45L178.85 102.585C178.47 102.485 178.28 102.325 178.28 102.105V101.405C178.28 101.215 178.45 101.055 178.77 100.935C178.979 100.859 179.198 100.819 179.42 100.815H183.16V102.115ZM193.42 102.965L190.17 98.3449C190.112 98.2689 190.036 98.2082 189.948 98.1681C189.861 98.128 189.766 98.1098 189.67 98.115C189.578 98.1065 189.485 98.1223 189.401 98.1609C189.316 98.1995 189.244 98.2595 189.19 98.3349L185.92 102.955C185.834 103.056 185.785 103.183 185.78 103.315C185.78 103.555 185.92 103.675 186.22 103.675H186.51C186.569 103.676 186.628 103.662 186.681 103.634C186.733 103.606 186.778 103.565 186.81 103.515L189.67 99.435L192.51 103.525C192.541 103.576 192.585 103.618 192.638 103.647C192.691 103.675 192.75 103.688 192.81 103.685H193.11C193.4 103.685 193.55 103.565 193.55 103.325C193.545 103.191 193.5 103.062 193.42 102.955V102.965ZM199.42 98.2349H197.67C196.987 98.189 196.312 98.4034 195.78 98.8349C195.609 98.974 195.471 99.1493 195.376 99.3482C195.281 99.547 195.231 99.7645 195.23 99.9849V101.985C195.231 102.245 195.3 102.5 195.43 102.725C195.677 103.08 196.016 103.361 196.411 103.537C196.805 103.714 197.241 103.778 197.67 103.725H199.42C199.934 103.746 200.445 103.643 200.91 103.425C201.177 103.29 201.397 103.078 201.54 102.815C201.683 102.552 201.742 102.252 201.71 101.955V99.9549C201.71 98.8083 200.93 98.2349 199.37 98.2349H199.42ZM200.64 101.955C200.64 102.205 200.46 102.395 200.12 102.515C199.873 102.604 199.612 102.648 199.35 102.645H197.64C197.355 102.649 197.072 102.608 196.8 102.525C196.42 102.412 196.23 102.222 196.23 101.955V99.9549C196.23 99.6849 196.42 99.4749 196.79 99.3449C197.062 99.2582 197.345 99.2143 197.63 99.215H199.34C200.2 99.215 200.64 99.435 200.64 99.865V101.955ZM209.91 98.1949H209.65C209.38 98.1949 209.25 98.3449 209.25 98.6349V100.515H204.85V98.6349C204.85 98.3449 204.72 98.1949 204.46 98.1949H204.2C203.94 98.1949 203.8 98.3449 203.8 98.6349V103.205C203.8 103.505 203.94 103.645 204.2 103.645H204.51C204.77 103.645 204.9 103.505 204.9 103.205V101.525H209.3V103.205C209.3 103.505 209.43 103.645 209.7 103.645H209.96C210.22 103.645 210.35 103.505 210.35 103.205V98.6349C210.3 98.3849 210.17 98.2349 209.91 98.2349V98.1949ZM228.48 98.1949H228.16C228.075 98.196 227.993 98.228 227.93 98.285L223.32 102.135V98.645C223.32 98.345 223.19 98.1949 222.93 98.1949H222.66C222.4 98.1949 222.27 98.345 222.27 98.645V103.245C222.27 103.515 222.42 103.645 222.71 103.645H223.04C223.121 103.647 223.199 103.618 223.26 103.565L227.88 99.7049V103.205C227.88 103.505 228.01 103.645 228.27 103.645H228.51C228.78 103.645 228.91 103.505 228.91 103.205V98.5949C228.93 98.3649 228.78 98.2349 228.51 98.2349L228.48 98.1949ZM237.74 100.575C237.835 100.428 237.89 100.259 237.9 100.085V99.4749C237.894 99.2269 237.807 98.9878 237.651 98.7944C237.496 98.601 237.281 98.4642 237.04 98.4049C236.593 98.2534 236.122 98.1823 235.65 98.1949H234.65C234.39 98.1949 234.26 98.345 234.26 98.645V98.7649C234.26 99.0649 234.39 99.2049 234.65 99.2049H236.32C236.464 99.2004 236.606 99.2463 236.72 99.3349C236.771 99.3657 236.813 99.4099 236.842 99.4628C236.87 99.5156 236.883 99.5751 236.88 99.6349V100.005C236.875 100.066 236.858 100.125 236.828 100.178C236.799 100.232 236.759 100.278 236.71 100.315C236.58 100.38 236.435 100.408 236.29 100.395H231.48C231.22 100.395 231.09 100.545 231.09 100.845V100.955C231.09 101.255 231.22 101.405 231.48 101.405H236.29C236.64 101.405 236.84 101.535 236.88 101.795V102.215C236.877 102.284 236.856 102.35 236.819 102.408C236.782 102.466 236.731 102.513 236.67 102.545C236.558 102.61 236.43 102.645 236.3 102.645H231.49C231.22 102.645 231.09 102.795 231.09 103.095V103.205C231.09 103.505 231.26 103.645 231.58 103.645H235.47C236.016 103.688 236.565 103.63 237.09 103.475C237.332 103.39 237.543 103.234 237.695 103.027C237.847 102.82 237.932 102.572 237.94 102.315V101.715C237.932 101.537 237.877 101.364 237.78 101.215C237.698 101.072 237.572 100.96 237.42 100.895C237.553 100.836 237.664 100.739 237.74 100.615V100.575ZM244.27 98.1949H242.39C240.73 98.1949 239.91 98.7349 239.91 99.8049V100.135C239.893 100.401 239.948 100.667 240.069 100.905C240.19 101.143 240.374 101.343 240.6 101.485C241.027 101.725 241.511 101.843 242 101.825L240.13 102.825C240.048 102.862 239.978 102.923 239.93 102.999C239.882 103.076 239.858 103.165 239.86 103.255C239.86 103.535 240.01 103.665 240.31 103.665H240.64C240.699 103.679 240.761 103.679 240.82 103.665L243.98 101.885H245.51V103.265C245.51 103.565 245.64 103.705 245.9 103.705H246.17C246.43 103.705 246.56 103.565 246.56 103.265V99.8549C246.51 98.7749 245.76 98.2349 244.27 98.2349V98.1949ZM245.51 100.865H242.23C241.43 100.865 241.02 100.645 241.02 100.195V99.8549C241.02 99.5649 241.2 99.3749 241.56 99.2949C241.85 99.2722 242.14 99.2722 242.43 99.2949H244.27C245.1 99.2949 245.51 99.505 245.51 99.935V100.865ZM256.2 102.685H255.2V98.685C255.2 98.385 255.07 98.2349 254.81 98.2349H254.51C254.25 98.2349 254.11 98.385 254.11 98.685V102.685H252.41V98.685C252.41 98.385 252.28 98.2349 252.02 98.2349H251.75C251.49 98.2349 251.36 98.385 251.36 98.685V102.685H250.66C250.431 102.698 250.201 102.675 249.98 102.615C249.875 102.591 249.782 102.531 249.718 102.445C249.654 102.359 249.623 102.252 249.63 102.145V98.685C249.63 98.385 249.5 98.2349 249.24 98.2349H248.97C248.71 98.2349 248.58 98.385 248.58 98.685V102.135C248.538 102.51 248.626 102.888 248.83 103.205C249.354 103.598 250.011 103.77 250.66 103.685H256.15C256.41 103.685 256.54 103.545 256.54 103.245V103.125C256.51 102.835 256.41 102.685 256.15 102.685H256.2ZM264.73 98.2349H264.47C264.21 98.2349 264.08 98.3849 264.08 98.6749V100.555H259.67V98.6749C259.67 98.3849 259.54 98.2349 259.28 98.2349H259.02C258.76 98.2349 258.63 98.3849 258.63 98.6749V103.245C258.63 103.545 258.76 103.685 259.02 103.685H259.28C259.54 103.685 259.67 103.545 259.67 103.245V101.565H264.08V103.245C264.08 103.545 264.21 103.685 264.47 103.685H264.73C264.99 103.685 265.12 103.545 265.12 103.245V98.6749C265.07 98.3849 264.94 98.2349 264.68 98.2349H264.73ZM271.41 98.2349H269.65C268.967 98.1929 268.293 98.4069 267.76 98.8349C267.592 98.9759 267.456 99.1518 267.363 99.3504C267.27 99.549 267.221 99.7655 267.22 99.9849V101.985C267.217 102.245 267.286 102.502 267.42 102.725C267.665 103.082 268.004 103.364 268.399 103.54C268.794 103.717 269.231 103.781 269.66 103.725H271.41C271.923 103.745 272.434 103.642 272.9 103.425C273.162 103.302 273.382 103.105 273.531 102.858C273.681 102.61 273.753 102.324 273.74 102.035V100.035C273.69 98.815 272.91 98.2349 271.36 98.2349H271.41ZM272.62 101.955C272.62 102.205 272.45 102.395 272.1 102.515C271.853 102.604 271.592 102.648 271.33 102.645H269.62C269.339 102.649 269.059 102.609 268.79 102.525C268.41 102.412 268.22 102.222 268.22 101.955V99.9549C268.22 99.6849 268.41 99.4749 268.78 99.3449C269.052 99.2582 269.335 99.2143 269.62 99.215H271.33C272.19 99.215 272.62 99.435 272.62 99.865V101.955ZM282.11 98.1949H281.79C281.705 98.196 281.623 98.228 281.56 98.285L276.94 102.135V98.645C276.94 98.345 276.81 98.1949 276.55 98.1949H276.29C276.03 98.1949 275.9 98.345 275.9 98.645V103.245C275.9 103.515 276.04 103.645 276.33 103.645H276.66C276.744 103.648 276.826 103.619 276.89 103.565L281.51 99.7449V103.245C281.51 103.545 281.64 103.685 281.9 103.685H282.16C282.42 103.685 282.55 103.545 282.55 103.245V98.6349C282.51 98.3649 282.4 98.2349 282.11 98.2349V98.1949ZM280.41 96.9549H278.03C277.77 96.9549 277.64 97.105 277.64 97.395V97.5149C277.64 97.8149 277.77 97.9549 278.03 97.9549H280.41C280.67 97.9549 280.8 97.8149 280.8 97.5149V97.395C280.8 97.135 280.67 96.9549 280.41 96.9549ZM298.7 98.2049H296.95C296.267 98.159 295.592 98.3734 295.06 98.8049C294.889 98.944 294.751 99.1193 294.656 99.3182C294.561 99.517 294.511 99.7345 294.51 99.9549V101.955C294.511 102.215 294.58 102.47 294.71 102.695C294.956 103.051 295.295 103.332 295.69 103.509C296.085 103.685 296.521 103.75 296.95 103.695H298.7C299.214 103.716 299.725 103.613 300.19 103.395C300.452 103.272 300.672 103.075 300.821 102.828C300.971 102.58 301.043 102.294 301.03 102.005V100.005C301.03 98.815 300.26 98.2349 298.7 98.2349V98.2049ZM299.96 101.955C299.96 102.205 299.79 102.395 299.45 102.515C299.2 102.604 298.936 102.648 298.67 102.645H296.96C296.679 102.648 296.399 102.607 296.13 102.525C295.75 102.412 295.56 102.222 295.56 101.955V99.9549C295.56 99.6849 295.75 99.4749 296.12 99.3449C296.392 99.2582 296.675 99.2143 296.96 99.215H298.67C299.53 99.215 299.96 99.435 299.96 99.865V101.955ZM309.41 98.6649C308.885 98.2759 308.228 98.1073 307.58 98.1949H305.2C304.551 98.1101 303.894 98.2824 303.37 98.6749C303.168 98.9929 303.079 99.3702 303.12 99.7449V103.205C303.12 103.505 303.25 103.645 303.51 103.645H303.78C304.04 103.645 304.17 103.505 304.17 103.205V99.7349C304.165 99.6281 304.197 99.5228 304.26 99.437C304.324 99.3512 304.416 99.2904 304.52 99.2649C304.743 99.2156 304.972 99.1954 305.2 99.2049H307.58C307.802 99.1904 308.024 99.2106 308.24 99.2649C308.34 99.2955 308.428 99.3579 308.489 99.4428C308.55 99.5276 308.582 99.6302 308.58 99.7349V103.205C308.58 103.505 308.71 103.645 308.97 103.645H309.25C309.51 103.645 309.64 103.505 309.64 103.205V99.7349C309.669 99.3763 309.589 99.0171 309.41 98.7049V98.6649ZM316.34 98.1949H311.78C311.52 98.1949 311.39 98.3449 311.39 98.6349V98.755C311.39 99.055 311.52 99.2049 311.78 99.2049H313.51V103.205C313.51 103.505 313.64 103.645 313.9 103.645H314.17C314.43 103.645 314.56 103.505 314.56 103.205V99.2049H316.31C316.57 99.2049 316.71 99.055 316.71 98.755V98.6349C316.74 98.3849 316.6 98.2349 316.34 98.2349V98.1949ZM324.82 98.1949H324.51C324.425 98.196 324.343 98.228 324.28 98.285L319.67 102.135V98.645C319.67 98.345 319.53 98.1949 319.27 98.1949H319.01C318.75 98.1949 318.62 98.345 318.62 98.645V103.245C318.62 103.515 318.76 103.645 319.06 103.645H319.38C319.464 103.648 319.546 103.619 319.61 103.565L324.23 99.7049V103.205C324.23 103.505 324.36 103.645 324.62 103.645H324.88C325.14 103.645 325.27 103.505 325.27 103.205V98.5949C325.26 98.3649 325.11 98.2349 324.82 98.2349V98.1949ZM332.82 102.805L329.51 101.005L332.73 99.0849C332.811 99.0431 332.879 98.98 332.926 98.9025C332.974 98.825 332.999 98.7359 333 98.645C333 98.375 332.85 98.2349 332.56 98.2349H332.25H332.08L328.51 100.395V98.6749C328.51 98.3849 328.39 98.2349 328.13 98.2349H327.86C327.6 98.2349 327.47 98.3849 327.47 98.6749V103.245C327.47 103.545 327.6 103.685 327.86 103.685H328.13C328.38 103.685 328.51 103.545 328.51 103.245V101.635L332.11 103.635C332.166 103.65 332.224 103.65 332.28 103.635H332.61C332.91 103.635 333.06 103.505 333.06 103.225C333.052 103.144 333.023 103.066 332.975 102.999C332.928 102.932 332.864 102.879 332.79 102.845L332.82 102.805ZM341.35 98.1949H341.04C340.952 98.1962 340.867 98.2281 340.8 98.285L336.19 102.135V98.645C336.19 98.345 336.06 98.1949 335.8 98.1949H335.51C335.25 98.1949 335.11 98.345 335.11 98.645V103.245C335.11 103.515 335.26 103.645 335.55 103.645H335.88C335.961 103.647 336.039 103.618 336.1 103.565L340.72 99.7049V103.205C340.72 103.505 340.85 103.645 341.12 103.645H341.38C341.64 103.645 341.77 103.505 341.77 103.205V98.5949C341.77 98.3649 341.62 98.2349 341.32 98.2349L341.35 98.1949Z" fill="white"/>
</svg>
