<svg width="544" height="192" viewBox="0 0 544 192" fill="none" xmlns="http://www.w3.org/2000/svg">
<path fill-rule="evenodd" clip-rule="evenodd" d="M101.29 49.6092L65.83 94.8592L101.32 140.219L82.66 155.019L50.66 114.199L18.66 155.019L0 140.219L35.49 94.8592L0.0299988 49.6092L18.72 34.6992L50.64 75.4992L82.56 34.6992L101.29 49.6092Z" fill="#EA5707"/>
<path fill-rule="evenodd" clip-rule="evenodd" d="M348.67 57.1697C363.54 57.1697 375.59 74.0497 375.59 94.8797C375.59 115.71 363.59 132.58 348.67 132.58C333.75 132.58 321.75 115.7 321.75 94.8797C321.75 74.0597 333.75 57.1697 348.67 57.1697V57.1697ZM348.67 34.6797C320.67 34.6797 297.96 61.6297 297.96 94.8797C297.96 128.13 320.66 155.08 348.67 155.08C376.68 155.08 399.41 128.17 399.41 94.8897C399.41 61.6097 376.68 34.6897 348.67 34.6897V34.6797Z" fill="#EA5707"/>
<path fill-rule="evenodd" clip-rule="evenodd" d="M453.53 34.6699H476.41L465.41 58.8099H453.53C440.35 60.2899 433.88 66.8099 432.4 79.9399C432.4 104.85 432.87 130.21 432.4 155.07H408.24V79.9199C410.41 52.6699 426.25 36.8199 453.53 34.6699Z" fill="#EA5707"/>
<path fill-rule="evenodd" clip-rule="evenodd" d="M278.41 132.28H291.94V155.1H276.59C252.02 153.17 235.94 139.35 233.82 112.33L234.01 29.5696L256.68 19.8496V41.3696H258.05H297.37L287.41 64.1696L256.71 64.2696V112.27C258.11 124.71 264.22 130.83 276.71 132.27L278.41 132.28Z" fill="#EA5707"/>
<path fill-rule="evenodd" clip-rule="evenodd" d="M509.62 107.17V82.8597H540.5V107.17H509.62ZM543.15 58.8597V34.6797H519.79C492.5 36.8297 476.63 52.6797 474.49 79.9897C474.49 104.8 474.19 130.65 474.29 155.11L495.63 155.17H543.22V130.99H498.65V79.9897C500.13 66.8097 506.65 60.3297 519.79 58.8497L543.15 58.8597Z" fill="#575656"/>
<path fill-rule="evenodd" clip-rule="evenodd" d="M125.23 1.47V4.42V7.36V10.31V13.26V16.2V19.15V22.1V25.04V27.99V30.93V33.88V36.83V39.77V42.72V45.67V48.62V51.56V54.51V57.45V60.4V63.35V66.3V69.24V72.19V75.13V78.08V81.03V83.97V86.92V89.87V92.81V95.76V98.71V101.65V104.6V107.55V110.49V113.44V116.39V119.33V122.28V125.23V128.17V131.12V134.07V137.01V139.96V142.91V145.85V148.8V151.75V154.69V157.64V160.59V163.53V166.48V169.43V172.37V175.32V178.26V181.21V184.16V187.1V190.05V191.52H123.81H116.4H114.98V190.05V187.1V184.16V181.21V178.26V175.32V172.37V169.43V166.48V163.53V160.59V157.64V154.69V151.75V148.8V145.85V142.91V139.96V137.01V134.07V131.12V128.17V125.23V122.28V119.33V116.39V113.44V110.49V107.55V104.6V101.65V98.71V95.76V92.81V89.87V86.92V83.97V81.03V78.08V75.13V72.19V69.24V66.3V63.35V60.4V57.45V54.51V51.56V48.62V45.67V42.72V39.77V36.83V33.88V30.93V27.99V25.04V22.1V19.15V16.2V13.26V10.31V7.36V4.42V1.47V0H116.4H123.81H125.23V1.47Z" fill="#575656"/>
<path fill-rule="evenodd" clip-rule="evenodd" d="M150.25 191.52L142.14 170.33H142.01C142.157 172.01 142.233 174.01 142.24 176.33V191.53H139.67V167.63H143.85L151.41 187.34H151.54L159.18 167.62H163.33V191.52H160.55V176.17C160.55 174.4 160.63 172.49 160.78 170.42H160.65L152.48 191.57L150.25 191.52ZM184.92 191.52L181.92 183.92H172.41L169.47 191.52H166.61L176.06 167.52H178.41L187.81 191.52H184.92ZM181.08 181.41L178.3 174.01C177.94 173.07 177.56 171.92 177.19 170.56C176.927 171.73 176.593 172.882 176.19 174.01L173.38 181.41H181.08ZM204.41 167.62V170.17H193.86V191.56H191.08V167.66L204.41 167.62ZM221.18 191.52H224.06L214.66 167.52H212.31L202.86 191.52H205.67L208.61 183.92H218.2L221.2 191.52H221.18ZM217.35 181.41H209.61L212.42 174.01C212.819 172.88 213.153 171.728 213.42 170.56C213.8 171.894 214.17 173.044 214.53 174.01L217.32 181.41H217.35ZM241.2 173.22C241.228 173.925 241.11 174.628 240.854 175.286C240.598 175.943 240.208 176.54 239.71 177.04C238.566 178.084 237.119 178.735 235.58 178.9V179.03C237.253 179.165 238.841 179.823 240.12 180.91C240.632 181.406 241.034 182.004 241.299 182.666C241.565 183.328 241.688 184.038 241.66 184.75C241.705 185.76 241.501 186.766 241.065 187.678C240.629 188.59 239.974 189.381 239.16 189.98C237.071 191.352 234.594 192.012 232.1 191.86C229.754 191.949 227.419 191.504 225.27 190.56V187.98C226.351 188.496 227.489 188.885 228.66 189.14C229.808 189.404 230.982 189.542 232.16 189.55C233.882 189.667 235.597 189.237 237.06 188.32C237.608 187.916 238.047 187.382 238.337 186.765C238.626 186.149 238.758 185.47 238.72 184.79C238.747 184.121 238.59 183.458 238.265 182.872C237.941 182.287 237.462 181.802 236.88 181.47C235.183 180.612 233.288 180.222 231.39 180.34H227.84V178H231.25C233.059 178.104 234.86 177.687 236.44 176.8C237.017 176.451 237.491 175.955 237.814 175.363C238.137 174.771 238.298 174.104 238.28 173.43C238.297 172.893 238.185 172.359 237.954 171.874C237.722 171.388 237.378 170.965 236.95 170.64C235.912 169.911 234.656 169.558 233.39 169.64C232.293 169.626 231.2 169.76 230.14 170.04C228.949 170.425 227.815 170.97 226.77 171.66L225.41 169.76C226.527 168.934 227.779 168.308 229.11 167.91C230.491 167.492 231.927 167.283 233.37 167.29C235.414 167.17 237.441 167.733 239.13 168.89C239.799 169.391 240.338 170.047 240.7 170.801C241.062 171.554 241.237 172.384 241.21 173.22H241.2ZM246.83 167.62H249.41V180.91C249.41 183.37 249.34 185.58 249.18 187.57H249.32L262.71 167.62H265.71V191.52H263.1V178.36C263.1 176.167 263.193 173.867 263.38 171.46H263.23L249.81 191.52H246.81V167.62H246.83ZM290.41 191.52H287.63V180.27H275.08V191.52H272.3V167.62H275.08V177.8H287.67V167.62H290.41V191.52V191.52ZM310 169.76C308.113 169.765 306.251 170.193 304.55 171.01L303.41 168.65C305.501 167.697 307.782 167.232 310.08 167.29C312.206 167.231 314.311 167.723 316.19 168.72C317.872 169.663 319.226 171.097 320.07 172.83C320.989 174.79 321.441 176.936 321.39 179.1C321.39 183.2 320.39 186.36 318.39 188.55C316.39 190.74 313.55 191.86 309.82 191.86C307.694 191.916 305.575 191.598 303.56 190.92V188.48C304.46 188.71 305.38 188.92 306.32 189.1C307.308 189.292 308.313 189.386 309.32 189.38C312.267 189.38 314.497 188.594 316.01 187.02C317.523 185.447 318.323 183.164 318.41 180.17H306.7V177.69H318.41C318.297 175.487 317.379 173.401 315.83 171.83C314.252 170.387 312.166 169.628 310.03 169.72L310 169.76ZM343.07 191.52H340.29V170.1H332.53L332.02 174.02C331.353 179.24 330.767 183.054 330.26 185.46C330.001 187.262 329.316 188.977 328.26 190.46C327.853 190.929 327.344 191.299 326.772 191.54C326.2 191.781 325.58 191.887 324.96 191.85C324.216 191.866 323.477 191.726 322.79 191.44V189.17C323.363 189.448 323.993 189.592 324.63 189.59C324.92 189.589 325.206 189.525 325.468 189.402C325.73 189.28 325.963 189.102 326.15 188.88C326.703 188.148 327.091 187.306 327.29 186.41C327.825 184.21 328.246 181.984 328.55 179.74C329.05 176.46 329.61 172.424 330.23 167.63H343.11V191.53L343.07 191.52ZM362.97 191.52H349.69V167.62H363.01V170.1H352.47V177.8H362.41V180.24H352.51V189.05H363.01V191.52H362.97ZM385.47 191.52H382.1L371.04 179.41V191.52H368.31V167.62H371.08V179.17L381.86 167.59H385.05L374.47 179.2L385.47 191.49V191.52ZM396.1 191.52H393.41V170.1H385.85V167.62H403.75V170.1H396.19V191.52H396.1ZM422.42 174.58C422.479 175.64 422.285 176.699 421.854 177.67C421.422 178.64 420.766 179.494 419.94 180.16C418.29 181.46 415.94 182.16 412.86 182.16H410.05V191.56H407.31V167.66H413.5C419.5 167.66 422.5 169.994 422.5 174.66L422.42 174.58ZM410.05 179.74H412.55C415.01 179.74 416.79 179.34 417.89 178.54C418.459 178.09 418.908 177.505 419.196 176.838C419.484 176.171 419.602 175.444 419.54 174.72C419.587 174.05 419.471 173.379 419.201 172.764C418.931 172.149 418.515 171.609 417.99 171.19C416.537 170.309 414.845 169.903 413.15 170.03H410.05V179.74ZM448.17 179.54C448.17 183.374 447.203 186.374 445.27 188.54C444.25 189.649 442.998 190.52 441.603 191.088C440.208 191.657 438.704 191.911 437.2 191.83C433.67 191.83 430.96 190.75 429.05 188.6C427.14 186.45 426.18 183.41 426.18 179.49C426.18 175.57 427.18 172.58 429.05 170.44C430.92 168.3 433.7 167.22 437.23 167.22C438.722 167.144 440.212 167.398 441.595 167.963C442.977 168.528 444.218 169.391 445.23 170.49C447.17 172.67 448.13 175.68 448.13 179.49L448.17 179.54ZM429.17 179.54C429.17 182.77 429.86 185.23 431.24 186.9C432.025 187.692 432.96 188.321 433.99 188.75C435.02 189.179 436.124 189.4 437.24 189.4C438.356 189.4 439.46 189.179 440.49 188.75C441.52 188.321 442.454 187.692 443.24 186.9C444.573 185.24 445.24 182.783 445.24 179.53C445.24 176.31 444.57 173.88 443.24 172.21C442.504 171.355 441.578 170.685 440.536 170.252C439.494 169.82 438.365 169.638 437.24 169.72C436.115 169.652 434.989 169.843 433.948 170.279C432.908 170.714 431.982 171.381 431.24 172.23C429.86 173.9 429.17 176.34 429.17 179.53V179.54ZM471.69 191.54H468.91V180.27H456.31V191.52H453.53V167.62H456.31V177.8H468.9V167.62H471.68V191.52L471.69 191.54ZM478.28 167.64H480.87V180.93C480.87 183.39 480.8 185.6 480.64 187.59H480.78L494.17 167.64H497.17V191.54H494.56V178.36C494.56 176.167 494.653 173.867 494.84 171.46H494.69L481.27 191.52H478.27V167.62L478.28 167.64ZM520.96 191.54H517.59L506.59 179.43V191.54H503.81V167.64H506.59V179.17L517.36 167.59H520.55L509.91 179.23L520.91 191.52L520.96 191.54ZM524.27 167.64H526.87V180.93C526.87 183.39 526.8 185.6 526.64 187.59H526.77L540.17 167.64H543.17V191.54H540.55V178.36C540.55 176.17 540.65 173.87 540.83 171.46H540.69L527.27 191.52H524.27V167.64Z" fill="#575656"/>
<path fill-rule="evenodd" clip-rule="evenodd" d="M219.04 55.2797C209.45 41.5497 197.3 34.6797 180.04 34.6797C155.91 34.6797 141.85 48.2597 141.85 67.1397C141.85 89.7597 157.19 97.3997 174.93 104.14C192.51 110.85 197.3 112.72 197.3 121.3C197.3 131.76 187.23 134.25 181.64 134.25C171.57 134.25 163.74 128.32 159.43 118.65L139.41 131.57C149.96 149.98 162.1 154.82 182.72 154.82C188.63 154.82 198.38 153.1 205.25 149.05C221.87 139.22 221.87 123.93 221.87 118.78C221.896 111.556 219.635 104.509 215.41 98.6497C210.78 92.4097 202.47 87.7297 195.41 85.2297L180.55 79.9297C173.36 77.4297 165.69 74.1597 165.69 66.0397C165.69 64.7997 166.01 54.9697 179.43 54.9697C188.54 54.9697 196.05 60.8997 199.73 67.7597L219.04 55.2797Z" fill="#EA5707"/>
</svg>
