<svg width="514" height="249" viewBox="0 0 514 249" fill="none" xmlns="http://www.w3.org/2000/svg">
<path fill-rule="evenodd" clip-rule="evenodd" d="M222.25 211.96C222.25 212.87 222.25 213.85 222.17 214.76C222.139 215.348 222.045 215.932 221.89 216.5C221.793 216.835 221.611 217.138 221.36 217.38C220.99 217.711 220.554 217.96 220.08 218.11C219.313 218.369 218.517 218.537 217.71 218.61L216.9 218.7V221.39H233.66V218.83L232.9 218.68C232.21 218.54 231.53 218.38 230.9 218.17C230.45 218.033 230.034 217.801 229.68 217.49C229.392 217.209 229.17 216.867 229.03 216.49C228.841 215.84 228.743 215.167 228.74 214.49C228.74 213.28 228.74 212.07 228.74 210.86V202.77C228.74 201.83 228.74 200.9 228.74 199.97C228.74 199.04 228.74 198.3 228.74 197.47V186.17C228.74 185.26 228.74 184.36 228.79 183.45C228.79 182.745 228.877 182.043 229.05 181.36C229.155 180.98 229.359 180.635 229.64 180.36C229.984 180.053 230.39 179.824 230.83 179.69C231.484 179.474 232.153 179.303 232.83 179.18L233.6 179.03V176.41H220.49C218.976 176.422 217.477 176.717 216.07 177.28C214.557 177.876 213.167 178.748 211.97 179.85C210.66 181.075 209.609 182.551 208.88 184.19C208.042 186.131 207.623 188.226 207.65 190.34C207.552 193.087 208.353 195.79 209.93 198.04C210.451 198.741 211.041 199.387 211.69 199.97C212.3 200.744 212.969 201.47 213.69 202.14C206.53 222.26 196.61 232.26 179.69 229.56L177.07 229C176.753 228.875 176.407 228.84 176.07 228.9C175.813 228.981 175.586 229.138 175.42 229.35C175.254 229.563 175.156 229.821 175.14 230.09C175.088 230.496 175.161 230.908 175.35 231.27V231.34V231.4C178.22 235.4 186.72 236.11 190.7 236.11C201.79 236.11 210.65 225.99 216.3 213.65C217.097 212.316 217.79 210.922 218.37 209.48C219.17 207.48 219.91 205.48 220.6 203.38L221.6 203.43H222.23V211.96H222.25ZM219.9 198.6C218.807 198.159 217.793 197.541 216.9 196.77C216.031 196.014 215.314 195.097 214.79 194.07C214.281 193.025 214.027 191.873 214.05 190.71C214.013 189.171 214.264 187.637 214.79 186.19C215.222 185.016 215.882 183.939 216.73 183.02C217.523 182.187 218.485 181.533 219.55 181.1C220.415 180.748 221.329 180.532 222.26 180.46V199.27C221.451 199.139 220.659 198.914 219.9 198.6V198.6Z" fill="white"/>
<path fill-rule="evenodd" clip-rule="evenodd" d="M35.49 229.981C35.49 229.261 35.49 228.521 35.49 227.801C35.49 226.801 35.49 225.911 35.49 224.971C35.49 224.031 35.55 222.971 35.59 221.971C35.59 221.141 35.69 220.291 35.81 219.471L36.01 218.131L35.01 218.021C34.2008 217.94 33.3986 217.8 32.61 217.601C32.1449 217.493 31.7062 217.292 31.32 217.011C31.0995 216.84 30.9301 216.612 30.83 216.351C30.6846 215.85 30.6006 215.332 30.58 214.811V214.811C30.5 213.961 30.5 213.071 30.5 212.221C30.5 211.021 30.5 209.811 30.5 208.611V199.551L30.55 188.881C30.55 187.801 30.55 186.721 30.55 185.641C30.55 184.861 30.57 184.081 30.61 183.301C30.6194 182.65 30.7067 182.002 30.87 181.371C30.9677 180.999 31.1529 180.656 31.41 180.371C31.7253 180.058 32.1086 179.822 32.53 179.681C33.1985 179.455 33.889 179.301 34.59 179.221L35.49 179.071V176.211L34.55 176.291C34.05 176.341 33.55 176.381 33.04 176.411L31.15 176.521L29.15 176.641C28.54 176.641 27.94 176.701 27.33 176.701L19.65 176.871C18.78 176.871 17.91 176.871 17.04 176.871C16.04 176.871 14.95 176.871 13.9 176.871C12.85 176.871 12.01 176.871 11.07 176.781C10.13 176.691 9.07 176.611 8.07 176.461L7.07 176.321V179.221L7.81 179.391C8.55 179.561 9.3 179.751 10.03 179.961C10.5394 180.099 11.0133 180.345 11.42 180.681C11.743 180.968 11.9874 181.333 12.13 181.741C12.3327 182.388 12.4372 183.063 12.44 183.741C12.44 184.571 12.44 185.421 12.44 186.251C12.44 187.251 12.35 188.251 12.3 189.251C12.25 190.251 12.16 191.251 12.07 192.301C11.98 193.351 11.89 194.231 11.79 195.191C11.64 196.721 11.45 198.241 11.25 199.761C11.02 201.451 10.74 203.131 10.4 204.761C10.0649 206.43 9.62739 208.076 9.09 209.691C8.62908 211.149 7.98742 212.543 7.18 213.841C6.48536 214.98 5.57092 215.969 4.49 216.751C3.46724 217.468 2.24936 217.856 1 217.861H0L0.16 219.241C0.25 220.091 0.3 220.961 0.34 221.821C0.34 222.891 0.41 223.961 0.42 225.031C0.43 226.101 0.42 227.031 0.42 228.031C0.42 228.761 0.42 229.521 0.42 230.251L0.49 231.371H2.49L2.56 230.271C2.64266 228.925 2.82989 227.588 3.12 226.271C3.31213 225.35 3.64969 224.466 4.12 223.651C4.48139 223.027 5.01174 222.517 5.65 222.181C6.45528 221.787 7.33409 221.565 8.23 221.531C9.47 221.461 10.72 221.251 11.96 221.251H25.96C26.79 221.251 27.6 221.361 28.43 221.411C29.3379 221.427 30.2171 221.731 30.94 222.281C31.5341 222.795 32.0027 223.438 32.31 224.161C32.6645 224.993 32.8969 225.872 33 226.771C33.13 227.771 33.23 228.831 33.29 229.871L33.35 231.001H35.35L35.49 229.981ZM24.29 198.901V213.451C24.3581 214.268 24.1805 215.086 23.78 215.801C23.3024 216.298 22.6576 216.601 21.97 216.651L20.47 216.821C20.0846 216.861 19.6974 216.881 19.31 216.881H18.05C17.55 216.881 17.05 216.881 16.56 216.881L9.84 216.971C10.26 216.171 10.66 215.331 11.01 214.471C11.7671 212.638 12.4018 210.758 12.91 208.841C13.4807 206.723 13.9381 204.577 14.28 202.411C14.64 200.161 14.91 197.871 15.12 195.581L15.89 187.221C15.96 186.361 16.06 185.491 16.21 184.651C16.3008 184.092 16.4977 183.556 16.79 183.071C17.0918 182.595 17.5216 182.214 18.03 181.971C18.8065 181.64 19.6468 181.487 20.49 181.521C21.2242 181.501 21.9577 181.582 22.67 181.761C23.0532 181.852 23.401 182.053 23.67 182.341C23.8817 182.636 24.0158 182.98 24.06 183.341C24.1787 184.122 24.2422 184.911 24.25 185.701C24.31 187.631 24.33 189.571 24.33 191.501L24.29 198.901Z" fill="white"/>
<path fill-rule="evenodd" clip-rule="evenodd" d="M43.8703 216.48C43.7329 216.905 43.4924 217.29 43.1703 217.6C42.8162 217.937 42.3881 218.187 41.9203 218.33C41.2461 218.53 40.5574 218.677 39.8603 218.77L39.0703 218.88V221.35H54.0703C55.7786 221.481 57.4932 221.199 59.0703 220.53C60.5795 219.778 61.9121 218.715 62.9803 217.41C64.0826 216.045 64.9325 214.494 65.4903 212.83C66.0744 211.069 66.3682 209.225 66.3603 207.37C66.3903 205.71 66.1262 204.058 65.5803 202.49C64.7267 200.02 62.9686 197.965 60.6603 196.74C60.3203 196.57 59.9803 196.41 59.6603 196.27C60.8961 195.139 61.8768 193.757 62.5371 192.218C63.1975 190.678 63.5224 189.015 63.4903 187.34C63.557 185.356 63.149 183.385 62.3003 181.59C61.6231 180.216 60.6123 179.033 59.3603 178.15C58.2336 177.367 56.9568 176.825 55.6103 176.56C54.3421 176.292 53.0407 176.218 51.7503 176.34V176.34L50.0303 176.58C49.5235 176.656 49.0126 176.703 48.5003 176.72H46.9203C45.9811 176.71 45.0431 176.65 44.1103 176.54C42.781 176.41 41.4459 176.35 40.1103 176.36H39.2303V179.07L39.9903 179.22C40.666 179.353 41.3337 179.523 41.9903 179.73C42.4517 179.866 42.8758 180.105 43.2303 180.43C43.5301 180.721 43.7533 181.082 43.8803 181.48C44.0656 182.154 44.1597 182.851 44.1603 183.55C44.1603 183.71 44.1603 183.86 44.1603 184.01C44.1603 192.83 44.1603 207.48 44.1603 215.01C44.1455 215.513 44.0475 216.009 43.8703 216.48V216.48ZM50.5803 181.48C50.5803 180.61 50.9903 180.57 51.5803 180.57C52.3114 180.567 53.0323 180.742 53.6803 181.08C54.358 181.442 54.9458 181.951 55.4003 182.57C55.9076 183.296 56.2771 184.11 56.4903 184.97C56.7953 186.067 56.9401 187.202 56.9203 188.34C56.9247 189.349 56.8173 190.355 56.6003 191.34C56.425 192.151 56.1175 192.928 55.6903 193.64C55.3333 194.24 54.84 194.747 54.2503 195.12C53.6463 195.481 52.9541 195.668 52.2503 195.66H50.5703C50.5703 190.99 50.5703 186.31 50.5803 181.5V181.48ZM50.5803 199.2H52.2703C53.2349 199.204 54.1834 199.448 55.0303 199.91C55.955 200.407 56.7683 201.087 57.4203 201.91C58.1351 202.808 58.6899 203.823 59.0603 204.91C59.4657 206.125 59.6652 207.399 59.6503 208.68C59.6793 210.084 59.5076 211.485 59.1403 212.84C58.8738 213.814 58.4407 214.734 57.8603 215.56C57.4215 216.177 56.8511 216.69 56.1903 217.06C55.6716 217.357 55.0878 217.522 54.4903 217.54C53.8112 217.559 53.1341 217.457 52.4903 217.24C52.085 217.093 51.7265 216.841 51.4521 216.508C51.1778 216.176 50.9976 215.776 50.9303 215.35C50.7956 214.692 50.7219 214.022 50.7103 213.35C50.7103 212.74 50.7103 212.12 50.7103 211.5C50.7103 210.37 50.7103 209.23 50.7103 208.09C50.5503 205.13 50.5703 202.17 50.5703 199.22L50.5803 199.2Z" fill="white"/>
<path fill-rule="evenodd" clip-rule="evenodd" d="M71.7204 216.56C71.6186 216.936 71.4224 217.281 71.1504 217.56C70.817 217.865 70.4211 218.094 69.9904 218.23C69.3341 218.436 68.6663 218.603 67.9904 218.73L67.2304 218.88V221.36H88.7904C89.0757 221.377 89.3607 221.321 89.6181 221.197C89.8754 221.073 90.0966 220.884 90.2604 220.65C90.5763 220.133 90.787 219.559 90.8804 218.96V218.96L92.5604 209.96L90.6904 208.68L90.3604 209.96C90.0786 211.085 89.7143 212.188 89.2704 213.26C88.99 213.944 88.6237 214.589 88.1804 215.18C87.8748 215.597 87.4781 215.939 87.0204 216.18C86.5186 216.408 85.9916 216.576 85.4504 216.68C85.1904 216.73 84.9204 216.79 84.6604 216.82L84.0604 216.87L83.4304 216.93C83.1204 216.93 82.8004 216.93 82.5004 216.93C81.7592 216.988 81.0136 216.91 80.3004 216.7C79.876 216.564 79.5029 216.303 79.2304 215.95C78.9666 215.556 78.7925 215.109 78.7204 214.64C78.5868 213.837 78.5233 213.024 78.5304 212.21V204.16V200.31L84.6304 200.46C85.0572 200.435 85.48 200.555 85.8304 200.8C86.1047 201.013 86.3213 201.292 86.4604 201.61C86.6207 201.99 86.7251 202.39 86.7704 202.8C86.8304 203.31 86.8804 203.8 86.9104 204.35L86.9704 205.35L89.0604 205.67V203.31C89.0604 202.82 89.0604 202.31 89.0604 201.85C89.0604 201.39 89.0604 200.85 89.0604 200.34V198.9C89.0604 198.57 89.0604 198.24 89.0604 197.9C89.0604 197.56 89.1304 196.96 89.1704 196.49L89.2904 195C89.2904 194.59 89.3704 194.17 89.4304 193.77L89.5304 193.13L89.1104 192.55C89.0249 192.413 88.9075 192.298 88.7682 192.217C88.6289 192.135 88.4718 192.088 88.3104 192.08H87.6904L87.4804 192.88C87.3604 193.33 87.2304 193.78 87.0804 194.21C86.997 194.46 86.8756 194.697 86.7204 194.91C86.5646 195.099 86.3703 195.252 86.1504 195.36C85.805 195.501 85.4332 195.566 85.0604 195.55C82.9004 195.62 80.7304 195.64 78.5604 195.64V181.3H81.4404L83.6504 181.36C84.2667 181.346 84.8775 181.48 85.431 181.751C85.9845 182.023 86.4645 182.424 86.8304 182.92C87.6119 184.256 88.0323 185.772 88.0504 187.32L88.1204 188.43H90.2004V187.21C90.2004 186.83 90.2004 186.44 90.2004 186.05C90.2004 185.66 90.2004 185.05 90.2004 184.49C90.2004 183.93 90.2004 183.44 90.2704 182.92C90.3321 180.892 90.509 178.868 90.8004 176.86L90.9504 176.05L89.3704 174.5L88.8804 175.65C88.7882 175.895 88.6489 176.119 88.4704 176.31C88.2887 176.465 88.0727 176.575 87.8404 176.63C87.4434 176.719 87.0371 176.759 86.6304 176.75H84.7604L78.3804 176.81H76.0304C75.1037 176.81 74.1737 176.79 73.2404 176.75L70.4104 176.63C69.6604 176.63 68.9004 176.55 68.1504 176.46L67.1504 176.34V179.19L67.9104 179.34C68.5873 179.467 69.2554 179.637 69.9104 179.85C70.3497 179.98 70.7534 180.209 71.0904 180.52C71.3639 180.798 71.5603 181.143 71.6604 181.52C71.8417 182.205 71.9324 182.911 71.9304 183.62C71.9304 193.22 71.9304 205.25 71.9304 214.48C71.9517 215.18 71.8811 215.879 71.7204 216.56V216.56Z" fill="white"/>
<path fill-rule="evenodd" clip-rule="evenodd" d="M108.171 204.65C109.81 204.764 111.452 204.472 112.951 203.8C114.578 203.101 116.048 202.081 117.271 200.8C118.627 199.364 119.705 197.689 120.451 195.86C121.31 193.767 121.739 191.523 121.711 189.26C121.784 187.049 121.364 184.849 120.481 182.82C119.78 181.307 118.735 179.979 117.431 178.94C116.284 178.042 114.957 177.401 113.541 177.06C112.256 176.754 110.941 176.59 109.621 176.57V176.57L103.491 176.81H101.491L99.5508 176.75L97.8708 176.69C97.4608 176.69 97.0408 176.69 96.6308 176.6L95.6308 176.49V179.34L96.3908 179.49C97.0678 179.617 97.7358 179.787 98.3908 180C98.8371 180.131 99.2452 180.368 99.5808 180.69C99.8584 180.97 100.064 181.313 100.181 181.69C100.357 182.373 100.447 183.075 100.451 183.78L100.511 186.49C100.511 187.49 100.511 188.57 100.511 189.61V195.84C100.511 197.19 100.511 198.54 100.511 199.9V210.9C100.511 212.14 100.511 213.39 100.511 214.64C100.505 215.318 100.404 215.991 100.211 216.64C100.076 217.018 99.8568 217.359 99.5708 217.64C99.217 217.949 98.8009 218.177 98.3508 218.31C97.6952 218.521 97.0273 218.691 96.3508 218.82L95.5908 218.97V221.33H112.311V218.84L111.501 218.75C110.694 218.677 109.898 218.509 109.131 218.25C108.662 218.101 108.229 217.856 107.861 217.53C107.609 217.285 107.426 216.978 107.331 216.64C107.176 216.075 107.082 215.495 107.051 214.91V214.91C106.971 214 106.971 213.02 106.971 212.11C106.971 210.84 106.971 209.56 106.971 208.28V204.63H108.191L108.171 204.65ZM106.931 201.81V199.66V193.45V180.5C107.295 180.481 107.66 180.498 108.021 180.55C109.105 180.603 110.149 180.975 111.021 181.62C111.938 182.295 112.713 183.145 113.301 184.12C113.963 185.221 114.449 186.419 114.741 187.67C115.083 189.061 115.254 190.488 115.251 191.92C115.268 193.272 115.09 194.619 114.721 195.92C114.411 196.971 113.921 197.959 113.271 198.84C112.681 199.625 111.922 200.268 111.051 200.72C110.112 201.2 109.097 201.515 108.051 201.65L107.261 201.76L106.931 201.81Z" fill="white"/>
<path fill-rule="evenodd" clip-rule="evenodd" d="M150 207.75V211.86C150 212.75 150 213.66 150 214.54C149.999 215.234 149.898 215.924 149.7 216.59C149.566 216.985 149.343 217.344 149.05 217.64C148.693 217.957 148.269 218.19 147.81 218.32C147.134 218.532 146.446 218.706 145.75 218.84L145 218.98V221.36H161.84V218.86L161.03 218.76C160.217 218.687 159.415 218.519 158.64 218.26C158.165 218.108 157.725 217.859 157.35 217.53C157.096 217.287 156.912 216.979 156.82 216.64C156.665 216.068 156.572 215.481 156.54 214.89V214.89C156.46 213.98 156.46 213 156.46 212.08C156.46 210.8 156.46 209.52 156.46 208.23V199.54V188.97C156.46 187.87 156.46 186.77 156.46 185.67C156.46 184.87 156.46 184.08 156.52 183.28C156.522 182.605 156.609 181.933 156.78 181.28C156.883 180.904 157.079 180.56 157.35 180.28C157.682 179.951 158.086 179.705 158.53 179.56C159.214 179.325 159.922 179.168 160.64 179.09L161.43 178.98V176.17L160.43 176.25C159.93 176.3 159.43 176.33 158.92 176.37L157.05 176.49C156.4 176.49 155.74 176.55 155.05 176.57C154.36 176.59 153.83 176.57 153.21 176.57C152.59 176.57 152.09 176.57 151.53 176.51L149.53 176.37C148.84 176.31 148.14 176.27 147.45 176.24C146.76 176.21 146.32 176.24 145.75 176.24H144.87V178.87L145.63 179.02C146.327 179.146 147.015 179.317 147.69 179.53C148.158 179.667 148.59 179.903 148.96 180.22C149.254 180.498 149.48 180.84 149.62 181.22C149.814 181.889 149.911 182.583 149.91 183.28C149.91 184.04 149.91 184.81 149.98 185.57C150.05 186.33 149.98 187.01 149.98 187.73V195.53L142.11 195.58L135.03 195.47V191.87C135.03 190.72 135.03 189.56 135.03 188.4C135.03 187.6 135.03 186.79 135.03 185.98C135.03 185.44 135.03 184.89 135.08 184.34C135.08 183.96 135.08 183.57 135.08 183.19C135.085 182.535 135.172 181.883 135.34 181.25C135.443 180.876 135.635 180.533 135.9 180.25C136.221 179.925 136.616 179.681 137.05 179.54C137.732 179.31 138.436 179.153 139.15 179.07L139.95 178.96V176.17L139.01 176.25L137.5 176.37L135.63 176.49C134.97 176.49 134.32 176.56 133.63 176.58H131.8C131.24 176.58 130.68 176.58 130.12 176.58L128.12 176.43C127.43 176.37 126.74 176.33 126.04 176.31C125.34 176.29 124.91 176.31 124.34 176.31H123.46V178.93L124.22 179.08C124.923 179.214 125.617 179.388 126.3 179.6C126.784 179.738 127.234 179.977 127.62 180.3C127.924 180.566 128.145 180.913 128.26 181.3C128.438 181.951 128.519 182.625 128.5 183.3C128.5 184.82 128.5 186.3 128.5 187.85C128.5 188.85 128.5 189.85 128.5 190.85C128.5 191.64 128.5 192.44 128.5 193.23C128.5 194.02 128.5 194.86 128.5 195.68V210.84C128.5 212.09 128.5 213.35 128.45 214.6C128.451 215.297 128.354 215.99 128.16 216.66C128.022 217.04 127.796 217.383 127.5 217.66C127.147 217.977 126.726 218.209 126.27 218.34C125.594 218.552 124.906 218.726 124.21 218.86L123.45 219.01V221.38H140.49V218.88L139.68 218.79C138.864 218.712 138.059 218.544 137.28 218.29C136.809 218.13 136.374 217.878 136 217.55C135.748 217.305 135.566 216.998 135.47 216.66C135.311 216.086 135.217 215.495 135.19 214.9V214.9C135.19 214.49 135.14 214.06 135.13 213.65C135.13 212.85 135.13 212.05 135.13 211.26C135.13 209.96 135.13 208.66 135.13 207.36C135.13 205.42 135.13 203.48 135.13 201.54V200.03H150.07V207.77L150 207.75Z" fill="white"/>
<path fill-rule="evenodd" clip-rule="evenodd" d="M186.01 218.891L185.25 219.051V221.401C187.25 221.401 197.25 221.401 200.32 221.401V218.981L199.51 218.881C198.891 218.806 198.295 218.6 197.762 218.275C197.229 217.951 196.771 217.516 196.42 217.001C195.482 215.648 194.779 214.147 194.34 212.561L183.23 176.391H181.73L181.5 177.141C179.9 182.474 178.297 187.784 176.69 193.071C176.07 195.131 175.44 197.191 174.82 199.251C174.254 201.151 173.68 203.051 173.1 204.951C172.634 206.484 172.174 208.014 171.72 209.541C171.44 210.471 171.17 211.401 170.89 212.341C170.61 213.281 170.28 214.341 169.89 215.261C169.645 215.887 169.308 216.473 168.89 217.001C168.532 217.45 168.091 217.827 167.59 218.111C166.93 218.456 166.227 218.715 165.5 218.881L164.78 219.061V221.391H177.78V218.971L176.96 218.881C176.642 218.847 176.33 218.773 176.03 218.661C175.749 218.559 175.486 218.414 175.25 218.231C175.063 218.065 174.91 217.865 174.8 217.641C174.698 217.397 174.651 217.134 174.66 216.871C174.675 216.513 174.725 216.158 174.81 215.811C174.93 215.231 175.06 214.651 175.19 214.071V214.001C175.29 213.441 175.47 212.801 175.61 212.251C175.87 211.251 176.15 210.251 176.43 209.251C176.72 208.161 177.01 207.061 177.32 205.971H185.73C185.98 206.901 186.23 207.841 186.47 208.781C186.76 209.851 187.04 210.911 187.31 211.981C187.58 213.051 187.83 213.981 188.11 214.981C188.26 215.551 188.6 217.141 188.28 217.681C187.96 218.221 186.6 218.771 186.01 218.891ZM178.54 201.831L181.54 190.951L184.61 201.831H178.54Z" fill="white"/>
<path fill-rule="evenodd" clip-rule="evenodd" d="M280.49 199.811V205.391C280.49 207.221 280.49 209.051 280.49 210.881C280.49 212.131 280.49 213.391 280.49 214.641C280.49 215.335 280.393 216.025 280.2 216.691C280.058 217.068 279.836 217.409 279.55 217.691C279.193 218.003 278.774 218.235 278.32 218.371C277.64 218.581 276.95 218.741 276.27 218.881L275.49 219.071V221.771L276.43 221.691C276.96 221.641 277.5 221.621 278.04 221.601C278.58 221.581 279.37 221.601 280.04 221.511C280.71 221.421 281.35 221.451 282.04 221.431C282.73 221.411 283.2 221.431 283.78 221.431C284.36 221.431 285 221.431 285.61 221.431L287.72 221.491C288.39 221.491 289.06 221.491 289.72 221.581L291.36 221.691L292.3 221.771V218.951L291.49 218.861C290.68 218.785 289.882 218.617 289.11 218.361C288.637 218.211 288.2 217.963 287.83 217.631C287.578 217.386 287.395 217.08 287.3 216.741C287.141 216.171 287.047 215.584 287.02 214.991V214.991C286.95 214.081 286.95 213.101 286.95 212.181V208.341V199.661V189.111C286.95 188.011 286.95 186.921 286.95 185.821C286.95 185.021 286.95 184.231 287.01 183.431C287.012 182.756 287.099 182.084 287.27 181.431C287.375 181.059 287.567 180.716 287.83 180.431C288.151 180.113 288.541 179.873 288.97 179.731C289.652 179.502 290.356 179.344 291.07 179.261L291.86 179.161V176.341L290.91 176.431L289.4 176.541L287.54 176.661L285.54 176.751H283.71C283.15 176.751 282.59 176.751 282.03 176.691C281.47 176.631 280.68 176.601 280.03 176.541C279.38 176.481 278.65 176.441 277.95 176.421C277.25 176.401 276.83 176.421 276.26 176.421H275.38V179.071L276.14 179.221C276.82 179.361 277.51 179.521 278.19 179.731C278.652 179.875 279.08 180.11 279.45 180.421C279.744 180.699 279.97 181.042 280.11 181.421C280.303 182.071 280.401 182.744 280.4 183.421V183.771C277.38 187.931 274.38 192.118 271.4 196.331C268.793 199.978 266.177 203.558 263.55 207.071V199.591L263.6 189.031C263.6 187.931 263.6 186.841 263.6 185.741C263.6 184.951 263.6 184.151 263.66 183.361C263.673 182.687 263.76 182.017 263.92 181.361C264.027 180.989 264.219 180.647 264.48 180.361C264.803 180.045 265.192 179.806 265.62 179.661C266.303 179.437 267.006 179.279 267.72 179.191L268.52 179.091V176.271L267.58 176.361L266.07 176.481L264.2 176.591C263.533 176.631 262.867 176.661 262.2 176.681C261.533 176.701 260.923 176.701 260.37 176.681C259.81 176.681 259.25 176.681 258.69 176.621C258.13 176.561 257.34 176.531 256.69 176.471C256.04 176.411 255.31 176.371 254.62 176.351C253.93 176.331 253.49 176.351 252.92 176.351H252.04V178.971L252.8 179.121C253.492 179.257 254.177 179.431 254.85 179.641C255.313 179.781 255.743 180.016 256.11 180.331C256.408 180.607 256.634 180.95 256.77 181.331C256.96 181.981 257.057 182.655 257.06 183.331C257.06 184.251 257.11 185.171 257.12 186.081C257.12 187.151 257.12 188.211 257.12 189.281V210.871C257.12 212.121 257.12 213.381 257.07 214.631C257.07 215.325 256.973 216.015 256.78 216.681C256.638 217.058 256.416 217.399 256.13 217.681C255.774 217.995 255.355 218.227 254.9 218.361C254.227 218.57 253.542 218.74 252.85 218.871L252.09 219.021V221.721L253.03 221.641C253.57 221.591 254.11 221.571 254.65 221.551L256.65 221.461L258.65 221.381C259.23 221.381 259.81 221.381 260.39 221.381C261 221.381 261.6 221.381 262.21 221.381L264.32 221.441L266.32 221.531L267.95 221.641L268.89 221.731V218.901L268.08 218.811C267.261 218.733 266.453 218.565 265.67 218.311C265.191 218.16 264.749 217.911 264.37 217.581C264.115 217.322 263.923 217.007 263.81 216.661C263.659 216.131 263.578 215.583 263.57 215.031C263.585 214.815 263.585 214.598 263.57 214.381C266.45 210.681 269.25 206.851 271.97 202.941C274.69 199.031 277.58 195.121 280.48 191.341V199.801L280.49 199.811Z" fill="white"/>
<path fill-rule="evenodd" clip-rule="evenodd" d="M329.13 214.651C329.133 215.362 329.049 216.07 328.88 216.761C328.787 217.134 328.601 217.478 328.34 217.761C328.028 218.058 327.651 218.28 327.24 218.411C326.586 218.627 325.918 218.797 325.24 218.921L324.49 219.071V221.831L325.49 221.741C326.66 221.631 327.84 221.531 329.01 221.451C330.18 221.371 331.49 221.341 332.72 221.341H334.43L336.38 221.421C337.047 221.461 337.713 221.511 338.38 221.571C339.02 221.631 339.67 221.681 340.31 221.721L341.24 221.781V218.921L340.43 218.821C339.639 218.756 338.86 218.591 338.11 218.331C337.665 218.18 337.256 217.938 336.91 217.621C336.675 217.382 336.506 217.085 336.42 216.761C336.264 216.142 336.143 215.514 336.06 214.881V214.811C335.978 214.304 335.921 213.793 335.89 213.281C335.81 212.471 335.75 211.651 335.7 210.831C335.61 209.761 335.52 208.681 335.44 207.611L335.08 203.611L334.57 197.861L334 191.431C333.81 189.431 333.64 187.381 333.49 185.351V185.271C333.49 185.011 333.49 184.721 333.44 184.451C333.39 184.181 333.44 183.931 333.44 183.681C333.445 183.007 333.526 182.336 333.68 181.681C333.767 181.309 333.945 180.965 334.2 180.681C334.492 180.368 334.856 180.131 335.26 179.991C335.908 179.767 336.579 179.612 337.26 179.531L338.06 179.421V176.551L337.06 176.701C336.52 176.788 335.976 176.844 335.43 176.871C334.76 176.921 334.08 176.931 333.43 176.931C333.17 176.931 332.9 176.931 332.64 176.931L331.64 176.871L330.64 176.811C330.385 176.804 330.131 176.777 329.88 176.731L329.25 176.621L328.97 177.411C327.99 180.197 327.013 182.997 326.04 185.811L323.1 194.411C322.12 197.257 321.12 200.101 320.1 202.941C319.433 204.894 318.733 206.844 318 208.791C317.38 206.841 316.76 204.891 316.16 202.931C315.28 200.057 314.393 197.191 313.5 194.331C312.6 191.461 311.72 188.601 310.83 185.731C309.94 182.861 309.09 180.181 308.18 177.431L307.91 176.631L307.28 176.721C306.704 176.807 306.123 176.854 305.54 176.861H303.41H302.41H301.18L299.9 176.801C299.57 176.801 299.24 176.801 298.9 176.721L297.9 176.581V179.401L298.67 179.541C299.571 179.694 300.414 180.088 301.11 180.681C301.868 181.452 302.421 182.401 302.72 183.441V183.441C302.84 183.761 302.94 184.101 303.03 184.441C303.17 184.931 303.32 185.441 303.46 185.891C303.6 186.341 303.76 186.891 303.92 187.401L300.92 211.641C300.791 212.816 300.557 213.977 300.22 215.111C299.99 215.824 299.653 216.499 299.22 217.111C298.889 217.58 298.454 217.966 297.95 218.241C297.373 218.538 296.757 218.753 296.12 218.881L295.37 219.041V221.811L296.37 221.701C297.18 221.601 297.99 221.531 298.8 221.471C299.9 221.381 301 221.351 302.1 221.351C303.35 221.351 304.6 221.351 305.86 221.471C306.8 221.531 307.74 221.591 308.68 221.701L309.68 221.821V218.911L308.87 218.811C308.08 218.749 307.308 218.546 306.59 218.211C306.107 217.971 305.681 217.63 305.34 217.211C305.093 216.901 304.922 216.538 304.84 216.151C304.743 215.637 304.706 215.113 304.73 214.591C304.73 213.591 304.88 212.591 304.98 211.641C305.12 210.261 305.27 208.881 305.45 207.511C305.68 205.641 305.91 203.761 306.11 201.881C306.31 200.001 306.5 198.251 306.69 196.441L306.89 194.551C308.163 198.411 309.477 202.244 310.83 206.051C312.59 211.004 314.29 216.004 315.93 221.051L316.16 221.771H317.49L317.73 221.101C318.89 217.914 320.047 214.724 321.2 211.531L323.36 205.441C323.81 204.141 324.27 202.831 324.71 201.521C325.06 200.521 325.4 199.431 325.71 198.381L326.88 194.701C327.11 194.011 327.33 193.321 327.56 192.641L327.74 194.641C327.74 195.281 327.85 195.921 327.88 196.561C327.99 198.051 328.11 199.561 328.24 201.041C328.39 202.871 328.54 204.701 328.68 206.541C328.81 208.221 328.93 209.911 329.04 211.601C329.04 212.231 329.12 212.861 329.14 213.491C329.14 213.831 329.14 214.201 329.14 214.491V214.541L329.13 214.651Z" fill="white"/>
<path fill-rule="evenodd" clip-rule="evenodd" d="M370.71 199.231V212.071C370.71 212.941 370.71 213.841 370.71 214.711C370.714 215.388 370.616 216.062 370.42 216.711C370.288 217.09 370.069 217.432 369.78 217.711C369.431 218.021 369.018 218.249 368.57 218.381C367.912 218.584 367.245 218.754 366.57 218.891L365.81 219.031V221.731L366.75 221.651C367.28 221.651 367.82 221.581 368.35 221.571C368.88 221.561 369.67 221.521 370.35 221.481L372.35 221.391C372.93 221.391 373.5 221.391 374.08 221.391H375.89L377.97 221.451C378.64 221.451 379.3 221.501 379.97 221.541C380.64 221.581 381.05 221.611 381.59 221.661L382.53 221.741V218.921L381.72 218.821C380.917 218.751 380.125 218.587 379.36 218.331C378.891 218.182 378.459 217.937 378.09 217.611C377.843 217.367 377.664 217.064 377.57 216.731C377.419 216.169 377.328 215.592 377.3 215.011C377.23 214.111 377.23 213.131 377.23 212.231V208.471V199.871V189.121C377.23 188.041 377.23 186.951 377.23 185.871C377.23 185.077 377.25 184.287 377.29 183.501C377.295 182.846 377.383 182.194 377.55 181.561C377.647 181.186 377.836 180.843 378.1 180.561C378.417 180.242 378.804 180.003 379.23 179.861C379.902 179.634 380.596 179.48 381.3 179.401L382.1 179.291V176.471L381.16 176.561L379.66 176.671C379.05 176.671 378.43 176.751 377.82 176.791C377.21 176.831 376.53 176.861 375.88 176.881H374.07L361.9 176.991L352.65 176.871C352.09 176.871 351.53 176.871 350.98 176.811C350.43 176.751 349.64 176.721 348.98 176.661C348.32 176.601 347.61 176.561 346.93 176.541H345.25H344.37V179.161L345.13 179.311C345.805 179.447 346.472 179.617 347.13 179.821C347.589 179.959 348.015 180.191 348.38 180.501C348.677 180.775 348.9 181.118 349.03 181.501C349.221 182.15 349.319 182.824 349.32 183.501C349.32 184.431 349.37 185.351 349.38 186.281C349.38 187.371 349.38 188.451 349.38 189.531V210.971C349.38 212.211 349.38 213.451 349.33 214.691C349.329 215.368 349.232 216.041 349.04 216.691C348.908 217.07 348.689 217.412 348.4 217.691C348.05 217.999 347.637 218.227 347.19 218.361C346.534 218.568 345.866 218.739 345.19 218.871L344.43 219.021V221.711L345.37 221.631C345.9 221.631 346.43 221.571 346.97 221.551L348.97 221.461C349.62 221.461 350.28 221.391 350.97 221.371H352.69C353.3 221.371 353.9 221.371 354.5 221.371L356.59 221.431C357.25 221.431 357.92 221.431 358.59 221.511L360.21 221.631L361.15 221.711V218.891L360.34 218.801C359.537 218.727 358.746 218.563 357.98 218.311C357.512 218.154 357.081 217.906 356.71 217.581C356.465 217.34 356.286 217.041 356.19 216.711C356.036 216.146 355.942 215.566 355.91 214.981C355.84 214.081 355.83 213.111 355.83 212.201C355.83 210.931 355.83 209.661 355.83 208.401V201.781V199.171V190.291V188.701C355.83 188.341 355.83 187.991 355.83 187.631C355.83 187.271 355.83 187.041 355.88 186.741C355.93 186.441 355.88 186.111 355.88 185.801C355.881 185.126 355.968 184.454 356.14 183.801C356.24 183.402 356.432 183.032 356.7 182.721C357.007 182.4 357.388 182.16 357.81 182.021C358.457 181.812 359.131 181.697 359.81 181.681L362.9 181.501L366.65 181.621C367.327 181.638 367.998 181.739 368.65 181.921C369.097 182.04 369.506 182.271 369.84 182.591C370.151 182.912 370.381 183.303 370.51 183.731C370.711 184.416 370.812 185.127 370.81 185.841C370.87 187.721 370.9 189.611 370.9 191.491C370.9 193.371 370.9 195.491 370.9 197.491L370.71 199.231Z" fill="white"/>
<path fill-rule="evenodd" clip-rule="evenodd" d="M390.241 195.911V210.911C390.241 212.151 390.241 213.401 390.191 214.651C390.192 215.357 390.101 216.059 389.921 216.741C389.814 217.116 389.619 217.459 389.351 217.741C389.018 218.045 388.622 218.271 388.191 218.401C387.536 218.615 386.868 218.786 386.191 218.911L385.431 219.061V221.811H386.321C388.167 221.771 390.017 221.711 391.871 221.631C393.471 221.561 395.081 221.521 396.691 221.521C398.531 221.521 400.371 221.521 402.211 221.631C403.781 221.711 405.351 221.771 406.931 221.811C407.215 221.83 407.499 221.775 407.757 221.652C408.014 221.53 408.236 221.344 408.401 221.111C408.721 220.596 408.932 220.021 409.021 219.421V219.421L410.691 210.221L408.831 208.931L408.491 210.221C408.211 211.342 407.85 212.442 407.411 213.511C407.128 214.196 406.759 214.841 406.311 215.431C406.007 215.846 405.614 216.188 405.161 216.431C404.663 216.662 404.139 216.83 403.601 216.931C403.341 216.931 403.061 217.041 402.801 217.071L402.201 217.121L401.571 217.181C401.271 217.181 400.951 217.181 400.641 217.181C399.899 217.239 399.154 217.161 398.441 216.951C398.018 216.821 397.648 216.563 397.381 216.211C397.113 215.818 396.936 215.371 396.861 214.901C396.73 214.098 396.67 213.285 396.681 212.471V204.471V200.621L402.761 200.781C403.185 200.761 403.606 200.876 403.961 201.111C404.23 201.329 404.446 201.606 404.591 201.921C404.751 202.301 404.855 202.702 404.901 203.111C404.961 203.621 405.011 204.111 405.041 204.651L405.101 205.651L407.191 205.971V203.611C407.191 203.131 407.191 202.611 407.191 202.151C407.191 201.691 407.191 201.151 407.191 200.641V199.071C407.191 198.751 407.191 198.421 407.191 198.071C407.191 197.721 407.251 197.141 407.291 196.671C407.331 196.201 407.381 195.671 407.421 195.181C407.461 194.691 407.501 194.351 407.561 193.951L407.651 193.311L407.231 192.731C407.146 192.595 407.03 192.482 406.893 192.4C406.755 192.318 406.6 192.271 406.441 192.261H405.821L405.611 193.061C405.491 193.511 405.361 193.961 405.211 194.391C405.129 194.639 405.008 194.873 404.851 195.081C404.698 195.273 404.503 195.427 404.281 195.531C403.935 195.672 403.563 195.737 403.191 195.721V195.721C402.111 195.721 401.041 195.781 399.961 195.781C399.151 195.781 398.331 195.841 397.521 195.841H396.731V181.501H399.601L401.811 181.561C402.424 181.547 403.033 181.681 403.584 181.95C404.136 182.22 404.615 182.618 404.981 183.111C405.757 184.446 406.177 185.957 406.201 187.501L406.271 188.611H408.341V187.391C408.341 187.011 408.341 186.621 408.341 186.241C408.341 185.861 408.341 185.241 408.341 184.681C408.341 184.121 408.341 183.631 408.401 183.111C408.461 182.591 408.451 182.191 408.481 181.741C408.571 181.051 408.611 180.301 408.641 179.601C408.681 178.752 408.778 177.907 408.931 177.071L409.091 176.261L407.491 174.701L407.001 175.851C406.911 176.097 406.771 176.322 406.591 176.511C406.405 176.666 406.186 176.776 405.951 176.831C405.557 176.921 405.154 176.961 404.751 176.951H402.881L396.521 177.011H394.181C393.241 177.011 392.311 177.011 391.381 176.951L388.561 176.831C387.811 176.831 387.061 176.751 386.311 176.661L385.311 176.541V179.391L386.061 179.541C386.738 179.667 387.406 179.838 388.061 180.051C388.495 180.18 388.895 180.406 389.231 180.711C389.499 180.993 389.695 181.336 389.801 181.711C389.978 182.394 390.068 183.096 390.071 183.801C390.071 184.708 390.091 185.618 390.131 186.531C390.131 187.531 390.131 188.611 390.131 189.651V195.911H390.241Z" fill="white"/>
<path fill-rule="evenodd" clip-rule="evenodd" d="M429.91 198.981C429.317 199.77 428.555 200.416 427.68 200.871C426.741 201.348 425.726 201.66 424.68 201.791L423.88 201.901V204.681L424.72 204.741C426.359 204.858 428 204.57 429.5 203.901C431.125 203.193 432.596 202.174 433.83 200.901C435.189 199.444 436.267 197.749 437.01 195.901C437.87 193.805 438.299 191.557 438.27 189.291C438.344 187.076 437.921 184.872 437.03 182.841C436.342 181.335 435.315 180.007 434.03 178.961C432.876 178.072 431.547 177.435 430.13 177.091C428.847 176.775 427.532 176.611 426.21 176.601L420.07 176.831H418.07L416.12 176.771L414.44 176.711C414.03 176.711 413.61 176.711 413.2 176.631L412.2 176.521V179.361L412.96 179.511C413.637 179.637 414.306 179.808 414.96 180.021C415.403 180.161 415.81 180.396 416.15 180.711C416.428 180.991 416.634 181.335 416.75 181.711C416.927 182.394 417.018 183.096 417.02 183.801C417.02 184.711 417.02 185.611 417.08 186.511C417.14 187.411 417.08 188.591 417.08 189.631V199.931C417.08 201.781 417.08 203.641 417.08 205.491V210.961C417.08 212.211 417.08 213.461 417.08 214.701C417.078 215.378 416.98 216.052 416.79 216.701C416.648 217.078 416.426 217.419 416.14 217.701C415.786 218.01 415.37 218.238 414.92 218.371C414.249 218.585 413.564 218.755 412.87 218.881L412.11 219.031V221.731L413.05 221.651C413.59 221.601 414.13 221.581 414.66 221.571C415.19 221.561 415.99 221.571 416.66 221.481C417.33 221.391 417.97 221.411 418.66 221.391H420.39C421.004 221.391 421.614 221.391 422.22 221.391L424.31 221.451C424.977 221.451 425.644 221.481 426.31 221.541C426.86 221.541 427.4 221.611 427.94 221.661L428.88 221.741V218.911L428.07 218.821C427.265 218.747 426.47 218.583 425.7 218.331C425.23 218.175 424.795 217.927 424.42 217.601C424.174 217.354 423.995 217.047 423.9 216.711C423.746 216.143 423.652 215.56 423.62 214.971V214.971C423.54 214.061 423.54 213.081 423.54 212.171C423.54 210.891 423.54 209.611 423.54 208.341V199.691V193.471V180.471C423.904 180.463 424.269 180.48 424.63 180.521V180.521C425.713 180.579 426.756 180.95 427.63 181.591C428.551 182.267 429.326 183.12 429.91 184.101C430.572 185.204 431.061 186.401 431.36 187.651C431.699 189.043 431.867 190.47 431.86 191.901C431.888 193.274 431.71 194.642 431.33 195.961C431.041 197.045 430.56 198.068 429.91 198.981Z" fill="white"/>
<path fill-rule="evenodd" clip-rule="evenodd" d="M475.91 176.801L473.96 176.891H472.13C471.58 176.891 471.02 176.891 470.46 176.891C469.9 176.891 469.11 176.801 468.46 176.741C467.81 176.681 467.08 176.641 466.39 176.621C465.7 176.601 465.26 176.621 464.7 176.621H463.82V179.241L464.57 179.391C465.264 179.516 465.949 179.686 466.62 179.901C467.084 180.041 467.513 180.276 467.88 180.591C468.178 180.866 468.404 181.209 468.54 181.591C468.733 182.24 468.831 182.914 468.83 183.591V183.951C465.81 188.097 462.81 192.271 459.83 196.471C457.264 200.111 454.647 203.694 451.98 207.221V199.761V189.221C451.98 188.131 451.98 187.041 451.98 185.941C451.98 185.151 451.98 184.361 452.04 183.561C452.042 182.886 452.13 182.214 452.3 181.561C452.404 181.189 452.592 180.847 452.85 180.561C453.172 180.239 453.567 179.999 454 179.861C454.677 179.625 455.378 179.467 456.09 179.391L456.88 179.291V176.471L455.94 176.561L454.44 176.671L452.58 176.791L450.58 176.881H448.75C448.2 176.881 447.64 176.881 447.08 176.821C446.52 176.761 445.73 176.731 445.08 176.671C444.43 176.611 443.7 176.571 443.01 176.551C442.32 176.531 441.88 176.551 441.32 176.551H440.44V179.171L441.2 179.321C441.875 179.458 442.543 179.628 443.2 179.831C443.664 179.971 444.093 180.206 444.46 180.521C444.758 180.796 444.984 181.139 445.12 181.521C445.31 182.171 445.408 182.844 445.41 183.521C445.41 184.431 445.46 185.351 445.47 186.261C445.47 187.321 445.47 188.391 445.47 189.451V205.451C445.47 207.281 445.47 209.111 445.47 210.931C445.47 212.181 445.47 213.441 445.47 214.681C445.468 215.358 445.37 216.031 445.18 216.681C445.043 217.059 444.821 217.401 444.53 217.681C444.175 217.994 443.755 218.226 443.3 218.361C442.643 218.563 441.975 218.734 441.3 218.871L440.54 219.021V221.721L441.48 221.641C442.01 221.591 442.55 221.571 443.09 221.551C443.63 221.531 444.42 221.551 445.09 221.461C445.76 221.371 446.4 221.401 447.09 221.381C447.78 221.361 448.25 221.381 448.83 221.381C449.41 221.381 450.04 221.381 450.65 221.381L452.75 221.441C453.42 221.441 454.09 221.441 454.75 221.531L456.39 221.641L457.33 221.721V218.901L456.52 218.811C455.701 218.733 454.893 218.565 454.11 218.311C453.635 218.159 453.196 217.91 452.82 217.581C452.558 217.327 452.366 217.01 452.26 216.661C452.109 216.134 452.028 215.589 452.02 215.041C452.024 214.823 452.007 214.605 451.97 214.391V214.391C454.85 210.701 457.64 206.881 460.36 202.981C463.08 199.081 465.96 195.181 468.85 191.411V199.851C468.85 201.701 468.85 203.561 468.85 205.411V210.891C468.85 212.141 468.85 213.391 468.85 214.641C468.848 215.318 468.75 215.991 468.56 216.641C468.42 217.018 468.198 217.36 467.91 217.641C467.555 217.954 467.135 218.186 466.68 218.321C466.023 218.523 465.355 218.694 464.68 218.831L463.92 218.981V221.681L464.86 221.601C465.39 221.551 465.93 221.531 466.47 221.511C467.01 221.491 467.8 221.461 468.47 221.421C469.14 221.381 469.78 221.351 470.47 221.331H472.21C472.82 221.331 473.42 221.331 474.03 221.331L476.13 221.391C476.8 221.391 477.47 221.391 478.13 221.471L479.77 221.591L480.71 221.671V219.071L479.9 218.981C479.091 218.904 478.293 218.736 477.52 218.481C477.047 218.331 476.611 218.082 476.24 217.751C475.992 217.503 475.809 217.197 475.71 216.861C475.559 216.292 475.469 215.709 475.44 215.121V215.121C475.37 214.221 475.36 213.231 475.37 212.321V208.481V199.821V189.291C475.37 188.201 475.37 187.101 475.37 186.011C475.37 185.221 475.37 184.421 475.43 183.631C475.432 182.956 475.52 182.284 475.69 181.631C475.794 181.259 475.982 180.917 476.24 180.631C476.562 180.309 476.957 180.068 477.39 179.931C478.064 179.696 478.762 179.539 479.47 179.461L480.27 179.351V176.541L479.33 176.631L477.83 176.741L475.91 176.801Z" fill="white"/>
<path fill-rule="evenodd" clip-rule="evenodd" d="M512.821 218.83C512.146 218.693 511.478 218.523 510.821 218.32C510.369 218.185 509.953 217.953 509.601 217.64C509.309 217.362 509.087 217.019 508.951 216.64C508.761 215.99 508.663 215.317 508.661 214.64C508.661 213.44 508.661 212.23 508.661 211.02V202.93C508.661 202.003 508.661 201.073 508.661 200.14C508.661 199.3 508.661 198.47 508.661 197.64V186.33C508.661 185.42 508.661 184.52 508.711 183.61C508.705 182.905 508.792 182.202 508.971 181.52C509.074 181.14 509.278 180.794 509.561 180.52C509.904 180.211 510.31 179.979 510.751 179.84C511.405 179.627 512.074 179.456 512.751 179.33L513.511 179.19V176.5H512.631C511.131 176.5 509.631 176.5 508.111 176.62C507.201 176.68 506.271 176.74 505.361 176.74L500.421 176.56C498.909 176.571 497.413 176.866 496.011 177.43C494.496 178.02 493.105 178.888 491.911 179.99C490.6 181.212 489.552 182.689 488.831 184.33C487.98 186.263 487.56 188.358 487.601 190.47C487.499 193.215 488.296 195.919 489.871 198.17C490.388 198.867 490.974 199.51 491.621 200.09C492.23 200.864 492.899 201.59 493.621 202.26C486.471 222.36 476.551 232.34 459.621 229.64L456.981 229.08C456.658 228.976 456.315 228.952 455.981 229.01C455.725 229.081 455.498 229.229 455.331 229.436C455.164 229.642 455.066 229.895 455.051 230.16C454.988 230.577 455.065 231.002 455.271 231.37V231.43V231.48C458.141 235.48 466.621 236.19 470.601 236.19C481.681 236.19 490.531 226.09 496.171 213.76C496.968 212.426 497.66 211.032 498.241 209.59C499.041 207.59 499.781 205.56 500.461 203.5H501.461H502.091V208.19C502.091 209.47 502.091 210.74 502.091 212.02C502.091 212.93 502.091 213.91 502.011 214.81C501.979 215.398 501.885 215.982 501.731 216.55C501.636 216.883 501.457 217.187 501.211 217.43C500.839 217.759 500.403 218.008 499.931 218.16C499.161 218.411 498.366 218.575 497.561 218.65L496.751 218.75V221.57L497.681 221.49L499.311 221.37C499.981 221.37 500.651 221.3 501.311 221.29L503.411 221.23C504.021 221.23 504.621 221.23 505.231 221.23H506.971L508.971 221.32L510.971 221.41C511.511 221.41 512.051 221.41 512.581 221.49L513.521 221.58V218.88L512.821 218.83ZM502.241 199.41C501.421 199.278 500.619 199.053 499.851 198.74C498.755 198.303 497.74 197.685 496.851 196.91C495.981 196.155 495.268 195.238 494.751 194.21C494.233 193.167 493.976 192.014 494.001 190.85C493.968 189.314 494.219 187.785 494.741 186.34C495.192 185.162 495.872 184.085 496.741 183.17C497.529 182.336 498.487 181.681 499.551 181.25C500.414 180.895 501.329 180.682 502.261 180.62V188.97V198.33L502.241 199.41Z" fill="white"/>
<path fill-rule="evenodd" clip-rule="evenodd" d="M478.12 242.031L34.1104 241.871V247.961H35.8904V248.051L479.9 248.211V242.121H478.12V242.031Z" fill="white"/>
<path fill-rule="evenodd" clip-rule="evenodd" d="M134.221 121.411L134.281 120.131C134.281 120.241 134.281 120.361 134.281 120.471C134.251 120.781 134.231 121.071 134.221 121.411Z" fill="white"/>
<path fill-rule="evenodd" clip-rule="evenodd" d="M311.32 142.74H312.22L312.16 142.02H313.06C312.94 140.31 315.34 135.02 318.46 129.21C321.608 123.265 325.073 117.493 328.84 111.92C329.007 111.847 329.168 111.76 329.32 111.66C330.17 111.1 330.783 110.245 331.04 109.26C331.076 109.23 331.116 109.206 331.16 109.19H331.26C331.49 109.19 331.37 109.14 331.06 109.19C331.13 108.96 331.186 108.727 331.23 108.49L331.28 108.33L331.52 107.54C332.3 106.997 332.84 106.174 333.026 105.241C333.213 104.309 333.031 103.341 332.52 102.54V102.54C332.52 102.4 332.52 102.27 332.52 102.13C332.52 101.86 332.52 101.61 332.57 101.34C333.154 101.031 333.64 100.563 333.971 99.991C334.302 99.419 334.466 98.7654 334.445 98.1047C334.423 97.4439 334.216 96.8026 333.847 96.2538C333.479 95.7049 332.963 95.2706 332.36 95.0002C332.935 94.5884 333.363 94.0034 333.581 93.3308C333.799 92.6583 333.796 91.9335 333.573 91.2627C333.349 90.5919 332.916 90.0104 332.338 89.6032C331.76 89.1961 331.067 88.9848 330.36 89.0002C330.681 88.5366 330.87 87.994 330.904 87.431C330.939 86.8681 330.819 86.3063 330.558 85.8067C330.296 85.307 329.903 84.8885 329.42 84.5965C328.937 84.3045 328.384 84.1502 327.82 84.1502C327.577 84.1493 327.335 84.1796 327.1 84.2402V84.2402C327.02 84.1202 326.94 84.0002 326.85 83.8902C326.914 83.6623 326.948 83.4269 326.95 83.1902C326.95 82.4264 326.647 81.6939 326.107 81.1538C325.566 80.6137 324.834 80.3102 324.07 80.3102H323.85C323.61 80.0436 323.36 79.7836 323.1 79.5302C323.054 78.8644 322.757 78.2408 322.269 77.7859C321.781 77.3309 321.138 77.0787 320.47 77.0802V77.0802C320.38 76.9902 320.28 76.9102 320.2 76.8402C319.86 76.5402 319.52 76.2602 319.2 75.9802C319.048 75.5284 318.765 75.1317 318.388 74.8399C318.011 74.5482 317.556 74.3743 317.08 74.3402V74.3402C316.77 74.1202 316.49 73.8902 316.17 73.6702L315.17 73.0002C315.097 72.9445 315.02 72.8944 314.94 72.8502V72.8502C314.648 72.4873 314.249 72.225 313.8 72.1002V72.1002L312.8 71.4502L312.1 71.0302L311.73 70.8002C311.418 70.4003 310.963 70.1382 310.46 70.0702V70.0702L309.59 69.5902L308.9 69.2202L308.59 69.0502C308.406 68.8013 308.166 68.5986 307.89 68.4581C307.615 68.3175 307.31 68.2429 307 68.2402V68.2402C306.36 67.9202 305.72 67.6102 305.09 67.3202L304.48 67.0402C303.89 66.7802 303.31 66.5202 302.72 66.2802L302.38 66.1402L301.22 65.6702L299.38 64.9702L298.15 64.5302C297.6 64.3402 297.05 64.1502 296.49 63.9802C295.95 63.8002 295.41 63.6202 294.86 63.4602C294.5 63.3502 294.14 63.2402 293.78 63.1502C288.08 61.4529 282.177 60.5313 276.23 60.4102C272.468 58.9132 268.498 57.9994 264.46 57.7002C264.669 56.8801 264.773 56.0366 264.77 55.1902C264.747 53.5968 264.203 52.0548 263.22 50.8002C262.89 50.3602 262.53 49.9502 262.16 49.5402L261.94 49.3102C261.901 49.045 261.837 48.784 261.75 48.5302C261.548 48.0451 261.264 47.5985 260.91 47.2102C260.85 47.1402 260.72 46.9902 260.66 46.9002C260.34 45.2802 259.8 43.2902 258.51 42.2402C258.93 41.9604 259.29 41.6001 259.57 41.1802C260.464 41.6662 261.454 41.9495 262.47 42.0102C262.693 42.3563 262.99 42.6487 263.339 42.8665C263.688 43.0844 264.081 43.2222 264.49 43.2702C265.281 43.418 266.099 43.2836 266.802 42.8905C267.504 42.4974 268.046 41.8704 268.334 41.1188C268.622 40.3671 268.637 39.5384 268.377 38.7767C268.117 38.015 267.598 37.3687 266.91 36.9502C266.725 36.4504 266.399 36.0152 265.971 35.6974C265.543 35.3796 265.032 35.193 264.5 35.1602C264.03 35.1565 263.567 35.2835 263.165 35.5272C262.762 35.7709 262.435 36.1216 262.22 36.5402C261.32 36.625 260.441 36.8617 259.62 37.2402C259.288 36.5239 258.748 35.9244 258.07 35.5202C258.07 35.5202 258.07 35.4202 258.14 35.3702C259.14 35.1502 259.25 33.4402 259.51 31.7602C259.763 31.5561 259.985 31.317 260.17 31.0502C260.452 30.9321 260.698 30.7412 260.883 30.497C261.067 30.2528 261.184 29.9641 261.22 29.6602C261.194 29.3922 261.104 29.1345 260.955 28.9096C260.807 28.6847 260.606 28.4996 260.37 28.3702C260.05 27.7853 259.553 27.3164 258.95 27.0302C258.816 26.8698 258.657 26.7315 258.48 26.6202C258.277 26.2591 258.005 25.9416 257.679 25.686C257.353 25.4303 256.979 25.2414 256.58 25.1302C256.437 25.1154 256.293 25.1154 256.15 25.1302C255.795 25.1407 255.445 25.2242 255.124 25.3756C254.802 25.527 254.515 25.743 254.28 26.0102C254.023 26.2856 253.81 26.5993 253.65 26.9402C253.077 27.1259 252.573 27.4799 252.204 27.9561C251.834 28.4324 251.617 29.0088 251.58 29.6102C251.587 30.1925 251.796 30.7543 252.17 31.2002C252.486 31.5963 252.885 31.9174 253.34 32.1402C253.399 33.3312 253.698 34.498 254.22 35.5702C253.534 35.9694 252.992 36.5748 252.67 37.3002C252.235 37.0721 251.771 36.9039 251.29 36.8002C250.88 36.7102 250.47 36.6502 250.07 36.5802C249.854 36.1623 249.527 35.8122 249.125 35.5687C248.722 35.3251 248.26 35.1976 247.79 35.2002C247.001 35.0633 246.189 35.2051 245.493 35.6013C244.797 35.9976 244.261 36.6235 243.976 37.3719C243.691 38.1203 243.675 38.9444 243.932 39.7031C244.188 40.4618 244.7 41.1078 245.38 41.5302C245.527 42.0219 245.821 42.4566 246.223 42.7754C246.625 43.0941 247.115 43.2815 247.627 43.3121C248.139 43.3427 248.648 43.215 249.085 42.9463C249.522 42.6776 249.866 42.281 250.07 41.8102C251.086 41.7476 252.075 41.4644 252.97 40.9802C253.251 41.4027 253.615 41.7633 254.04 42.0402C252.75 43.0902 252.21 45.0402 251.89 46.7002C251.83 46.7902 251.7 46.9302 251.64 47.0102C251.284 47.3969 251 47.8439 250.8 48.3302C250.706 48.5819 250.643 48.8437 250.61 49.1102L250.42 49.3102C250.065 49.6918 249.731 50.0924 249.42 50.5102C248.469 51.6916 247.903 53.1368 247.8 54.6502C247.8 54.7902 247.8 54.9202 247.8 55.0502C247.794 55.8725 247.892 56.6922 248.09 57.4902C244.002 57.8015 239.986 58.7356 236.18 60.2602C227.085 60.5353 218.122 62.5058 209.75 66.0702C208.38 66.6402 206.98 67.2702 205.57 67.9702H205.49C205.169 67.9696 204.852 68.0466 204.566 68.1946C204.281 68.3425 204.035 68.5571 203.85 68.8202L202.07 69.8202C201.792 69.8478 201.523 69.9332 201.28 70.071C201.038 70.2087 200.826 70.3959 200.66 70.6202C199.98 71.0202 199.29 71.4402 198.66 71.8702C198.159 71.9852 197.715 72.2762 197.41 72.6902C196.7 73.1602 196 73.6902 195.31 74.1502C194.814 74.1724 194.337 74.3464 193.944 74.6487C193.55 74.951 193.259 75.367 193.11 75.8402V75.8402C192.68 76.1702 192.26 76.5202 191.84 76.8902C191.169 76.8839 190.52 77.1355 190.029 77.5933C189.538 78.0511 189.241 78.68 189.2 79.3502C188.94 79.6102 188.68 79.8702 188.44 80.1302H188.2C187.439 80.1302 186.709 80.4326 186.171 80.9708C185.632 81.5091 185.33 82.2391 185.33 83.0002C185.329 83.2365 185.359 83.4719 185.42 83.7002L185.16 84.0702C184.928 84.0102 184.69 83.98 184.45 83.9802C183.631 83.9802 182.845 84.3058 182.265 84.8853C181.686 85.4648 181.36 86.2507 181.36 87.0702C181.355 87.6985 181.543 88.3132 181.9 88.8302C181.193 88.8148 180.5 89.0261 179.922 89.4332C179.344 89.8404 178.911 90.4219 178.688 91.0927C178.464 91.7635 178.461 92.4883 178.679 93.1609C178.897 93.8334 179.325 94.4184 179.9 94.8302C179.301 95.0969 178.788 95.5253 178.419 96.0673C178.049 96.6093 177.838 97.2434 177.809 97.8987C177.78 98.5539 177.934 99.2042 178.254 99.7768C178.574 100.349 179.047 100.821 179.62 101.14C179.62 101.59 179.62 102.05 179.72 102.5C179.4 103.064 179.231 103.702 179.23 104.35C179.221 104.929 179.348 105.501 179.599 106.022C179.851 106.543 180.221 106.998 180.68 107.35V107.48L180.98 108.48C181.027 108.736 181.087 108.99 181.16 109.24C181.409 110.264 182.034 111.156 182.91 111.74C183.402 112.038 183.93 112.273 184.48 112.44C185.06 113.25 185.6 114.07 186.14 114.9C188.35 118.29 190.42 121.8 192.41 125.32C194.4 128.84 196.2 132.21 197.84 135.75C198.37 136.89 200.1 140.67 200.01 141.89L199.94 142.79H200.85C219.23 143.48 237.66 143.73 256.05 143.73C274.44 143.73 292.93 143.41 311.32 142.74ZM299.73 135.38C299.73 135.837 299.595 136.284 299.341 136.664C299.087 137.043 298.726 137.34 298.304 137.514C297.882 137.689 297.418 137.735 296.969 137.646C296.521 137.557 296.11 137.337 295.787 137.014C295.464 136.691 295.244 136.279 295.155 135.831C295.065 135.383 295.111 134.918 295.286 134.496C295.461 134.074 295.757 133.713 296.137 133.46C296.517 133.206 296.963 133.07 297.42 133.07C298.032 133.073 298.618 133.317 299.051 133.75C299.483 134.182 299.727 134.768 299.73 135.38V135.38ZM286.53 135.52C286.532 135.978 286.398 136.426 286.145 136.807C285.892 137.189 285.531 137.486 285.109 137.662C284.686 137.839 284.221 137.885 283.772 137.796C283.323 137.707 282.91 137.487 282.587 137.164C282.263 136.84 282.043 136.427 281.954 135.978C281.865 135.529 281.912 135.064 282.088 134.642C282.264 134.219 282.562 133.858 282.943 133.605C283.324 133.352 283.772 133.218 284.23 133.22C284.833 133.231 285.408 133.478 285.831 133.908C286.253 134.338 286.49 134.917 286.49 135.52H286.53ZM244.76 135.52C244.76 136.064 244.599 136.596 244.297 137.048C243.994 137.5 243.565 137.853 243.062 138.061C242.56 138.269 242.007 138.323 241.474 138.217C240.94 138.111 240.45 137.849 240.066 137.465C239.681 137.08 239.419 136.59 239.313 136.057C239.207 135.523 239.261 134.97 239.469 134.468C239.678 133.965 240.03 133.536 240.482 133.234C240.935 132.932 241.466 132.77 242.01 132.77C242.738 132.77 243.436 133.059 243.951 133.572C244.467 134.086 244.757 134.783 244.76 135.51V135.52ZM216.31 135.52C216.31 135.835 216.217 136.142 216.042 136.404C215.867 136.665 215.619 136.869 215.329 136.989C215.038 137.11 214.718 137.141 214.41 137.08C214.101 137.018 213.818 136.867 213.596 136.645C213.373 136.422 213.222 136.139 213.161 135.83C213.099 135.522 213.131 135.202 213.251 134.912C213.371 134.621 213.575 134.373 213.837 134.198C214.098 134.023 214.406 133.93 214.72 133.93C215.138 133.93 215.54 134.095 215.837 134.389C216.135 134.683 216.305 135.082 216.31 135.5V135.52ZM201.98 128.66C201.562 128.425 201.198 128.104 200.914 127.718C200.629 127.332 200.43 126.889 200.33 126.42V126.42C200.351 126.236 200.41 126.059 200.503 125.899C200.596 125.739 200.721 125.6 200.87 125.49L201.16 125.42C202.234 125.504 203.302 125.191 204.16 124.54V124.54L204.36 124.48C204.611 124.406 204.853 124.302 205.08 124.17C205.213 124.085 205.339 123.991 205.46 123.89C205.675 123.709 205.848 123.484 205.97 123.23C205.998 123.182 206.021 123.132 206.04 123.08C206.101 122.926 206.141 122.765 206.16 122.6C206.165 122.514 206.165 122.427 206.16 122.34C206.068 121.313 205.589 120.358 204.82 119.67C205.659 118.72 206.106 117.487 206.07 116.22C206.08 116.164 206.08 116.106 206.07 116.05C206.063 115.968 206.047 115.888 206.02 115.81C206.026 115.767 206.026 115.723 206.02 115.68C205.987 115.573 205.944 115.469 205.89 115.37C205.832 115.253 205.762 115.142 205.68 115.04C205.607 114.929 205.52 114.828 205.42 114.74C205.327 114.649 205.227 114.566 205.12 114.49V114.49C204.88 114.316 204.613 114.181 204.33 114.09C203.534 113.349 202.497 112.92 201.41 112.88C201.355 112.743 201.291 112.61 201.22 112.48C201.144 112.328 201.057 112.181 200.96 112.04C200.866 111.9 200.759 111.769 200.64 111.65C200.354 111.328 199.972 111.107 199.55 111.02V111.02C199.295 110.717 198.979 110.471 198.622 110.299C198.265 110.127 197.876 110.032 197.48 110.02C196.9 110.034 196.332 110.184 195.821 110.459C195.31 110.733 194.872 111.124 194.54 111.6C194.539 111.403 194.522 111.205 194.49 111.01L194.43 110.72C194.325 110.264 194.12 109.837 193.83 109.47C193.779 109.405 193.722 109.345 193.66 109.29C193.485 109.113 193.278 108.971 193.05 108.87L192.86 108.8H192.75H192.66C192.556 108.671 192.439 108.554 192.31 108.45C192.2 108.2 192.09 107.95 191.98 107.72L191.59 106.89C191.52 106.74 191.43 106.57 191.36 106.41C189.94 93.4902 194.81 83.5002 205.63 76.4102C211.329 72.8293 217.574 70.2046 224.12 68.6402C224.12 68.6402 224.12 68.6402 224.12 68.6402C223.413 69.4332 222.745 70.2609 222.12 71.1202C221.688 71.3445 221.319 71.6751 221.05 72.0809C220.78 72.4868 220.619 72.9546 220.58 73.4402C220.18 74.0702 219.81 74.7102 219.46 75.3702C218.948 75.6307 218.518 76.0269 218.217 76.5154C217.915 77.004 217.754 77.5661 217.75 78.1402C217.748 78.397 217.781 78.6529 217.85 78.9002C217.65 79.3802 217.47 79.9002 217.3 80.3602C216.911 80.5683 216.567 80.8522 216.289 81.1952C216.011 81.5381 215.805 81.9332 215.682 82.3571C215.559 82.7811 215.522 83.2254 215.573 83.6639C215.624 84.1023 215.763 84.5261 215.98 84.9102C215.89 85.2702 215.82 85.6302 215.75 85.9902C215.301 86.2569 214.916 86.62 214.624 87.0533C214.332 87.4867 214.14 87.9794 214.061 88.4961C213.983 89.0127 214.02 89.5403 214.17 90.0408C214.321 90.5413 214.58 91.0022 214.93 91.3902C214.87 92.0502 214.81 92.7102 214.77 93.3902C214.77 93.8602 214.71 94.3302 214.7 94.8002C214.66 95.8402 214.64 96.8802 214.64 97.9202V98.9202C214.18 98.9844 213.741 99.1517 213.354 99.4098C212.968 99.6678 212.645 100.01 212.41 100.41C212.063 101.148 211.95 101.975 212.085 102.779C212.221 103.584 212.6 104.327 213.17 104.91C213.772 105.532 214.443 106.082 215.17 106.55C215.5 106.82 215.85 107.09 216.17 107.35C216.239 107.412 216.313 107.469 216.39 107.52C216.644 107.761 216.857 108.041 217.02 108.35C217.024 108.38 217.024 108.41 217.02 108.44L216.88 108.32L216.3 107.85C215.734 107.28 215.107 106.774 214.43 106.34C214.308 106.27 214.181 106.21 214.05 106.16C213.74 105.902 213.405 105.674 213.05 105.48C212.415 105.092 211.685 104.887 210.94 104.887C210.196 104.887 209.466 105.092 208.83 105.48C207.48 106.48 207.47 108.18 207.89 109.66C206.53 110.66 205.33 112.05 205.54 113.81C205.75 115.57 207.23 116.64 208.76 117.25C208.69 118.78 209.09 120.42 210.62 121.09C211.239 121.312 211.905 121.37 212.553 121.26C213.201 121.149 213.809 120.874 214.32 120.46C214.929 120.297 215.491 119.992 215.96 119.57C216.149 119.4 216.349 119.243 216.56 119.1C216.913 119.001 217.287 119.001 217.64 119.1C218.96 119.52 218.98 121.91 218.92 122.99C218.52 125.86 217.28 128.36 214.6 129.69C212.762 130.521 210.735 130.842 208.73 130.62C206.369 130.426 204.072 129.752 201.98 128.64V128.66ZM297.71 129.71C296.74 128.901 295.94 127.906 295.356 126.786C294.773 125.665 294.417 124.439 294.31 123.18C294.31 122.93 294.31 122.69 294.31 122.47C294.305 121.958 294.345 121.446 294.43 120.94C294.43 120.87 294.43 120.81 294.43 120.74L294.52 120.38C294.548 120.25 294.588 120.123 294.64 120C294.69 119.87 294.75 119.75 294.81 119.63C294.853 119.518 294.913 119.413 294.99 119.32C295.042 119.223 295.11 119.135 295.19 119.06C296.073 119.166 296.897 119.556 297.54 120.17C298.065 120.708 298.731 121.087 299.461 121.264C300.192 121.441 300.957 121.408 301.67 121.17C301.988 121.042 302.277 120.852 302.52 120.61C302.79 120.583 303.052 120.502 303.29 120.37C303.399 120.305 303.503 120.231 303.6 120.15V120.15C303.69 120.07 303.771 119.979 303.84 119.88L303.9 119.8C303.947 119.733 303.99 119.662 304.03 119.59C304.14 119.384 304.227 119.166 304.29 118.94C304.29 118.88 304.29 118.81 304.29 118.74C304.387 118.148 304.387 117.543 304.29 116.95C304.429 116.889 304.56 116.812 304.68 116.72C305.026 116.603 305.36 116.456 305.68 116.28L305.9 116.15L306.02 116.08C306.116 116.025 306.206 115.961 306.29 115.89C306.874 115.496 307.305 114.914 307.51 114.24C307.51 114.12 307.56 114 307.58 113.87C307.585 113.787 307.585 113.703 307.58 113.62C307.585 113.53 307.585 113.44 307.58 113.35C307.459 112.626 307.109 111.96 306.58 111.45L306.37 111.24C306.302 111.165 306.228 111.095 306.15 111.03C306.068 110.955 305.981 110.885 305.89 110.82C305.808 110.751 305.721 110.688 305.63 110.63L305.34 110.43C305.241 110.358 305.137 110.291 305.03 110.23C305.288 109.611 305.43 108.95 305.45 108.28C305.461 108.147 305.461 108.013 305.45 107.88C305.417 107.585 305.332 107.297 305.2 107.03C305.149 106.943 305.092 106.86 305.03 106.78L304.94 106.67C304.888 106.603 304.828 106.542 304.76 106.49C304.674 106.412 304.58 106.341 304.48 106.28V106.28C304.287 106.176 304.082 106.096 303.87 106.04V106.04C303.737 105.883 303.586 105.742 303.42 105.62C302.787 105.227 302.056 105.018 301.31 105.018C300.564 105.018 299.834 105.227 299.2 105.62C298.476 106.081 297.805 106.621 297.2 107.23L296.63 107.7H296.58C296.751 107.464 296.945 107.246 297.16 107.05L297.4 106.86C297.74 106.6 298.09 106.33 298.4 106.05C299.07 105.612 299.693 105.106 300.26 104.54C300.711 104.09 301.016 103.514 301.134 102.887C301.251 102.261 301.177 101.614 300.92 101.03C300.87 100.946 300.813 100.865 300.75 100.79C300.708 100.727 300.658 100.669 300.6 100.62C300.561 100.569 300.514 100.525 300.46 100.49L300.3 100.37C300.162 100.262 300.006 100.177 299.84 100.12L299.61 100.04H299.56C299.086 99.5133 298.449 99.1611 297.75 99.0402V97.9402C297.75 96.1602 297.7 94.3902 297.56 92.6402C297.56 92.3402 297.56 92.0502 297.49 91.7502C297.49 91.6902 297.49 91.6302 297.49 91.5602C298.119 90.9183 298.477 90.059 298.49 89.1602C298.489 88.5398 298.325 87.9305 298.014 87.3935C297.704 86.8564 297.257 86.4104 296.72 86.1002V86.1002L296.63 85.6402L296.51 85.1102C296.814 84.6058 296.976 84.029 296.98 83.4402C296.978 82.8361 296.811 82.244 296.498 81.7277C296.184 81.2114 295.735 80.7905 295.2 80.5102V80.5102C295.14 80.3302 295.08 80.1602 295.01 79.9802L294.68 79.1102C294.747 78.8555 294.784 78.5937 294.79 78.3302C294.79 77.7542 294.627 77.1899 294.321 76.7019C294.015 76.2138 293.578 75.8217 293.06 75.5702V75.5702C292.94 75.3302 292.81 75.0902 292.68 74.8502C292.45 74.4402 292.22 74.0402 291.97 73.6402C291.972 73.1072 291.826 72.5841 291.547 72.13C291.267 71.6758 290.867 71.3088 290.39 71.0702V71.0702C290.16 70.7602 289.94 70.4702 289.7 70.1702C289.28 69.6402 288.85 69.1702 288.39 68.6302C288.353 68.5663 288.309 68.506 288.26 68.4502V68.4502L288.71 68.5702L290.32 69.0102C296.077 70.5689 301.571 72.9752 306.62 76.1502C317.5 83.2502 322.42 93.2602 320.98 106.24C320.91 106.4 320.82 106.58 320.75 106.73C320.52 107.21 320.23 107.73 320 108.33C319.507 108.788 319.128 109.354 318.893 109.985C318.659 110.615 318.576 111.292 318.65 111.96V111.96C318.55 111.847 318.45 111.747 318.35 111.66C318.265 111.584 318.175 111.514 318.08 111.45L317.93 111.35C317.865 111.303 317.794 111.263 317.72 111.23C317.682 111.206 317.642 111.186 317.6 111.17C317.504 111.125 317.403 111.088 317.3 111.06C316.977 110.725 316.591 110.457 316.163 110.274C315.736 110.09 315.276 109.994 314.81 109.99C313.16 110.04 312.2 111.4 311.7 112.82C310.887 112.723 310.063 112.847 309.315 113.18C308.566 113.512 307.922 114.041 307.45 114.71C307.022 115.491 306.898 116.403 307.1 117.27C307.272 118.062 307.591 118.815 308.04 119.49C307.567 120.077 307.226 120.759 307.04 121.49C306.842 122.259 306.957 123.076 307.36 123.76C307.775 124.353 308.343 124.823 309.003 125.119C309.663 125.414 310.392 125.526 311.11 125.44C311.58 125.54 312.76 125.85 312.84 126.3C312.89 126.57 312.54 127 312.38 127.18C311.795 127.775 311.12 128.274 310.38 128.66C308.273 129.774 305.964 130.455 303.59 130.66C301.579 130.864 299.549 130.529 297.71 129.69V129.71ZM268.16 126.37C266.706 125.994 265.302 125.443 263.98 124.73C262.405 123.685 261.239 122.127 260.68 120.32C260.3 118.06 260.6 116.67 261.24 115.89C262.081 115.934 262.891 116.222 263.57 116.72C264.156 117.183 264.861 117.472 265.603 117.555C266.345 117.638 267.096 117.512 267.77 117.19C267.967 117.082 268.146 116.944 268.3 116.78C269.66 116.61 270.65 115.36 269.98 112.78C273.76 111.13 273.86 107.99 270.28 106.26L270 106.04C270.6 103.62 269.76 102.39 268.53 102.12C268.32 101.87 268.066 101.66 267.78 101.5C267.161 101.2 266.475 101.067 265.789 101.115C265.103 101.162 264.442 101.388 263.87 101.77C264.11 101.541 264.328 101.29 264.52 101.02C264.917 100.52 265.152 99.9109 265.197 99.2739C265.242 98.6369 265.093 98.0012 264.77 97.4502C264.468 97.0498 264.031 96.7726 263.54 96.6702C263.274 96.3432 262.93 96.0887 262.54 95.9302C262.705 95.6213 262.801 95.28 262.82 94.9302C262.84 94.2631 262.823 93.5955 262.77 92.9302C262.72 91.6502 262.65 90.3602 262.58 89.0802C262.39 85.3502 262.17 81.6202 261.96 77.8902C261.68 73.1702 261.39 68.4502 261.12 63.7302C265.894 64.2667 270.488 65.8585 274.57 68.3902C284.86 74.9102 288.2 86.1002 288.06 97.7602C287.506 97.6197 286.926 97.6242 286.374 97.773C285.822 97.9219 285.318 98.2102 284.91 98.6102C284.4 99.2487 284.098 100.028 284.045 100.843C283.991 101.658 284.188 102.47 284.61 103.17C284.795 103.525 285.017 103.86 285.27 104.17V104.17C285.151 104.083 285.028 104.003 284.9 103.93L284.81 103.88L284.46 103.72C283.93 103.191 283.261 102.821 282.531 102.653C281.801 102.485 281.038 102.526 280.33 102.77C278.79 103.43 278.39 105.07 278.47 106.6C276.93 107.21 275.47 108.31 275.24 110.04C275.01 111.77 276.24 113.23 277.58 114.19C277.16 115.67 277.17 117.36 278.58 118.37C279.212 118.762 279.941 118.969 280.685 118.969C281.429 118.969 282.158 118.762 282.79 118.37C283.61 117.94 284.98 117.53 285.84 118.04C287.01 118.74 286.52 121.04 286.22 122.04C282.8 128.18 273.99 127.55 268.16 126.35V126.37ZM227.04 122.48C226.33 120.07 226.57 118.59 227.28 117.79C228.052 117.788 228.812 117.981 229.49 118.35C230.124 118.744 230.854 118.952 231.6 118.952C232.346 118.952 233.077 118.744 233.71 118.35C233.794 118.292 233.871 118.225 233.94 118.15C235.42 117.93 236.43 116.57 235.4 113.9C238.76 111.9 238.74 109.07 235.62 107.65C235.315 107.396 234.979 107.181 234.62 107.01C234.85 104.81 234.03 103.74 232.92 103.52C232.654 103.187 232.311 102.923 231.92 102.75C231.338 102.536 230.713 102.469 230.099 102.554C229.485 102.64 228.901 102.875 228.4 103.24C228.482 103.122 228.556 102.999 228.62 102.87C228.958 102.329 229.124 101.698 229.095 101.06C229.067 100.423 228.845 99.809 228.46 99.3002C228.18 99.0008 227.813 98.7978 227.41 98.7202L227.31 98.6002C226.911 98.2084 226.419 97.924 225.881 97.7736C225.342 97.6232 224.774 97.6117 224.23 97.7402C224.23 96.7402 224.23 95.7402 224.23 94.6802C224.71 83.6002 228.67 73.6802 238.56 67.8802C241.575 66.1438 244.851 64.9046 248.26 64.2102C249.21 64.0102 250.18 63.8502 251.15 63.7402C250.75 70.6202 250.32 77.5002 249.93 84.3802L249.85 85.8002C249.71 88.1602 249.583 90.5202 249.47 92.8802V93.0002C249.322 93.9731 249.39 94.9668 249.67 95.9102C249.208 96.1161 248.807 96.4404 248.51 96.8502C248.079 97.543 247.869 98.3512 247.911 99.1663C247.952 99.9814 248.241 100.764 248.74 101.41C249.266 102.095 249.866 102.718 250.53 103.27C250.83 103.58 251.14 103.89 251.45 104.19L251.65 104.39C251.804 104.569 251.938 104.763 252.05 104.97L251.59 104.49C251.089 103.862 250.526 103.286 249.91 102.77C249.642 102.578 249.35 102.424 249.04 102.31C248.908 102.188 248.767 102.074 248.62 101.97C248.034 101.508 247.33 101.218 246.587 101.135C245.845 101.052 245.094 101.179 244.42 101.5C242.96 102.34 242.76 104.02 243.01 105.5C239.26 107.5 239.26 111.12 243.01 113.13C242.76 114.65 242.96 116.33 244.42 117.13C245.093 117.453 245.844 117.581 246.586 117.5C247.328 117.419 248.033 117.131 248.62 116.67H248.68C249.116 116.542 249.528 116.342 249.9 116.08L249.98 116.03C250.503 115.841 251.077 115.841 251.6 116.03C252.87 116.59 252.6 118.97 252.43 120.03C251.43 123.57 247.27 125.5 244.02 126.36C239.72 127.24 233.81 127.81 229.65 125.59C228.56 124.752 227.669 123.683 227.04 122.46V122.48ZM228.04 133.22C228.498 133.218 228.946 133.352 229.327 133.605C229.709 133.858 230.006 134.219 230.182 134.642C230.358 135.064 230.405 135.529 230.316 135.978C230.227 136.427 230.007 136.84 229.683 137.164C229.36 137.487 228.947 137.707 228.498 137.796C228.049 137.885 227.584 137.839 227.161 137.662C226.739 137.486 226.378 137.189 226.125 136.807C225.872 136.426 225.738 135.978 225.74 135.52C225.737 135.216 225.795 134.914 225.91 134.632C226.025 134.35 226.195 134.093 226.41 133.877C226.625 133.662 226.881 133.491 227.162 133.374C227.444 133.258 227.746 133.199 228.05 133.2L228.04 133.22ZM256.13 131.71C256.888 131.708 257.63 131.931 258.262 132.352C258.893 132.772 259.386 133.37 259.677 134.07C259.968 134.77 260.044 135.541 259.897 136.285C259.75 137.029 259.385 137.712 258.848 138.248C258.312 138.785 257.629 139.15 256.885 139.297C256.141 139.445 255.37 139.368 254.67 139.077C253.97 138.786 253.371 138.293 252.951 137.662C252.531 137.03 252.308 136.289 252.31 135.53C252.307 135.026 252.405 134.526 252.596 134.06C252.787 133.593 253.069 133.17 253.425 132.813C253.781 132.456 254.205 132.173 254.671 131.98C255.136 131.787 255.636 131.689 256.14 131.69L256.13 131.71ZM273 135.54C273 136.085 272.839 136.617 272.536 137.069C272.233 137.522 271.803 137.874 271.3 138.082C270.797 138.29 270.244 138.344 269.71 138.237C269.176 138.13 268.686 137.867 268.302 137.481C267.918 137.096 267.657 136.605 267.552 136.071C267.447 135.536 267.503 134.983 267.712 134.481C267.922 133.979 268.276 133.55 268.73 133.249C269.183 132.948 269.716 132.788 270.26 132.79C270.986 132.79 271.682 133.077 272.198 133.589C272.713 134.1 273.005 134.794 273.01 135.52L273 135.54ZM254 41.5402L254.92 39.7902L252.92 40.4602L254.53 39.2102L252.62 39.0902L254.48 38.6002L252.62 37.6902L254.7 37.9702L253.49 36.4002L255.26 37.4002L254.75 35.5102L255.92 37.1302L256.26 35.2702L256.61 37.1302L257.78 35.5102L257.26 37.4002L259.04 36.4002L257.74 37.9302L259.82 37.6502L257.96 38.5602L259.69 39.0202C259.687 39.0535 259.687 39.087 259.69 39.1202L257.92 39.2302L259.53 40.4802L257.53 39.8002L258.45 41.5502L256.95 40.2002L257.03 42.1402L256.25 40.3302L255.46 42.1402L255.54 40.1402L254 41.5402Z" fill="white"/>
<path d="M203.061 161.861H34.1406V167.951H203.061V161.861Z" fill="white"/>
<path fill-rule="evenodd" clip-rule="evenodd" d="M132.82 124.67H145.27V123.4C146.005 94.2992 157.806 66.573 178.27 45.87C188.668 35.2979 201.067 26.9029 214.744 21.1751C228.421 15.4474 243.102 12.5017 257.93 12.51C258.64 12.51 259.34 12.51 260.05 12.51C288.924 13.3057 316.365 25.2676 336.6 45.88C357.045 66.5992 368.824 94.3312 369.54 123.43V124.7H370.54H382.99V123.36C382.267 90.9812 369.186 60.1052 346.43 37.06C323.789 14.0551 293.07 0.785175 260.8 0.0700293C259.53 0.0200293 258.26 2.20104e-05 256.99 2.20104e-05C240.516 -0.00979337 224.205 3.26331 209.01 9.62813C193.814 15.993 180.04 25.3219 168.49 37.07C145.716 60.1009 132.611 90.9691 131.86 123.35V124.68H132.86L132.82 124.67ZM134.12 123.27C134.17 121.51 134.26 119.76 134.38 118.02C134.43 117.25 134.49 116.47 134.57 115.71C134.57 115.55 134.57 115.38 134.57 115.21C134.57 115.16 134.57 115.1 134.57 115.05C134.57 115 134.57 114.77 134.62 114.62L134.74 113.5C134.74 113.43 134.74 113.37 134.74 113.3C134.74 113.23 134.74 113.03 134.74 112.9C134.74 112.76 134.74 112.61 134.74 112.47C134.74 112.33 134.74 112.24 134.74 112.13L134.83 111.32C134.9 110.76 134.97 110.2 135.05 109.63C135.041 109.56 135.041 109.49 135.05 109.42C135.17 108.51 135.3 107.61 135.44 106.71C135.44 106.62 135.44 106.53 135.49 106.43C135.54 106.33 135.56 105.94 135.61 105.7C135.601 105.637 135.601 105.573 135.61 105.51C135.61 105.21 135.7 104.9 135.77 104.6C135.761 104.54 135.761 104.48 135.77 104.42V104.42C135.796 104.231 135.833 104.044 135.88 103.86C135.904 103.668 135.937 103.478 135.98 103.29C135.98 103.14 136.03 103 136.06 102.86C136.12 102.52 136.19 102.18 136.26 101.86C136.26 101.72 136.31 101.57 136.34 101.43C136.37 101.29 136.34 101.2 136.41 101.08C136.48 100.96 136.41 100.93 136.46 100.85V100.73V100.58C136.471 100.475 136.491 100.371 136.52 100.27L136.67 99.57C136.77 99.05 136.89 98.57 137.01 98.03C137.13 97.49 137.26 96.94 137.4 96.4C137.4 96.21 137.49 96.02 137.54 95.84C137.75 95 137.97 94.17 138.2 93.34C138.43 92.51 138.73 91.41 139.02 90.45C139.58 88.6 140.17 86.77 140.81 84.96L141.4 83.29C141.79 82.22 142.2 81.16 142.62 80.11C142.617 80.0801 142.617 80.0499 142.62 80.02L143.22 78.53L143.28 78.39C143.308 78.3318 143.331 78.2716 143.35 78.21C143.56 77.73 143.76 77.21 143.96 76.78C144.16 76.35 144.43 75.71 144.67 75.18C145.02 74.4 145.37 73.63 145.74 72.86C145.96 72.4 146.18 71.94 146.41 71.48C146.47 71.36 146.53 71.25 146.58 71.13V71.04C146.7 70.8 146.82 70.57 146.93 70.34C147.04 70.11 147.02 70.16 147.06 70.07C147.1 69.98 147.15 69.89 147.2 69.81L147.5 69.22C147.55 69.12 147.59 69.03 147.64 68.94L147.99 68.27L148.49 68.07C148.63 67.81 148.76 67.54 148.91 67.27L149.12 66.89C149.29 66.57 149.46 66.25 149.64 65.89L150.54 64.27C150.88 63.67 151.23 63.09 151.54 62.5C151.79 62.06 152.04 61.62 152.32 61.18C152.38 61.07 152.45 60.97 152.52 60.86C152.76 60.44 153.02 60.03 153.28 59.62C153.54 59.21 153.63 59.06 153.81 58.79C153.99 58.52 154.16 58.24 154.35 57.97C154.54 57.7 154.68 57.45 154.85 57.19C155.22 56.63 155.61 56.08 155.98 55.52L156.58 54.66L157.03 54C157.026 53.9836 157.026 53.9664 157.03 53.95V53.95V53.9V53.84C157.32 53.43 157.61 53.01 157.91 52.6L158.54 51.75L158.64 51.62L158.95 51.19C159.38 50.61 159.81 50.05 160.26 49.49V49.43C160.63 48.94 161.02 48.43 161.41 47.98L161.76 47.55C162.09 47.12 162.44 46.7 162.76 46.28L163.28 45.66C163.94 44.88 164.61 44.11 165.28 43.34C165.88 42.66 166.49 41.99 167.11 41.34L167.38 41.05C167.63 40.77 167.89 40.5 168.16 40.23L168.32 40.07C168.84 39.5 169.39 38.94 169.94 38.38C181.368 26.7559 194.996 17.5247 210.03 11.2252C225.064 4.92562 241.202 1.68404 257.503 1.68963C273.803 1.69521 289.939 4.94785 304.969 11.2577C319.999 17.5675 333.621 26.8081 345.04 38.44C367.528 61.2046 380.47 91.6999 381.22 123.69C381.225 123.743 381.225 123.797 381.22 123.85H371.38C371.385 123.767 371.385 123.683 371.38 123.6C370.778 94.228 359.018 66.1864 338.49 45.17C321.029 27.4182 298.199 15.921 273.54 12.46L272.43 12.3C267.615 11.6815 262.765 11.3708 257.91 11.37C242.909 11.3581 228.055 14.3367 214.218 20.1316C200.38 25.9265 187.837 34.4215 177.32 45.12C166.442 56.1118 157.883 69.177 152.15 83.54V83.54C151.77 84.54 151.39 85.48 151.03 86.46C150.84 86.97 150.66 87.46 150.48 87.99C149.9 89.6567 149.354 91.3234 148.84 92.99C148.57 93.86 148.32 94.74 148.08 95.63C147.84 96.52 147.67 97.13 147.49 97.89C147.43 98.0737 147.38 98.2607 147.34 98.45C145.317 106.59 144.18 114.925 143.95 123.31C143.945 123.363 143.945 123.417 143.95 123.47H134.12C134.117 123.403 134.117 123.337 134.12 123.27V123.27Z" fill="white"/>
<path fill-rule="evenodd" clip-rule="evenodd" d="M53.8408 143.56C54.6615 143.799 55.5187 143.887 56.3708 143.82C58.7308 144.24 61.9808 143.31 64.0608 142.7C67.8208 141.61 71.4908 140.35 75.3108 139.47C77.8811 138.84 80.5147 138.505 83.1608 138.47C84.3732 138.577 85.5683 138.829 86.7208 139.22C88.8772 139.96 90.7804 141.295 92.2108 143.07L92.6108 143.55H94.3008L94.3908 143.65H95.0108L129.411 143.44H130.711V139.16H128.931V139.07H127.621L96.9508 139.27C97.2045 138.696 97.2911 138.061 97.2008 137.44C96.8408 135.24 94.3208 134 92.4308 133.36C90.0484 132.611 87.568 132.22 85.0708 132.2C84.1708 132.12 83.2608 132.08 82.3908 132.08C81.007 132.087 79.626 132.204 78.2608 132.43C74.3149 133.065 70.4646 134.193 66.8008 135.79C65.5208 136.35 64.2608 136.97 63.0008 137.57C62.0008 138.04 61.0008 138.49 60.0008 138.87C59.7761 138.061 59.2929 137.347 58.6249 136.838C57.9569 136.329 57.1407 136.052 56.3008 136.05C56.0593 136.053 55.8184 136.076 55.5808 136.12C55.2359 136.021 54.8796 135.967 54.5208 135.96C53.5658 135.96 52.6451 136.316 51.9383 136.958C51.2315 137.6 50.7894 138.483 50.6982 139.433C50.607 140.384 50.8733 141.334 51.4451 142.099C52.0169 142.864 52.8532 143.389 53.7908 143.57L53.8408 143.56Z" fill="white"/>
<path fill-rule="evenodd" clip-rule="evenodd" d="M174.831 42.4617C185.679 31.4237 198.62 22.6592 212.895 16.6805C227.17 10.7018 242.494 7.62902 257.971 7.64166C259.801 7.64166 261.631 7.64166 263.441 7.78166C292.136 9.57218 319.155 21.91 339.301 42.4217C360.147 63.54 372.37 91.6724 373.581 121.322H375.351C375.356 121.355 375.356 121.389 375.351 121.422H378.031C376.834 91.03 364.323 62.1827 342.951 40.5417C321.897 19.1324 293.535 6.46392 263.541 5.07165C261.691 4.98165 259.841 4.93165 257.971 4.93165C242.149 4.92527 226.484 8.06992 211.89 14.1821C197.296 20.2944 184.066 29.2517 172.971 40.5317C151.62 62.143 139.095 90.9384 137.841 121.292V121.382H140.491C141.707 91.7159 153.953 63.5725 174.831 42.4617V42.4617Z" fill="white"/>
<path fill-rule="evenodd" clip-rule="evenodd" d="M140.84 141.9L143.5 140.6L140.51 141L142.35 138.83L139.82 140.31L140.54 137.66L138.89 139.93L138.64 138.6L138.39 137.25L137.89 139.93L136.24 137.66L136.96 140.3L134.43 138.82L136.26 140.99L133.29 140.6L135.94 141.9L133.04 142.66L136.05 142.85L133.76 144.62L136.57 143.66L135.27 146.13L137.4 144.2L137.29 146.93L138.39 144.39L139.48 146.93L139.37 144.2L141.5 146.13L140.2 143.66L143.02 144.63L140.73 142.85L143.73 142.66L140.84 141.9Z" fill="white"/>
<path d="M478.15 161.961H309.23V168.051H478.15V161.961Z" fill="white"/>
<path fill-rule="evenodd" clip-rule="evenodd" d="M212.211 165.58L209.921 167.36L212.731 166.36L211.491 168.86L213.611 166.94L213.501 169.65L214.591 167.15L215.671 169.66L215.561 166.94L217.691 168.86L216.391 166.4L219.201 167.35L216.921 165.58L219.551 165.42L222.171 165.58L219.891 167.36L222.701 166.36L221.401 168.82L223.531 166.9L223.421 169.63L224.511 167.09L225.611 169.61L225.501 166.9L227.631 168.83L226.331 166.36L229.141 167.36L226.851 165.59L229.851 165.4L226.961 164.64L229.611 163.33L226.611 163.73L228.441 161.56L226.001 162.99L225.941 162.94L226.641 160.39L225.111 162.5L224.951 162.45L224.741 161.34L224.491 159.98L224.021 162.45L223.861 162.5L222.331 160.38L223.031 162.94L222.971 162.99L220.541 161.57L222.361 163.73L219.591 163.36H219.651H219.511H219.381H219.431L216.671 163.73L218.491 161.57L215.981 163.07L216.701 160.42L215.061 162.69L214.811 161.38L214.561 160.02L214.061 162.69L212.421 160.42L213.141 163.06L210.621 161.59L212.451 163.76L209.451 163.36L212.111 164.66L209.211 165.42L212.211 165.58ZM222.031 164.63L219.521 165.29L217.001 164.63L219.511 163.4L222.031 164.63Z" fill="white"/>
<path fill-rule="evenodd" clip-rule="evenodd" d="M237.981 164.49L240.631 163.19L237.651 163.58L239.491 161.41L236.951 162.89L237.671 160.25L236.031 162.51H236.021L235.781 161.19L235.531 159.84L235.021 162.51H235.011L233.371 160.24L234.101 162.89L231.561 161.41L233.401 163.58L230.431 163.19L233.071 164.49L230.181 165.25L233.181 165.44L230.891 167.22L233.711 166.25L232.411 168.71L234.541 166.79L234.431 169.52L235.511 167H235.521H235.531L236.621 169.5L236.511 166.79L238.641 168.72L237.341 166.25L240.161 167.22L237.861 165.44L240.871 165.25L237.981 164.49Z" fill="white"/>
<path fill-rule="evenodd" clip-rule="evenodd" d="M249.16 164.591L251.82 163.291L248.84 163.691L250.67 161.521L248.14 163.001L248.86 160.351L247.22 162.621H247.21L246.97 161.301L246.71 159.951L246.21 162.621H246.2L244.56 160.351L245.28 162.991L242.76 161.521L244.59 163.691L241.61 163.291L244.26 164.591L241.37 165.361L244.37 165.541L242.08 167.321L244.9 166.361L243.6 168.811L245.73 166.901L245.61 169.611L246.7 167.111H246.71H246.72L247.81 169.621L247.7 166.901L249.82 168.821L248.53 166.361L251.35 167.321L249.05 165.541L252.05 165.361L249.16 164.591Z" fill="white"/>
<path fill-rule="evenodd" clip-rule="evenodd" d="M260.351 164.4L263.001 163.09L260.031 163.49L261.861 161.32L259.331 162.8L260.051 160.15L258.411 162.42H258.401L258.161 161.1L257.901 159.74L257.401 162.42L255.751 160.15L256.471 162.8L253.941 161.32L255.781 163.49L252.801 163.09L255.451 164.4L252.551 165.16L255.561 165.35L253.271 167.12L256.091 166.16L254.791 168.63L256.921 166.7L256.801 169.42L257.891 166.91H257.901H257.911L258.991 169.43L258.891 166.7L261.011 168.63L259.711 166.16L262.531 167.12L260.241 165.35L263.241 165.16L260.351 164.4Z" fill="white"/>
<path fill-rule="evenodd" clip-rule="evenodd" d="M271.59 164.502L274.25 163.202L271.26 163.602L273.09 161.432L270.57 162.902L271.29 160.252L269.65 162.532L269.64 162.522L269.39 161.212L269.14 159.852L268.64 162.522L268.63 162.532L266.99 160.252L267.71 162.902L265.19 161.432L267.02 163.602L264.03 163.202L266.69 164.502L263.79 165.262L266.8 165.452L264.51 167.222L267.32 166.272L266.02 168.732L268.15 166.802L268.04 169.522L269.13 167.012H269.14H269.15L270.23 169.522L270.12 166.812L272.25 168.732L270.95 166.262L273.77 167.222L271.48 165.452L274.48 165.262L271.59 164.502Z" fill="white"/>
<path fill-rule="evenodd" clip-rule="evenodd" d="M282.83 164.501L285.48 163.211L282.5 163.601L284.33 161.431L281.81 162.911L282.53 160.261L280.89 162.531H280.88L280.63 161.211L280.38 159.861L279.88 162.531H279.87L278.23 160.251L278.95 162.911L276.42 161.431L278.25 163.601L275.27 163.201L277.93 164.501L275.04 165.261L278.04 165.451L275.74 167.231L278.56 166.271L277.27 168.721L279.39 166.811L279.28 169.531L280.37 167.021H280.38H280.39L281.47 169.531L281.36 166.811L283.49 168.731L282.19 166.271L285.01 167.231L282.72 165.451L285.72 165.261L282.83 164.501Z" fill="white"/>
<path fill-rule="evenodd" clip-rule="evenodd" d="M294.061 165.561L297.061 165.371L296.871 165.321L299.111 165.461L296.821 167.231L299.631 166.231L298.341 168.691L300.461 166.771L300.351 169.481L301.491 167.071L302.571 169.581L302.461 166.861L304.591 168.781L303.291 166.321L306.111 167.321L303.821 165.541L306.821 165.361L303.931 164.591L306.591 163.291L303.591 163.691L305.421 161.521L302.901 163.001L303.621 160.351L301.981 162.621L301.731 161.301L301.481 159.941L300.981 162.611L299.341 160.331L300.061 162.981L297.491 161.441L299.321 163.601L296.321 163.211L296.571 163.341L293.811 163.701L295.641 161.541L293.111 163.011L293.841 160.361L292.191 162.631L291.941 161.311L291.691 159.961L291.191 162.631L289.551 160.371L290.271 163.011L287.751 161.541L289.571 163.701L286.571 163.301L289.221 164.611L286.341 165.371L289.341 165.561L287.041 167.341L289.861 166.341L288.571 168.801L290.691 166.881L290.581 169.601L291.671 167.091L292.751 169.611L292.641 166.881L294.771 168.801L293.471 166.351L296.291 167.351L294.061 165.561ZM299.001 164.511L296.401 165.191L294.171 164.611L296.681 163.371L299.001 164.511Z" fill="white"/>
<path fill-rule="evenodd" clip-rule="evenodd" d="M372.511 142.94L370.221 144.71L373.041 143.75L371.731 146.21L373.871 144.29L373.761 147.01L374.851 144.48L375.941 147.02L375.841 144.29L377.961 146.21L376.671 143.75L379.491 144.72L377.191 142.94L380.201 142.75L377.301 141.98L379.961 140.68L376.981 141.08L378.811 138.91L376.281 140.39L377.001 137.75L375.361 140.01L375.111 138.69L374.861 137.33L374.351 140.02L372.711 137.74L373.431 140.38L370.901 138.91L372.731 141.08L369.751 140.68L372.411 141.98L369.511 142.75L372.511 142.94Z" fill="white"/>
<path fill-rule="evenodd" clip-rule="evenodd" d="M419.56 147.97H420.18L420.27 147.87H421.34H421.96L422.37 147.41C423.854 145.674 425.794 144.389 427.97 143.7C429.135 143.347 430.336 143.129 431.55 143.05C434.191 143.147 436.811 143.546 439.36 144.24C443.16 145.24 446.8 146.58 450.52 147.77C452.59 148.43 455.81 149.45 458.18 149.09C459.032 149.183 459.893 149.118 460.72 148.9C461.666 148.748 462.521 148.247 463.116 147.496C463.712 146.745 464.005 145.799 463.939 144.843C463.873 143.887 463.451 142.991 462.758 142.33C462.064 141.669 461.148 141.291 460.19 141.27C459.832 141.266 459.475 141.313 459.13 141.41C458.894 141.356 458.653 141.326 458.41 141.32C457.572 141.295 456.748 141.547 456.066 142.037C455.385 142.527 454.884 143.227 454.64 144.03C453.64 143.63 452.64 143.15 451.72 142.66C450.47 142.02 449.24 141.37 447.97 140.77C444.347 139.084 440.527 137.854 436.6 137.11C435.241 136.85 433.864 136.7 432.48 136.66C431.61 136.66 430.71 136.66 429.8 136.66C427.301 136.628 424.811 136.965 422.41 137.66C420.5 138.25 417.95 139.41 417.54 141.61C417.429 142.227 417.498 142.862 417.74 143.44L387.09 142.44H385.77V142.54H385.3L383.99 142.49V143.81C383.99 144.37 383.99 144.93 383.94 145.48V146.78H385.23L419.56 147.97Z" fill="white"/>
</svg>
