<svg width="205" height="58" viewBox="0 0 205 58" fill="none" xmlns="http://www.w3.org/2000/svg">
<path d="M56.881 19.0556C56.7236 18.7096 56.5055 18.3946 56.2369 18.1257L51.7436 13.6324C51.1483 13.037 50.3408 12.7025 49.4989 12.7024H46.0689C45.6484 12.7024 45.2451 12.5354 44.9478 12.2381C44.6505 11.9408 44.4834 11.5375 44.4834 11.117V7.68702C44.4834 6.84506 44.1489 6.03761 43.5535 5.44227L39.0412 0.929912C38.4453 0.335246 37.6382 0.000875295 36.7964 0H22.2303C21.3884 0 20.5809 0.334472 19.9855 0.929836C19.3901 1.5252 19.0557 2.33269 19.0557 3.17466V38.1112H53.9922C54.8341 38.1112 55.6416 37.7767 56.237 37.1813C56.8323 36.586 57.1668 35.7785 57.1668 34.9365V20.3704C57.1669 19.9167 57.0695 19.4683 56.881 19.0556V19.0556ZM50.8137 30.1726C50.8137 30.5931 50.6467 30.9963 50.3493 31.2937C50.052 31.591 49.6487 31.758 49.2283 31.758H25.4088V7.93855C25.4088 7.51807 25.5758 7.11481 25.8732 6.81749C26.1705 6.52016 26.5737 6.35313 26.9942 6.35313H36.522C36.7305 6.35263 36.9371 6.39327 37.1299 6.47272C37.3227 6.55217 37.4979 6.66887 37.6455 6.81614C37.7932 6.96341 37.9103 7.13836 37.9902 7.33096C38.0701 7.52356 38.1112 7.73003 38.1112 7.93855V15.8809C38.1112 16.2978 38.1934 16.7106 38.3529 17.0958C38.5124 17.481 38.7463 17.8309 39.0411 18.1257C39.3359 18.4205 39.6858 18.6544 40.071 18.8139C40.4562 18.9735 40.869 19.0556 41.2859 19.0556H49.2283C49.6491 19.0566 50.0523 19.2245 50.3496 19.5224C50.6468 19.8203 50.8137 20.224 50.8137 20.6448V30.1726Z" fill="url(#paint0_linear)"/>
<path d="M57.1668 20.3704V22.2302C57.1668 21.3883 56.8323 20.5808 56.2369 19.9854C55.6416 19.3901 54.8341 19.0556 53.9921 19.0556H41.2858C40.8689 19.0556 40.4561 18.9735 40.071 18.8139C39.6858 18.6544 39.3358 18.4205 39.041 18.1257C38.7462 17.8309 38.5124 17.481 38.3528 17.0958C38.1933 16.7106 38.1112 16.2978 38.1112 15.8809V3.17466C38.1112 2.33269 37.7767 1.5252 37.1813 0.929836C36.586 0.334472 35.7785 0 34.9365 0H36.7963C37.6381 0.000875295 38.4453 0.335246 39.0411 0.929912L43.5344 5.42322C44.1298 6.01855 44.4643 6.82601 44.4643 7.66797V11.098C44.4643 11.5185 44.6314 11.9217 44.9287 12.219C45.226 12.5164 45.6293 12.6834 46.0497 12.6834H49.4797C50.3217 12.6834 51.1292 13.0179 51.7245 13.6133L56.2178 18.1066C56.8125 18.7024 57.1468 19.5096 57.1477 20.3514L57.1668 20.3704Z" fill="url(#paint1_linear)"/>
<path d="M3.17466 38.1113C2.75776 38.1113 2.34494 38.1934 1.95977 38.353C1.5746 38.5125 1.22463 38.7464 0.929836 39.0412C0.635042 39.336 0.401198 39.6859 0.241656 40.0711C0.0821147 40.4563 0 40.8691 0 41.286V57.1669H15.8809C16.7229 57.1669 17.5304 56.8324 18.1257 56.2371C18.7211 55.6417 19.0556 54.8342 19.0556 53.9922V38.1113H3.17466ZM14.2917 50.8138C14.2917 51.2353 14.1242 51.6395 13.8262 51.9375C13.5282 52.2356 13.1239 52.403 12.7024 52.403H4.76389V44.4645C4.76389 44.043 4.93133 43.6387 5.22937 43.3407C5.52741 43.0427 5.93164 42.8752 6.35313 42.8752H14.2917V50.8138Z" fill="url(#paint2_linear)"/>
<path d="M85.3003 50.3684C85.8509 50.6101 86.3148 51.0139 86.63 51.5259C86.9453 52.0379 87.097 52.6339 87.0649 53.2344C87.081 53.7181 86.9914 54.1995 86.8025 54.6451C86.6136 55.0906 86.3299 55.4897 85.9711 55.8145C85.2444 56.4776 84.2091 56.8105 82.865 56.813H76.2451V44.2363H82.3429C83.6654 44.2363 84.6944 44.5603 85.4261 45.2158C85.7852 45.5372 86.0696 45.9334 86.2592 46.3765C86.4489 46.8197 86.5391 47.2989 86.5237 47.7807C86.5452 48.2789 86.445 48.7749 86.2318 49.2257C86.0187 49.6766 85.699 50.0688 85.3003 50.3684ZM82.0495 46.8965H79.2711V49.1641H82.0418C82.9641 49.1641 83.424 48.783 83.4215 48.0208C83.4189 47.2585 82.9616 46.8838 82.0495 46.8965ZM82.4839 54.069C83.4214 54.069 83.894 53.665 83.8902 52.8609C83.8968 52.7021 83.8657 52.5441 83.7994 52.3997C83.7332 52.2553 83.6337 52.1286 83.5091 52.0301C83.2099 51.8135 82.845 51.7072 82.4763 51.729H79.2711V54.069H82.4839Z" fill="white"/>
<path d="M92.8615 51.8582C93.2985 53.436 94.4825 54.2236 96.4134 54.2211C97.6559 54.2211 98.5947 53.8019 99.2299 52.9634L101.848 54.4688C100.611 56.2676 98.7827 57.1671 96.3639 57.1671C94.283 57.1671 92.6138 56.5395 91.3561 55.2844C90.3987 54.3571 89.7425 53.1631 89.4731 51.8578C89.2036 50.5525 89.3332 49.1963 89.8451 47.9657C90.357 46.735 91.2275 45.687 92.3432 44.9579C93.459 44.2288 94.7683 43.8524 96.1009 43.8777C96.9549 43.852 97.8045 44.0087 98.5931 44.3373C99.3817 44.6659 100.091 45.1588 100.674 45.7833C101.876 47.0599 102.524 48.7601 102.477 50.5129C102.478 50.9603 102.437 51.4068 102.355 51.8468L92.8615 51.8582ZM92.8081 49.3429H99.226C99.0982 48.5864 98.69 47.906 98.0827 47.4373C97.51 47.0197 96.8173 46.7991 96.1086 46.8085C95.3318 46.7803 94.5686 47.0168 93.9438 47.4792C93.3597 47.9491 92.9579 48.6083 92.8081 49.3429V49.3429Z" fill="white"/>
<path d="M111.524 57.1663C110.638 57.1875 109.757 57.0313 108.932 56.7069C108.108 56.3825 107.356 55.8965 106.722 55.2774C106.088 54.6582 105.584 53.9186 105.24 53.1018C104.896 52.2851 104.719 51.4078 104.719 50.5216C104.719 49.6353 104.896 48.7581 105.24 47.9413C105.584 47.1246 106.088 46.3849 106.722 45.7658C107.356 45.1467 108.108 44.6606 108.932 44.3363C109.757 44.0119 110.638 43.8557 111.524 43.8769C112.7 43.8643 113.857 44.1684 114.874 44.7573C115.847 45.3104 116.64 46.1304 117.161 47.1202L114.368 48.7589C114.12 48.2423 113.721 47.813 113.224 47.528C112.701 47.2214 112.104 47.0646 111.498 47.0744C111.05 47.0609 110.605 47.1403 110.19 47.3076C109.775 47.4749 109.399 47.7264 109.085 48.0463C108.766 48.3734 108.517 48.762 108.352 49.1885C108.188 49.615 108.112 50.0705 108.129 50.5273C108.114 50.9796 108.192 51.43 108.357 51.8513C108.522 52.2726 108.771 52.6559 109.089 52.9778C109.403 53.2973 109.78 53.5483 110.196 53.7149C110.612 53.8815 111.058 53.9601 111.505 53.9459C112.117 53.956 112.721 53.8034 113.255 53.5038C113.753 53.2237 114.152 52.7964 114.398 52.2804L117.218 53.8887C116.666 54.8781 115.858 55.7008 114.878 56.2707C113.863 56.87 112.703 57.1797 111.524 57.1663V57.1663Z" fill="white"/>
<path d="M129.479 44.2285V47.3498H125.553V56.8128H122.337V47.3536H118.335V44.2361L129.479 44.2285Z" fill="white"/>
<path d="M140.139 44.2285H143.386V56.8052H140.139V52.0299H135.139V56.809H131.892V44.2323H135.139V48.9886H140.146L140.139 44.2285Z" fill="white"/>
<path d="M154.88 44.2285H157.296V56.8052H154.125V49.6632L148.218 56.8166H145.802V44.2399H148.973V51.3858L154.88 44.2285Z" fill="white"/>
<path d="M171.321 56.809H167.548L162.975 51.0923V56.809H159.728V44.2323H162.975V49.7699L167.3 44.2285H171.176L166.123 50.4483L171.321 56.809Z" fill="white"/>
<path d="M101.601 22.0248H104.848V34.6015H101.601V33.119C100.625 34.3436 99.2583 34.9572 97.5001 34.9598C96.6862 34.9678 95.88 34.802 95.1353 34.4734C94.3906 34.1448 93.7247 33.6609 93.1821 33.0542C92.0221 31.7556 91.3809 30.0754 91.3809 28.3341C91.3809 26.5929 92.0221 24.9126 93.1821 23.6141C93.7222 23.0037 94.3866 22.5158 95.1306 22.1832C95.8747 21.8506 96.6813 21.681 97.4963 21.6856C99.2596 21.6856 100.628 22.2967 101.601 23.5188V22.0248ZM95.6174 30.8704C95.9424 31.1982 96.3314 31.4554 96.7603 31.6259C97.1892 31.7964 97.6486 31.8765 98.1099 31.8613C98.5728 31.8761 99.0339 31.7957 99.4645 31.6253C99.8952 31.4549 100.286 31.198 100.614 30.8704C101.253 30.1727 101.607 29.261 101.607 28.3151C101.607 27.3691 101.253 26.4575 100.614 25.7597C100.286 25.4331 99.8944 25.1768 99.4639 25.0064C99.0334 24.836 98.5727 24.7552 98.1099 24.7688C97.6481 24.7551 97.1885 24.8366 96.7597 25.0084C96.3308 25.1802 95.942 25.4386 95.6174 25.7673C94.9854 26.4676 94.6355 27.3775 94.6355 28.3208C94.6355 29.2641 94.9854 30.1739 95.6174 30.8742V30.8704Z" fill="white"/>
<path d="M119.288 22.0211V34.5978H116.041V25.1348H112.569V29.327C112.569 33.222 110.8 34.9776 107.264 34.594V31.5451C107.934 31.7128 108.443 31.5984 108.788 31.2021C109.139 30.821 109.314 30.1235 109.314 29.1517V22.0059L119.288 22.0211Z" fill="white"/>
<path d="M133.073 33.0309C132.141 33.9539 130.958 34.5807 129.671 34.8322C128.384 35.0836 127.051 34.9486 125.841 34.4441C124.631 33.9396 123.597 33.0881 122.869 31.997C122.142 30.9059 121.754 29.624 121.754 28.3127C121.754 27.0014 122.142 25.7195 122.869 24.6284C123.597 23.5373 124.631 22.6858 125.841 22.1813C127.051 21.6768 128.384 21.5418 129.671 21.7932C130.958 22.0447 132.141 22.6715 133.073 23.5945C134.313 24.8518 135.008 26.5468 135.008 28.3127C135.008 30.0786 134.313 31.7736 133.073 33.0309ZM125.912 30.8128C126.227 31.1341 126.606 31.3869 127.023 31.5554C127.441 31.7239 127.889 31.8046 128.339 31.7922C128.797 31.8029 129.251 31.72 129.675 31.5485C130.099 31.3771 130.484 31.1207 130.805 30.7951C131.126 30.4696 131.377 30.0817 131.543 29.6555C131.709 29.2292 131.786 28.7736 131.769 28.3165C131.784 27.8559 131.705 27.3971 131.536 26.9684C131.367 26.5398 131.112 26.1503 130.786 25.824C130.468 25.5024 130.088 25.2495 129.668 25.081C129.249 24.9125 128.799 24.8321 128.347 24.8446C127.896 24.8316 127.448 24.9123 127.03 25.0816C126.612 25.2508 126.234 25.5049 125.919 25.8278C125.296 26.5082 124.95 27.3975 124.95 28.3203C124.95 29.2431 125.296 30.1324 125.919 30.8128H125.912Z" fill="white"/>
<path d="M145.966 22.0137V25.1312H140.607V34.5942H137.36V22.0175L145.966 22.0137Z" fill="white"/>
<path d="M158.459 33.0585C157.367 34.1636 155.925 34.8554 154.38 35.0159C152.835 35.1765 151.282 34.7958 149.987 33.9388C148.691 33.0818 147.733 31.8017 147.276 30.317C146.819 28.8323 146.892 27.2351 147.482 25.798C148.071 24.3608 149.142 23.173 150.51 22.4371C151.878 21.7012 153.459 21.463 154.983 21.7631C156.507 22.0632 157.88 22.883 158.867 24.0825C159.854 25.282 160.394 26.787 160.395 28.3404C160.413 29.2175 160.25 30.089 159.917 30.9007C159.584 31.7123 159.087 32.4468 158.459 33.0585V33.0585ZM151.301 30.8405C151.618 31.1619 151.997 31.4147 152.415 31.5832C152.833 31.7517 153.282 31.8323 153.733 31.8199C154.185 31.8299 154.635 31.7475 155.054 31.5777C155.473 31.408 155.854 31.1546 156.172 30.8328C156.803 30.1568 157.153 29.2668 157.153 28.3423C157.153 27.4178 156.803 26.5277 156.172 25.8517C155.853 25.5303 155.472 25.2777 155.052 25.1092C154.632 24.9408 154.181 24.8601 153.729 24.8723C153.278 24.8598 152.83 24.9407 152.412 25.1099C151.994 25.2791 151.616 25.533 151.301 25.8555C150.678 26.5359 150.332 27.4252 150.332 28.348C150.332 29.2708 150.678 30.1601 151.301 30.8405V30.8405Z" fill="white"/>
<path d="M171.881 28.1536C172.432 28.3964 172.896 28.8009 173.211 29.3135C173.526 29.8261 173.678 30.4224 173.646 31.0233C173.662 31.507 173.572 31.9884 173.384 32.434C173.195 32.8796 172.911 33.2787 172.552 33.6035C171.825 34.2666 170.79 34.5982 169.446 34.5982H162.826V22.0215H168.943C170.267 22.0215 171.294 22.348 172.026 23.0009C172.385 23.3224 172.67 23.7186 172.859 24.1617C173.049 24.6048 173.139 25.0841 173.124 25.5658C173.143 26.0657 173.04 26.5628 172.823 27.0138C172.607 27.4647 172.284 27.856 171.881 28.1536ZM168.631 24.6855H165.864V26.9721H168.631C169.555 26.9721 170.016 26.591 170.014 25.8288C170.011 25.0666 169.55 24.6855 168.631 24.6855V24.6855ZM169.065 31.858C170.003 31.858 170.475 31.454 170.471 30.646C170.478 30.4878 170.447 30.3304 170.38 30.1866C170.314 30.0428 170.215 29.9168 170.09 29.819C169.792 29.6011 169.426 29.4945 169.057 29.5179H165.864V31.858H169.065Z" fill="white"/>
<path d="M181.725 26.0595C182.975 26.0013 184.2 26.4179 185.155 27.2257C185.57 27.6304 185.899 28.1138 186.124 28.6475C186.348 29.1813 186.464 29.7545 186.464 30.3337C186.464 30.9128 186.348 31.4861 186.124 32.0198C185.899 32.5535 185.57 33.037 185.155 33.4416C184.2 34.2492 182.975 34.6682 181.725 34.6155H176.043V22.0388H179.29V26.0633L181.725 26.0595ZM181.756 31.7457C182.163 31.7651 182.562 31.6288 182.872 31.3646C183.018 31.237 183.134 31.0784 183.21 30.9003C183.287 30.7222 183.323 30.5292 183.315 30.3356C183.32 30.1417 183.283 29.949 183.207 29.7707C183.131 29.5924 183.016 29.4327 182.872 29.3028C182.561 29.0372 182.16 28.9009 181.752 28.9217H179.286V31.7686L181.756 31.7457ZM187.854 22.0273H191.101V34.604H187.888L187.854 22.0273Z" fill="white"/>
<path d="M202.584 22.0399H205V34.6166H201.829V27.467L195.922 34.6204H193.506V22.0437H196.654V29.1934L202.584 22.0399ZM195.613 20.4355V17.6152H202.912V20.4316L195.613 20.4355Z" fill="white"/>
<path d="M81.2381 2.16406V3.16639H77.2593V10.0035H76.2227V2.16406H81.2381Z" fill="white"/>
<path d="M86.9923 1.9732C87.5257 1.96524 88.055 2.06702 88.5473 2.27223C89.0397 2.47744 89.4846 2.78169 89.8545 3.16608C90.6112 3.94797 91.0343 4.99346 91.0343 6.08158C91.0343 7.16971 90.6112 8.2152 89.8545 8.99709C89.4852 9.38222 89.0404 9.68696 88.5479 9.89222C88.0554 10.0975 87.5258 10.1988 86.9923 10.19C86.3607 10.2126 85.7347 10.0642 85.1806 9.76025C84.6264 9.45634 84.1647 9.0083 83.8443 8.46353V13.136H82.8115V2.16376H83.8443V3.6882C84.1662 3.14556 84.6285 2.69981 85.1826 2.39797C85.7366 2.09614 86.3618 1.94939 86.9923 1.9732V1.9732ZM84.7056 8.28441C85.2895 8.86345 86.0785 9.18834 86.9008 9.18834C87.7232 9.18834 88.5122 8.86345 89.096 8.28441C89.6679 7.6937 89.9876 6.90375 89.9876 6.08158C89.9876 5.25942 89.6679 4.46947 89.096 3.87876C88.5107 3.30247 87.7223 2.97947 86.9008 2.97947C86.0794 2.97947 85.291 3.30247 84.7056 3.87876C84.1311 4.46808 83.8096 5.25855 83.8096 6.08158C83.8096 6.90462 84.1311 7.69509 84.7056 8.28441V8.28441Z" fill="white"/>
<path d="M98.3913 2.16406H99.4889L96.1313 10.7238C95.8723 11.4373 95.4261 12.0679 94.8393 12.5494C94.3154 12.9832 93.642 13.1939 92.9642 13.1363V12.1644C93.9043 12.2711 94.6208 11.7274 95.1137 10.5333L95.3195 10.0493L91.8057 2.16406H92.9033L95.8493 8.73062L98.3913 2.16406Z" fill="white"/>
<path d="M107.626 2.16406V10.0035H106.589V3.16639H102.077V10.0035H101.04V2.16406H107.626Z" fill="white"/>
<path d="M116.704 2.16406V10.0035H115.667V3.16639H111.151V10.0035H110.118V2.16406H116.704Z" fill="white"/>
<path d="M125.938 2.16443H126.971V10.0039H125.938V8.47945C125.616 9.02658 125.151 9.47605 124.593 9.78005C124.036 10.0841 123.406 10.2312 122.771 10.2059C122.238 10.2148 121.708 10.1134 121.216 9.90814C120.723 9.70288 120.279 9.39814 119.909 9.01301C119.153 8.23112 118.729 7.18563 118.729 6.09751C118.729 5.00938 119.153 3.96389 119.909 3.182C120.279 2.79761 120.724 2.49336 121.216 2.28815C121.709 2.08294 122.238 1.98116 122.771 1.98912C123.406 1.9638 124.036 2.11096 124.593 2.41496C125.151 2.71896 125.616 3.16843 125.938 3.71556V2.16443ZM120.652 8.28509C121.236 8.86412 122.025 9.18902 122.848 9.18902C123.67 9.18902 124.459 8.86412 125.043 8.28509C125.617 7.69577 125.939 6.9053 125.939 6.08226C125.939 5.25922 125.617 4.46876 125.043 3.87944C124.458 3.30315 123.669 2.98014 122.848 2.98014C122.026 2.98014 121.238 3.30315 120.652 3.87944C120.081 4.47015 119.761 5.26009 119.761 6.08226C119.761 6.90443 120.081 7.69437 120.652 8.28509V8.28509Z" fill="white"/>
<path d="M140.017 10.0035H138.637L134.715 6.2229V10.0035H133.683V2.16406H134.715V5.62837L138.447 2.16406H139.868L135.821 5.92563L140.017 10.0035Z" fill="white"/>
<path d="M147.517 9.00612C146.734 9.7674 145.686 10.1933 144.594 10.1933C143.502 10.1933 142.453 9.7674 141.671 9.00612C140.901 8.22778 140.47 7.17745 140.47 6.083C140.47 4.98854 140.901 3.93821 141.671 3.15987C142.453 2.39859 143.502 1.97266 144.594 1.97266C145.686 1.97266 146.734 2.39859 147.517 3.15987C148.286 3.93821 148.718 4.98854 148.718 6.083C148.718 7.17745 148.286 8.22778 147.517 9.00612V9.00612ZM142.399 8.28582C142.982 8.86486 143.771 9.18975 144.594 9.18975C145.416 9.18975 146.205 8.86486 146.789 8.28582C147.361 7.69511 147.681 6.90516 147.681 6.083C147.681 5.26083 147.361 4.47088 146.789 3.88017C146.204 3.30388 145.415 2.98088 144.594 2.98088C143.772 2.98088 142.984 3.30388 142.399 3.88017C141.827 4.47088 141.507 5.26083 141.507 6.083C141.507 6.90516 141.827 7.69511 142.399 8.28582V8.28582Z" fill="white"/>
<path d="M158.421 2.16406V10.0035H157.399V3.74568L154.655 8.19706H154.53L151.786 3.74568V10.0035H150.749V2.16406H151.942L154.61 6.45919L157.277 2.16406H158.421Z" fill="white"/>
<path d="M167.499 2.16406V10.0035H166.462V3.16639H161.95V10.0035H160.913V2.16406H167.499Z" fill="white"/>
<path d="M176.732 2.16461H177.765V10.0041H176.732V8.47963C176.41 9.02733 175.946 9.47726 175.388 9.78134C174.83 10.0854 174.2 10.2322 173.565 10.2061C173.032 10.2145 172.503 10.1129 172.01 9.90768C171.518 9.70244 171.073 9.39795 170.703 9.01319C169.947 8.2313 169.523 7.18581 169.523 6.09768C169.523 5.00956 169.947 3.96407 170.703 3.18218C171.073 2.79815 171.518 2.49414 172.011 2.28896C172.503 2.08378 173.032 1.98179 173.565 1.9893C174.2 1.96314 174.83 2.10995 175.388 2.41403C175.946 2.71811 176.41 3.16804 176.732 3.71574V2.16461ZM171.45 8.28526C172.033 8.86407 172.822 9.18887 173.644 9.18887C174.465 9.18887 175.254 8.86407 175.837 8.28526C176.411 7.69594 176.733 6.90548 176.733 6.08244C176.733 5.2594 176.411 4.46894 175.837 3.87962C175.252 3.30357 174.464 2.98066 173.644 2.98066C172.823 2.98066 172.035 3.30357 171.45 3.87962C170.876 4.46894 170.554 5.2594 170.554 6.08244C170.554 6.90548 170.876 7.69594 171.45 8.28526Z" fill="white"/>
<path d="M185.811 2.16406H186.844V10.0035H185.811V6.57352H181.295V10.0035H180.266V2.16406H181.298V5.59407H185.815L185.811 2.16406Z" fill="white"/>
<path d="M195.045 2.16406H195.922V10.0035H194.889V3.96672L190.216 10.0035H189.336V2.16406H190.373V8.19706L195.045 2.16406Z" fill="white"/>
<path d="M204.123 2.16471H205V10.0042H203.963V3.96737L199.294 10.0042H198.414V2.16471H199.451V8.19771L204.123 2.16471ZM199.668 0.910856V0H203.746V0.910856H199.668Z" fill="white"/>
<path d="M85.6857 17.9688H88.9442V34.6119H85.6857V27.7214H79.5231V34.6119H76.2227V17.9688H79.5078V24.5696H85.6857V17.9688Z" fill="white"/>
<defs>
<linearGradient id="paint0_linear" x1="18.4345" y1="37.4442" x2="48.2526" y2="9.57733" gradientUnits="userSpaceOnUse">
<stop stop-color="#F27019"/>
<stop offset="0.54" stop-color="#ED450A"/>
<stop offset="0.81" stop-color="#AA1617"/>
</linearGradient>
<linearGradient id="paint1_linear" x1="38.3056" y1="19.8445" x2="55.3717" y2="0.613589" gradientUnits="userSpaceOnUse">
<stop stop-color="#F27019"/>
<stop offset="0.34" stop-color="#ED450A"/>
<stop offset="0.66" stop-color="#AA1617"/>
</linearGradient>
<linearGradient id="paint2_linear" x1="19.0556" y1="38.1113" x2="0" y2="57.1669" gradientUnits="userSpaceOnUse">
<stop offset="0.146312" stop-color="#F27019"/>
<stop offset="0.518857" stop-color="#ED450A"/>
<stop offset="0.915109" stop-color="#AA1617"/>
</linearGradient>
</defs>
</svg>
