<svg width="53" height="30" viewBox="0 0 53 30" fill="none" xmlns="http://www.w3.org/2000/svg">
<path d="M53 23.7125C50.8394 23.2973 48.8229 22.3054 47.1523 20.8361C45.4818 19.3668 44.2159 17.4717 43.4816 15.3407C43.4633 15.2868 43.4451 15.2324 43.4274 15.1785L41.6623 9.93946L34.9039 30H28.2063L21.4479 9.93946L14.6895 30H7.99198L7.12739 27.4322L0 6.27871C2.1619 6.69425 4.17957 7.68724 5.85065 9.15806C7.52172 10.6289 8.78743 12.5258 9.52084 14.6587C9.5385 14.71 9.55616 14.7614 9.5726 14.8127L11.3383 20.0605L18.0992 0H24.7967L31.5551 20.0605L38.3135 0H45.0111L45.8732 2.55846L53 23.7125Z" fill="#FFFCF9"/>
</svg>
